  0
SECTION
  2
HEADER
  9
$ACADVER
  1
AC1027
  9
$ACADMAINTVER
 70
   105
  9
$DWGCODEPAGE
  3
ANSI_1252
  9
$LASTSAVEDBY
  1
Usuario
  9
$REQUIREDVERSIONS
160
                 0
  9
$INSBASE
 10
0.0
 20
0.0
 30
0.0
  9
$EXTMIN
 10
67.15842996187939
 20
-108.2120792116921
 30
0.0
  9
$EXTMAX
 10
317.1584299618794
 20
223.7879207883079
 30
0.0
  9
$LIMMIN
 10
0.0
 20
0.0
  9
$LIMMAX
 10
12.0
 20
9.0
  9
$ORTHOMODE
 70
     0
  9
$REGENMODE
 70
     1
  9
$FILLMODE
 70
     1
  9
$QTEXTMODE
 70
     0
  9
$MIRRTEXT
 70
     0
  9
$LTSCALE
 40
1.0
  9
$ATTMODE
 70
     1
  9
$TEXTSIZE
 40
0.2
  9
$TRACEWID
 40
0.05
  9
$TEXTSTYLE
  7
Standard
  9
$CLAYER
  8
0
  9
$CELTYPE
  6
ByLayer
  9
$CECOLOR
 62
   256
  9
$CELTSCALE
 40
1.0
  9
$DISPSILH
 70
     0
  9
$DIMSCALE
 40
1.0
  9
$DIMASZ
 40
2.5
  9
$DIMEXO
 40
0.625
  9
$DIMDLI
 40
5.0
  9
$DIMRND
 40
0.0
  9
$DIMDLE
 40
0.0
  9
$DIMEXE
 40
1.25
  9
$DIMTP
 40
0.0
  9
$DIMTM
 40
0.0
  9
$DIMTXT
 40
2.5
  9
$DIMCEN
 40
0.09
  9
$DIMTSZ
 40
0.0
  9
$DIMTOL
 70
     0
  9
$DIMLIM
 70
     0
  9
$DIMTIH
 70
     0
  9
$DIMTOH
 70
     1
  9
$DIMSE1
 70
     0
  9
$DIMSE2
 70
     0
  9
$DIMTAD
 70
     1
  9
$DIMZIN
 70
     8
  9
$DIMBLK
  1

  9
$DIMASO
 70
     1
  9
$DIMSHO
 70
     1
  9
$DIMPOST
  1

  9
$DIMAPOST
  1

  9
$DIMALT
 70
     0
  9
$DIMALTD
 70
     2
  9
$DIMALTF
 40
25.4
  9
$DIMLFAC
 40
1.0
  9
$DIMTOFL
 70
     0
  9
$DIMTVP
 40
0.0
  9
$DIMTIX
 70
     0
  9
$DIMSOXD
 70
     0
  9
$DIMSAH
 70
     0
  9
$DIMBLK1
  1

  9
$DIMBLK2
  1

  9
$DIMSTYLE
  2
Standard
  9
$DIMCLRD
 70
     0
  9
$DIMCLRE
 70
     0
  9
$DIMCLRT
 70
     0
  9
$DIMTFAC
 40
1.0
  9
$DIMGAP
 40
0.625
  9
$DIMJUST
 70
     0
  9
$DIMSD1
 70
     0
  9
$DIMSD2
 70
     0
  9
$DIMTOLJ
 70
     1
  9
$DIMTZIN
 70
     0
  9
$DIMALTZ
 70
     0
  9
$DIMALTTZ
 70
     0
  9
$DIMUPT
 70
     0
  9
$DIMDEC
 70
     4
  9
$DIMTDEC
 70
     4
  9
$DIMALTU
 70
     2
  9
$DIMALTTD
 70
     2
  9
$DIMTXSTY
  7
Standard
  9
$DIMAUNIT
 70
     0
  9
$DIMADEC
 70
     0
  9
$DIMALTRND
 40
0.0
  9
$DIMAZIN
 70
     2
  9
$DIMDSEP
 70
    46
  9
$DIMATFIT
 70
     0
  9
$DIMFRAC
 70
     0
  9
$DIMLDRBLK
  1

  9
$DIMLUNIT
 70
     2
  9
$DIMLWD
 70
    -2
  9
$DIMLWE
 70
    -2
  9
$DIMTMOVE
 70
     0
  9
$DIMFXL
 40
1.0
  9
$DIMFXLON
 70
     0
  9
$DIMJOGANG
 40
0.7853981633974483
  9
$DIMTFILL
 70
     0
  9
$DIMTFILLCLR
 70
     0
  9
$DIMARCSYM
 70
     0
  9
$DIMLTYPE
  6

  9
$DIMLTEX1
  6

  9
$DIMLTEX2
  6

  9
$DIMTXTDIRECTION
 70
     0
  9
$LUNITS
 70
     2
  9
$LUPREC
 70
     4
  9
$SKETCHINC
 40
0.1
  9
$FILLETRAD
 40
0.0
  9
$AUNITS
 70
     0
  9
$AUPREC
 70
     0
  9
$MENU
  1
.
  9
$ELEVATION
 40
0.0
  9
$PELEVATION
 40
0.0
  9
$THICKNESS
 40
0.0
  9
$LIMCHECK
 70
     0
  9
$CHAMFERA
 40
0.0
  9
$CHAMFERB
 40
0.0
  9
$CHAMFERC
 40
0.0
  9
$CHAMFERD
 40
0.0
  9
$SKPOLY
 70
     0
  9
$TDCREATE
 40
2460710.825332095
  9
$TDUCREATE
 40
2460710.783665428
  9
$TDUPDATE
 40
2460710.825332998
  9
$TDUUPDATE
 40
2460710.783666331
  9
$TDINDWG
 40
0.0000000116
  9
$TDUSRTIMER
 40
0.0000000116
  9
$USRTIMER
 70
     1
  9
$ANGBASE
 50
0.0
  9
$ANGDIR
 70
     0
  9
$PDMODE
 70
     0
  9
$PDSIZE
 40
0.0
  9
$PLINEWID
 40
0.0
  9
$SPLFRAME
 70
     0
  9
$SPLINETYPE
 70
     6
  9
$SPLINESEGS
 70
     8
  9
$HANDSEED
  5
1C60
  9
$SURFTAB1
 70
     6
  9
$SURFTAB2
 70
     6
  9
$SURFTYPE
 70
     6
  9
$SURFU
 70
     6
  9
$SURFV
 70
     6
  9
$UCSBASE
  2

  9
$UCSNAME
  2

  9
$UCSORG
 10
0.0
 20
0.0
 30
0.0
  9
$UCSXDIR
 10
1.0
 20
0.0
 30
0.0
  9
$UCSYDIR
 10
0.0
 20
1.0
 30
0.0
  9
$UCSORTHOREF
  2

  9
$UCSORTHOVIEW
 70
     0
  9
$UCSORGTOP
 10
0.0
 20
0.0
 30
0.0
  9
$UCSORGBOTTOM
 10
0.0
 20
0.0
 30
0.0
  9
$UCSORGLEFT
 10
0.0
 20
0.0
 30
0.0
  9
$UCSORGRIGHT
 10
0.0
 20
0.0
 30
0.0
  9
$UCSORGFRONT
 10
0.0
 20
0.0
 30
0.0
  9
$UCSORGBACK
 10
0.0
 20
0.0
 30
0.0
  9
$PUCSBASE
  2

  9
$PUCSNAME
  2

  9
$PUCSORG
 10
0.0
 20
0.0
 30
0.0
  9
$PUCSXDIR
 10
1.0
 20
0.0
 30
0.0
  9
$PUCSYDIR
 10
0.0
 20
1.0
 30
0.0
  9
$PUCSORTHOREF
  2

  9
$PUCSORTHOVIEW
 70
     0
  9
$PUCSORGTOP
 10
0.0
 20
0.0
 30
0.0
  9
$PUCSORGBOTTOM
 10
0.0
 20
0.0
 30
0.0
  9
$PUCSORGLEFT
 10
0.0
 20
0.0
 30
0.0
  9
$PUCSORGRIGHT
 10
0.0
 20
0.0
 30
0.0
  9
$PUCSORGFRONT
 10
0.0
 20
0.0
 30
0.0
  9
$PUCSORGBACK
 10
0.0
 20
0.0
 30
0.0
  9
$USERI1
 70
     0
  9
$USERI2
 70
     0
  9
$USERI3
 70
     0
  9
$USERI4
 70
     0
  9
$USERI5
 70
     0
  9
$USERR1
 40
0.0
  9
$USERR2
 40
0.0
  9
$USERR3
 40
0.0
  9
$USERR4
 40
0.0
  9
$USERR5
 40
0.0
  9
$WORLDVIEW
 70
     1
  9
$SHADEDGE
 70
     3
  9
$SHADEDIF
 70
    70
  9
$TILEMODE
 70
     1
  9
$MAXACTVP
 70
    64
  9
$PINSBASE
 10
0.0
 20
0.0
 30
0.0
  9
$PLIMCHECK
 70
     0
  9
$PEXTMIN
 10
0.0
 20
0.0
 30
0.0
  9
$PEXTMAX
 10
0.0
 20
0.0
 30
0.0
  9
$PLIMMIN
 10
-20.0
 20
-7.5
  9
$PLIMMAX
 10
277.0
 20
202.5
  9
$UNITMODE
 70
     0
  9
$VISRETAIN
 70
     1
  9
$PLINEGEN
 70
     0
  9
$PSLTSCALE
 70
     1
  9
$TREEDEPTH
 70
  3020
  9
$CMLSTYLE
  2
Standard
  9
$CMLJUST
 70
     0
  9
$CMLSCALE
 40
1.0
  9
$PROXYGRAPHICS
 70
     1
  9
$MEASUREMENT
 70
     1
  9
$CELWEIGHT
370
    -1
  9
$ENDCAPS
280
     0
  9
$JOINSTYLE
280
     0
  9
$LWDISPLAY
290
     0
  9
$INSUNITS
 70
     4
  9
$HYPERLINKBASE
  1

  9
$STYLESHEET
  1

  9
$XEDIT
290
     1
  9
$CEPSNTYPE
380
     0
  9
$PSTYLEMODE
290
     1
  9
$FINGERPRINTGUID
  2
{50d43993-76ee-46ac-9cfe-6628d724f212}
  9
$VERSIONGUID
  2
{FAEB1C32-E019-11D5-929B-00C0DF256EC4}
  9
$EXTNAMES
290
     1
  9
$PSVPSCALE
 40
0.0
  9
$OLESTARTUP
290
     0
  9
$SORTENTS
280
   127
  9
$INDEXCTL
280
     0
  9
$HIDETEXT
280
     1
  9
$XCLIPFRAME
280
     2
  9
$HALOGAP
280
     0
  9
$OBSCOLOR
 70
   257
  9
$OBSLTYPE
280
     0
  9
$INTERSECTIONDISPLAY
280
     0
  9
$INTERSECTIONCOLOR
 70
   257
  9
$DIMASSOC
280
     2
  9
$PROJECTNAME
  1

  9
$CAMERADISPLAY
290
     0
  9
$LENSLENGTH
 40
50.0
  9
$CAMERAHEIGHT
 40
0.0
  9
$STEPSPERSEC
 40
2.0
  9
$STEPSIZE
 40
6.0
  9
$3DDWFPREC
 40
2.0
  9
$PSOLWIDTH
 40
0.25
  9
$PSOLHEIGHT
 40
4.0
  9
$LOFTANG1
 40
1.570796326794897
  9
$LOFTANG2
 40
1.570796326794897
  9
$LOFTMAG1
 40
0.0
  9
$LOFTMAG2
 40
0.0
  9
$LOFTPARAM
 70
     7
  9
$LOFTNORMALS
280
     1
  9
$LATITUDE
 40
37.795
  9
$LONGITUDE
 40
-122.394
  9
$NORTHDIRECTION
 40
0.0
  9
$TIMEZONE
 70
 -8000
  9
$LIGHTGLYPHDISPLAY
280
     1
  9
$TILEMODELIGHTSYNCH
280
     1
  9
$CMATERIAL
347
1BCA
  9
$SOLIDHIST
280
     0
  9
$SHOWHIST
280
     1
  9
$DWFFRAME
280
     2
  9
$DGNFRAME
280
     2
  9
$REALWORLDSCALE
290
     1
  9
$INTERFERECOLOR
 62
   256
  9
$CSHADOW
280
     0
  9
$SHADOWPLANELOCATION
 40
0.0
  0
ENDSEC
  0
SECTION
  2
CLASSES
  0
CLASS
  1
ACDBDICTIONARYWDFLT
  2
AcDbDictionaryWithDefault
  3
ObjectDBX Classes
 90
        0
 91
        3
280
     0
281
     0
  0
CLASS
  1
VISUALSTYLE
  2
AcDbVisualStyle
  3
ObjectDBX Classes
 90
     4095
 91
        3
280
     0
281
     0
  0
CLASS
  1
MATERIAL
  2
AcDbMaterial
  3
ObjectDBX Classes
 90
     1153
 91
        3
280
     0
281
     0
  0
CLASS
  1
SCALE
  2
AcDbScale
  3
ObjectDBX Classes
 90
     1153
 91
        3
280
     0
281
     0
  0
CLASS
  1
TABLESTYLE
  2
AcDbTableStyle
  3
ObjectDBX Classes
 90
     4095
 91
        3
280
     0
281
     0
  0
CLASS
  1
MLEADERSTYLE
  2
AcDbMLeaderStyle
  3
ACDB_MLEADERSTYLE_CLASS
 90
     4095
 91
        3
280
     0
281
     0
  0
CLASS
  1
SUN
  2
AcDbSun
  3
SCENEOE
 90
     1153
 91
        3
280
     0
281
     0
  0
CLASS
  1
RASTERVARIABLES
  2
AcDbRasterVariables
  3
ISM
 90
        0
 91
        3
280
     0
281
     0
  0
CLASS
  1
IMAGEDEF
  2
AcDbRasterImageDef
  3
ISM
 90
        0
 91
        3
280
     0
281
     0
  0
CLASS
  1
IMAGE
  2
AcDbRasterImage
  3
ISM
 90
      127
 91
        4
280
     0
281
     1
  0
CLASS
  1
IMAGEDEF_REACTOR
  2
AcDbRasterImageDefReactor
  3
ISM
 90
        1
 91
        3
280
     0
281
     0
  0
CLASS
  1
DICTIONARYVAR
  2
AcDbDictionaryVar
  3
ObjectDBX Classes
 90
        0
 91
        3
280
     0
281
     0
  0
CLASS
  1
CELLSTYLEMAP
  2
AcDbCellStyleMap
  3
ObjectDBX Classes
 90
     1152
 91
        3
280
     0
281
     0
  0
ENDSEC
  0
SECTION
  2
TABLES
  0
TABLE
  2
VPORT
  5
1B8F
330
0
100
AcDbSymbolTable
 70
     1
  0
VPORT
  5
1BAF
330
1B8F
100
AcDbSymbolTableRecord
100
AcDbViewportTableRecord
  2
*Active
 70
     0
 10
0.0
 20
0.0
 11
1.0
 21
1.0
 12
192.1584299618794
 22
57.78792078830793
 13
0.0
 23
0.0
 14
0.5
 24
0.5
 15
0.5
 25
0.5
 16
0.0
 26
0.0
 36
1.0
 17
0.0
 27
0.0
 37
0.0
 40
370.2648741418764
 41
1.950718685831622
 42
50.0
 43
0.0
 44
0.0
 50
0.0
 51
0.0
 71
     0
 72
   100
 73
     1
 74
     3
 75
     0
 76
     0
 77
     0
 78
     0
281
     0
 65
     1
110
0.0
120
0.0
130
0.0
111
1.0
121
0.0
131
0.0
112
0.0
122
1.0
132
0.0
 79
     0
146
0.0
348
1BB5
 60
     3
 61
     5
292
     1
282
     1
141
0.0
142
0.0
 63
   250
361
1BE3
  0
ENDTAB
  0
TABLE
  2
LTYPE
  5
1B8C
330
0
100
AcDbSymbolTable
 70
    48
  0
LTYPE
  5
1B9A
330
1B8C
100
AcDbSymbolTableRecord
100
AcDbLinetypeTableRecord
  2
ByBlock
 70
     0
  3

 72
    65
 73
     0
 40
0.0
  0
LTYPE
  5
1B9B
330
1B8C
100
AcDbSymbolTableRecord
100
AcDbLinetypeTableRecord
  2
ByLayer
 70
     0
  3

 72
    65
 73
     0
 40
0.0
  0
LTYPE
  5
1B9C
330
1B8C
100
AcDbSymbolTableRecord
100
AcDbLinetypeTableRecord
  2
Continuous
 70
     0
  3
Solid line
 72
    65
 73
     0
 40
0.0
  0
LTYPE
  5
1C1E
330
1B8C
100
AcDbSymbolTableRecord
100
AcDbLinetypeTableRecord
  2
DIVIDEX2
 70
     0
  3
Divide (2x) ________  .  .  ________  .  .  _
 72
    65
 73
     6
 40
63.5
 49
25.4
 74
     0
 49
-12.7
 74
     0
 49
0.0
 74
     0
 49
-12.7
 74
     0
 49
0.0
 74
     0
 49
-12.7
 74
     0
  0
LTYPE
  5
1C1F
330
1B8C
100
AcDbSymbolTableRecord
100
AcDbLinetypeTableRecord
  2
DIVIDE2
 70
     0
  3
Divide (.5x) __..__..__..__..__..__..__..__.._
 72
    65
 73
     6
 40
15.875
 49
6.35
 74
     0
 49
-3.175
 74
     0
 49
0.0
 74
     0
 49
-3.175
 74
     0
 49
0.0
 74
     0
 49
-3.175
 74
     0
  0
LTYPE
  5
1C20
330
1B8C
100
AcDbSymbolTableRecord
100
AcDbLinetypeTableRecord
  2
DOT2
 70
     0
  3
Dot (.5x) ........................................
 72
    65
 73
     2
 40
3.175
 49
0.0
 74
     0
 49
-3.175
 74
     0
  0
LTYPE
  5
1C21
330
1B8C
100
AcDbSymbolTableRecord
100
AcDbLinetypeTableRecord
  2
DOT
 70
     0
  3
Dot . . . . . . . . . . . . . . . . . . . . . . . .
 72
    65
 73
     2
 40
6.35
 49
0.0
 74
     0
 49
-6.35
 74
     0
  0
LTYPE
  5
1C22
330
1B8C
100
AcDbSymbolTableRecord
100
AcDbLinetypeTableRecord
  2
DASHED2
 70
     0
  3
Dashed (.5x) _ _ _ _ _ _ _ _ _ _ _ _ _ _ _ _ _ 
 72
    65
 73
     2
 40
9.524999999999999
 49
6.35
 74
     0
 49
-3.175
 74
     0
  0
LTYPE
  5
1C23
330
1B8C
100
AcDbSymbolTableRecord
100
AcDbLinetypeTableRecord
  2
DASHED
 70
     0
  3
Dashed __ __ __ __ __ __ __ __ __ __ __ __ __ _
 72
    65
 73
     2
 40
19.05
 49
12.7
 74
     0
 49
-6.35
 74
     0
  0
LTYPE
  5
1C24
330
1B8C
100
AcDbSymbolTableRecord
100
AcDbLinetypeTableRecord
  2
DIVIDE
 70
     0
  3
Divide ____ . . ____ . . ____ . . ____ . . ____
 72
    65
 73
     6
 40
31.75
 49
12.7
 74
     0
 49
-6.35
 74
     0
 49
0.0
 74
     0
 49
-6.35
 74
     0
 49
0.0
 74
     0
 49
-6.35
 74
     0
  0
LTYPE
  5
1C25
330
1B8C
100
AcDbSymbolTableRecord
100
AcDbLinetypeTableRecord
  2
DASHEDX2
 70
     0
  3
Dashed (2x) ____  ____  ____  ____  ____  ___
 72
    65
 73
     2
 40
38.09999999999999
 49
25.4
 74
     0
 49
-12.7
 74
     0
  0
LTYPE
  5
1C27
330
1B8C
100
AcDbSymbolTableRecord
100
AcDbLinetypeTableRecord
  2
GAS_LINE
 70
     0
  3
Gas line ----GAS----GAS----GAS----GAS----GAS----GAS--
 72
    65
 73
     3
 40
24.13
 49
12.7
 74
     0
 49
-5.08
 74
     2
 75
     0
340
1C26
 46
2.54
 50
0.0
 44
-2.54
 45
-1.27
  9
GAS
 49
-6.35
 74
     0
  0
LTYPE
  5
1C29
330
1B8C
100
AcDbSymbolTableRecord
100
AcDbLinetypeTableRecord
  2
FENCELINE2
 70
     0
  3
Fenceline square ----[]-----[]----[]-----[]----[]---
 72
    65
 73
     4
 40
36.83
 49
6.35
 74
     0
 49
-2.54
 74
     2
 75
     0
340
1C28
 46
2.54
 50
0.0
 44
-2.54
 45
0.0
  9
BOX
 49
-2.54
 74
     0
 49
25.4
 74
     0
  0
LTYPE
  5
1C2A
330
1B8C
100
AcDbSymbolTableRecord
100
AcDbLinetypeTableRecord
  2
HIDDEN2
 70
     0
  3
Hidden (.5x) _ _ _ _ _ _ _ _ _ _ _ _ _ _ _ _ _ 
 72
    65
 73
     2
 40
4.762499999999999
 49
3.175
 74
     0
 49
-1.5875
 74
     0
  0
LTYPE
  5
1C2B
330
1B8C
100
AcDbSymbolTableRecord
100
AcDbLinetypeTableRecord
  2
HIDDEN
 70
     0
  3
Hidden __ __ __ __ __ __ __ __ __ __ __ __ __ __
 72
    65
 73
     2
 40
9.524999999999999
 49
6.35
 74
     0
 49
-3.175
 74
     0
  0
LTYPE
  5
1C2D
330
1B8C
100
AcDbSymbolTableRecord
100
AcDbLinetypeTableRecord
  2
DRAINAGE
 70
     0
  3
Drainage ---->---->---->----
 72
    65
 73
     2
 40
10.16
 49
5.08
 74
     2
 75
     0
340
1C2C
 46
2.54
 50
180.0
 44
0.0
 45
0.0
  9
RIGHT_ARROW
 49
5.08
 74
     0
  0
LTYPE
  5
1C2E
330
1B8C
100
AcDbSymbolTableRecord
100
AcDbLinetypeTableRecord
  2
DOTX2
 70
     0
  3
Dot (2x) .  .  .  .  .  .  .  .  .  .  .  .  .  .
 72
    65
 73
     2
 40
12.7
 49
0.0
 74
     0
 49
-12.7
 74
     0
  0
LTYPE
  5
1C2F
330
1B8C
100
AcDbSymbolTableRecord
100
AcDbLinetypeTableRecord
  2
FENCELINE1
 70
     0
  3
Fenceline circle ----0-----0----0-----0----0-----0--
 72
    65
 73
     4
 40
36.83
 49
6.35
 74
     0
 49
-2.54
 74
     2
 75
     0
340
1C28
 46
2.54
 50
0.0
 44
-2.54
 45
0.0
  9
CIRC1
 49
-2.54
 74
     0
 49
25.4
 74
     0
  0
LTYPE
  5
1C30
330
1B8C
100
AcDbSymbolTableRecord
100
AcDbLinetypeTableRecord
  2
DRAINAGE2
 70
     0
  3
Drainage reversed----<----<----<----
 72
    65
 73
     2
 40
10.16
 49
5.08
 74
     2
 75
     0
340
1C2C
 46
2.54
 50
0.0
 44
0.0
 45
0.0
  9
RIGHT_ARROW
 49
5.08
 74
     0
  0
LTYPE
  5
1C31
330
1B8C
100
AcDbSymbolTableRecord
100
AcDbLinetypeTableRecord
  2
ACAD_ISO15W100
 70
     0
  3
ISO double-dash triple-dot __ __ . . . __ __ . .
 72
    65
 73
    10
 40
39.0
 49
12.0
 74
     0
 49
-3.0
 74
     0
 49
12.0
 74
     0
 49
-3.0
 74
     0
 49
0.0
 74
     0
 49
-3.0
 74
     0
 49
0.0
 74
     0
 49
-3.0
 74
     0
 49
0.0
 74
     0
 49
-3.0
 74
     0
  0
LTYPE
  5
1C32
330
1B8C
100
AcDbSymbolTableRecord
100
AcDbLinetypeTableRecord
  2
ACAD_ISO14W100
 70
     0
  3
ISO dash triple-dot __ . . . __ . . . __ . . . _
 72
    65
 73
     8
 40
24.0
 49
12.0
 74
     0
 49
-3.0
 74
     0
 49
0.0
 74
     0
 49
-3.0
 74
     0
 49
0.0
 74
     0
 49
-3.0
 74
     0
 49
0.0
 74
     0
 49
-3.0
 74
     0
  0
LTYPE
  5
1C33
330
1B8C
100
AcDbSymbolTableRecord
100
AcDbLinetypeTableRecord
  2
BORDER
 70
     0
  3
Border __ __ . __ __ . __ __ . __ __ . __ __ .
 72
    65
 73
     6
 40
44.45
 49
12.7
 74
     0
 49
-6.35
 74
     0
 49
12.7
 74
     0
 49
-6.35
 74
     0
 49
0.0
 74
     0
 49
-6.35
 74
     0
  0
LTYPE
  5
1C34
330
1B8C
100
AcDbSymbolTableRecord
100
AcDbLinetypeTableRecord
  2
BATTING
 70
     0
  3
Batting SSSSSSSSSSSSSSSSSSSSSSSSSSSSSSSSSSSSSSSSSSSSSSS
 72
    65
 73
     4
 40
10.16254
 49
0.00254
 74
     0
 49
-2.54
 74
     2
 75
     0
340
1C28
 46
2.54
 50
0.0
 44
-2.54
 45
0.0
  9
BAT
 49
-5.08
 74
     2
 75
     0
340
1C28
 46
2.54
 50
180.0
 44
2.54
 45
0.0
  9
BAT
 49
-2.54
 74
     0
  0
LTYPE
  5
1C35
330
1B8C
100
AcDbSymbolTableRecord
100
AcDbLinetypeTableRecord
  2
ACAD_ISO11W100
 70
     0
  3
ISO double-dash dot __ __ . __ __ . __ __ . __ _
 72
    65
 73
     6
 40
33.0
 49
12.0
 74
     0
 49
-3.0
 74
     0
 49
12.0
 74
     0
 49
-3.0
 74
     0
 49
0.0
 74
     0
 49
-3.0
 74
     0
  0
LTYPE
  5
1C36
330
1B8C
100
AcDbSymbolTableRecord
100
AcDbLinetypeTableRecord
  2
ACAD_ISO10W100
 70
     0
  3
ISO dash dot __ . __ . __ . __ . __ . __ . __ . 
 72
    65
 73
     4
 40
18.0
 49
12.0
 74
     0
 49
-3.0
 74
     0
 49
0.0
 74
     0
 49
-3.0
 74
     0
  0
LTYPE
  5
1C37
330
1B8C
100
AcDbSymbolTableRecord
100
AcDbLinetypeTableRecord
  2
ACAD_ISO13W100
 70
     0
  3
ISO double-dash double-dot __ __ . . __ __ . . _
 72
    65
 73
     8
 40
36.0
 49
12.0
 74
     0
 49
-3.0
 74
     0
 49
12.0
 74
     0
 49
-3.0
 74
     0
 49
0.0
 74
     0
 49
-3.0
 74
     0
 49
0.0
 74
     0
 49
-3.0
 74
     0
  0
LTYPE
  5
1C38
330
1B8C
100
AcDbSymbolTableRecord
100
AcDbLinetypeTableRecord
  2
ACAD_ISO12W100
 70
     0
  3
ISO dash double-dot __ . . __ . . __ . . __ . . 
 72
    65
 73
     6
 40
21.0
 49
12.0
 74
     0
 49
-3.0
 74
     0
 49
0.0
 74
     0
 49
-3.0
 74
     0
 49
0.0
 74
     0
 49
-3.0
 74
     0
  0
LTYPE
  5
1C39
330
1B8C
100
AcDbSymbolTableRecord
100
AcDbLinetypeTableRecord
  2
DASHDOT
 70
     0
  3
Dash dot __ . __ . __ . __ . __ . __ . __ . __
 72
    65
 73
     4
 40
25.4
 49
12.7
 74
     0
 49
-6.35
 74
     0
 49
0.0
 74
     0
 49
-6.35
 74
     0
  0
LTYPE
  5
1C3A
330
1B8C
100
AcDbSymbolTableRecord
100
AcDbLinetypeTableRecord
  2
CENTERX2
 70
     0
  3
Center (2x) ________  __  ________  __  _____
 72
    65
 73
     4
 40
101.6
 49
63.5
 74
     0
 49
-12.7
 74
     0
 49
12.7
 74
     0
 49
-12.7
 74
     0
  0
LTYPE
  5
1C3B
330
1B8C
100
AcDbSymbolTableRecord
100
AcDbLinetypeTableRecord
  2
DASHDOTX2
 70
     0
  3
Dash dot (2x) ____  .  ____  .  ____  .  ___
 72
    65
 73
     4
 40
50.8
 49
25.4
 74
     0
 49
-12.7
 74
     0
 49
0.0
 74
     0
 49
-12.7
 74
     0
  0
LTYPE
  5
1C3C
330
1B8C
100
AcDbSymbolTableRecord
100
AcDbLinetypeTableRecord
  2
DASHDOT2
 70
     0
  3
Dash dot (.5x) _._._._._._._._._._._._._._._.
 72
    65
 73
     4
 40
12.7
 49
6.35
 74
     0
 49
-3.175
 74
     0
 49
0.0
 74
     0
 49
-3.175
 74
     0
  0
LTYPE
  5
1C3D
330
1B8C
100
AcDbSymbolTableRecord
100
AcDbLinetypeTableRecord
  2
BORDERX2
 70
     0
  3
Border (2x) ____  ____  .  ____  ____  .  ___
 72
    65
 73
     6
 40
88.89999999999999
 49
25.4
 74
     0
 49
-12.7
 74
     0
 49
25.4
 74
     0
 49
-12.7
 74
     0
 49
0.0
 74
     0
 49
-12.7
 74
     0
  0
LTYPE
  5
1C3E
330
1B8C
100
AcDbSymbolTableRecord
100
AcDbLinetypeTableRecord
  2
BORDER2
 70
     0
  3
Border (.5x) __.__.__.__.__.__.__.__.__.__.__.
 72
    65
 73
     6
 40
22.225
 49
6.35
 74
     0
 49
-3.175
 74
     0
 49
6.35
 74
     0
 49
-3.175
 74
     0
 49
0.0
 74
     0
 49
-3.175
 74
     0
  0
LTYPE
  5
1C3F
330
1B8C
100
AcDbSymbolTableRecord
100
AcDbLinetypeTableRecord
  2
CENTER2
 70
     0
  3
Center (.5x) ___ _ ___ _ ___ _ ___ _ ___ _ ___
 72
    65
 73
     4
 40
28.575
 49
19.05
 74
     0
 49
-3.175
 74
     0
 49
3.175
 74
     0
 49
-3.175
 74
     0
  0
LTYPE
  5
1C40
330
1B8C
100
AcDbSymbolTableRecord
100
AcDbLinetypeTableRecord
  2
CENTER
 70
     0
  3
Center ____ _ ____ _ ____ _ ____ _ ____ _ ____
 72
    65
 73
     4
 40
50.8
 49
31.75
 74
     0
 49
-6.35
 74
     0
 49
6.35
 74
     0
 49
-6.35
 74
     0
  0
LTYPE
  5
1C41
330
1B8C
100
AcDbSymbolTableRecord
100
AcDbLinetypeTableRecord
  2
ACAD_ISO07W100
 70
     0
  3
ISO dot . . . . . . . . . . . . . . . . . . . . 
 72
    65
 73
     2
 40
3.0
 49
0.0
 74
     0
 49
-3.0
 74
     0
  0
LTYPE
  5
1C42
330
1B8C
100
AcDbSymbolTableRecord
100
AcDbLinetypeTableRecord
  2
ACAD_ISO06W100
 70
     0
  3
ISO long-dash triple-dot ____ ... ____ ... ____
 72
    65
 73
     8
 40
36.0
 49
24.0
 74
     0
 49
-3.0
 74
     0
 49
0.0
 74
     0
 49
-3.0
 74
     0
 49
0.0
 74
     0
 49
-3.0
 74
     0
 49
0.0
 74
     0
 49
-3.0
 74
     0
  0
LTYPE
  5
1C43
330
1B8C
100
AcDbSymbolTableRecord
100
AcDbLinetypeTableRecord
  2
ACAD_ISO09W100
 70
     0
  3
ISO long-dash double-short-dash ____ __ __ ____
 72
    65
 73
     6
 40
45.0
 49
24.0
 74
     0
 49
-3.0
 74
     0
 49
6.0
 74
     0
 49
-3.0
 74
     0
 49
6.0
 74
     0
 49
-3.0
 74
     0
  0
LTYPE
  5
1C44
330
1B8C
100
AcDbSymbolTableRecord
100
AcDbLinetypeTableRecord
  2
ACAD_ISO08W100
 70
     0
  3
ISO long-dash short-dash ____ __ ____ __ ____ _
 72
    65
 73
     4
 40
36.0
 49
24.0
 74
     0
 49
-3.0
 74
     0
 49
6.0
 74
     0
 49
-3.0
 74
     0
  0
LTYPE
  5
1C45
330
1B8C
100
AcDbSymbolTableRecord
100
AcDbLinetypeTableRecord
  2
ACAD_ISO03W100
 70
     0
  3
ISO dash space __    __    __    __    __    __
 72
    65
 73
     2
 40
30.0
 49
12.0
 74
     0
 49
-18.0
 74
     0
  0
LTYPE
  5
1C46
330
1B8C
100
AcDbSymbolTableRecord
100
AcDbLinetypeTableRecord
  2
ACAD_ISO02W100
 70
     0
  3
ISO dash __ __ __ __ __ __ __ __ __ __ __ __ __
 72
    65
 73
     2
 40
15.0
 49
12.0
 74
     0
 49
-3.0
 74
     0
  0
LTYPE
  5
1C47
330
1B8C
100
AcDbSymbolTableRecord
100
AcDbLinetypeTableRecord
  2
ACAD_ISO05W100
 70
     0
  3
ISO long-dash double-dot ____ .. ____ .. ____ . 
 72
    65
 73
     6
 40
33.0
 49
24.0
 74
     0
 49
-3.0
 74
     0
 49
0.0
 74
     0
 49
-3.0
 74
     0
 49
0.0
 74
     0
 49
-3.0
 74
     0
  0
LTYPE
  5
1C48
330
1B8C
100
AcDbSymbolTableRecord
100
AcDbLinetypeTableRecord
  2
ACAD_ISO04W100
 70
     0
  3
ISO long-dash dot ____ . ____ . ____ . ____ . _
 72
    65
 73
     4
 40
30.0
 49
24.0
 74
     0
 49
-3.0
 74
     0
 49
0.0
 74
     0
 49
-3.0
 74
     0
  0
LTYPE
  5
1C49
330
1B8C
100
AcDbSymbolTableRecord
100
AcDbLinetypeTableRecord
  2
TRACKS
 70
     0
  3
Tracks -|-|-|-|-|-|-|-|-|-|-|-|-|-|-|-|-|-|-|-|-|-|-|-|-
 72
    65
 73
     2
 40
7.62
 49
3.81
 74
     2
 75
     0
340
1C28
 46
6.35
 50
0.0
 44
0.0
 45
0.0
  9
TRACK1
 49
3.81
 74
     0
  0
LTYPE
  5
1C4A
330
1B8C
100
AcDbSymbolTableRecord
100
AcDbLinetypeTableRecord
  2
PHANTOMX2
 70
     0
  3
Phantom (2x) ____________    ____    ____   _
 72
    65
 73
     6
 40
127.0
 49
63.5
 74
     0
 49
-12.7
 74
     0
 49
12.7
 74
     0
 49
-12.7
 74
     0
 49
12.7
 74
     0
 49
-12.7
 74
     0
  0
LTYPE
  5
1C4B
330
1B8C
100
AcDbSymbolTableRecord
100
AcDbLinetypeTableRecord
  2
ZIGZAG
 70
     0
  3
Zig zag /\/\/\/\/\/\/\/\/\/\/\/\/\/\/\/\/\/\/\/\/\/\/\/
 72
    65
 73
     4
 40
20.32254
 49
0.00254
 74
     0
 49
-5.08
 74
     2
 75
     0
340
1C28
 46
5.08
 50
0.0
 44
-5.08
 45
0.0
  9
ZIG
 49
-10.16
 74
     2
 75
     0
340
1C28
 46
5.08
 50
180.0
 44
5.08
 45
0.0
  9
ZIG
 49
-5.08
 74
     0
  0
LTYPE
  5
1C4C
330
1B8C
100
AcDbSymbolTableRecord
100
AcDbLinetypeTableRecord
  2
HOT_WATER_SUPPLY
 70
     0
  3
Hot water supply ---- HW ---- HW ---- HW ----
 72
    65
 73
     3
 40
22.86
 49
12.7
 74
     0
 49
-5.08
 74
     2
 75
     0
340
1C26
 46
2.54
 50
0.0
 44
-2.54
 45
-1.27
  9
HW
 49
-5.08
 74
     0
  0
LTYPE
  5
1C4D
330
1B8C
100
AcDbSymbolTableRecord
100
AcDbLinetypeTableRecord
  2
HIDDENX2
 70
     0
  3
Hidden (2x) ____ ____ ____ ____ ____ ____ ____ 
 72
    65
 73
     2
 40
19.05
 49
12.7
 74
     0
 49
-6.35
 74
     0
  0
LTYPE
  5
1C4E
330
1B8C
100
AcDbSymbolTableRecord
100
AcDbLinetypeTableRecord
  2
PHANTOM2
 70
     0
  3
Phantom (.5x) ___ _ _ ___ _ _ ___ _ _ ___ _ _
 72
    65
 73
     6
 40
31.75
 49
15.875
 74
     0
 49
-3.175
 74
     0
 49
3.175
 74
     0
 49
-3.175
 74
     0
 49
3.175
 74
     0
 49
-3.175
 74
     0
  0
LTYPE
  5
1C4F
330
1B8C
100
AcDbSymbolTableRecord
100
AcDbLinetypeTableRecord
  2
PHANTOM
 70
     0
  3
Phantom ______  __  __  ______  __  __  ______ 
 72
    65
 73
     6
 40
63.50000000000001
 49
31.75
 74
     0
 49
-6.35
 74
     0
 49
6.35
 74
     0
 49
-6.35
 74
     0
 49
6.35
 74
     0
 49
-6.35
 74
     0
  0
ENDTAB
  0
TABLE
  2
LAYER
  5
1B8A
330
0
100
AcDbSymbolTable
 70
     2
  0
LAYER
  5
1B97
330
1B8A
100
AcDbSymbolTableRecord
100
AcDbLayerTableRecord
  2
0
 70
     0
 62
     7
  6
Continuous
370
    25
390
1B96
347
1BCC
348
0
  0
LAYER
  5
1C50
330
1B8A
100
AcDbSymbolTableRecord
100
AcDbLayerTableRecord
  2
Defpoints
 70
     0
 62
     7
  6
Continuous
290
     0
370
    -3
390
1B96
347
1BCC
348
0
  0
ENDTAB
  0
TABLE
  2
STYLE
  5
1B8B
330
0
100
AcDbSymbolTable
 70
     5
  0
STYLE
  5
1B98
330
1B8B
100
AcDbSymbolTableRecord
100
AcDbTextStyleTableRecord
  2
Standard
 70
     0
 40
0.0
 41
1.0
 50
0.0
 71
     0
 42
0.2
  3
txt
  4

  0
STYLE
  5
1C26
330
1B8B
100
AcDbSymbolTableRecord
100
AcDbTextStyleTableRecord
  2
textstyle0
 70
     0
 40
0.0
 41
1.0
 50
0.0
 71
     0
 42
0.2
  3
STANDARD
  4

  0
STYLE
  5
1C28
330
1B8B
100
AcDbSymbolTableRecord
100
AcDbTextStyleTableRecord
  2
textstyle1
 70
     0
 40
0.0
 41
1.0
 50
0.0
 71
     0
 42
0.2
  3
ltypeshp.shx
  4

  0
STYLE
  5
1C2C
330
1B8B
100
AcDbSymbolTableRecord
100
AcDbTextStyleTableRecord
  2
textstyle2
 70
     0
 40
0.0
 41
1.0
 50
0.0
 71
     0
 42
0.2
  3
qcadshp.shx
  4

  0
STYLE
  5
1C53
330
1B8B
100
AcDbSymbolTableRecord
100
AcDbTextStyleTableRecord
  2
textstyle3
 70
     0
 40
0.0
 41
1.0
 50
0.0
 71
     0
 42
0.2
  3

  4

1001
ACAD
1000
Standard
1071
        0
  0
ENDTAB
  0
TABLE
  2
VIEW
  5
1B8D
330
0
100
AcDbSymbolTable
 70
     0
  0
ENDTAB
  0
TABLE
  2
UCS
  5
1B8E
330
0
100
AcDbSymbolTable
 70
     0
  0
ENDTAB
  0
TABLE
  2
APPID
  5
1B90
330
0
100
AcDbSymbolTable
 70
     2
  0
APPID
  5
1B99
330
1B90
100
AcDbSymbolTableRecord
100
AcDbRegAppTableRecord
  2
ACAD
 70
     0
  0
APPID
  5
1BE4
330
1B90
100
AcDbSymbolTableRecord
100
AcDbRegAppTableRecord
  2
QCAD
 70
     0
  0
ENDTAB
  0
TABLE
  2
DIMSTYLE
  5
1B91
330
0
100
AcDbSymbolTable
 70
     2
100
AcDbDimStyleTable
  0
DIMSTYLE
105
1BAD
330
1B91
100
AcDbSymbolTableRecord
100
AcDbDimStyleTableRecord
  2
Standard
 70
     0
178
     0
340
1B98
  0
DIMSTYLE
105
1C1D
102
{ACAD_REACTORS
330
15B0
330
15B1
330
15B2
330
15B3
330
15B4
330
15B5
330
15B8
330
172E
330
172F
330
182E
330
1830
330
19E0
330
19E1
102
}
330
1B91
100
AcDbSymbolTableRecord
100
AcDbDimStyleTableRecord
  2
QCADDimStyle
 70
     0
 41
2.5
 42
0.625
 43
5.0
 44
1.25
 73
     0
 77
     1
 78
     8
 79
     2
140
2.5
147
0.625
178
     0
279
     2
340
1B98
  0
ENDTAB
  0
TABLE
  2
BLOCK_RECORD
  5
1B89
330
0
100
AcDbSymbolTable
 70
     0
  0
BLOCK_RECORD
  5
1BA5
330
1B89
100
AcDbSymbolTableRecord
100
AcDbBlockTableRecord
  2
*Model_Space
340
1BA8
 70
     0
280
     1
281
     0
  0
BLOCK_RECORD
  5
1BA1
330
1B89
100
AcDbSymbolTableRecord
100
AcDbBlockTableRecord
  2
*Paper_Space
340
1BA4
 70
     0
280
     1
281
     0
  0
ENDTAB
  0
ENDSEC
  0
SECTION
  2
BLOCKS
  0
BLOCK
  5
1BA6
330
1BA5
100
AcDbEntity
  8
0
100
AcDbBlockBegin
  2
*Model_Space
 70
     0
 10
0.0
 20
0.0
 30
0.0
  3
*Model_Space
  1

  0
ENDBLK
  5
1BA7
330
1BA5
100
AcDbEntity
  8
0
100
AcDbBlockEnd
  0
BLOCK
  5
1BA2
330
1BA1
100
AcDbEntity
 67
     1
  8
0
100
AcDbBlockBegin
  2
*Paper_Space
 70
     0
 10
0.0
 20
0.0
 30
0.0
  3
*Paper_Space
  1

  0
ENDBLK
  5
1BA3
330
1BA1
100
AcDbEntity
 67
     1
  8
0
100
AcDbBlockEnd
  0
ENDSEC
  0
SECTION
  2
ENTITIES
  0
LINE
  5
39
330
1BA5
100
AcDbEntity
  8
0
100
AcDbLine
 10
68.15842996187939
 20
-107.2120792116921
 30
0.0
 11
316.1584299618794
 21
-107.2120792116921
 31
0.0
  0
LINE
  5
3A
330
1BA5
100
AcDbEntity
  8
0
100
AcDbLine
 10
276.1584299618794
 20
-77.21207921169213
 30
0.0
 11
316.1584299618794
 21
-77.21207921169213
 31
0.0
  0
LINE
  5
3B
330
1BA5
100
AcDbEntity
  8
0
100
AcDbLine
 10
316.1584299618794
 20
-107.2120792116921
 30
0.0
 11
316.1584299618794
 21
222.7879207883079
 31
0.0
  0
LINE
  5
3C
330
1BA5
100
AcDbEntity
  8
0
100
AcDbLine
 10
196.1584299618794
 20
-67.21207921169213
 30
0.0
 11
316.1584299618794
 21
-67.21207921169213
 31
0.0
  0
LINE
  5
3D
330
1BA5
100
AcDbEntity
  8
0
100
AcDbLine
 10
276.1584299618794
 20
-87.21207921169213
 30
0.0
 11
316.1584299618794
 21
-87.21207921169213
 31
0.0
  0
LINE
  5
3E
330
1BA5
100
AcDbEntity
  8
0
100
AcDbLine
 10
276.1584299618794
 20
-97.21207921169213
 30
0.0
 11
316.1584299618794
 21
-97.21207921169213
 31
0.0
  0
LINE
  5
3F
330
1BA5
100
AcDbEntity
  8
0
100
AcDbLine
 10
196.1584299618794
 20
-107.2120792116921
 30
0.0
 11
196.1584299618794
 21
-47.21207921169213
 31
0.0
  0
LINE
  5
40
330
1BA5
100
AcDbEntity
  8
0
100
AcDbLine
 10
196.1584299618794
 20
-47.21207921169213
 30
0.0
 11
316.1584299618794
 21
-47.21207921169213
 31
0.0
  0
LINE
  5
41
330
1BA5
100
AcDbEntity
  8
0
100
AcDbLine
 10
276.1584299618794
 20
-67.21207921169213
 30
0.0
 11
276.1584299618794
 21
-107.2120792116921
 31
0.0
  0
LINE
  5
42
330
1BA5
100
AcDbEntity
  8
0
100
AcDbLine
 10
196.1584299618794
 20
-57.21207921169213
 30
0.0
 11
316.1584299618794
 21
-57.21207921169213
 31
0.0
  0
LINE
  5
43
330
1BA5
100
AcDbEntity
  8
0
100
AcDbLine
 10
296.1584299618794
 20
-97.21207921169213
 30
0.0
 11
296.1584299618794
 21
-107.2120792116921
 31
0.0
  0
MTEXT
  5
44
330
1BA5
100
AcDbEntity
  8
0
100
AcDbMText
 10
240.0
 20
-50.0
 30
0.0
 40
2.5
 41
0.0
 46
0.0
 71
     2
 72
     1
  1
\H4;Snare Drum Panela Erica Synths
  7
textstyle3
 73
     1
 44
1.0
  0
IMAGE
  5
45
330
1BA5
100
AcDbEntity
  8
0
160
               140
310
8C00000001000000840000000600000005000000F6FBF22BB7286B40687D8217820D59C00000000000000000FB7DF9955B147040687D8217820D59C00000000000000000FB7DF9955B147040687D8217828D51C00000000000000000F7FBF22BB7286B40687D8217828D51C00000000000000000F6FBF22BB7286B40687D82
310
17820D59C00000000000000000
100
AcDbRasterImage
 90
        0
 10
217.2723598237787
 20
-100.211065175468
 30
0.0
 11
0.1877934272300469
 21
0.0
 31
0.0
 12
7.750929108527552E-18
 22
0.1265822784810127
 32
0.0
 13
213.0
 23
237.0
340
1C55
 70
     7
280
     0
281
    50
282
    50
283
     0
360
1C56
 71
     1
 91
        2
 14
-0.5
 24
-0.5
 14
212.5
 24
236.5
290
     0
  0
MTEXT
  5
46
330
1BA5
100
AcDbEntity
  8
0
100
AcDbMText
 10
236.4644028113674
 20
-101.5243361984385
 30
0.0
 40
2.5
 41
0.0
 46
0.0
 71
     2
 72
     1
  1
\H4;Elektronika
  7
textstyle3
 73
     1
 44
1.0
  0
MTEXT
  5
47
330
1BA5
100
AcDbEntity
  8
0
100
AcDbMText
 10
296.9330527614354
 20
-70.77052110355854
 30
0.0
 40
2.5
 41
0.0
 46
0.0
 71
     2
 72
     1
  1
\H3;Egilea: Aitor A.
  7
textstyle3
 73
     1
 44
1.0
  0
MTEXT
  5
48
330
1BA5
100
AcDbEntity
  8
0
100
AcDbMText
 10
295.9248571214381
 20
-80.9823500334931
 30
0.0
 40
2.5
 41
0.0
 46
0.0
 71
     2
 72
     1
  1
\H3;Data: 2025/01/30
  7
textstyle3
 73
     1
 44
1.0
  0
LINE
  5
49
330
1BA5
100
AcDbEntity
  8
0
100
AcDbLine
 10
317.1584299618794
 20
-108.2120792116921
 30
0.0
 11
317.1584299618794
 21
223.7879207883079
 31
0.0
  0
LINE
  5
4A
330
1BA5
100
AcDbEntity
  8
0
100
AcDbLine
 10
67.15842996187939
 20
-108.2120792116921
 30
0.0
 11
317.1584299618794
 21
-108.2120792116921
 31
0.0
  0
MTEXT
  5
4B
330
1BA5
100
AcDbEntity
  8
0
100
AcDbMText
 10
217.0126435941306
 20
-61.13415816117288
 30
0.0
 40
2.5
 41
0.0
 46
0.0
 71
     2
 72
     1
  1
\H3;Definitiboa
  7
textstyle3
 73
     1
 44
1.0
  0
ARC
  5
150D
330
1BA5
100
AcDbEntity
  8
0
100
AcDbCircle
 10
95.78242399695834
 20
34.20152896989462
 30
0.0
 40
1.600000000000001
100
AcDbArc
 50
90.0
 51
270.0
  0
ARC
  5
19E2
330
1BA5
100
AcDbEntity
  8
0
100
AcDbCircle
 10
216.35
 20
33.60000000000003
 30
0.0
 40
1.600000000000001
100
AcDbArc
 50
90.0
 51
270.0
  0
ARC
  5
150E
330
1BA5
100
AcDbEntity
  8
0
100
AcDbCircle
 10
95.78242399695834
 20
157.0015289698946
 30
0.0
 40
1.600000000000001
100
AcDbArc
 50
90.0
 51
270.0
  0
ARC
  5
19E3
330
1BA5
100
AcDbEntity
  8
0
100
AcDbCircle
 10
216.35
 20
156.4
 30
0.0
 40
1.600000000000001
100
AcDbArc
 50
90.0
 51
270.0
  0
ARC
  5
150F
330
1BA5
100
AcDbEntity
  8
0
100
AcDbCircle
 10
171.2824239969584
 20
157.0015289698946
 30
0.0
 40
1.600000000000001
100
AcDbArc
 50
90.0
 51
270.0
  0
ARC
  5
19E4
330
1BA5
100
AcDbEntity
  8
0
100
AcDbCircle
 10
291.8500000000001
 20
156.4
 30
0.0
 40
1.600000000000001
100
AcDbArc
 50
90.0
 51
270.0
  0
ARC
  5
1510
330
1BA5
100
AcDbEntity
  8
0
100
AcDbCircle
 10
171.2824239969582
 20
34.20152896989462
 30
0.0
 40
1.600000000000001
100
AcDbArc
 50
90.0
 51
270.0
  0
ARC
  5
19E5
330
1BA5
100
AcDbEntity
  8
0
100
AcDbCircle
 10
291.8499999999999
 20
33.60000000000003
 30
0.0
 40
1.600000000000001
100
AcDbArc
 50
90.0
 51
270.0
  0
ARC
  5
1511
330
1BA5
100
AcDbEntity
  8
0
100
AcDbCircle
 10
97.58242399695835
 20
34.20152896989462
 30
0.0
 40
1.600000000000001
100
AcDbArc
 50
270.0
 51
90.0
  0
ARC
  5
19E6
330
1BA5
100
AcDbEntity
  8
0
100
AcDbCircle
 10
218.15
 20
33.60000000000003
 30
0.0
 40
1.600000000000001
100
AcDbArc
 50
270.0
 51
90.0
  0
ARC
  5
1512
330
1BA5
100
AcDbEntity
  8
0
100
AcDbCircle
 10
97.58242399695835
 20
157.0015289698946
 30
0.0
 40
1.600000000000001
100
AcDbArc
 50
270.0
 51
90.0
  0
ARC
  5
19E7
330
1BA5
100
AcDbEntity
  8
0
100
AcDbCircle
 10
218.15
 20
156.4
 30
0.0
 40
1.600000000000001
100
AcDbArc
 50
270.0
 51
90.0
  0
ARC
  5
1513
330
1BA5
100
AcDbEntity
  8
0
100
AcDbCircle
 10
173.0824239969584
 20
157.0015289698946
 30
0.0
 40
1.600000000000001
100
AcDbArc
 50
270.0
 51
90.0
  0
ARC
  5
19E8
330
1BA5
100
AcDbEntity
  8
0
100
AcDbCircle
 10
293.65
 20
156.4
 30
0.0
 40
1.600000000000001
100
AcDbArc
 50
270.0
 51
90.0
  0
ARC
  5
1514
330
1BA5
100
AcDbEntity
  8
0
100
AcDbCircle
 10
173.0824239969584
 20
34.20152896989462
 30
0.0
 40
1.600000000000001
100
AcDbArc
 50
270.0
 51
90.0
  0
ARC
  5
19E9
330
1BA5
100
AcDbEntity
  8
0
100
AcDbCircle
 10
293.65
 20
33.60000000000003
 30
0.0
 40
1.600000000000001
100
AcDbArc
 50
270.0
 51
90.0
  0
LINE
  5
1515
330
1BA5
100
AcDbEntity
  8
0
100
AcDbLine
 10
95.78242399695834
 20
35.80152896989463
 30
0.0
 11
97.58242399695835
 21
35.80152896989463
 31
0.0
  0
LINE
  5
19EA
330
1BA5
100
AcDbEntity
  8
0
100
AcDbLine
 10
216.35
 20
35.20000000000005
 30
0.0
 11
218.15
 21
35.20000000000005
 31
0.0
  0
LINE
  5
1516
330
1BA5
100
AcDbEntity
  8
0
100
AcDbLine
 10
95.78242399695834
 20
158.6015289698946
 30
0.0
 11
97.58242399695835
 21
158.6015289698946
 31
0.0
  0
LINE
  5
19EB
330
1BA5
100
AcDbEntity
  8
0
100
AcDbLine
 10
216.35
 20
158.0
 30
0.0
 11
218.15
 21
158.0
 31
0.0
  0
LINE
  5
1517
330
1BA5
100
AcDbEntity
  8
0
100
AcDbLine
 10
171.2824239969584
 20
158.6015289698946
 30
0.0
 11
173.0824239969584
 21
158.6015289698946
 31
0.0
  0
LINE
  5
19EC
330
1BA5
100
AcDbEntity
  8
0
100
AcDbLine
 10
291.8500000000001
 20
158.0
 30
0.0
 11
293.65
 21
158.0
 31
0.0
  0
LINE
  5
1518
330
1BA5
100
AcDbEntity
  8
0
100
AcDbLine
 10
171.2824239969582
 20
35.80152896989463
 30
0.0
 11
173.0824239969584
 21
35.80152896989463
 31
0.0
  0
LINE
  5
19ED
330
1BA5
100
AcDbEntity
  8
0
100
AcDbLine
 10
291.8499999999999
 20
35.20000000000005
 30
0.0
 11
293.65
 21
35.20000000000005
 31
0.0
  0
LINE
  5
1519
330
1BA5
100
AcDbEntity
  8
0
100
AcDbLine
 10
95.78242399695834
 20
32.60152896989463
 30
0.0
 11
97.58242399695835
 21
32.60152896989463
 31
0.0
  0
LINE
  5
19EE
330
1BA5
100
AcDbEntity
  8
0
100
AcDbLine
 10
216.35
 20
32.00000000000004
 30
0.0
 11
218.15
 21
32.00000000000004
 31
0.0
  0
LINE
  5
151A
330
1BA5
100
AcDbEntity
  8
0
100
AcDbLine
 10
95.78242399695834
 20
155.4015289698946
 30
0.0
 11
97.58242399695835
 21
155.4015289698946
 31
0.0
  0
LINE
  5
19EF
330
1BA5
100
AcDbEntity
  8
0
100
AcDbLine
 10
216.35
 20
154.8
 30
0.0
 11
218.15
 21
154.8
 31
0.0
  0
LINE
  5
151B
330
1BA5
100
AcDbEntity
  8
0
100
AcDbLine
 10
171.2824239969584
 20
155.4015289698946
 30
0.0
 11
173.0824239969584
 21
155.4015289698946
 31
0.0
  0
LINE
  5
19F0
330
1BA5
100
AcDbEntity
  8
0
100
AcDbLine
 10
291.8500000000001
 20
154.8
 30
0.0
 11
293.65
 21
154.8
 31
0.0
  0
LINE
  5
151C
330
1BA5
100
AcDbEntity
  8
0
100
AcDbLine
 10
171.2824239969582
 20
32.60152896989463
 30
0.0
 11
173.0824239969584
 21
32.60152896989463
 31
0.0
  0
LINE
  5
19F1
330
1BA5
100
AcDbEntity
  8
0
100
AcDbLine
 10
291.8499999999999
 20
32.00000000000004
 30
0.0
 11
293.65
 21
32.00000000000004
 31
0.0
  0
LINE
  5
151D
330
1BA5
100
AcDbEntity
  8
0
100
AcDbLine
 10
93.93242399695835
 20
150.0015289698946
 30
0.0
 11
122.4324239969583
 21
150.0015289698946
 31
0.0
  0
LINE
  5
19F2
330
1BA5
100
AcDbEntity
  8
0
100
AcDbLine
 10
214.5
 20
149.4
 30
0.0
 11
242.9999999999999
 21
149.4
 31
0.0
  0
LINE
  5
151E
330
1BA5
100
AcDbEntity
  8
0
100
AcDbLine
 10
146.4324239969583
 20
150.0015289698946
 30
0.0
 11
174.9324239969583
 21
150.0015289698946
 31
0.0
  0
LINE
  5
19F3
330
1BA5
100
AcDbEntity
  8
0
100
AcDbLine
 10
266.9999999999999
 20
149.4
 30
0.0
 11
295.4999999999999
 21
149.4
 31
0.0
  0
LINE
  5
151F
330
1BA5
100
AcDbEntity
  8
0
100
AcDbLine
 10
93.93242399695835
 20
38.60152896989462
 30
0.0
 11
122.4324239969583
 21
38.60152896989462
 31
0.0
  0
LINE
  5
19F4
330
1BA5
100
AcDbEntity
  8
0
100
AcDbLine
 10
214.5
 20
38.00000000000004
 30
0.0
 11
242.9999999999999
 21
38.00000000000004
 31
0.0
  0
LINE
  5
1520
330
1BA5
100
AcDbEntity
  8
0
100
AcDbLine
 10
146.4324239969583
 20
38.60152896989462
 30
0.0
 11
174.9324239969583
 21
38.60152896989462
 31
0.0
  0
LINE
  5
19F5
330
1BA5
100
AcDbEntity
  8
0
100
AcDbLine
 10
266.9999999999999
 20
38.00000000000004
 30
0.0
 11
295.4999999999999
 21
38.00000000000004
 31
0.0
  0
ARC
  5
1521
330
1BA5
100
AcDbEntity
  8
0
100
AcDbCircle
 10
93.93242399695835
 20
147.5015289698946
 30
0.0
 40
2.5
100
AcDbArc
 50
90.0
 51
180.0
1001
QCAD
1000
reversed:1
  0
ARC
  5
19F6
330
1BA5
100
AcDbEntity
  8
0
100
AcDbCircle
 10
214.5
 20
146.9
 30
0.0
 40
2.5
100
AcDbArc
 50
90.0
 51
180.0
1001
QCAD
1000
reversed:1
  0
ARC
  5
1522
330
1BA5
100
AcDbEntity
  8
0
100
AcDbCircle
 10
174.9324239969583
 20
147.5015289698946
 30
0.0
 40
2.5
100
AcDbArc
 50
0.0
 51
89.99999999999999
1001
QCAD
1000
reversed:1
  0
ARC
  5
19F7
330
1BA5
100
AcDbEntity
  8
0
100
AcDbCircle
 10
295.4999999999999
 20
146.9
 30
0.0
 40
2.5
100
AcDbArc
 50
0.0
 51
89.99999999999999
1001
QCAD
1000
reversed:1
  0
ARC
  5
1523
330
1BA5
100
AcDbEntity
  8
0
100
AcDbCircle
 10
174.9324239969583
 20
41.10152896989461
 30
0.0
 40
2.5
100
AcDbArc
 50
270.0000000000001
 51
0.0
1001
QCAD
1000
reversed:1
  0
ARC
  5
19F8
330
1BA5
100
AcDbEntity
  8
0
100
AcDbCircle
 10
295.4999999999999
 20
40.50000000000002
 30
0.0
 40
2.5
100
AcDbArc
 50
270.0000000000001
 51
0.0
1001
QCAD
1000
reversed:1
  0
ARC
  5
1524
330
1BA5
100
AcDbEntity
  8
0
100
AcDbCircle
 10
93.93242399695835
 20
41.10152896989462
 30
0.0
 40
2.5
100
AcDbArc
 50
180.0
 51
270.0
1001
QCAD
1000
reversed:1
  0
ARC
  5
19F9
330
1BA5
100
AcDbEntity
  8
0
100
AcDbCircle
 10
214.5
 20
40.50000000000004
 30
0.0
 40
2.5
100
AcDbArc
 50
180.0
 51
270.0
1001
QCAD
1000
reversed:1
  0
MTEXT
  5
1525
330
1BA5
100
AcDbEntity
  8
0
100
AcDbMText
 10
134.4324239969584
 20
151.6015289698949
 30
0.0
 40
2.5
 41
0.0
 46
0.0
 71
     2
 72
     1
  1
SNARE DRUM
  7
textstyle3
 73
     1
 44
1.0
  0
MTEXT
  5
19FA
330
1BA5
100
AcDbEntity
  8
0
100
AcDbMText
 10
255.0000000000001
 20
151.0000000000003
 30
0.0
 40
2.5
 41
0.0
 46
0.0
 71
     2
 72
     1
  1
SNARE DRUM
  7
textstyle3
 73
     1
 44
1.0
  0
MTEXT
  5
1526
330
1BA5
100
AcDbEntity
  8
0
100
AcDbMText
 10
134.4782246052968
 20
39.91643600114997
 30
0.0
 40
2.0
 41
0.0
 46
0.0
 71
     2
 72
     1
  1
\H3.5;Syntek
  7
textstyle3
 73
     1
 44
1.0
  0
MTEXT
  5
19FB
330
1BA5
100
AcDbEntity
  8
0
100
AcDbMText
 10
255.0458006083384
 20
39.31490703125549
 30
0.0
 40
2.0
 41
0.0
 46
0.0
 71
     2
 72
     1
  1
\H3.5;Syntek
  7
textstyle3
 73
     1
 44
1.0
  0
LINE
  5
1527
330
1BA5
100
AcDbEntity
  8
0
100
AcDbLine
 10
117.6324239969583
 20
105.2192204235186
 30
0.0
 11
117.1324239969583
 21
106.0852458273031
 31
0.0
  0
LINE
  5
19FC
330
1BA5
100
AcDbEntity
  8
0
100
AcDbLine
 10
238.1999999999999
 20
104.617691453624
 30
0.0
 11
237.6999999999999
 21
105.4837168574085
 31
0.0
  0
LINE
  5
1528
330
1BA5
100
AcDbEntity
  8
0
100
AcDbLine
 10
147.6324239969582
 20
105.2192204235186
 30
0.0
 11
147.1324239969582
 21
106.0852458273031
 31
0.0
  0
LINE
  5
19FD
330
1BA5
100
AcDbEntity
  8
0
100
AcDbLine
 10
268.1999999999999
 20
104.617691453624
 30
0.0
 11
267.6999999999999
 21
105.4837168574085
 31
0.0
  0
LINE
  5
1529
330
1BA5
100
AcDbEntity
  8
0
100
AcDbLine
 10
117.6324239969583
 20
88.2192204235186
 30
0.0
 11
117.1324239969583
 21
89.08524582730311
 31
0.0
  0
LINE
  5
19FE
330
1BA5
100
AcDbEntity
  8
0
100
AcDbLine
 10
238.1999999999999
 20
87.61769145362402
 30
0.0
 11
237.6999999999999
 21
88.48371685740852
 31
0.0
  0
LINE
  5
152A
330
1BA5
100
AcDbEntity
  8
0
100
AcDbLine
 10
147.6324239969582
 20
88.2192204235186
 30
0.0
 11
147.1324239969582
 21
89.08524582730311
 31
0.0
  0
LINE
  5
19FF
330
1BA5
100
AcDbEntity
  8
0
100
AcDbLine
 10
268.1999999999999
 20
87.61769145362402
 30
0.0
 11
267.6999999999999
 21
88.48371685740852
 31
0.0
  0
LINE
  5
152B
330
1BA5
100
AcDbEntity
  8
0
100
AcDbLine
 10
116.3147325433342
 20
103.9015289698947
 30
0.0
 11
115.4487071395499
 21
104.4015289698947
 31
0.0
  0
LINE
  5
1A00
330
1BA5
100
AcDbEntity
  8
0
100
AcDbLine
 10
236.8823085463758
 20
103.3000000000001
 30
0.0
 11
236.0162831425915
 21
103.8000000000001
 31
0.0
  0
LINE
  5
152C
330
1BA5
100
AcDbEntity
  8
0
100
AcDbLine
 10
146.3147325433342
 20
103.9015289698947
 30
0.0
 11
145.4487071395498
 21
104.4015289698947
 31
0.0
  0
LINE
  5
1A01
330
1BA5
100
AcDbEntity
  8
0
100
AcDbLine
 10
266.8823085463758
 20
103.3000000000001
 30
0.0
 11
266.0162831425915
 21
103.8000000000001
 31
0.0
  0
LINE
  5
152D
330
1BA5
100
AcDbEntity
  8
0
100
AcDbLine
 10
116.3147325433342
 20
86.90152896989471
 30
0.0
 11
115.4487071395499
 21
87.40152896989471
 31
0.0
  0
LINE
  5
1A02
330
1BA5
100
AcDbEntity
  8
0
100
AcDbLine
 10
236.8823085463758
 20
86.30000000000013
 30
0.0
 11
236.0162831425915
 21
86.80000000000013
 31
0.0
  0
LINE
  5
152E
330
1BA5
100
AcDbEntity
  8
0
100
AcDbLine
 10
146.3147325433342
 20
86.90152896989471
 30
0.0
 11
145.4487071395498
 21
87.40152896989471
 31
0.0
  0
LINE
  5
1A03
330
1BA5
100
AcDbEntity
  8
0
100
AcDbLine
 10
266.8823085463758
 20
86.30000000000013
 30
0.0
 11
266.0162831425915
 21
86.80000000000013
 31
0.0
  0
LINE
  5
152F
330
1BA5
100
AcDbEntity
  8
0
100
AcDbLine
 10
115.8324239969584
 20
102.1015289698946
 30
0.0
 11
114.8324239969584
 21
102.1015289698946
 31
0.0
  0
LINE
  5
1A04
330
1BA5
100
AcDbEntity
  8
0
100
AcDbLine
 10
236.4
 20
101.5
 30
0.0
 11
235.4
 21
101.5
 31
0.0
  0
LINE
  5
1530
330
1BA5
100
AcDbEntity
  8
0
100
AcDbLine
 10
145.8324239969584
 20
102.1015289698946
 30
0.0
 11
144.8324239969584
 21
102.1015289698946
 31
0.0
  0
LINE
  5
1A05
330
1BA5
100
AcDbEntity
  8
0
100
AcDbLine
 10
266.4
 20
101.5
 30
0.0
 11
265.4
 21
101.5
 31
0.0
  0
LINE
  5
1531
330
1BA5
100
AcDbEntity
  8
0
100
AcDbLine
 10
115.8324239969584
 20
85.10152896989462
 30
0.0
 11
114.8324239969584
 21
85.10152896989462
 31
0.0
  0
LINE
  5
1A06
330
1BA5
100
AcDbEntity
  8
0
100
AcDbLine
 10
236.4
 20
84.50000000000003
 30
0.0
 11
235.4
 21
84.50000000000003
 31
0.0
  0
LINE
  5
1532
330
1BA5
100
AcDbEntity
  8
0
100
AcDbLine
 10
145.8324239969584
 20
85.10152896989462
 30
0.0
 11
144.8324239969584
 21
85.10152896989462
 31
0.0
  0
LINE
  5
1A07
330
1BA5
100
AcDbEntity
  8
0
100
AcDbLine
 10
266.4
 20
84.50000000000003
 30
0.0
 11
265.4
 21
84.50000000000003
 31
0.0
  0
LINE
  5
1533
330
1BA5
100
AcDbEntity
  8
0
100
AcDbLine
 10
116.3147325433342
 20
100.3015289698946
 30
0.0
 11
115.4487071395499
 21
99.80152896989462
 31
0.0
  0
LINE
  5
1A08
330
1BA5
100
AcDbEntity
  8
0
100
AcDbLine
 10
236.8823085463758
 20
99.70000000000002
 30
0.0
 11
236.0162831425915
 21
99.20000000000003
 31
0.0
  0
LINE
  5
1534
330
1BA5
100
AcDbEntity
  8
0
100
AcDbLine
 10
146.3147325433342
 20
100.3015289698946
 30
0.0
 11
145.4487071395498
 21
99.80152896989462
 31
0.0
  0
LINE
  5
1A09
330
1BA5
100
AcDbEntity
  8
0
100
AcDbLine
 10
266.8823085463758
 20
99.70000000000002
 30
0.0
 11
266.0162831425915
 21
99.20000000000003
 31
0.0
  0
LINE
  5
1535
330
1BA5
100
AcDbEntity
  8
0
100
AcDbLine
 10
116.3147325433342
 20
83.3015289698946
 30
0.0
 11
115.4487071395499
 21
82.8015289698946
 31
0.0
  0
LINE
  5
1A0A
330
1BA5
100
AcDbEntity
  8
0
100
AcDbLine
 10
236.8823085463758
 20
82.70000000000002
 30
0.0
 11
236.0162831425915
 21
82.20000000000002
 31
0.0
  0
LINE
  5
1536
330
1BA5
100
AcDbEntity
  8
0
100
AcDbLine
 10
146.3147325433342
 20
83.3015289698946
 30
0.0
 11
145.4487071395498
 21
82.8015289698946
 31
0.0
  0
LINE
  5
1A0B
330
1BA5
100
AcDbEntity
  8
0
100
AcDbLine
 10
266.8823085463758
 20
82.70000000000002
 30
0.0
 11
266.0162831425915
 21
82.20000000000002
 31
0.0
  0
LINE
  5
1537
330
1BA5
100
AcDbEntity
  8
0
100
AcDbLine
 10
117.6324239969583
 20
98.98383751627061
 30
0.0
 11
117.1324239969583
 21
98.11781211248622
 31
0.0
  0
LINE
  5
1A0C
330
1BA5
100
AcDbEntity
  8
0
100
AcDbLine
 10
238.1999999999999
 20
98.38230854637602
 30
0.0
 11
237.6999999999999
 21
97.51628314259163
 31
0.0
  0
LINE
  5
1538
330
1BA5
100
AcDbEntity
  8
0
100
AcDbLine
 10
147.6324239969582
 20
98.98383751627061
 30
0.0
 11
147.1324239969582
 21
98.11781211248622
 31
0.0
  0
LINE
  5
1A0D
330
1BA5
100
AcDbEntity
  8
0
100
AcDbLine
 10
268.1999999999999
 20
98.38230854637602
 30
0.0
 11
267.6999999999999
 21
97.51628314259163
 31
0.0
  0
LINE
  5
1539
330
1BA5
100
AcDbEntity
  8
0
100
AcDbLine
 10
117.6324239969583
 20
81.9838375162706
 30
0.0
 11
117.1324239969583
 21
81.1178121124862
 31
0.0
  0
LINE
  5
1A0E
330
1BA5
100
AcDbEntity
  8
0
100
AcDbLine
 10
238.1999999999999
 20
81.38230854637601
 30
0.0
 11
237.6999999999999
 21
80.51628314259162
 31
0.0
  0
LINE
  5
153A
330
1BA5
100
AcDbEntity
  8
0
100
AcDbLine
 10
147.6324239969582
 20
81.9838375162706
 30
0.0
 11
147.1324239969582
 21
81.1178121124862
 31
0.0
  0
LINE
  5
1A0F
330
1BA5
100
AcDbEntity
  8
0
100
AcDbLine
 10
268.1999999999999
 20
81.38230854637601
 30
0.0
 11
267.6999999999999
 21
80.51628314259162
 31
0.0
  0
LINE
  5
153B
330
1BA5
100
AcDbEntity
  8
0
100
AcDbLine
 10
121.2324239969582
 20
98.98383751627061
 30
0.0
 11
121.7324239969582
 21
98.11781211248622
 31
0.0
  0
LINE
  5
1A10
330
1BA5
100
AcDbEntity
  8
0
100
AcDbLine
 10
241.7999999999998
 20
98.38230854637602
 30
0.0
 11
242.2999999999998
 21
97.51628314259163
 31
0.0
  0
LINE
  5
153C
330
1BA5
100
AcDbEntity
  8
0
100
AcDbLine
 10
151.2324239969582
 20
98.98383751627061
 30
0.0
 11
151.7324239969582
 21
98.11781211248622
 31
0.0
  0
LINE
  5
1A11
330
1BA5
100
AcDbEntity
  8
0
100
AcDbLine
 10
271.7999999999998
 20
98.38230854637602
 30
0.0
 11
272.2999999999998
 21
97.51628314259163
 31
0.0
  0
LINE
  5
153D
330
1BA5
100
AcDbEntity
  8
0
100
AcDbLine
 10
121.2324239969582
 20
81.9838375162706
 30
0.0
 11
121.7324239969582
 21
81.1178121124862
 31
0.0
  0
LINE
  5
1A12
330
1BA5
100
AcDbEntity
  8
0
100
AcDbLine
 10
241.7999999999998
 20
81.38230854637601
 30
0.0
 11
242.2999999999998
 21
80.51628314259162
 31
0.0
  0
LINE
  5
153E
330
1BA5
100
AcDbEntity
  8
0
100
AcDbLine
 10
151.2324239969582
 20
81.9838375162706
 30
0.0
 11
151.7324239969582
 21
81.1178121124862
 31
0.0
  0
LINE
  5
1A13
330
1BA5
100
AcDbEntity
  8
0
100
AcDbLine
 10
271.7999999999998
 20
81.38230854637601
 30
0.0
 11
272.2999999999998
 21
80.51628314259162
 31
0.0
  0
LINE
  5
153F
330
1BA5
100
AcDbEntity
  8
0
100
AcDbLine
 10
122.5501154505822
 20
100.3015289698946
 30
0.0
 11
123.4161408543666
 21
99.80152896989462
 31
0.0
  0
LINE
  5
1A14
330
1BA5
100
AcDbEntity
  8
0
100
AcDbLine
 10
243.1176914536238
 20
99.70000000000002
 30
0.0
 11
243.9837168574082
 21
99.20000000000003
 31
0.0
  0
LINE
  5
1540
330
1BA5
100
AcDbEntity
  8
0
100
AcDbLine
 10
152.5501154505822
 20
100.3015289698946
 30
0.0
 11
153.4161408543666
 21
99.80152896989462
 31
0.0
  0
LINE
  5
1A15
330
1BA5
100
AcDbEntity
  8
0
100
AcDbLine
 10
273.1176914536239
 20
99.70000000000002
 30
0.0
 11
273.9837168574082
 21
99.20000000000003
 31
0.0
  0
LINE
  5
1541
330
1BA5
100
AcDbEntity
  8
0
100
AcDbLine
 10
122.5501154505822
 20
83.3015289698946
 30
0.0
 11
123.4161408543666
 21
82.8015289698946
 31
0.0
  0
LINE
  5
1A16
330
1BA5
100
AcDbEntity
  8
0
100
AcDbLine
 10
243.1176914536238
 20
82.70000000000002
 30
0.0
 11
243.9837168574082
 21
82.20000000000002
 31
0.0
  0
LINE
  5
1542
330
1BA5
100
AcDbEntity
  8
0
100
AcDbLine
 10
152.5501154505822
 20
83.3015289698946
 30
0.0
 11
153.4161408543666
 21
82.8015289698946
 31
0.0
  0
LINE
  5
1A17
330
1BA5
100
AcDbEntity
  8
0
100
AcDbLine
 10
273.1176914536239
 20
82.70000000000002
 30
0.0
 11
273.9837168574082
 21
82.20000000000002
 31
0.0
  0
ARC
  5
1736
330
1BA5
100
AcDbEntity
  8
0
100
AcDbCircle
 10
95.78242399695834
 20
157.0015289698946
 30
0.0
 40
1.600000000000001
100
AcDbArc
 50
90.0
 51
270.0
  0
ARC
  5
1A18
330
1BA5
100
AcDbEntity
  8
0
100
AcDbCircle
 10
216.35
 20
156.4
 30
0.0
 40
1.600000000000001
100
AcDbArc
 50
90.0
 51
270.0
  0
ARC
  5
173C
330
1BA5
100
AcDbEntity
  8
0
100
AcDbCircle
 10
171.2824239969584
 20
157.0015289698946
 30
0.0
 40
1.600000000000001
100
AcDbArc
 50
90.0
 51
270.0
  0
ARC
  5
1A19
330
1BA5
100
AcDbEntity
  8
0
100
AcDbCircle
 10
291.8500000000001
 20
156.4
 30
0.0
 40
1.600000000000001
100
AcDbArc
 50
90.0
 51
270.0
  0
ARC
  5
1742
330
1BA5
100
AcDbEntity
  8
0
100
AcDbCircle
 10
171.2824239969582
 20
34.20152896989461
 30
0.0
 40
1.600000000000001
100
AcDbArc
 50
90.0
 51
270.0
  0
ARC
  5
1A1A
330
1BA5
100
AcDbEntity
  8
0
100
AcDbCircle
 10
291.8499999999999
 20
33.60000000000002
 30
0.0
 40
1.600000000000001
100
AcDbArc
 50
90.0
 51
270.0
  0
ARC
  5
1748
330
1BA5
100
AcDbEntity
  8
0
100
AcDbCircle
 10
95.78242399695834
 20
34.20152896989462
 30
0.0
 40
1.600000000000001
100
AcDbArc
 50
90.0
 51
270.0
  0
ARC
  5
1A1B
330
1BA5
100
AcDbEntity
  8
0
100
AcDbCircle
 10
216.35
 20
33.60000000000003
 30
0.0
 40
1.600000000000001
100
AcDbArc
 50
90.0
 51
270.0
  0
LINE
  5
1543
330
1BA5
100
AcDbEntity
  8
0
100
AcDbLine
 10
123.0324239969583
 20
102.1015289698946
 30
0.0
 11
124.0324239969583
 21
102.1015289698946
 31
0.0
  0
LINE
  5
1A1C
330
1BA5
100
AcDbEntity
  8
0
100
AcDbLine
 10
243.5999999999999
 20
101.5
 30
0.0
 11
244.5999999999999
 21
101.5
 31
0.0
  0
LINE
  5
1544
330
1BA5
100
AcDbEntity
  8
0
100
AcDbLine
 10
153.0324239969582
 20
102.1015289698946
 30
0.0
 11
154.0324239969582
 21
102.1015289698946
 31
0.0
  0
LINE
  5
1A1D
330
1BA5
100
AcDbEntity
  8
0
100
AcDbLine
 10
273.5999999999999
 20
101.5
 30
0.0
 11
274.5999999999999
 21
101.5
 31
0.0
  0
LINE
  5
1545
330
1BA5
100
AcDbEntity
  8
0
100
AcDbLine
 10
123.0324239969583
 20
85.10152896989462
 30
0.0
 11
124.0324239969583
 21
85.10152896989462
 31
0.0
  0
LINE
  5
1A1E
330
1BA5
100
AcDbEntity
  8
0
100
AcDbLine
 10
243.5999999999999
 20
84.50000000000003
 30
0.0
 11
244.5999999999999
 21
84.50000000000003
 31
0.0
  0
LINE
  5
1546
330
1BA5
100
AcDbEntity
  8
0
100
AcDbLine
 10
153.0324239969582
 20
85.10152896989462
 30
0.0
 11
154.0324239969582
 21
85.10152896989462
 31
0.0
  0
LINE
  5
1A1F
330
1BA5
100
AcDbEntity
  8
0
100
AcDbLine
 10
273.5999999999999
 20
84.50000000000003
 30
0.0
 11
274.5999999999999
 21
84.50000000000003
 31
0.0
  0
LINE
  5
1547
330
1BA5
100
AcDbEntity
  8
0
100
AcDbLine
 10
122.5501154505822
 20
103.9015289698947
 30
0.0
 11
123.4161408543666
 21
104.4015289698947
 31
0.0
  0
LINE
  5
1A20
330
1BA5
100
AcDbEntity
  8
0
100
AcDbLine
 10
243.1176914536238
 20
103.3000000000001
 30
0.0
 11
243.9837168574082
 21
103.8000000000001
 31
0.0
  0
LINE
  5
1548
330
1BA5
100
AcDbEntity
  8
0
100
AcDbLine
 10
152.5501154505822
 20
103.9015289698947
 30
0.0
 11
153.4161408543666
 21
104.4015289698947
 31
0.0
  0
LINE
  5
1A21
330
1BA5
100
AcDbEntity
  8
0
100
AcDbLine
 10
273.1176914536239
 20
103.3000000000001
 30
0.0
 11
273.9837168574082
 21
103.8000000000001
 31
0.0
  0
LINE
  5
1549
330
1BA5
100
AcDbEntity
  8
0
100
AcDbLine
 10
122.5501154505822
 20
86.90152896989471
 30
0.0
 11
123.4161408543666
 21
87.40152896989471
 31
0.0
  0
LINE
  5
1A22
330
1BA5
100
AcDbEntity
  8
0
100
AcDbLine
 10
243.1176914536238
 20
86.30000000000013
 30
0.0
 11
243.9837168574082
 21
86.80000000000013
 31
0.0
  0
LINE
  5
154A
330
1BA5
100
AcDbEntity
  8
0
100
AcDbLine
 10
152.5501154505822
 20
86.90152896989471
 30
0.0
 11
153.4161408543666
 21
87.40152896989471
 31
0.0
  0
LINE
  5
1A23
330
1BA5
100
AcDbEntity
  8
0
100
AcDbLine
 10
273.1176914536239
 20
86.30000000000013
 30
0.0
 11
273.9837168574082
 21
86.80000000000013
 31
0.0
  0
LINE
  5
154B
330
1BA5
100
AcDbEntity
  8
0
100
AcDbLine
 10
121.2324239969582
 20
105.2192204235186
 30
0.0
 11
121.7324239969582
 21
106.0852458273031
 31
0.0
  0
LINE
  5
1A24
330
1BA5
100
AcDbEntity
  8
0
100
AcDbLine
 10
241.7999999999998
 20
104.617691453624
 30
0.0
 11
242.2999999999998
 21
105.4837168574085
 31
0.0
  0
LINE
  5
154C
330
1BA5
100
AcDbEntity
  8
0
100
AcDbLine
 10
151.2324239969582
 20
105.2192204235186
 30
0.0
 11
151.7324239969582
 21
106.0852458273031
 31
0.0
  0
LINE
  5
1A25
330
1BA5
100
AcDbEntity
  8
0
100
AcDbLine
 10
271.7999999999998
 20
104.617691453624
 30
0.0
 11
272.2999999999998
 21
105.4837168574085
 31
0.0
  0
LINE
  5
154D
330
1BA5
100
AcDbEntity
  8
0
100
AcDbLine
 10
121.2324239969582
 20
88.2192204235186
 30
0.0
 11
121.7324239969582
 21
89.08524582730311
 31
0.0
  0
LINE
  5
1A26
330
1BA5
100
AcDbEntity
  8
0
100
AcDbLine
 10
241.7999999999998
 20
87.61769145362402
 30
0.0
 11
242.2999999999998
 21
88.48371685740852
 31
0.0
  0
LINE
  5
154E
330
1BA5
100
AcDbEntity
  8
0
100
AcDbLine
 10
151.2324239969582
 20
88.2192204235186
 30
0.0
 11
151.7324239969582
 21
89.08524582730311
 31
0.0
  0
LINE
  5
1A27
330
1BA5
100
AcDbEntity
  8
0
100
AcDbLine
 10
271.7999999999998
 20
87.61769145362402
 30
0.0
 11
272.2999999999998
 21
88.48371685740852
 31
0.0
  0
LINE
  5
154F
330
1BA5
100
AcDbEntity
  8
0
100
AcDbLine
 10
119.4324239969583
 20
105.7015289698946
 30
0.0
 11
119.4324239969583
 21
106.7015289698946
 31
0.0
  0
LINE
  5
1A28
330
1BA5
100
AcDbEntity
  8
0
100
AcDbLine
 10
239.9999999999999
 20
105.1
 30
0.0
 11
239.9999999999999
 21
106.1
 31
0.0
  0
LINE
  5
1550
330
1BA5
100
AcDbEntity
  8
0
100
AcDbLine
 10
149.4324239969583
 20
105.7015289698946
 30
0.0
 11
149.4324239969583
 21
106.7015289698946
 31
0.0
  0
LINE
  5
1A29
330
1BA5
100
AcDbEntity
  8
0
100
AcDbLine
 10
269.9999999999999
 20
105.1
 30
0.0
 11
269.9999999999999
 21
106.1
 31
0.0
  0
ARC
  5
1737
330
1BA5
100
AcDbEntity
  8
0
100
AcDbCircle
 10
97.58242399695847
 20
157.0015289698946
 30
0.0
 40
1.600000000000001
100
AcDbArc
 50
270.0
 51
90.0
  0
ARC
  5
1A2A
330
1BA5
100
AcDbEntity
  8
0
100
AcDbCircle
 10
218.1500000000001
 20
156.4
 30
0.0
 40
1.600000000000001
100
AcDbArc
 50
270.0
 51
90.0
  0
ARC
  5
173D
330
1BA5
100
AcDbEntity
  8
0
100
AcDbCircle
 10
173.0824239969585
 20
157.0015289698946
 30
0.0
 40
1.600000000000001
100
AcDbArc
 50
270.0
 51
90.0
  0
ARC
  5
1A2B
330
1BA5
100
AcDbEntity
  8
0
100
AcDbCircle
 10
293.6500000000001
 20
156.4
 30
0.0
 40
1.600000000000001
100
AcDbArc
 50
270.0
 51
90.0
  0
ARC
  5
1743
330
1BA5
100
AcDbEntity
  8
0
100
AcDbCircle
 10
173.0824239969584
 20
34.20152896989461
 30
0.0
 40
1.600000000000001
100
AcDbArc
 50
270.0
 51
90.0
  0
ARC
  5
1A2C
330
1BA5
100
AcDbEntity
  8
0
100
AcDbCircle
 10
293.65
 20
33.60000000000002
 30
0.0
 40
1.600000000000001
100
AcDbArc
 50
270.0
 51
90.0
  0
ARC
  5
1749
330
1BA5
100
AcDbEntity
  8
0
100
AcDbCircle
 10
97.58242399695847
 20
34.20152896989462
 30
0.0
 40
1.600000000000001
100
AcDbArc
 50
270.0
 51
90.0
  0
ARC
  5
1A2D
330
1BA5
100
AcDbEntity
  8
0
100
AcDbCircle
 10
218.1500000000001
 20
33.60000000000003
 30
0.0
 40
1.600000000000001
100
AcDbArc
 50
270.0
 51
90.0
  0
LINE
  5
1551
330
1BA5
100
AcDbEntity
  8
0
100
AcDbLine
 10
119.4324239969583
 20
88.70152896989461
 30
0.0
 11
119.4324239969583
 21
89.70152896989461
 31
0.0
  0
LINE
  5
1A2E
330
1BA5
100
AcDbEntity
  8
0
100
AcDbLine
 10
239.9999999999999
 20
88.10000000000002
 30
0.0
 11
239.9999999999999
 21
89.10000000000002
 31
0.0
  0
LINE
  5
1552
330
1BA5
100
AcDbEntity
  8
0
100
AcDbLine
 10
149.4324239969583
 20
88.70152896989461
 30
0.0
 11
149.4324239969583
 21
89.70152896989461
 31
0.0
  0
LINE
  5
1A2F
330
1BA5
100
AcDbEntity
  8
0
100
AcDbLine
 10
269.9999999999999
 20
88.10000000000002
 30
0.0
 11
269.9999999999999
 21
89.10000000000002
 31
0.0
  0
MTEXT
  5
1553
330
1BA5
100
AcDbEntity
  8
0
100
AcDbMText
 10
119.4717537489208
 20
110.1693550113815
 30
0.0
 40
2.0
 41
0.0
 46
0.0
 71
     2
 72
     1
  1
\H1.5;ATTACK
  7
textstyle3
 73
     1
 44
1.0
  0
MTEXT
  5
1A30
330
1BA5
100
AcDbEntity
  8
0
100
AcDbMText
 10
240.0393297519624
 20
109.5678260414868
 30
0.0
 40
2.0
 41
0.0
 46
0.0
 71
     2
 72
     1
  1
\H1.5;ATTACK
  7
textstyle3
 73
     1
 44
1.0
  0
MTEXT
  5
1554
330
1BA5
100
AcDbEntity
  8
0
100
AcDbMText
 10
149.4717537489208
 20
110.1693550113817
 30
0.0
 40
2.0
 41
0.0
 46
0.0
 71
     2
 72
     1
  1
\H1.5;DECAY
  7
textstyle3
 73
     1
 44
1.0
  0
MTEXT
  5
1A31
330
1BA5
100
AcDbEntity
  8
0
100
AcDbMText
 10
270.0393297519624
 20
109.5678260414871
 30
0.0
 40
2.0
 41
0.0
 46
0.0
 71
     2
 72
     1
  1
\H1.5;DECAY
  7
textstyle3
 73
     1
 44
1.0
  0
MTEXT
  5
1555
330
1BA5
100
AcDbEntity
  8
0
100
AcDbMText
 10
119.4717537489208
 20
93.16935501138124
 30
0.0
 40
2.0
 41
0.0
 46
0.0
 71
     2
 72
     1
  1
\H1.5;TUNE CV
  7
textstyle3
 73
     1
 44
1.0
  0
MTEXT
  5
1A32
330
1BA5
100
AcDbEntity
  8
0
100
AcDbMText
 10
240.0393297519624
 20
92.5678260414866
 30
0.0
 40
2.0
 41
0.0
 46
0.0
 71
     2
 72
     1
  1
\H1.5;TUNE CV
  7
textstyle3
 73
     1
 44
1.0
  0
MTEXT
  5
1556
330
1BA5
100
AcDbEntity
  8
0
100
AcDbMText
 10
149.4717537489208
 20
93.16935501138244
 30
0.0
 40
2.0
 41
0.0
 46
0.0
 71
     2
 72
     1
  1
\H1.5;SNAPPY
  7
textstyle3
 73
     1
 44
1.0
  0
MTEXT
  5
1A33
330
1BA5
100
AcDbEntity
  8
0
100
AcDbMText
 10
270.0393297519624
 20
92.56782604148795
 30
0.0
 40
2.0
 41
0.0
 46
0.0
 71
     2
 72
     1
  1
\H1.5;SNAPPY
  7
textstyle3
 73
     1
 44
1.0
  0
LINE
  5
6F9
330
1BA5
100
AcDbEntity
  8
0
100
AcDbLine
 10
67.15842996187939
 20
-108.2120792116921
 30
0.0
 11
67.15842996187939
 21
223.7879207883079
 31
0.0
  0
LINE
  5
6FA
330
1BA5
100
AcDbEntity
  8
0
100
AcDbLine
 10
68.15842996187939
 20
-107.2120792116921
 30
0.0
 11
68.15842996187939
 21
222.7879207883079
 31
0.0
  0
LINE
  5
6FD
330
1BA5
100
AcDbEntity
  8
0
100
AcDbLine
 10
67.1584299618794
 20
223.7879207883079
 30
0.0
 11
317.1584299618794
 21
223.7879207883079
 31
0.0
  0
LINE
  5
6FE
330
1BA5
100
AcDbEntity
  8
0
100
AcDbLine
 10
68.1584299618794
 20
222.7879207883079
 30
0.0
 11
316.1584299618794
 21
222.7879207883079
 31
0.0
  0
CIRCLE
  5
1557
330
1BA5
100
AcDbEntity
  8
0
100
AcDbCircle
 10
134.4324239969583
 20
129.1015289698946
 30
0.0
 40
4.0
  0
CIRCLE
  5
1A34
330
1BA5
100
AcDbEntity
  8
0
100
AcDbCircle
 10
254.9999999999999
 20
128.5
 30
0.0
 40
4.0
  0
LINE
  5
1558
330
1BA5
100
AcDbEntity
  8
0
100
AcDbLine
 10
127.9324239969583
 20
140.3598592190923
 30
0.0
 11
126.6824239969583
 21
142.5249227285534
 31
0.0
  0
LINE
  5
1A35
330
1BA5
100
AcDbEntity
  8
0
100
AcDbLine
 10
248.4999999999999
 20
139.7583302491977
 30
0.0
 11
247.2499999999999
 21
141.9233937586588
 31
0.0
  0
LINE
  5
1559
330
1BA5
100
AcDbEntity
  8
0
100
AcDbLine
 10
123.1740937477607
 20
135.6015289698946
 30
0.0
 11
121.0090302382996
 21
136.8515289698946
 31
0.0
  0
LINE
  5
1A36
330
1BA5
100
AcDbEntity
  8
0
100
AcDbLine
 10
243.7416697508023
 20
135.0
 30
0.0
 11
241.5766062413412
 21
136.25
 31
0.0
  0
LINE
  5
155A
330
1BA5
100
AcDbEntity
  8
0
100
AcDbLine
 10
121.4324239969583
 20
129.1015289698946
 30
0.0
 11
118.9324239969583
 21
129.1015289698946
 31
0.0
  0
LINE
  5
1A37
330
1BA5
100
AcDbEntity
  8
0
100
AcDbLine
 10
241.9999999999999
 20
128.5
 30
0.0
 11
239.4999999999999
 21
128.5
 31
0.0
  0
LINE
  5
1738
330
1BA5
100
AcDbEntity
  8
0
100
AcDbLine
 10
95.78242399695834
 20
158.6015289698947
 30
0.0
 11
97.58242399695847
 21
158.6015289698947
 31
0.0
  0
LINE
  5
1A38
330
1BA5
100
AcDbEntity
  8
0
100
AcDbLine
 10
216.35
 20
158.0000000000001
 30
0.0
 11
218.1500000000001
 21
158.0000000000001
 31
0.0
  0
LINE
  5
173E
330
1BA5
100
AcDbEntity
  8
0
100
AcDbLine
 10
171.2824239969584
 20
158.6015289698947
 30
0.0
 11
173.0824239969585
 21
158.6015289698947
 31
0.0
  0
LINE
  5
1A39
330
1BA5
100
AcDbEntity
  8
0
100
AcDbLine
 10
291.8500000000001
 20
158.0000000000001
 30
0.0
 11
293.6500000000001
 21
158.0000000000001
 31
0.0
  0
LINE
  5
1744
330
1BA5
100
AcDbEntity
  8
0
100
AcDbLine
 10
171.2824239969582
 20
35.80152896989472
 30
0.0
 11
173.0824239969584
 21
35.80152896989472
 31
0.0
  0
LINE
  5
1A3A
330
1BA5
100
AcDbEntity
  8
0
100
AcDbLine
 10
291.8499999999999
 20
35.20000000000013
 30
0.0
 11
293.65
 21
35.20000000000013
 31
0.0
  0
LINE
  5
174A
330
1BA5
100
AcDbEntity
  8
0
100
AcDbLine
 10
95.78242399695834
 20
35.80152896989473
 30
0.0
 11
97.58242399695847
 21
35.80152896989473
 31
0.0
  0
LINE
  5
1A3B
330
1BA5
100
AcDbEntity
  8
0
100
AcDbLine
 10
216.35
 20
35.20000000000014
 30
0.0
 11
218.1500000000001
 21
35.20000000000014
 31
0.0
  0
LINE
  5
155B
330
1BA5
100
AcDbEntity
  8
0
100
AcDbLine
 10
123.1740937477607
 20
122.6015289698946
 30
0.0
 11
121.0090302382996
 21
121.3515289698946
 31
0.0
  0
LINE
  5
1A3C
330
1BA5
100
AcDbEntity
  8
0
100
AcDbLine
 10
243.7416697508023
 20
122.0
 30
0.0
 11
241.5766062413412
 21
120.75
 31
0.0
  0
LINE
  5
155C
330
1BA5
100
AcDbEntity
  8
0
100
AcDbLine
 10
127.9324239969583
 20
117.8431987206969
 30
0.0
 11
126.6824239969583
 21
115.6781352112358
 31
0.0
  0
LINE
  5
1A3D
330
1BA5
100
AcDbEntity
  8
0
100
AcDbLine
 10
248.4999999999999
 20
117.2416697508023
 30
0.0
 11
247.2499999999999
 21
115.0766062413412
 31
0.0
  0
LINE
  5
155D
330
1BA5
100
AcDbEntity
  8
0
100
AcDbLine
 10
140.9324239969583
 20
117.8431987206969
 30
0.0
 11
142.1824239969583
 21
115.6781352112358
 31
0.0
  0
LINE
  5
1A3E
330
1BA5
100
AcDbEntity
  8
0
100
AcDbLine
 10
261.4999999999999
 20
117.2416697508023
 30
0.0
 11
262.7499999999999
 21
115.0766062413412
 31
0.0
  0
LINE
  5
155E
330
1BA5
100
AcDbEntity
  8
0
100
AcDbLine
 10
145.6907542461561
 20
122.6015289698946
 30
0.0
 11
147.8558177556172
 21
121.3515289698946
 31
0.0
  0
LINE
  5
1A3F
330
1BA5
100
AcDbEntity
  8
0
100
AcDbLine
 10
266.2583302491977
 20
122.0
 30
0.0
 11
268.4233937586588
 21
120.75
 31
0.0
  0
LINE
  5
155F
330
1BA5
100
AcDbEntity
  8
0
100
AcDbLine
 10
147.4324239969583
 20
129.1015289698946
 30
0.0
 11
149.9324239969583
 21
129.1015289698946
 31
0.0
  0
LINE
  5
1A40
330
1BA5
100
AcDbEntity
  8
0
100
AcDbLine
 10
267.9999999999999
 20
128.5
 30
0.0
 11
270.4999999999999
 21
128.5
 31
0.0
  0
LINE
  5
1560
330
1BA5
100
AcDbEntity
  8
0
100
AcDbLine
 10
145.6907542461561
 20
135.6015289698946
 30
0.0
 11
147.8558177556172
 21
136.8515289698946
 31
0.0
  0
LINE
  5
1A41
330
1BA5
100
AcDbEntity
  8
0
100
AcDbLine
 10
266.2583302491977
 20
135.0
 30
0.0
 11
268.4233937586588
 21
136.25
 31
0.0
  0
LINE
  5
1561
330
1BA5
100
AcDbEntity
  8
0
100
AcDbLine
 10
140.9324239969583
 20
140.3598592190923
 30
0.0
 11
142.1824239969583
 21
142.5249227285534
 31
0.0
  0
LINE
  5
1A42
330
1BA5
100
AcDbEntity
  8
0
100
AcDbLine
 10
261.4999999999999
 20
139.7583302491977
 30
0.0
 11
262.7499999999999
 21
141.9233937586588
 31
0.0
  0
LINE
  5
1562
330
1BA5
100
AcDbEntity
  8
0
100
AcDbLine
 10
134.4324239969583
 20
142.1015289698946
 30
0.0
 11
134.4324239969583
 21
144.6015289698946
 31
0.0
  0
LINE
  5
1A43
330
1BA5
100
AcDbEntity
  8
0
100
AcDbLine
 10
254.9999999999999
 20
141.5
 30
0.0
 11
254.9999999999999
 21
144.0
 31
0.0
  0
LINE
  5
1563
330
1BA5
100
AcDbEntity
  8
0
100
AcDbLine
 10
133.2993993412389
 20
142.0520600450873
 30
0.0
 11
133.1686657271173
 21
143.5463520922249
 31
0.0
  0
LINE
  5
1A44
330
1BA5
100
AcDbEntity
  8
0
100
AcDbLine
 10
253.8669753442805
 20
141.4505310751927
 30
0.0
 11
253.736241730159
 21
142.9448231223303
 31
0.0
  0
LINE
  5
1564
330
1BA5
100
AcDbEntity
  8
0
100
AcDbLine
 10
132.1749976872883
 20
141.9040297590533
 30
0.0
 11
131.9145254207879
 21
143.3812413885716
 31
0.0
  0
LINE
  5
1A45
330
1BA5
100
AcDbEntity
  8
0
100
AcDbLine
 10
252.7425736903299
 20
141.3025007891587
 30
0.0
 11
252.4821014238295
 21
142.779712418677
 31
0.0
  0
LINE
  5
1565
330
1BA5
100
AcDbEntity
  8
0
100
AcDbLine
 10
131.0677764106256
 20
141.6585647116525
 30
0.0
 11
130.6795478429718
 21
143.1074534510861
 31
0.0
  0
LINE
  5
1A46
330
1BA5
100
AcDbEntity
  8
0
100
AcDbLine
 10
251.6353524136672
 20
141.0570357417579
 30
0.0
 11
251.2471238460134
 21
142.5059244811915
 31
0.0
  0
LINE
  5
1566
330
1BA5
100
AcDbEntity
  8
0
100
AcDbLine
 10
129.9861621337249
 20
141.3175330401114
 30
0.0
 11
129.4731319187362
 21
142.7270719712903
 31
0.0
  0
LINE
  5
1A47
330
1BA5
100
AcDbEntity
  8
0
100
AcDbLine
 10
250.5537381367665
 20
140.7160040702168
 30
0.0
 11
250.0407079217778
 21
142.1255430013957
 31
0.0
  0
LINE
  5
1567
330
1BA5
100
AcDbEntity
  8
0
100
AcDbLine
 10
128.9383865943294
 20
140.8835302013711
 30
0.0
 11
128.3044592017183
 21
142.242991881926
 31
0.0
  0
LINE
  5
1A48
330
1BA5
100
AcDbEntity
  8
0
100
AcDbLine
 10
249.505962597371
 20
140.2820012314765
 30
0.0
 11
248.8720352047599
 21
141.6414629120314
 31
0.0
  0
LINE
  5
1568
330
1BA5
100
AcDbEntity
  8
0
100
AcDbLine
 10
127.9324239969583
 20
140.3598592190923
 30
0.0
 11
127.1824239969583
 21
141.658897324769
 31
0.0
  0
LINE
  5
1A49
330
1BA5
100
AcDbEntity
  8
0
100
AcDbLine
 10
248.4999999999999
 20
139.7583302491977
 30
0.0
 11
247.7499999999999
 21
141.0573683548744
 31
0.0
  0
LINE
  5
1739
330
1BA5
100
AcDbEntity
  8
0
100
AcDbLine
 10
95.78242399695834
 20
155.4015289698946
 30
0.0
 11
97.58242399695847
 21
155.4015289698946
 31
0.0
  0
LINE
  5
1A4A
330
1BA5
100
AcDbEntity
  8
0
100
AcDbLine
 10
216.35
 20
154.8
 30
0.0
 11
218.1500000000001
 21
154.8
 31
0.0
  0
LINE
  5
173F
330
1BA5
100
AcDbEntity
  8
0
100
AcDbLine
 10
171.2824239969584
 20
155.4015289698946
 30
0.0
 11
173.0824239969585
 21
155.4015289698946
 31
0.0
  0
LINE
  5
1A4B
330
1BA5
100
AcDbEntity
  8
0
100
AcDbLine
 10
291.8500000000001
 20
154.8
 30
0.0
 11
293.6500000000001
 21
154.8
 31
0.0
  0
LINE
  5
1745
330
1BA5
100
AcDbEntity
  8
0
100
AcDbLine
 10
171.2824239969582
 20
32.60152896989462
 30
0.0
 11
173.0824239969584
 21
32.60152896989462
 31
0.0
  0
LINE
  5
1A4C
330
1BA5
100
AcDbEntity
  8
0
100
AcDbLine
 10
291.8499999999999
 20
32.00000000000004
 30
0.0
 11
293.65
 21
32.00000000000004
 31
0.0
  0
LINE
  5
174B
330
1BA5
100
AcDbEntity
  8
0
100
AcDbLine
 10
95.78242399695834
 20
32.60152896989463
 30
0.0
 11
97.58242399695847
 21
32.60152896989463
 31
0.0
  0
LINE
  5
1A4D
330
1BA5
100
AcDbEntity
  8
0
100
AcDbLine
 10
216.35
 20
32.00000000000004
 30
0.0
 11
218.1500000000001
 21
32.00000000000004
 31
0.0
  0
LINE
  5
1569
330
1BA5
100
AcDbEntity
  8
0
100
AcDbLine
 10
126.9759303243948
 20
139.7505055456515
 30
0.0
 11
126.1155656698682
 21
140.979233612085
 31
0.0
  0
LINE
  5
1A4E
330
1BA5
100
AcDbEntity
  8
0
100
AcDbLine
 10
247.5435063274364
 20
139.1489765757569
 30
0.0
 11
246.6831416729098
 21
140.3777046421904
 31
0.0
  0
LINE
  5
156A
330
1BA5
100
AcDbEntity
  8
0
100
AcDbLine
 10
126.0761850710334
 20
139.0601067304413
 30
0.0
 11
125.1120036565035
 21
140.2091733951198
 31
0.0
  0
LINE
  5
1A4F
330
1BA5
100
AcDbEntity
  8
0
100
AcDbLine
 10
246.643761074075
 20
138.4585777605467
 30
0.0
 11
245.6795796595451
 21
139.6076444252252
 31
0.0
  0
LINE
  5
156B
330
1BA5
100
AcDbEntity
  8
0
100
AcDbLine
 10
125.2400358415332
 20
138.2939171253197
 30
0.0
 11
124.1793756697534
 21
139.3545772970995
 31
0.0
  0
LINE
  5
1A50
330
1BA5
100
AcDbEntity
  8
0
100
AcDbLine
 10
245.8076118445748
 20
137.6923881554251
 30
0.0
 11
244.746951672795
 21
138.7530483272049
 31
0.0
  0
LINE
  5
156C
330
1BA5
100
AcDbEntity
  8
0
100
AcDbLine
 10
124.4738462364117
 20
137.4577678958196
 30
0.0
 11
123.3247795717331
 21
138.4219493103494
 31
0.0
  0
LINE
  5
1A51
330
1BA5
100
AcDbEntity
  8
0
100
AcDbLine
 10
245.0414222394533
 20
136.856238925925
 30
0.0
 11
243.8923555747747
 21
137.8204203404548
 31
0.0
  0
LINE
  5
156D
330
1BA5
100
AcDbEntity
  8
0
100
AcDbLine
 10
123.7834474212014
 20
136.5580226424582
 30
0.0
 11
122.5547193547681
 21
137.4183872969848
 31
0.0
  0
LINE
  5
1A52
330
1BA5
100
AcDbEntity
  8
0
100
AcDbLine
 10
244.351023424243
 20
135.9564936725636
 30
0.0
 11
243.1222953578097
 21
136.8168583270902
 31
0.0
  0
LINE
  5
156E
330
1BA5
100
AcDbEntity
  8
0
100
AcDbLine
 10
123.1740937477607
 20
135.6015289698946
 30
0.0
 11
121.875055642084
 21
136.3515289698946
 31
0.0
  0
LINE
  5
1A53
330
1BA5
100
AcDbEntity
  8
0
100
AcDbLine
 10
243.7416697508023
 20
135.0
 30
0.0
 11
242.4426316451256
 21
135.75
 31
0.0
  0
LINE
  5
156F
330
1BA5
100
AcDbEntity
  8
0
100
AcDbLine
 10
122.650422765482
 20
134.5955663725237
 30
0.0
 11
121.290961084927
 21
135.2294937651347
 31
0.0
  0
LINE
  5
1A54
330
1BA5
100
AcDbEntity
  8
0
100
AcDbLine
 10
243.2179987685236
 20
133.9940374026291
 30
0.0
 11
241.8585370879686
 21
134.6279647952401
 31
0.0
  0
LINE
  5
1570
330
1BA5
100
AcDbEntity
  8
0
100
AcDbLine
 10
122.2164199267417
 20
133.5477908331283
 30
0.0
 11
120.8068809955627
 21
134.0608210481168
 31
0.0
  0
LINE
  5
1A55
330
1BA5
100
AcDbEntity
  8
0
100
AcDbLine
 10
242.7839959297833
 20
132.9462618632337
 30
0.0
 11
241.3744569986043
 21
133.4592920782222
 31
0.0
  0
LINE
  5
1571
330
1BA5
100
AcDbEntity
  8
0
100
AcDbLine
 10
121.8753882552005
 20
132.4661765562274
 30
0.0
 11
120.4264995157668
 21
132.8544051238812
 31
0.0
  0
LINE
  5
1A56
330
1BA5
100
AcDbEntity
  8
0
100
AcDbLine
 10
242.4429642582421
 20
131.8646475863328
 30
0.0
 11
240.9940755188084
 21
132.2528761539866
 31
0.0
  0
LINE
  5
1572
330
1BA5
100
AcDbEntity
  8
0
100
AcDbLine
 10
121.6299232077996
 20
131.3589552795647
 30
0.0
 11
120.1527115782813
 21
131.6194275460651
 31
0.0
  0
LINE
  5
1A57
330
1BA5
100
AcDbEntity
  8
0
100
AcDbLine
 10
242.1974992108412
 20
130.7574263096701
 30
0.0
 11
240.7202875813229
 21
131.0178985761705
 31
0.0
  0
LINE
  5
1573
330
1BA5
100
AcDbEntity
  8
0
100
AcDbLine
 10
121.4818929217657
 20
130.2345536256141
 30
0.0
 11
119.9876008746281
 21
130.3652872397356
 31
0.0
  0
LINE
  5
1A58
330
1BA5
100
AcDbEntity
  8
0
100
AcDbLine
 10
242.0494689248073
 20
129.6330246557195
 30
0.0
 11
240.5551768776697
 21
129.763758269841
 31
0.0
  0
LINE
  5
1574
330
1BA5
100
AcDbEntity
  8
0
100
AcDbLine
 10
121.4818929217657
 20
127.9685043141751
 30
0.0
 11
119.9876008746281
 21
127.8377707000536
 31
0.0
  0
LINE
  5
1A59
330
1BA5
100
AcDbEntity
  8
0
100
AcDbLine
 10
242.0494689248073
 20
127.3669753442805
 30
0.0
 11
240.5551768776697
 21
127.236241730159
 31
0.0
  0
LINE
  5
1575
330
1BA5
100
AcDbEntity
  8
0
100
AcDbLine
 10
121.6299232077996
 20
126.8441026602245
 30
0.0
 11
120.1527115782813
 21
126.5836303937241
 31
0.0
  0
LINE
  5
1A5A
330
1BA5
100
AcDbEntity
  8
0
100
AcDbLine
 10
242.1974992108412
 20
126.2425736903299
 30
0.0
 11
240.7202875813229
 21
125.9821014238295
 31
0.0
  0
LINE
  5
1576
330
1BA5
100
AcDbEntity
  8
0
100
AcDbLine
 10
121.8753882552005
 20
125.7368813835619
 30
0.0
 11
120.4264995157668
 21
125.3486528159081
 31
0.0
  0
LINE
  5
1A5B
330
1BA5
100
AcDbEntity
  8
0
100
AcDbLine
 10
242.4429642582421
 20
125.1353524136673
 30
0.0
 11
240.9940755188084
 21
124.7471238460135
 31
0.0
  0
LINE
  5
1577
330
1BA5
100
AcDbEntity
  8
0
100
AcDbLine
 10
122.2164199267417
 20
124.6552671066609
 30
0.0
 11
120.8068809955627
 21
124.1422368916724
 31
0.0
  0
LINE
  5
1A5C
330
1BA5
100
AcDbEntity
  8
0
100
AcDbLine
 10
242.7839959297833
 20
124.0537381367663
 30
0.0
 11
241.3744569986043
 21
123.5407079217778
 31
0.0
  0
LINE
  5
1578
330
1BA5
100
AcDbEntity
  8
0
100
AcDbLine
 10
122.650422765482
 20
123.6074915672655
 30
0.0
 11
121.290961084927
 21
122.9735641746545
 31
0.0
  0
LINE
  5
1A5D
330
1BA5
100
AcDbEntity
  8
0
100
AcDbLine
 10
243.2179987685236
 20
123.0059625973709
 30
0.0
 11
241.8585370879686
 21
122.3720352047599
 31
0.0
  0
LINE
  5
1579
330
1BA5
100
AcDbEntity
  8
0
100
AcDbLine
 10
123.1740937477607
 20
122.6015289698946
 30
0.0
 11
121.875055642084
 21
121.8515289698946
 31
0.0
  0
LINE
  5
1A5E
330
1BA5
100
AcDbEntity
  8
0
100
AcDbLine
 10
243.7416697508023
 20
122.0
 30
0.0
 11
242.4426316451256
 21
121.25
 31
0.0
  0
LINE
  5
157A
330
1BA5
100
AcDbEntity
  8
0
100
AcDbLine
 10
123.7834474212014
 20
121.645035297331
 30
0.0
 11
122.5547193547681
 21
120.7846706428044
 31
0.0
  0
LINE
  5
1A5F
330
1BA5
100
AcDbEntity
  8
0
100
AcDbLine
 10
244.351023424243
 20
121.0435063274364
 30
0.0
 11
243.1222953578097
 21
120.1831416729098
 31
0.0
  0
LINE
  5
157B
330
1BA5
100
AcDbEntity
  8
0
100
AcDbLine
 10
124.4738462364117
 20
120.7452900439696
 30
0.0
 11
123.3247795717331
 21
119.7811086294398
 31
0.0
  0
LINE
  5
1A60
330
1BA5
100
AcDbEntity
  8
0
100
AcDbLine
 10
245.0414222394533
 20
120.143761074075
 30
0.0
 11
243.8923555747747
 21
119.1795796595452
 31
0.0
  0
LINE
  5
157C
330
1BA5
100
AcDbEntity
  8
0
100
AcDbLine
 10
125.2400358415332
 20
119.9091408144695
 30
0.0
 11
124.1793756697534
 21
118.8484806426897
 31
0.0
  0
LINE
  5
1A61
330
1BA5
100
AcDbEntity
  8
0
100
AcDbLine
 10
245.8076118445748
 20
119.3076118445749
 30
0.0
 11
244.746951672795
 21
118.2469516727951
 31
0.0
  0
LINE
  5
157D
330
1BA5
100
AcDbEntity
  8
0
100
AcDbLine
 10
126.0761850710334
 20
119.1429512093479
 30
0.0
 11
125.1120036565035
 21
117.9938845446694
 31
0.0
  0
LINE
  5
1A62
330
1BA5
100
AcDbEntity
  8
0
100
AcDbLine
 10
246.643761074075
 20
118.5414222394533
 30
0.0
 11
245.6795796595451
 21
117.3923555747748
 31
0.0
  0
LINE
  5
157E
330
1BA5
100
AcDbEntity
  8
0
100
AcDbLine
 10
126.9759303243948
 20
118.4525523941377
 30
0.0
 11
126.1155656698682
 21
117.2238243277042
 31
0.0
  0
LINE
  5
1A63
330
1BA5
100
AcDbEntity
  8
0
100
AcDbLine
 10
247.5435063274364
 20
117.8510234242431
 30
0.0
 11
246.6831416729098
 21
116.6222953578096
 31
0.0
  0
LINE
  5
157F
330
1BA5
100
AcDbEntity
  8
0
100
AcDbLine
 10
127.9324239969583
 20
117.8431987206969
 30
0.0
 11
127.1824239969583
 21
116.5441606150202
 31
0.0
  0
LINE
  5
1A64
330
1BA5
100
AcDbEntity
  8
0
100
AcDbLine
 10
248.4999999999999
 20
117.2416697508023
 30
0.0
 11
247.7499999999999
 21
115.9426316451256
 31
0.0
  0
LINE
  5
1580
330
1BA5
100
AcDbEntity
  8
0
100
AcDbLine
 10
140.9324239969583
 20
117.8431987206969
 30
0.0
 11
141.6824239969583
 21
116.5441606150202
 31
0.0
  0
LINE
  5
1A65
330
1BA5
100
AcDbEntity
  8
0
100
AcDbLine
 10
261.4999999999999
 20
117.2416697508023
 30
0.0
 11
262.2499999999999
 21
115.9426316451256
 31
0.0
  0
LINE
  5
1581
330
1BA5
100
AcDbEntity
  8
0
100
AcDbLine
 10
141.888917669522
 20
118.4525523941377
 30
0.0
 11
142.7492823240485
 21
117.2238243277042
 31
0.0
  0
LINE
  5
1A66
330
1BA5
100
AcDbEntity
  8
0
100
AcDbLine
 10
262.4564936725636
 20
117.8510234242431
 30
0.0
 11
263.3168583270901
 21
116.6222953578096
 31
0.0
  0
LINE
  5
1582
330
1BA5
100
AcDbEntity
  8
0
100
AcDbLine
 10
142.7886629228834
 20
119.1429512093479
 30
0.0
 11
143.7528443374131
 21
117.9938845446694
 31
0.0
  0
LINE
  5
1A67
330
1BA5
100
AcDbEntity
  8
0
100
AcDbLine
 10
263.356238925925
 20
118.5414222394533
 30
0.0
 11
264.3204203404547
 21
117.3923555747748
 31
0.0
  0
LINE
  5
1583
330
1BA5
100
AcDbEntity
  8
0
100
AcDbLine
 10
143.6248121523835
 20
119.9091408144695
 30
0.0
 11
144.6854723241635
 21
118.8484806426897
 31
0.0
  0
LINE
  5
1A68
330
1BA5
100
AcDbEntity
  8
0
100
AcDbLine
 10
264.1923881554251
 20
119.3076118445749
 30
0.0
 11
265.2530483272051
 21
118.2469516727951
 31
0.0
  0
LINE
  5
1584
330
1BA5
100
AcDbEntity
  8
0
100
AcDbLine
 10
144.391001757505
 20
120.7452900439696
 30
0.0
 11
145.5400684221835
 21
119.7811086294398
 31
0.0
  0
LINE
  5
1A69
330
1BA5
100
AcDbEntity
  8
0
100
AcDbLine
 10
264.9585777605466
 20
120.143761074075
 30
0.0
 11
266.1076444252251
 21
119.1795796595452
 31
0.0
  0
LINE
  5
1585
330
1BA5
100
AcDbEntity
  8
0
100
AcDbLine
 10
145.0814005727153
 20
121.645035297331
 30
0.0
 11
146.3101286391487
 21
120.7846706428044
 31
0.0
  0
LINE
  5
1A6A
330
1BA5
100
AcDbEntity
  8
0
100
AcDbLine
 10
265.6489765757569
 20
121.0435063274364
 30
0.0
 11
266.8777046421903
 21
120.1831416729098
 31
0.0
  0
LINE
  5
1586
330
1BA5
100
AcDbEntity
  8
0
100
AcDbLine
 10
145.6907542461561
 20
122.6015289698946
 30
0.0
 11
146.9897923518328
 21
121.8515289698946
 31
0.0
  0
LINE
  5
1A6B
330
1BA5
100
AcDbEntity
  8
0
100
AcDbLine
 10
266.2583302491977
 20
122.0
 30
0.0
 11
267.5573683548744
 21
121.25
 31
0.0
  0
LINE
  5
1587
330
1BA5
100
AcDbEntity
  8
0
100
AcDbLine
 10
146.2144252284348
 20
123.6074915672655
 30
0.0
 11
147.5738869089897
 21
122.9735641746545
 31
0.0
  0
LINE
  5
1A6C
330
1BA5
100
AcDbEntity
  8
0
100
AcDbLine
 10
266.7820012314764
 20
123.0059625973709
 30
0.0
 11
268.1414629120313
 21
122.3720352047599
 31
0.0
  0
LINE
  5
1588
330
1BA5
100
AcDbEntity
  8
0
100
AcDbLine
 10
146.6484280671751
 20
124.6552671066609
 30
0.0
 11
148.0579669983541
 21
124.1422368916724
 31
0.0
  0
LINE
  5
1A6D
330
1BA5
100
AcDbEntity
  8
0
100
AcDbLine
 10
267.2160040702167
 20
124.0537381367663
 30
0.0
 11
268.6255430013957
 21
123.5407079217778
 31
0.0
  0
LINE
  5
1589
330
1BA5
100
AcDbEntity
  8
0
100
AcDbLine
 10
146.9894597387163
 20
125.7368813835618
 30
0.0
 11
148.4383484781499
 21
125.348652815908
 31
0.0
  0
LINE
  5
1A6E
330
1BA5
100
AcDbEntity
  8
0
100
AcDbLine
 10
267.5570357417579
 20
125.1353524136672
 30
0.0
 11
269.0059244811915
 21
124.7471238460134
 31
0.0
  0
LINE
  5
158A
330
1BA5
100
AcDbEntity
  8
0
100
AcDbLine
 10
147.2349247861172
 20
126.8441026602245
 30
0.0
 11
148.7121364156354
 21
126.5836303937241
 31
0.0
  0
LINE
  5
1A6F
330
1BA5
100
AcDbEntity
  8
0
100
AcDbLine
 10
267.8025007891588
 20
126.2425736903299
 30
0.0
 11
269.279712418677
 21
125.9821014238295
 31
0.0
  0
LINE
  5
158B
330
1BA5
100
AcDbEntity
  8
0
100
AcDbLine
 10
147.382955072151
 20
127.968504314175
 30
0.0
 11
148.8772471192887
 21
127.8377707000536
 31
0.0
  0
LINE
  5
1A70
330
1BA5
100
AcDbEntity
  8
0
100
AcDbLine
 10
267.9505310751926
 20
127.3669753442804
 30
0.0
 11
269.4448231223303
 21
127.236241730159
 31
0.0
  0
LINE
  5
158C
330
1BA5
100
AcDbEntity
  8
0
100
AcDbLine
 10
147.4324239969583
 20
129.1015289698946
 30
0.0
 11
148.9324239969583
 21
129.1015289698946
 31
0.0
  0
LINE
  5
1A71
330
1BA5
100
AcDbEntity
  8
0
100
AcDbLine
 10
267.9999999999999
 20
128.5
 30
0.0
 11
269.4999999999999
 21
128.5
 31
0.0
  0
LINE
  5
158D
330
1BA5
100
AcDbEntity
  8
0
100
AcDbLine
 10
147.382955072151
 20
130.2345536256142
 30
0.0
 11
148.8772471192887
 21
130.3652872397356
 31
0.0
  0
LINE
  5
1A72
330
1BA5
100
AcDbEntity
  8
0
100
AcDbLine
 10
267.9505310751926
 20
129.6330246557196
 30
0.0
 11
269.4448231223303
 21
129.763758269841
 31
0.0
  0
LINE
  5
158E
330
1BA5
100
AcDbEntity
  8
0
100
AcDbLine
 10
147.2349247861172
 20
131.3589552795647
 30
0.0
 11
148.7121364156354
 21
131.6194275460651
 31
0.0
  0
LINE
  5
1A73
330
1BA5
100
AcDbEntity
  8
0
100
AcDbLine
 10
267.8025007891588
 20
130.7574263096701
 30
0.0
 11
269.279712418677
 21
131.0178985761705
 31
0.0
  0
LINE
  5
158F
330
1BA5
100
AcDbEntity
  8
0
100
AcDbLine
 10
146.9894597387163
 20
132.4661765562274
 30
0.0
 11
148.4383484781499
 21
132.8544051238811
 31
0.0
  0
LINE
  5
1A74
330
1BA5
100
AcDbEntity
  8
0
100
AcDbLine
 10
267.5570357417579
 20
131.8646475863328
 30
0.0
 11
269.0059244811915
 21
132.2528761539865
 31
0.0
  0
LINE
  5
1590
330
1BA5
100
AcDbEntity
  8
0
100
AcDbLine
 10
146.6484280671751
 20
133.5477908331283
 30
0.0
 11
148.0579669983541
 21
134.0608210481168
 31
0.0
  0
LINE
  5
1A75
330
1BA5
100
AcDbEntity
  8
0
100
AcDbLine
 10
267.2160040702167
 20
132.9462618632337
 30
0.0
 11
268.6255430013957
 21
133.4592920782222
 31
0.0
  0
LINE
  5
1591
330
1BA5
100
AcDbEntity
  8
0
100
AcDbLine
 10
146.2144252284348
 20
134.5955663725237
 30
0.0
 11
147.5738869089897
 21
135.2294937651347
 31
0.0
  0
LINE
  5
1A76
330
1BA5
100
AcDbEntity
  8
0
100
AcDbLine
 10
266.7820012314764
 20
133.9940374026291
 30
0.0
 11
268.1414629120313
 21
134.6279647952401
 31
0.0
  0
LINE
  5
1592
330
1BA5
100
AcDbEntity
  8
0
100
AcDbLine
 10
145.0814005727153
 20
136.5580226424582
 30
0.0
 11
146.3101286391487
 21
137.4183872969848
 31
0.0
  0
LINE
  5
1A77
330
1BA5
100
AcDbEntity
  8
0
100
AcDbLine
 10
265.6489765757569
 20
135.9564936725636
 30
0.0
 11
266.8777046421903
 21
136.8168583270902
 31
0.0
  0
LINE
  5
1593
330
1BA5
100
AcDbEntity
  8
0
100
AcDbLine
 10
144.391001757505
 20
137.4577678958196
 30
0.0
 11
145.5400684221835
 21
138.4219493103494
 31
0.0
  0
LINE
  5
1A78
330
1BA5
100
AcDbEntity
  8
0
100
AcDbLine
 10
264.9585777605466
 20
136.856238925925
 30
0.0
 11
266.1076444252251
 21
137.8204203404548
 31
0.0
  0
LINE
  5
1594
330
1BA5
100
AcDbEntity
  8
0
100
AcDbLine
 10
143.6248121523835
 20
138.2939171253197
 30
0.0
 11
144.6854723241635
 21
139.3545772970995
 31
0.0
  0
LINE
  5
1A79
330
1BA5
100
AcDbEntity
  8
0
100
AcDbLine
 10
264.1923881554251
 20
137.6923881554251
 30
0.0
 11
265.2530483272051
 21
138.7530483272049
 31
0.0
  0
LINE
  5
1595
330
1BA5
100
AcDbEntity
  8
0
100
AcDbLine
 10
142.7886629228834
 20
139.0601067304413
 30
0.0
 11
143.7528443374131
 21
140.2091733951198
 31
0.0
  0
LINE
  5
1A7A
330
1BA5
100
AcDbEntity
  8
0
100
AcDbLine
 10
263.356238925925
 20
138.4585777605467
 30
0.0
 11
264.3204203404547
 21
139.6076444252252
 31
0.0
  0
LINE
  5
1596
330
1BA5
100
AcDbEntity
  8
0
100
AcDbLine
 10
141.888917669522
 20
139.7505055456515
 30
0.0
 11
142.7492823240485
 21
140.979233612085
 31
0.0
  0
LINE
  5
1A7B
330
1BA5
100
AcDbEntity
  8
0
100
AcDbLine
 10
262.4564936725636
 20
139.1489765757569
 30
0.0
 11
263.3168583270901
 21
140.3777046421904
 31
0.0
  0
LINE
  5
1597
330
1BA5
100
AcDbEntity
  8
0
100
AcDbLine
 10
140.9324239969583
 20
140.3598592190923
 30
0.0
 11
141.6824239969583
 21
141.658897324769
 31
0.0
  0
LINE
  5
1A7C
330
1BA5
100
AcDbEntity
  8
0
100
AcDbLine
 10
261.4999999999999
 20
139.7583302491977
 30
0.0
 11
262.2499999999999
 21
141.0573683548744
 31
0.0
  0
LINE
  5
1598
330
1BA5
100
AcDbEntity
  8
0
100
AcDbLine
 10
139.9264613995875
 20
140.883530201371
 30
0.0
 11
140.5603887921985
 21
142.242991881926
 31
0.0
  0
LINE
  5
1A7D
330
1BA5
100
AcDbEntity
  8
0
100
AcDbLine
 10
260.4940374026291
 20
140.2820012314764
 30
0.0
 11
261.1279647952401
 21
141.6414629120314
 31
0.0
  0
LINE
  5
1599
330
1BA5
100
AcDbEntity
  8
0
100
AcDbLine
 10
138.8786858601921
 20
141.3175330401114
 30
0.0
 11
139.3917160751806
 21
142.7270719712903
 31
0.0
  0
LINE
  5
1A7E
330
1BA5
100
AcDbEntity
  8
0
100
AcDbLine
 10
259.4462618632337
 20
140.7160040702168
 30
0.0
 11
259.9592920782222
 21
142.1255430013957
 31
0.0
  0
LINE
  5
159A
330
1BA5
100
AcDbEntity
  8
0
100
AcDbLine
 10
137.7970715832911
 20
141.6585647116525
 30
0.0
 11
138.185300150945
 21
143.1074534510861
 31
0.0
  0
LINE
  5
1A7F
330
1BA5
100
AcDbEntity
  8
0
100
AcDbLine
 10
258.3646475863328
 20
141.0570357417579
 30
0.0
 11
258.7528761539866
 21
142.5059244811915
 31
0.0
  0
LINE
  5
159B
330
1BA5
100
AcDbEntity
  8
0
100
AcDbLine
 10
136.6898503066284
 20
141.9040297590533
 30
0.0
 11
136.9503225731289
 21
143.3812413885716
 31
0.0
  0
LINE
  5
1A80
330
1BA5
100
AcDbEntity
  8
0
100
AcDbLine
 10
257.2574263096701
 20
141.3025007891587
 30
0.0
 11
257.5178985761705
 21
142.779712418677
 31
0.0
  0
LINE
  5
159C
330
1BA5
100
AcDbEntity
  8
0
100
AcDbLine
 10
135.565448652678
 20
142.0520600450873
 30
0.0
 11
135.6961822667994
 21
143.5463520922249
 31
0.0
  0
LINE
  5
1A81
330
1BA5
100
AcDbEntity
  8
0
100
AcDbLine
 10
256.1330246557196
 20
141.4505310751927
 30
0.0
 11
256.263758269841
 21
142.9448231223303
 31
0.0
  0
MTEXT
  5
159D
330
1BA5
100
AcDbEntity
  8
0
100
AcDbMText
 10
134.303014316119
 20
147.1641563499117
 30
0.0
 40
2.5
 41
0.0
 46
0.0
 71
     2
 72
     1
  1
\H1.5;TUNE
  7
textstyle3
 73
     1
 44
1.0
  0
MTEXT
  5
1A82
330
1BA5
100
AcDbEntity
  8
0
100
AcDbMText
 10
254.8705903191606
 20
146.5626273800171
 30
0.0
 40
2.5
 41
0.0
 46
0.0
 71
     2
 72
     1
  1
\H1.5;TUNE
  7
textstyle3
 73
     1
 44
1.0
  0
CIRCLE
  5
159E
330
1BA5
100
AcDbEntity
  8
0
100
AcDbCircle
 10
111.9324239969583
 20
67.60152896989462
 30
0.0
 40
3.25
  0
CIRCLE
  5
1A83
330
1BA5
100
AcDbEntity
  8
0
100
AcDbCircle
 10
232.4999999999999
 20
67.00000000000003
 30
0.0
 40
3.25
  0
CIRCLE
  5
159F
330
1BA5
100
AcDbEntity
  8
0
100
AcDbCircle
 10
134.4324239969583
 20
67.60152896989462
 30
0.0
 40
3.25
  0
CIRCLE
  5
1A84
330
1BA5
100
AcDbEntity
  8
0
100
AcDbCircle
 10
254.9999999999999
 20
67.00000000000003
 30
0.0
 40
3.25
  0
CIRCLE
  5
15A0
330
1BA5
100
AcDbEntity
  8
0
100
AcDbCircle
 10
156.9324239969583
 20
67.60152896989462
 30
0.0
 40
3.25
  0
CIRCLE
  5
1A85
330
1BA5
100
AcDbEntity
  8
0
100
AcDbCircle
 10
277.4999999999999
 20
67.00000000000003
 30
0.0
 40
3.25
  0
CIRCLE
  5
15A1
330
1BA5
100
AcDbEntity
  8
0
100
AcDbCircle
 10
111.9324239969583
 20
50.60152896989462
 30
0.0
 40
3.25
  0
CIRCLE
  5
1A86
330
1BA5
100
AcDbEntity
  8
0
100
AcDbCircle
 10
232.4999999999999
 20
50.00000000000004
 30
0.0
 40
3.25
  0
CIRCLE
  5
15A2
330
1BA5
100
AcDbEntity
  8
0
100
AcDbCircle
 10
156.9324239969583
 20
50.60152896989462
 30
0.0
 40
3.25
  0
CIRCLE
  5
1A87
330
1BA5
100
AcDbEntity
  8
0
100
AcDbCircle
 10
277.4999999999999
 20
50.00000000000004
 30
0.0
 40
3.25
  0
CIRCLE
  5
15A3
330
1BA5
100
AcDbEntity
  8
0
100
AcDbCircle
 10
119.4324239969583
 20
102.1015289698946
 30
0.0
 40
3.25
  0
CIRCLE
  5
1A88
330
1BA5
100
AcDbEntity
  8
0
100
AcDbCircle
 10
239.9999999999999
 20
101.5
 30
0.0
 40
3.25
  0
CIRCLE
  5
15A4
330
1BA5
100
AcDbEntity
  8
0
100
AcDbCircle
 10
149.4324239969583
 20
102.1015289698946
 30
0.0
 40
3.25
  0
CIRCLE
  5
1A89
330
1BA5
100
AcDbEntity
  8
0
100
AcDbCircle
 10
269.9999999999999
 20
101.5
 30
0.0
 40
3.25
  0
CIRCLE
  5
15A5
330
1BA5
100
AcDbEntity
  8
0
100
AcDbCircle
 10
149.4324239969583
 20
85.10152896989462
 30
0.0
 40
3.25
  0
CIRCLE
  5
1A8A
330
1BA5
100
AcDbEntity
  8
0
100
AcDbCircle
 10
269.9999999999999
 20
84.50000000000003
 30
0.0
 40
3.25
  0
CIRCLE
  5
15A6
330
1BA5
100
AcDbEntity
  8
0
100
AcDbCircle
 10
119.4324239969583
 20
85.10152896989462
 30
0.0
 40
3.25
  0
CIRCLE
  5
1A8B
330
1BA5
100
AcDbEntity
  8
0
100
AcDbCircle
 10
239.9999999999999
 20
84.50000000000003
 30
0.0
 40
3.25
  0
MTEXT
  5
15A7
330
1BA5
100
AcDbEntity
  8
0
100
AcDbMText
 10
112.1331795997693
 20
74.09336019524092
 30
0.0
 40
2.0
 41
0.0
 46
0.0
 71
     2
 72
     1
  1
\H1.5;ACCENT
  7
textstyle3
 73
     1
 44
1.0
  0
MTEXT
  5
1A8C
330
1BA5
100
AcDbEntity
  8
0
100
AcDbMText
 10
232.7007556028109
 20
73.49183122534637
 30
0.0
 40
2.0
 41
0.0
 46
0.0
 71
     2
 72
     1
  1
\H1.5;ACCENT
  7
textstyle3
 73
     1
 44
1.0
  0
MTEXT
  5
15A8
330
1BA5
100
AcDbEntity
  8
0
100
AcDbMText
 10
134.0911844991217
 20
74.18245367948073
 30
0.0
 40
2.0
 41
0.0
 46
0.0
 71
     2
 72
     1
  1
\H1.5;TUNE CV
  7
textstyle3
 73
     1
 44
1.0
  0
MTEXT
  5
1A8D
330
1BA5
100
AcDbEntity
  8
0
100
AcDbMText
 10
254.6587605021634
 20
73.58092470958604
 30
0.0
 40
2.0
 41
0.0
 46
0.0
 71
     2
 72
     1
  1
\H1.5;TUNE CV
  7
textstyle3
 73
     1
 44
1.0
  0
MTEXT
  5
15A9
330
1BA5
100
AcDbEntity
  8
0
100
AcDbMText
 10
157.439810040334
 20
74.18245367948099
 30
0.0
 40
2.0
 41
0.0
 46
0.0
 71
     2
 72
     1
  1
\H1.5;SNAPPY CV
  7
textstyle3
 73
     1
 44
1.0
  0
MTEXT
  5
1A8E
330
1BA5
100
AcDbEntity
  8
0
100
AcDbMText
 10
278.0073860433757
 20
73.58092470958653
 30
0.0
 40
2.0
 41
0.0
 46
0.0
 71
     2
 72
     1
  1
\H1.5;SNAPPY CV
  7
textstyle3
 73
     1
 44
1.0
  0
MTEXT
  5
15AA
330
1BA5
100
AcDbEntity
  8
0
100
AcDbMText
 10
156.9544637098863
 20
57.20942057663113
 30
0.0
 40
2.0
 41
0.0
 46
0.0
 71
     2
 72
     1
  1
\H1.5;OUTPUT
  7
textstyle3
 73
     1
 44
1.0
  0
MTEXT
  5
1A8F
330
1BA5
100
AcDbEntity
  8
0
100
AcDbMText
 10
277.5220397129279
 20
56.60789160673656
 30
0.0
 40
2.0
 41
0.0
 46
0.0
 71
     2
 72
     1
  1
\H1.5;OUTPUT
  7
textstyle3
 73
     1
 44
1.0
  0
MTEXT
  5
15AB
330
1BA5
100
AcDbEntity
  8
0
100
AcDbMText
 10
112.0308526929899
 20
57.00476676306958
 30
0.0
 40
2.0
 41
0.0
 46
0.0
 71
     2
 72
     1
  1
\H1.5;TRIGGER
  7
textstyle3
 73
     1
 44
1.0
  0
MTEXT
  5
1A90
330
1BA5
100
AcDbEntity
  8
0
100
AcDbMText
 10
232.5984286960315
 20
56.403237793175
 30
0.0
 40
2.0
 41
0.0
 46
0.0
 71
     2
 72
     1
  1
\H1.5;TRIGGER
  7
textstyle3
 73
     1
 44
1.0
  0
LINE
  5
15AC
330
1BA5
100
AcDbEntity
  8
0
100
AcDbLine
 10
179.4324239969583
 20
160.6015289698946
 30
0.0
 11
179.4324239969583
 21
30.60152896989462
 31
0.0
  0
LINE
  5
1A91
330
1BA5
100
AcDbEntity
  8
0
100
AcDbLine
 10
299.9999999999999
 20
160.0
 30
0.0
 11
299.9999999999999
 21
30.00000000000003
 31
0.0
  0
LINE
  5
15AD
330
1BA5
100
AcDbEntity
  8
0
100
AcDbLine
 10
89.43242399695835
 20
30.60152896989463
 30
0.0
 11
89.43242399695835
 21
160.6015289698946
 31
0.0
  0
LINE
  5
1A92
330
1BA5
100
AcDbEntity
  8
0
100
AcDbLine
 10
210.0
 20
30.00000000000004
 30
0.0
 11
210.0
 21
160.0
 31
0.0
  0
LINE
  5
15AE
330
1BA5
100
AcDbEntity
  8
0
100
AcDbLine
 10
91.43242399695835
 20
41.10152896989462
 30
0.0
 11
91.43242399695835
 21
147.5015289698946
 31
0.0
  0
LINE
  5
1A93
330
1BA5
100
AcDbEntity
  8
0
100
AcDbLine
 10
212.0
 20
40.50000000000004
 30
0.0
 11
212.0
 21
146.9
 31
0.0
  0
LINE
  5
15AF
330
1BA5
100
AcDbEntity
  8
0
100
AcDbLine
 10
177.4324239969583
 20
147.5015289698946
 30
0.0
 11
177.4324239969583
 21
41.10152896989461
 31
0.0
  0
LINE
  5
1A94
330
1BA5
100
AcDbEntity
  8
0
100
AcDbLine
 10
297.9999999999999
 20
146.9
 30
0.0
 11
297.9999999999999
 21
40.50000000000002
 31
0.0
  0
DIMENSION
  5
15B0
330
1BA5
100
AcDbEntity
  8
0
100
AcDbDimension
280
     0
 10
104.3784839276233
 20
129.1015289698943
 30
0.0
 11
102.5034839276233
 21
115.6015289698944
 31
0.0
 70
    32
 71
     5
 42
-1.0
 73
     0
 74
     0
 75
     0
  3
QCADDimStyle
100
AcDbAlignedDimension
 13
134.4324239969583
 23
129.1015289698943
 33
0.0
 14
119.4324239969583
 24
102.1015289698945
 34
0.0
 50
90.0
100
AcDbRotatedDimension
1001
ACAD
1000
DSTYLE
1002
{
1070
   289
1070
     0
1002
}
  0
DIMENSION
  5
15B1
330
1BA5
100
AcDbEntity
  8
0
100
AcDbDimension
280
     0
 10
104.3784839276233
 20
102.1015289698945
 30
0.0
 11
102.5034839276233
 21
93.6015289698945
 31
0.0
 70
    32
 71
     5
 42
-1.0
 73
     0
 74
     0
 75
     0
  3
QCADDimStyle
100
AcDbAlignedDimension
 13
118.8074239969583
 23
102.1015289698945
 33
0.0
 14
119.4324239969583
 24
85.10152896989449
 34
0.0
 50
90.0
100
AcDbRotatedDimension
1001
ACAD
1000
DSTYLE
1002
{
1070
   289
1070
     0
1002
}
  0
DIMENSION
  5
15B2
330
1BA5
100
AcDbEntity
  8
0
100
AcDbDimension
280
     0
 10
104.3784839276233
 20
85.10152896989449
 30
0.0
 11
102.5034839276233
 21
76.3515289698943
 31
0.0
 70
    32
 71
     5
 42
-1.0
 73
     0
 74
     0
 75
     0
  3
QCADDimStyle
100
AcDbAlignedDimension
 13
119.4324239969583
 23
85.10152896989449
 33
0.0
 14
111.9324239969583
 24
67.60152896989412
 34
0.0
 50
90.0
100
AcDbRotatedDimension
1001
ACAD
1000
DSTYLE
1002
{
1070
   289
1070
     0
1002
}
  0
DIMENSION
  5
15B3
330
1BA5
100
AcDbEntity
  8
0
100
AcDbDimension
280
     0
 10
104.3784839276233
 20
67.60152896989412
 30
0.0
 11
102.5034839276233
 21
59.10152896989472
 31
0.0
 70
    32
 71
     5
 42
-1.0
 73
     0
 74
     0
 75
     0
  3
QCADDimStyle
100
AcDbAlignedDimension
 13
111.9324239969583
 23
67.60152896989412
 33
0.0
 14
111.9324239969583
 24
50.60152896989531
 34
0.0
 50
90.0
100
AcDbRotatedDimension
1001
ACAD
1000
DSTYLE
1002
{
1070
   289
1070
     0
1002
}
  0
DIMENSION
  5
15B4
330
1BA5
100
AcDbEntity
  8
0
100
AcDbDimension
280
     0
 10
134.4324239969583
 20
95.82425510984169
 30
0.0
 11
126.9324239969583
 21
97.69925510984169
 31
0.0
 70
    32
 71
     5
 42
-1.0
 73
     0
 74
     0
 75
     0
  3
QCADDimStyle
100
AcDbAlignedDimension
 13
134.4324239969583
 23
129.1015289698943
 33
0.0
 14
119.4324239969583
 24
102.1015289698945
 34
0.0
100
AcDbRotatedDimension
1001
ACAD
1000
DSTYLE
1002
{
1070
   289
1070
     0
1002
}
  0
DIMENSION
  5
15B5
330
1BA5
100
AcDbEntity
  8
0
100
AcDbDimension
280
     0
 10
134.4324239969583
 20
60.82163119747882
 30
0.0
 11
123.1824239969583
 21
62.69663119747882
 31
0.0
 70
    32
 71
     5
 42
-1.0
 73
     0
 74
     0
 75
     0
  3
QCADDimStyle
100
AcDbAlignedDimension
 13
134.4324239969583
 23
67.60152896989477
 33
0.0
 14
111.9324239969583
 24
67.60152896989412
 34
0.0
100
AcDbRotatedDimension
1001
ACAD
1000
DSTYLE
1002
{
1070
   289
1070
     0
1002
}
  0
LINE
  5
15B6
330
1BA5
100
AcDbEntity
  8
0
100
AcDbLine
 10
89.43242399695835
 20
160.6015289698946
 30
0.0
 11
179.4324239969583
 21
160.6015289698946
 31
0.0
  0
LINE
  5
1A9B
330
1BA5
100
AcDbEntity
  8
0
100
AcDbLine
 10
210.0
 20
160.0
 30
0.0
 11
299.9999999999999
 21
160.0
 31
0.0
  0
LINE
  5
15B7
330
1BA5
100
AcDbEntity
  8
0
100
AcDbLine
 10
89.43242399695835
 20
30.60152896989463
 30
0.0
 11
179.4324239969583
 21
30.60152896989463
 31
0.0
  0
LINE
  5
1A9C
330
1BA5
100
AcDbEntity
  8
0
100
AcDbLine
 10
210.0
 20
30.00000000000004
 30
0.0
 11
299.9999999999999
 21
30.00000000000004
 31
0.0
  0
DIMENSION
  5
15B8
330
1BA5
100
AcDbEntity
  8
0
100
AcDbDimension
280
     0
 10
77.79953836318023
 20
160.6015289698948
 30
0.0
 11
75.92453836318023
 21
144.8515289698946
 31
0.0
 70
    32
 71
     5
 42
-1.0
 73
     0
 74
     0
 75
     0
  3
QCADDimStyle
100
AcDbAlignedDimension
 13
89.43242399695835
 23
160.6015289698948
 33
0.0
 14
134.4324239969583
 24
129.1015289698943
 34
0.0
 50
90.0
100
AcDbRotatedDimension
1001
ACAD
1000
DSTYLE
1002
{
1070
   289
1070
     0
1002
}
  0
DIMENSION
  5
172E
330
1BA5
100
AcDbEntity
  8
0
100
AcDbDimension
280
     0
 10
197.0534811800692
 20
160.6015289698946
 30
0.0
 11
195.1784811800692
 21
95.60152896989463
 31
0.0
 70
    32
 71
     5
 42
-1.0
 73
     0
 74
     0
 75
     0
  3
QCADDimStyle
100
AcDbAlignedDimension
 13
179.4324239969583
 23
160.6015289698946
 33
0.0
 14
179.4324239969583
 24
30.60152896989468
 34
0.0
 50
90.0
100
AcDbRotatedDimension
1001
ACAD
1000
DSTYLE
1002
{
1070
   289
1070
     0
1002
}
  0
DIMENSION
  5
172F
330
1BA5
100
AcDbEntity
  8
0
100
AcDbDimension
280
     0
 10
188.9547637009265
 20
157.0015289698947
 30
0.0
 11
187.0797637009265
 21
95.60152896989466
 31
0.0
 70
    32
 71
     5
 42
-1.0
 73
     0
 74
     0
 75
     0
  3
QCADDimStyle
100
AcDbAlignedDimension
 13
173.3324239969584
 23
157.0015289698947
 33
0.0
 14
173.3324239969584
 24
34.20152896989462
 34
0.0
 50
90.0
100
AcDbRotatedDimension
1001
ACAD
1000
DSTYLE
1002
{
1070
   289
1070
     0
1002
}
  0
CIRCLE
  5
173A
330
1BA5
100
AcDbEntity
  8
0
100
AcDbCircle
 10
96.68242399695835
 20
157.0015289698946
 30
0.0
 40
1.599999999999994
  0
CIRCLE
  5
1AA0
330
1BA5
100
AcDbEntity
  8
0
100
AcDbCircle
 10
217.25
 20
156.4
 30
0.0
 40
1.599999999999994
  0
CIRCLE
  5
1740
330
1BA5
100
AcDbEntity
  8
0
100
AcDbCircle
 10
172.1824239969583
 20
157.0015289698946
 30
0.0
 40
1.599999999999994
  0
CIRCLE
  5
1AA1
330
1BA5
100
AcDbEntity
  8
0
100
AcDbCircle
 10
292.7499999999999
 20
156.4
 30
0.0
 40
1.599999999999994
  0
CIRCLE
  5
1746
330
1BA5
100
AcDbEntity
  8
0
100
AcDbCircle
 10
172.1824239969583
 20
34.20152896989461
 30
0.0
 40
1.599999999999994
  0
CIRCLE
  5
1AA2
330
1BA5
100
AcDbEntity
  8
0
100
AcDbCircle
 10
292.7499999999999
 20
33.60000000000002
 30
0.0
 40
1.599999999999994
  0
CIRCLE
  5
174C
330
1BA5
100
AcDbEntity
  8
0
100
AcDbCircle
 10
96.68242399695835
 20
34.20152896989462
 30
0.0
 40
1.599999999999994
  0
CIRCLE
  5
1AA3
330
1BA5
100
AcDbEntity
  8
0
100
AcDbCircle
 10
217.25
 20
33.60000000000003
 30
0.0
 40
1.599999999999994
  0
CIRCLE
  5
173B
330
1BA5
100
AcDbEntity
  8
0
100
AcDbCircle
 10
96.68242399695835
 20
157.0015289698946
 30
0.0
 40
0.3999999999999944
  0
CIRCLE
  5
1AA4
330
1BA5
100
AcDbEntity
  8
0
100
AcDbCircle
 10
217.25
 20
156.4
 30
0.0
 40
0.3999999999999944
  0
CIRCLE
  5
1741
330
1BA5
100
AcDbEntity
  8
0
100
AcDbCircle
 10
172.1824239969583
 20
157.0015289698946
 30
0.0
 40
0.3999999999999944
  0
CIRCLE
  5
1AA5
330
1BA5
100
AcDbEntity
  8
0
100
AcDbCircle
 10
292.7499999999999
 20
156.4
 30
0.0
 40
0.3999999999999944
  0
CIRCLE
  5
1747
330
1BA5
100
AcDbEntity
  8
0
100
AcDbCircle
 10
172.1824239969583
 20
34.20152896989461
 30
0.0
 40
0.3999999999999944
  0
CIRCLE
  5
1AA6
330
1BA5
100
AcDbEntity
  8
0
100
AcDbCircle
 10
292.7499999999999
 20
33.60000000000002
 30
0.0
 40
0.3999999999999944
  0
CIRCLE
  5
174D
330
1BA5
100
AcDbEntity
  8
0
100
AcDbCircle
 10
96.68242399695835
 20
34.20152896989462
 30
0.0
 40
0.3999999999999944
  0
CIRCLE
  5
1AA7
330
1BA5
100
AcDbEntity
  8
0
100
AcDbCircle
 10
217.25
 20
33.60000000000003
 30
0.0
 40
0.3999999999999944
  0
CIRCLE
  5
174F
330
1BA5
100
AcDbEntity
  8
0
100
AcDbCircle
 10
119.4324239969583
 20
102.1015289698946
 30
0.0
 40
0.25
  0
CIRCLE
  5
1AA8
330
1BA5
100
AcDbEntity
  8
0
100
AcDbCircle
 10
239.9999999999999
 20
101.5
 30
0.0
 40
0.25
  0
CIRCLE
  5
1750
330
1BA5
100
AcDbEntity
  8
0
100
AcDbCircle
 10
119.4324239969583
 20
85.10152896989462
 30
0.0
 40
0.25
  0
CIRCLE
  5
1AA9
330
1BA5
100
AcDbEntity
  8
0
100
AcDbCircle
 10
239.9999999999999
 20
84.50000000000003
 30
0.0
 40
0.25
  0
CIRCLE
  5
1751
330
1BA5
100
AcDbEntity
  8
0
100
AcDbCircle
 10
149.4324239969583
 20
85.10152896989462
 30
0.0
 40
0.25
  0
CIRCLE
  5
1AAA
330
1BA5
100
AcDbEntity
  8
0
100
AcDbCircle
 10
269.9999999999999
 20
84.50000000000003
 30
0.0
 40
0.25
  0
CIRCLE
  5
1752
330
1BA5
100
AcDbEntity
  8
0
100
AcDbCircle
 10
149.4324239969583
 20
102.1015289698946
 30
0.0
 40
0.25
  0
CIRCLE
  5
1AAB
330
1BA5
100
AcDbEntity
  8
0
100
AcDbCircle
 10
269.9999999999999
 20
101.5
 30
0.0
 40
0.25
  0
CIRCLE
  5
1754
330
1BA5
100
AcDbEntity
  8
0
100
AcDbCircle
 10
111.9324239969583
 20
67.60152896989462
 30
0.0
 40
0.25
  0
CIRCLE
  5
1AAC
330
1BA5
100
AcDbEntity
  8
0
100
AcDbCircle
 10
232.4999999999999
 20
67.00000000000003
 30
0.0
 40
0.25
  0
CIRCLE
  5
1755
330
1BA5
100
AcDbEntity
  8
0
100
AcDbCircle
 10
134.4324239969583
 20
67.60152896989462
 30
0.0
 40
0.25
  0
CIRCLE
  5
1AAD
330
1BA5
100
AcDbEntity
  8
0
100
AcDbCircle
 10
254.9999999999999
 20
67.00000000000003
 30
0.0
 40
0.25
  0
CIRCLE
  5
1756
330
1BA5
100
AcDbEntity
  8
0
100
AcDbCircle
 10
111.9324239969583
 20
50.60152896989462
 30
0.0
 40
0.25
  0
CIRCLE
  5
1AAE
330
1BA5
100
AcDbEntity
  8
0
100
AcDbCircle
 10
232.4999999999999
 20
50.00000000000004
 30
0.0
 40
0.25
  0
CIRCLE
  5
1757
330
1BA5
100
AcDbEntity
  8
0
100
AcDbCircle
 10
156.9324239969583
 20
50.60152896989462
 30
0.0
 40
0.25
  0
CIRCLE
  5
1AAF
330
1BA5
100
AcDbEntity
  8
0
100
AcDbCircle
 10
277.4999999999999
 20
50.00000000000004
 30
0.0
 40
0.25
  0
CIRCLE
  5
1758
330
1BA5
100
AcDbEntity
  8
0
100
AcDbCircle
 10
156.9324239969583
 20
67.60152896989462
 30
0.0
 40
0.25
  0
CIRCLE
  5
1AB0
330
1BA5
100
AcDbEntity
  8
0
100
AcDbCircle
 10
277.4999999999999
 20
67.00000000000003
 30
0.0
 40
0.25
  0
CIRCLE
  5
1759
330
1BA5
100
AcDbEntity
  8
0
100
AcDbCircle
 10
134.4324239969583
 20
129.1015289698946
 30
0.0
 40
0.5
  0
CIRCLE
  5
1AB1
330
1BA5
100
AcDbEntity
  8
0
100
AcDbCircle
 10
254.9999999999999
 20
128.5
 30
0.0
 40
0.5
  0
CIRCLE
  5
175B
330
1BA5
100
AcDbEntity
  8
0
100
AcDbCircle
 10
119.4324239969583
 20
102.1015289698946
 30
0.0
 40
3.5
  0
CIRCLE
  5
1AB2
330
1BA5
100
AcDbEntity
  8
0
100
AcDbCircle
 10
239.9999999999999
 20
101.5
 30
0.0
 40
3.5
  0
CIRCLE
  5
175C
330
1BA5
100
AcDbEntity
  8
0
100
AcDbCircle
 10
119.4324239969583
 20
85.10152896989462
 30
0.0
 40
3.5
  0
CIRCLE
  5
1AB3
330
1BA5
100
AcDbEntity
  8
0
100
AcDbCircle
 10
239.9999999999999
 20
84.50000000000003
 30
0.0
 40
3.5
  0
CIRCLE
  5
175D
330
1BA5
100
AcDbEntity
  8
0
100
AcDbCircle
 10
149.4324239969583
 20
102.1015289698946
 30
0.0
 40
3.5
  0
CIRCLE
  5
1AB4
330
1BA5
100
AcDbEntity
  8
0
100
AcDbCircle
 10
269.9999999999999
 20
101.5
 30
0.0
 40
3.5
  0
CIRCLE
  5
175F
330
1BA5
100
AcDbEntity
  8
0
100
AcDbCircle
 10
149.4324239969583
 20
85.10152896989462
 30
0.0
 40
3.5
  0
CIRCLE
  5
1AB5
330
1BA5
100
AcDbEntity
  8
0
100
AcDbCircle
 10
269.9999999999999
 20
84.50000000000003
 30
0.0
 40
3.5
  0
CIRCLE
  5
1760
330
1BA5
100
AcDbEntity
  8
0
100
AcDbCircle
 10
134.4324239969583
 20
67.60152896989462
 30
0.0
 40
3.5
  0
CIRCLE
  5
1AB6
330
1BA5
100
AcDbEntity
  8
0
100
AcDbCircle
 10
254.9999999999999
 20
67.00000000000003
 30
0.0
 40
3.5
  0
CIRCLE
  5
1761
330
1BA5
100
AcDbEntity
  8
0
100
AcDbCircle
 10
156.9324239969583
 20
67.60152896989462
 30
0.0
 40
3.5
  0
CIRCLE
  5
1AB7
330
1BA5
100
AcDbEntity
  8
0
100
AcDbCircle
 10
277.4999999999999
 20
67.00000000000003
 30
0.0
 40
3.5
  0
CIRCLE
  5
1762
330
1BA5
100
AcDbEntity
  8
0
100
AcDbCircle
 10
111.9324239969583
 20
67.60152896989462
 30
0.0
 40
3.5
  0
CIRCLE
  5
1AB8
330
1BA5
100
AcDbEntity
  8
0
100
AcDbCircle
 10
232.4999999999999
 20
67.00000000000003
 30
0.0
 40
3.5
  0
CIRCLE
  5
1763
330
1BA5
100
AcDbEntity
  8
0
100
AcDbCircle
 10
111.9324239969583
 20
50.60152896989462
 30
0.0
 40
3.5
  0
CIRCLE
  5
1AB9
330
1BA5
100
AcDbEntity
  8
0
100
AcDbCircle
 10
232.4999999999999
 20
50.00000000000004
 30
0.0
 40
3.5
  0
CIRCLE
  5
1764
330
1BA5
100
AcDbEntity
  8
0
100
AcDbCircle
 10
156.9324239969583
 20
50.60152896989462
 30
0.0
 40
3.5
  0
CIRCLE
  5
1ABA
330
1BA5
100
AcDbEntity
  8
0
100
AcDbCircle
 10
277.4999999999999
 20
50.00000000000004
 30
0.0
 40
3.5
  0
DIMENSION
  5
182E
330
1BA5
100
AcDbEntity
  8
0
100
AcDbDimension
280
     0
 10
89.43242399695835
 20
13.45937778300313
 30
0.0
 11
134.4324239969583
 21
15.33437778300313
 31
0.0
 70
    32
 71
     5
 42
-1.0
 73
     0
 74
     0
 75
     0
  3
QCADDimStyle
100
AcDbAlignedDimension
 13
89.43242399695835
 23
30.60152896989464
 33
0.0
 14
179.4324239969583
 24
30.60152896989468
 34
0.0
100
AcDbRotatedDimension
1001
ACAD
1000
DSTYLE
1002
{
1070
   289
1070
     0
1002
}
  0
DIMENSION
  5
1830
330
1BA5
100
AcDbEntity
  8
0
100
AcDbDimension
280
     0
 10
89.43242399695835
 20
165.6015289698946
 30
0.0
 11
93.05742399695835
 21
167.4765289698946
 31
0.0
 70
    32
 71
     5
 42
-1.0
 73
     0
 74
     0
 75
     0
  3
QCADDimStyle
100
AcDbAlignedDimension
 13
89.43242399695835
 23
160.6015289698946
 33
0.0
 14
96.68242399695835
 24
157.0015289698946
 34
0.0
100
AcDbRotatedDimension
1001
ACAD
1000
DSTYLE
1002
{
1070
   289
1070
     0
1002
}
  0
DIMENSION
  5
19E0
330
1BA5
100
AcDbEntity
  8
0
100
AcDbDimension
280
     0
 10
96.68242399695835
 20
22.49112027194411
 30
0.0
 11
134.4324239969583
 21
24.36612027194411
 31
0.0
 70
    32
 71
     5
 42
-1.0
 73
     0
 74
     0
 75
     0
  3
QCADDimStyle
100
AcDbAlignedDimension
 13
96.68242399695835
 23
34.20152896989462
 33
0.0
 14
172.1824239969583
 24
34.20152896989461
 34
0.0
100
AcDbRotatedDimension
1001
ACAD
1000
DSTYLE
1002
{
1070
   289
1070
     0
1002
}
  0
DIMENSION
  5
19E1
330
1BA5
100
AcDbEntity
  8
0
100
AcDbDimension
280
     0
 10
167.0
 20
35.80152896989463
 30
0.0
 11
165.0
 21
28.0
 31
0.0
 70
   160
 71
     5
 42
-1.0
 73
     0
 74
     0
 75
     0
  3
QCADDimStyle
100
AcDbAlignedDimension
 13
172.1824239969583
 23
35.80152896989463
 33
0.0
 14
172.1824239969583
 24
32.60152896989463
 34
0.0
 50
90.0
100
AcDbRotatedDimension
1001
ACAD
1000
DSTYLE
1002
{
1070
   289
1070
     0
1002
}
  0
VIEWPORT
  5
1C51
330
1BA1
100
AcDbEntity
 67
     1
  8
0
100
AcDbViewport
 10
128.5
 20
97.5
 30
0.0
 40
314.226
 41
222.18
 68
     1
 69
     1
 12
128.5
 22
97.5
 13
0.0
 23
0.0
 14
10.0
 24
10.0
 15
10.0
 25
10.0
 16
0.0
 26
0.0
 36
1.0
 17
0.0
 27
0.0
 37
0.0
 42
50.0
 43
0.0
 44
0.0
 45
222.18
 50
0.0
 51
0.0
 72
   100
 90
   557152
  1

281
     0
 71
     1
 74
     0
110
0.0
120
0.0
130
0.0
111
1.0
121
0.0
131
0.0
112
0.0
122
1.0
132
0.0
 79
     0
146
0.0
170
     0
 61
     5
348
1BB5
292
     1
282
     1
141
0.0
142
0.0
 63
   256
361
1C52
  0
ENDSEC
  0
SECTION
  2
OBJECTS
  0
DICTIONARY
  5
1B93
330
0
100
AcDbDictionary
281
     1
  3
ACAD_DETAILVIEWSTYLE
350
1C5E
  3
ACAD_GROUP
350
1B94
  3
ACAD_IMAGE_DICT
350
1C54
  3
ACAD_IMAGE_VARS
350
1C1C
  3
ACAD_LAYOUT
350
1BA0
  3
ACAD_MATERIAL
350
1BC9
  3
ACAD_MLEADERSTYLE
350
1BE1
  3
ACAD_MLINESTYLE
350
1B9D
  3
ACAD_PLOTSETTINGS
350
1B9F
  3
ACAD_PLOTSTYLENAME
350
1B95
  3
ACAD_SCALELIST
350
1BCD
  3
ACAD_SECTIONVIEWSTYLE
350
1C5F
  3
ACAD_TABLESTYLE
350
1BDF
  3
ACAD_VISUALSTYLE
350
1BB0
  3
ACDB_RECOMPOSE_DATA
350
1C5B
  3
AcDbVariableDictionary
350
1C57
  3
QCAD_OBJECTS
350
1BE5
  0
SUN
  5
1BE3
330
1BAF
100
AcDbSun
 90
        1
290
     0
 63
     7
421
 16777215
 40
1.0
291
     1
 91
  2455826
 92
 54000000
292
     0
 70
     2
 71
   256
280
     1
  0
IMAGEDEF_REACTOR
  5
1C56
330
45
100
AcDbRasterImageDefReactor
 90
        2
330
45
  0
SUN
  5
1C52
330
1C51
100
AcDbSun
 90
        1
290
     0
 63
     7
421
 16777215
 40
1.0
291
     1
 91
  2455826
 92
 54000000
292
     0
 70
     2
 71
   256
280
     1
  0
DICTIONARY
  5
1C5E
102
{ACAD_REACTORS
330
1B93
102
}
330
1B93
100
AcDbDictionary
281
     1
  0
DICTIONARY
  5
1B94
102
{ACAD_REACTORS
330
1B93
102
}
330
1B93
100
AcDbDictionary
281
     1
  0
DICTIONARY
  5
1C54
102
{ACAD_REACTORS
330
1B93
102
}
330
1B93
100
AcDbDictionary
281
     1
  3
image_70
350
1C55
  0
RASTERVARIABLES
  5
1C1C
102
{ACAD_REACTORS
330
1B93
102
}
330
1B93
100
AcDbRasterVariables
 90
        0
 70
     1
 71
     1
 72
     1
  0
DICTIONARY
  5
1BA0
102
{ACAD_REACTORS
330
1B93
102
}
330
1B93
100
AcDbDictionary
281
     1
  3
Layout1
350
1BA4
  3
Model
350
1BA8
  0
DICTIONARY
  5
1BC9
102
{ACAD_REACTORS
330
1B93
102
}
330
1B93
100
AcDbDictionary
281
     1
  3
ByBlock
350
1BCB
  3
ByLayer
350
1BCA
  3
Global
350
1BCC
  0
DICTIONARY
  5
1BE1
102
{ACAD_REACTORS
330
1B93
102
}
330
1B93
100
AcDbDictionary
281
     1
  3
Standard
350
1BE2
  0
DICTIONARY
  5
1B9D
102
{ACAD_REACTORS
330
1B93
102
}
330
1B93
100
AcDbDictionary
281
     1
  3
Standard
350
1B9E
  0
DICTIONARY
  5
1B9F
102
{ACAD_REACTORS
330
1B93
102
}
330
1B93
100
AcDbDictionary
281
     1
  0
ACDBDICTIONARYWDFLT
  5
1B95
102
{ACAD_REACTORS
330
1B93
102
}
330
1B93
100
AcDbDictionary
281
     1
  3
Normal
350
1B96
100
AcDbDictionaryWithDefault
340
1B96
  0
DICTIONARY
  5
1BCD
102
{ACAD_REACTORS
330
1B93
102
}
330
1B93
100
AcDbDictionary
281
     1
  3
A0
350
1BCE
  3
A1
350
1BCF
  3
A2
350
1BD0
  3
A3
350
1BD1
  3
A4
350
1BD2
  3
A5
350
1BD3
  3
A6
350
1BD4
  3
A7
350
1BD5
  3
A8
350
1BD6
  3
A9
350
1BD7
  3
B1
350
1BD8
  3
B2
350
1BD9
  3
B3
350
1BDA
  3
B4
350
1BDB
  3
B5
350
1BDC
  3
B6
350
1BDD
  3
B7
350
1BDE
  0
DICTIONARY
  5
1C5F
102
{ACAD_REACTORS
330
1B93
102
}
330
1B93
100
AcDbDictionary
281
     1
  0
DICTIONARY
  5
1BDF
102
{ACAD_REACTORS
330
1B93
102
}
330
1B93
100
AcDbDictionary
281
     1
  3
Standard
350
1BE0
  0
DICTIONARY
  5
1BB0
102
{ACAD_REACTORS
330
1B93
102
}
330
1B93
100
AcDbDictionary
281
     1
  3
2dWireframe
350
1BB5
  3
Basic
350
1BB8
  3
Brighten
350
1BBC
  3
ColorChange
350
1BC0
  3
Conceptual
350
1BBA
  3
Dim
350
1BBB
  3
EdgeColorOff
350
1BC3
  3
Facepattern
350
1BBF
  3
Flat
350
1BB1
  3
FlatWithEdges
350
1BB2
  3
Gouraud
350
1BB3
  3
GouraudWithEdges
350
1BB4
  3
Hidden
350
1BB7
  3
JitterOff
350
1BC1
  3
Linepattern
350
1BBE
  3
OverhangOff
350
1BC2
  3
Realistic
350
1BB9
  3
Shaded
350
1BC8
  3
Shaded with edges
350
1BC7
  3
Shades of Gray
350
1BC4
  3
Sketchy
350
1BC5
  3
Thicken
350
1BBD
  3
Wireframe
350
1BB6
  3
X-Ray
350
1BC6
  0
XRECORD
  5
1C5B
102
{ACAD_REACTORS
330
1B93
102
}
330
1B93
100
AcDbXrecord
280
     1
 90
        1
330
1BE0
  0
DICTIONARY
  5
1C57
102
{ACAD_REACTORS
330
1B93
102
}
330
1B93
100
AcDbDictionary
281
     1
  3
CANNOSCALE
350
1C58
  3
CMLEADERSTYLE
350
1C5D
  3
CTABLESTYLE
350
1C5C
  0
DICTIONARY
  5
1BE5
102
{ACAD_REACTORS
330
1B93
102
}
330
1B93
100
AcDbDictionary
281
     1
  3
ColorSettings/BackgroundColor
350
1BE7
  3
ColorSettings/ColorMode
350
1BE8
  3
Grid/DisplayGrid00
350
1BE9
  3
Grid/DisplayGrid01
350
1BEA
  3
Grid/DisplayGrid02
350
1BEB
  3
Grid/DisplayGrid03
350
1BEC
  3
Grid/GridSpacingX00
350
1BED
  3
Grid/GridSpacingX01
350
1BEE
  3
Grid/GridSpacingX02
350
1BEF
  3
Grid/GridSpacingX03
350
1BF0
  3
Grid/GridSpacingY00
350
1BF1
  3
Grid/GridSpacingY01
350
1BF2
  3
Grid/GridSpacingY02
350
1BF3
  3
Grid/GridSpacingY03
350
1BF4
  3
Grid/IsometricGrid00
350
1BF5
  3
Grid/IsometricGrid01
350
1BF6
  3
Grid/IsometricGrid02
350
1BF7
  3
Grid/IsometricGrid03
350
1BF8
  3
Grid/IsometricProjection00
350
1BF9
  3
Grid/IsometricProjection01
350
1BFA
  3
Grid/IsometricProjection02
350
1BFB
  3
Grid/IsometricProjection03
350
1BFC
  3
Grid/MetaGridSpacingX00
350
1BFD
  3
Grid/MetaGridSpacingX01
350
1BFE
  3
Grid/MetaGridSpacingX02
350
1BFF
  3
Grid/MetaGridSpacingX03
350
1C00
  3
Grid/MetaGridSpacingY00
350
1C01
  3
Grid/MetaGridSpacingY01
350
1C02
  3
Grid/MetaGridSpacingY02
350
1C03
  3
Grid/MetaGridSpacingY03
350
1C04
  3
MultiPageSettings/Columns
350
1C05
  3
MultiPageSettings/GlueMarginsBottom
350
1C06
  3
MultiPageSettings/GlueMarginsLeft
350
1C07
  3
MultiPageSettings/GlueMarginsRight
350
1C08
  3
MultiPageSettings/GlueMarginsTop
350
1C09
  3
MultiPageSettings/PrintCropMarks
350
1C0A
  3
MultiPageSettings/Rows
350
1C0B
  3
PageSettings/OffsetX
350
1C0C
  3
PageSettings/OffsetY
350
1C0D
  3
PageSettings/PageOrientation
350
1C0E
  3
PageSettings/PaperHeight
350
1C0F
  3
PageSettings/PaperWidth
350
1C10
  3
PageSettings/Scale
350
1C11
  3
PageSettings/ShowPaperBorders
350
1C12
  3
PageTagSettings/EnablePageTags
350
1C13
  3
PageTagSettings/TagAlignment
350
1C14
  3
PageTagSettings/TagFont
350
1C15
  3
PageTagSettings/TagPosition
350
1C16
  3
QCADVersion
350
1C17
  3
UnitSettings/PaperUnit
350
1C18
  3
ViewportCenter
350
1C19
  3
ViewportHeight
350
1C1A
  3
ViewportWidth
350
1C1B
  0
IMAGEDEF
  5
1C55
102
{ACAD_REACTORS
330
1C54
330
1C56
102
}
330
1C54
100
AcDbRasterImageDef
 90
        0
  1
C:/Users/Usuario/Desktop/Logo Don Bosco txuri beltz.bmp
 10
213.0
 20
237.0
 11
0.004694835680751174
 21
0.004694835680751174
280
     1
281
     1
  0
LAYOUT
  5
1BA4
102
{ACAD_REACTORS
330
1BA0
102
}
330
1BA0
100
AcDbPlotSettings
  1

  2
none_device
  4
ISO_A4_(210.00_x_297.00_MM)
  6

 40
7.5
 41
20.0
 42
7.5
 43
20.0
 44
210.0
 45
297.0
 46
0.0
 47
0.0
 48
0.0
 49
0.0
140
0.0
141
0.0
142
1.0
143
384.0
 70
   688
 72
     1
 73
     1
 74
     5
  7

 75
     3
 76
     0
 77
     2
 78
   300
147
0.0026041666666667
148
0.0
149
0.0
100
AcDbLayout
  1
Layout1
 70
     1
 71
     0
 10
-20.0
 20
-7.5
 11
277.0
 21
202.5
 12
0.0
 22
0.0
 32
0.0
 14
0.0
 24
0.0
 34
0.0
 15
0.0
 25
0.0
 35
0.0
146
0.0
 13
0.0
 23
0.0
 33
0.0
 16
1.0
 26
0.0
 36
0.0
 17
0.0
 27
1.0
 37
0.0
 76
     0
330
1BA1
331
1C51
  0
LAYOUT
  5
1BA8
102
{ACAD_REACTORS
330
1BA0
102
}
330
1BA0
100
AcDbPlotSettings
  1

  2
none_device
  4
Letter_(8.50_x_11.00_Inches)
  6

 40
6.35
 41
6.35
 42
6.35000508
 43
6.35000508
 44
215.9
 45
279.4
 46
0.0
 47
0.0
 48
0.0
 49
0.0
140
0.0
141
0.0
142
1.0
143
1.0
 70
  1712
 72
     0
 73
     0
 74
     0
  7

 75
     0
 76
     0
 77
     2
 78
   300
147
1.0
148
0.0
149
0.0
100
AcDbLayout
  1
Model
 70
     1
 71
     0
 10
0.0
 20
0.0
 11
12.0
 21
9.0
 12
0.0
 22
0.0
 32
0.0
 14
67.15842996187939
 24
-108.2120792116921
 34
0.0
 15
317.1584299618794
 25
223.7879207883079
 35
0.0
146
0.0
 13
0.0
 23
0.0
 33
0.0
 16
1.0
 26
0.0
 36
0.0
 17
0.0
 27
1.0
 37
0.0
 76
     0
330
1BA5
331
1BAF
  0
MATERIAL
  5
1BCB
102
{ACAD_REACTORS
330
1BC9
102
}
330
1BC9
100
AcDbMaterial
  1
ByBlock
 72
     1
 94
      127
  0
MATERIAL
  5
1BCA
102
{ACAD_REACTORS
330
1BC9
102
}
330
1BC9
100
AcDbMaterial
  1
ByLayer
 72
     1
 94
      127
  0
MATERIAL
  5
1BCC
102
{ACAD_REACTORS
330
1BC9
102
}
330
1BC9
100
AcDbMaterial
  1
Global
 72
     1
 94
      127
  0
MLEADERSTYLE
  5
1BE2
102
{ACAD_REACTORS
330
1BE1
102
}
330
1BE1
100
AcDbMLeaderStyle
179
     2
170
     2
171
     1
172
     0
 90
        2
 40
0.0
 41
0.0
173
     1
 91
-1056964608
340
1B9A
 92
       -2
290
     1
 42
0.09
291
     1
 43
0.36
  3
Standard
341
0
 44
0.18
300

342
1B98
174
     1
178
     6
175
     1
176
     0
 93
-1056964608
 45
0.18
292
     0
297
     0
 46
0.18
343
0
 94
-1056964608
 47
1.0
 49
1.0
140
1.0
293
     1
141
0.0
294
     1
177
     0
142
1.0
295
     0
296
     0
143
0.125
271
     0
272
     9
273
     9
298
     0
  0
MLINESTYLE
  5
1B9E
102
{ACAD_REACTORS
330
1B9D
102
}
330
1B9D
100
AcDbMlineStyle
  2
Standard
 70
     0
  3

 62
   256
 51
90.0
 52
90.0
 71
     2
 49
0.5
 62
   256
  6
BYLAYER
 49
-0.5
 62
   256
  6
BYLAYER
  0
ACDBPLACEHOLDER
  5
1B96
102
{ACAD_REACTORS
330
1B95
102
}
330
1B95
  0
SCALE
  5
1BCE
102
{ACAD_REACTORS
330
1BCD
102
}
330
1BCD
100
AcDbScale
 70
     0
300
1:1
140
1.0
141
1.0
290
     1
  0
SCALE
  5
1BCF
102
{ACAD_REACTORS
330
1BCD
102
}
330
1BCD
100
AcDbScale
 70
     0
300
1/128" = 1'-0"
140
0.0078125
141
12.0
290
     0
  0
SCALE
  5
1BD0
102
{ACAD_REACTORS
330
1BCD
102
}
330
1BCD
100
AcDbScale
 70
     0
300
1/64" = 1'-0"
140
0.015625
141
12.0
290
     0
  0
SCALE
  5
1BD1
102
{ACAD_REACTORS
330
1BCD
102
}
330
1BCD
100
AcDbScale
 70
     0
300
1/32" = 1'-0"
140
0.03125
141
12.0
290
     0
  0
SCALE
  5
1BD2
102
{ACAD_REACTORS
330
1BCD
102
}
330
1BCD
100
AcDbScale
 70
     0
300
1/16" = 1'-0"
140
0.0625
141
12.0
290
     0
  0
SCALE
  5
1BD3
102
{ACAD_REACTORS
330
1BCD
102
}
330
1BCD
100
AcDbScale
 70
     0
300
3/32" = 1'-0"
140
0.09375
141
12.0
290
     0
  0
SCALE
  5
1BD4
102
{ACAD_REACTORS
330
1BCD
102
}
330
1BCD
100
AcDbScale
 70
     0
300
1/8" = 1'-0"
140
0.125
141
12.0
290
     0
  0
SCALE
  5
1BD5
102
{ACAD_REACTORS
330
1BCD
102
}
330
1BCD
100
AcDbScale
 70
     0
300
3/16" = 1'-0"
140
0.1875
141
12.0
290
     0
  0
SCALE
  5
1BD6
102
{ACAD_REACTORS
330
1BCD
102
}
330
1BCD
100
AcDbScale
 70
     0
300
1/4" = 1'-0"
140
0.25
141
12.0
290
     0
  0
SCALE
  5
1BD7
102
{ACAD_REACTORS
330
1BCD
102
}
330
1BCD
100
AcDbScale
 70
     0
300
3/8" = 1'-0"
140
0.375
141
12.0
290
     0
  0
SCALE
  5
1BD8
102
{ACAD_REACTORS
330
1BCD
102
}
330
1BCD
100
AcDbScale
 70
     0
300
1/2" = 1'-0"
140
0.5
141
12.0
290
     0
  0
SCALE
  5
1BD9
102
{ACAD_REACTORS
330
1BCD
102
}
330
1BCD
100
AcDbScale
 70
     0
300
3/4" = 1'-0"
140
0.75
141
12.0
290
     0
  0
SCALE
  5
1BDA
102
{ACAD_REACTORS
330
1BCD
102
}
330
1BCD
100
AcDbScale
 70
     0
300
1" = 1'-0"
140
1.0
141
12.0
290
     0
  0
SCALE
  5
1BDB
102
{ACAD_REACTORS
330
1BCD
102
}
330
1BCD
100
AcDbScale
 70
     0
300
1-1/2" = 1'-0"
140
1.5
141
12.0
290
     0
  0
SCALE
  5
1BDC
102
{ACAD_REACTORS
330
1BCD
102
}
330
1BCD
100
AcDbScale
 70
     0
300
3" = 1'-0"
140
3.0
141
12.0
290
     0
  0
SCALE
  5
1BDD
102
{ACAD_REACTORS
330
1BCD
102
}
330
1BCD
100
AcDbScale
 70
     0
300
6" = 1'-0"
140
6.0
141
12.0
290
     0
  0
SCALE
  5
1BDE
102
{ACAD_REACTORS
330
1BCD
102
}
330
1BCD
100
AcDbScale
 70
     0
300
1'-0" = 1'-0"
140
12.0
141
12.0
290
     0
  0
TABLESTYLE
  5
1BE0
102
{ACAD_REACTORS
330
1BDF
102
}
102
{ACAD_XDICTIONARY
360
1C59
102
}
330
1BDF
100
AcDbTableStyle
  3
Standard
 70
     0
 71
     0
 40
0.06
 41
0.06
280
     0
281
     0
  7
Standard
140
0.18
170
     2
 62
     0
 63
   257
283
     0
 90
        4
 91
        0
  1

274
    -2
284
     1
 64
     0
275
    -2
285
     1
 65
     0
276
    -2
286
     1
 66
     0
277
    -2
287
     1
 67
     0
278
    -2
288
     1
 68
     0
279
    -2
289
     1
 69
     0
  7
Standard
140
0.25
170
     5
 62
     0
 63
   257
283
     0
 90
        4
 91
        0
  1

274
    -2
284
     1
 64
     0
275
    -2
285
     1
 65
     0
276
    -2
286
     1
 66
     0
277
    -2
287
     1
 67
     0
278
    -2
288
     1
 68
     0
279
    -2
289
     1
 69
     0
  7
Standard
140
0.18
170
     5
 62
     0
 63
   257
283
     0
 90
        4
 91
        0
  1

274
    -2
284
     1
 64
     0
275
    -2
285
     1
 65
     0
276
    -2
286
     1
 66
     0
277
    -2
287
     1
 67
     0
278
    -2
288
     1
 68
     0
279
    -2
289
     1
 69
     0
  0
VISUALSTYLE
  5
1BB5
102
{ACAD_REACTORS
330
1BB0
102
}
330
1BB0
100
AcDbVisualStyle
  2
2dWireframe
 70
     4
177
     3
291
     0
 70
    58
 90
        0
176
     1
 90
        2
176
     1
 90
        0
176
     1
 90
        0
176
     1
 40
0.6
176
     1
 40
30.0
176
     1
 62
     7
420
 16777215
176
     1
 90
        1
176
     1
 90
        4
176
     1
 62
     7
176
     1
 62
   257
176
     1
 90
        1
176
     1
 90
        1
176
     1
 40
1.0
176
     1
 90
        0
176
     1
 62
   257
176
     1
 40
1.0
176
     1
 90
        1
176
     1
 90
        6
176
     1
 90
        2
176
     1
 62
     7
176
     1
 90
        5
176
     1
 90
        0
176
     1
 90
        0
176
     1
290
     0
176
     1
 90
        1
176
     1
 40
0.0
176
     1
 90
        0
176
     1
290
     1
176
     1
290
     1
176
     1
290
     0
176
     1
290
     0
176
     1
290
     0
176
     1
290
     0
176
     1
290
     0
176
     1
290
     0
176
     1
290
     0
176
     1
 90
       50
176
     1
 40
0.0
176
     1
 40
1.0
176
     1
 90
        0
176
     1
 62
    18
420
        0
176
     1
 90
       50
176
     1
 90
        3
176
     1
 62
     5
420
      255
176
     1
290
     0
176
     1
 90
       50
176
     1
 90
       50
176
     1
 90
       50
176
     1
290
     0
176
     1
 90
       50
176
     1
 62
   256
176
     0
 40
1.0
176
     0
 90
        2
176
     1
  1
strokes_ogs.tif
176
     1
290
     0
176
     1
 40
1.0
176
     1
 40
1.0
176
     1
  0
VISUALSTYLE
  5
1BB8
102
{ACAD_REACTORS
330
1BB0
102
}
330
1BB0
100
AcDbVisualStyle
  2
Basic
 70
     7
177
     3
291
     1
 70
    58
 90
        1
176
     1
 90
        0
176
     1
 90
        1
176
     1
 90
        0
176
     1
 40
0.6
176
     1
 40
30.0
176
     1
 62
     7
420
 16777215
176
     1
 90
        0
176
     1
 90
        4
176
     1
 62
     7
176
     1
 62
   257
176
     1
 90
        1
176
     1
 90
        1
176
     1
 40
1.0
176
     1
 90
        8
176
     1
 62
     7
176
     1
 40
1.0
176
     1
 90
        1
176
     1
 90
        6
176
     1
 90
        2
176
     1
 62
     7
176
     1
 90
        5
176
     1
 90
        0
176
     1
 90
        0
176
     1
290
     0
176
     1
 90
        1
176
     1
 40
0.0
176
     1
 90
        0
176
     1
290
     0
176
     1
290
     1
176
     1
290
     1
176
     1
290
     0
176
     1
290
     0
176
     1
290
     0
176
     1
290
     0
176
     1
290
     0
176
     1
290
     0
176
     1
 90
       50
176
     1
 40
0.0
176
     1
 40
1.0
176
     1
 90
        0
176
     1
 62
    18
420
        0
176
     1
 90
       50
176
     1
 90
        3
176
     1
 62
     5
420
      255
176
     1
290
     0
176
     1
 90
       50
176
     1
 90
       50
176
     1
 90
       50
176
     1
290
     0
176
     1
 90
       50
176
     1
 62
   256
176
     0
 40
1.0
176
     0
 90
        2
176
     1
  1
strokes_ogs.tif
176
     1
290
     0
176
     1
 40
1.0
176
     1
 40
1.0
176
     1
  0
VISUALSTYLE
  5
1BBC
102
{ACAD_REACTORS
330
1BB0
102
}
330
1BB0
100
AcDbVisualStyle
  2
Brighten
 70
    12
177
     3
291
     1
 70
    58
 90
        2
176
     1
 90
        2
176
     1
 90
        0
176
     1
 90
        0
176
     1
 40
0.6
176
     1
 40
30.0
176
     1
 62
     7
420
 16777215
176
     1
 90
        1
176
     1
 90
        4
176
     1
 62
     7
176
     1
 62
   257
176
     1
 90
        1
176
     1
 90
        1
176
     1
 40
1.0
176
     1
 90
        8
176
     1
 62
     7
176
     1
 40
1.0
176
     1
 90
        1
176
     1
 90
        6
176
     1
 90
        2
176
     1
 62
     7
176
     1
 90
        5
176
     1
 90
        0
176
     1
 90
        0
176
     1
290
     0
176
     1
 90
        1
176
     1
 40
50.0
176
     1
 90
        0
176
     1
290
     0
176
     1
290
     1
176
     1
290
     1
176
     1
290
     0
176
     1
290
     0
176
     1
290
     0
176
     1
290
     0
176
     1
290
     0
176
     1
290
     0
176
     1
 90
       50
176
     1
 40
0.0
176
     1
 40
1.0
176
     1
 90
        0
176
     1
 62
    18
420
        0
176
     1
 90
       50
176
     1
 90
        3
176
     1
 62
     5
420
      255
176
     1
290
     0
176
     1
 90
       50
176
     1
 90
       50
176
     1
 90
       50
176
     1
290
     0
176
     1
 90
       50
176
     1
 62
   256
176
     0
 40
1.0
176
     0
 90
        2
176
     1
  1
strokes_ogs.tif
176
     1
290
     0
176
     1
 40
1.0
176
     1
 40
1.0
176
     1
  0
VISUALSTYLE
  5
1BC0
102
{ACAD_REACTORS
330
1BB0
102
}
330
1BB0
100
AcDbVisualStyle
  2
ColorChange
 70
    16
177
     3
291
     1
 70
    58
 90
        2
176
     1
 90
        2
176
     1
 90
        3
176
     1
 90
        0
176
     1
 40
0.6
176
     1
 40
30.0
176
     1
 62
     8
420
  8421504
176
     1
 90
        1
176
     1
 90
        4
176
     1
 62
     7
176
     1
 62
   257
176
     1
 90
        1
176
     1
 90
        1
176
     1
 40
1.0
176
     1
 90
        8
176
     1
 62
     8
420
  8421504
176
     1
 40
1.0
176
     1
 90
        1
176
     1
 90
        6
176
     1
 90
        2
176
     1
 62
     7
176
     1
 90
        5
176
     1
 90
        0
176
     1
 90
        0
176
     1
290
     0
176
     1
 90
        1
176
     1
 40
0.0
176
     1
 90
        0
176
     1
290
     0
176
     1
290
     1
176
     1
290
     1
176
     1
290
     0
176
     1
290
     0
176
     1
290
     0
176
     1
290
     0
176
     1
290
     0
176
     1
290
     0
176
     1
 90
       50
176
     1
 40
0.0
176
     1
 40
1.0
176
     1
 90
        0
176
     1
 62
    18
420
        0
176
     1
 90
       50
176
     1
 90
        3
176
     1
 62
     5
420
      255
176
     1
290
     0
176
     1
 90
       50
176
     1
 90
       50
176
     1
 90
       50
176
     1
290
     0
176
     1
 90
       50
176
     1
 62
   256
176
     0
 40
1.0
176
     0
 90
        2
176
     1
  1
strokes_ogs.tif
176
     1
290
     0
176
     1
 40
1.0
176
     1
 40
1.0
176
     1
  0
VISUALSTYLE
  5
1BBA
102
{ACAD_REACTORS
330
1BB0
102
}
330
1BB0
100
AcDbVisualStyle
  2
Conceptual
 70
     9
177
     3
291
     0
 70
    58
 90
        3
176
     1
 90
        2
176
     1
 90
        0
176
     1
 90
        0
176
     1
 40
0.6
176
     1
 40
30.0
176
     1
 62
     7
420
 16777215
176
     1
 90
        2
176
     1
 90
        2
176
     1
 62
     7
176
     1
 62
   257
176
     1
 90
        1
176
     1
 90
        1
176
     1
 40
179.0
176
     1
 90
        8
176
     1
 62
     7
176
     1
 40
1.0
176
     1
 90
        1
176
     1
 90
        6
176
     1
 90
        2
176
     1
 62
     7
176
     1
 90
        3
176
     1
 90
        0
176
     1
 90
        0
176
     1
290
     0
176
     1
 90
        1
176
     1
 40
0.0
176
     1
 90
        0
176
     1
290
     0
176
     1
290
     1
176
     1
290
     1
176
     1
290
     0
176
     1
290
     0
176
     1
290
     0
176
     1
290
     0
176
     1
290
     0
176
     1
290
     0
176
     1
 90
       50
176
     1
 40
0.0
176
     1
 40
1.0
176
     1
 90
        0
176
     1
 62
    18
420
        0
176
     1
 90
       50
176
     1
 90
        3
176
     1
 62
     5
420
      255
176
     1
290
     0
176
     1
 90
       50
176
     1
 90
       50
176
     1
 90
       50
176
     1
290
     0
176
     1
 90
       50
176
     1
 62
   256
176
     0
 40
1.0
176
     0
 90
        2
176
     1
  1
strokes_ogs.tif
176
     1
290
     0
176
     1
 40
1.0
176
     1
 40
1.0
176
     1
  0
VISUALSTYLE
  5
1BBB
102
{ACAD_REACTORS
330
1BB0
102
}
330
1BB0
100
AcDbVisualStyle
  2
Dim
 70
    11
177
     3
291
     1
 70
    58
 90
        2
176
     1
 90
        2
176
     1
 90
        0
176
     1
 90
        0
176
     1
 40
0.6
176
     1
 40
30.0
176
     1
 62
     7
420
 16777215
176
     1
 90
        1
176
     1
 90
        4
176
     1
 62
     7
176
     1
 62
   257
176
     1
 90
        1
176
     1
 90
        1
176
     1
 40
1.0
176
     1
 90
        8
176
     1
 62
     7
176
     1
 40
1.0
176
     1
 90
        1
176
     1
 90
        6
176
     1
 90
        2
176
     1
 62
     7
176
     1
 90
        5
176
     1
 90
        0
176
     1
 90
        0
176
     1
290
     0
176
     1
 90
        1
176
     1
 40
-50.0
176
     1
 90
        0
176
     1
290
     0
176
     1
290
     1
176
     1
290
     1
176
     1
290
     0
176
     1
290
     0
176
     1
290
     0
176
     1
290
     0
176
     1
290
     0
176
     1
290
     0
176
     1
 90
       50
176
     1
 40
0.0
176
     1
 40
1.0
176
     1
 90
        0
176
     1
 62
    18
420
        0
176
     1
 90
       50
176
     1
 90
        3
176
     1
 62
     5
420
      255
176
     1
290
     0
176
     1
 90
       50
176
     1
 90
       50
176
     1
 90
       50
176
     1
290
     0
176
     1
 90
       50
176
     1
 62
   256
176
     0
 40
1.0
176
     0
 90
        2
176
     1
  1
strokes_ogs.tif
176
     1
290
     0
176
     1
 40
1.0
176
     1
 40
1.0
176
     1
  0
VISUALSTYLE
  5
1BC3
102
{ACAD_REACTORS
330
1BB0
102
}
330
1BB0
100
AcDbVisualStyle
  2
EdgeColorOff
 70
    22
177
     3
291
     1
 70
    58
 90
        2
176
     0
 90
        2
176
     0
 90
        0
176
     0
 90
        0
176
     0
 40
0.6
176
     0
 40
30.0
176
     0
 62
     7
420
 16777215
176
     0
 90
        1
176
     0
 90
        4
176
     0
 62
     7
176
     0
 62
   257
176
     0
 90
        1
176
     0
 90
        1
176
     0
 40
1.0
176
     0
 90
        8
176
     2
 62
     7
176
     0
 40
1.0
176
     0
 90
        1
176
     0
 90
        6
176
     0
 90
        2
176
     0
 62
     7
176
     0
 90
        5
176
     0
 90
        0
176
     0
 90
        0
176
     0
290
     0
176
     0
 90
        1
176
     0
 40
0.0
176
     0
 90
        0
176
     0
290
     0
176
     0
290
     1
176
     0
290
     1
176
     0
290
     0
176
     0
290
     0
176
     0
290
     0
176
     0
290
     0
176
     0
290
     0
176
     0
290
     0
176
     0
 90
       50
176
     0
 40
0.0
176
     0
 40
1.0
176
     0
 90
        0
176
     0
 62
    18
420
        0
176
     0
 90
       50
176
     0
 90
        3
176
     0
 62
     5
420
      255
176
     0
290
     0
176
     0
 90
       50
176
     0
 90
       50
176
     0
 90
       50
176
     0
290
     0
176
     0
 90
       50
176
     0
 62
   256
176
     0
 40
1.0
176
     0
 90
        2
176
     0
  1
strokes_ogs.tif
176
     0
290
     0
176
     0
 40
1.0
176
     0
 40
1.0
176
     0
  0
VISUALSTYLE
  5
1BBF
102
{ACAD_REACTORS
330
1BB0
102
}
330
1BB0
100
AcDbVisualStyle
  2
Facepattern
 70
    15
177
     3
291
     1
 70
    58
 90
        2
176
     1
 90
        2
176
     1
 90
        0
176
     1
 90
        0
176
     1
 40
0.6
176
     1
 40
30.0
176
     1
 62
     7
420
 16777215
176
     1
 90
        1
176
     1
 90
        4
176
     1
 62
     7
176
     1
 62
   257
176
     1
 90
        1
176
     1
 90
        1
176
     1
 40
1.0
176
     1
 90
        8
176
     1
 62
     7
176
     1
 40
1.0
176
     1
 90
        1
176
     1
 90
        6
176
     1
 90
        2
176
     1
 62
     7
176
     1
 90
        5
176
     1
 90
        0
176
     1
 90
        0
176
     1
290
     0
176
     1
 90
        1
176
     1
 40
0.0
176
     1
 90
        0
176
     1
290
     0
176
     1
290
     1
176
     1
290
     1
176
     1
290
     0
176
     1
290
     0
176
     1
290
     0
176
     1
290
     0
176
     1
290
     0
176
     1
290
     0
176
     1
 90
       50
176
     1
 40
0.0
176
     1
 40
1.0
176
     1
 90
        0
176
     1
 62
    18
420
        0
176
     1
 90
       50
176
     1
 90
        3
176
     1
 62
     5
420
      255
176
     1
290
     0
176
     1
 90
       50
176
     1
 90
       50
176
     1
 90
       50
176
     1
290
     0
176
     1
 90
       50
176
     1
 62
   256
176
     0
 40
1.0
176
     0
 90
        2
176
     1
  1
strokes_ogs.tif
176
     1
290
     0
176
     1
 40
1.0
176
     1
 40
1.0
176
     1
  0
VISUALSTYLE
  5
1BB1
102
{ACAD_REACTORS
330
1BB0
102
}
330
1BB0
100
AcDbVisualStyle
  2
Flat
 70
     0
177
     3
291
     1
 70
    58
 90
        2
176
     1
 90
        1
176
     1
 90
        1
176
     1
 90
        2
176
     1
 40
0.6
176
     1
 40
30.0
176
     1
 62
     7
420
 16777215
176
     1
 90
        0
176
     1
 90
        0
176
     1
 62
     7
176
     1
 62
   257
176
     1
 90
        1
176
     1
 90
        1
176
     1
 40
1.0
176
     1
 90
        8
176
     1
 62
     7
176
     1
 40
1.0
176
     1
 90
        1
176
     1
 90
        6
176
     1
 90
        2
176
     1
 62
     7
176
     1
 90
        5
176
     1
 90
        0
176
     1
 90
        0
176
     1
290
     0
176
     1
 90
       13
176
     1
 40
0.0
176
     1
 90
        0
176
     1
290
     0
176
     1
290
     1
176
     1
290
     1
176
     1
290
     0
176
     1
290
     0
176
     1
290
     0
176
     1
290
     0
176
     1
290
     0
176
     1
290
     0
176
     1
 90
       50
176
     1
 40
0.0
176
     1
 40
1.0
176
     1
 90
        0
176
     1
 62
    18
420
        0
176
     1
 90
       50
176
     1
 90
        3
176
     1
 62
     5
420
      255
176
     1
290
     0
176
     1
 90
       50
176
     1
 90
       50
176
     1
 90
       50
176
     1
290
     0
176
     1
 90
       50
176
     1
 62
   256
176
     0
 40
1.0
176
     0
 90
        2
176
     1
  1
strokes_ogs.tif
176
     1
290
     0
176
     1
 40
1.0
176
     1
 40
1.0
176
     1
  0
VISUALSTYLE
  5
1BB2
102
{ACAD_REACTORS
330
1BB0
102
}
330
1BB0
100
AcDbVisualStyle
  2
FlatWithEdges
 70
     1
177
     3
291
     1
 70
    58
 90
        2
176
     1
 90
        1
176
     1
 90
        1
176
     1
 90
        2
176
     1
 40
0.6
176
     1
 40
30.0
176
     1
 62
     7
420
 16777215
176
     1
 90
        1
176
     1
 90
        0
176
     1
 62
     7
176
     1
 62
   257
176
     1
 90
        1
176
     1
 90
        1
176
     1
 40
1.0
176
     1
 90
        0
176
     1
 62
   257
176
     1
 40
1.0
176
     1
 90
        1
176
     1
 90
        6
176
     1
 90
        2
176
     1
 62
     7
176
     1
 90
        5
176
     1
 90
        0
176
     1
 90
        0
176
     1
290
     0
176
     1
 90
       13
176
     1
 40
0.0
176
     1
 90
        0
176
     1
290
     0
176
     1
290
     1
176
     1
290
     1
176
     1
290
     0
176
     1
290
     0
176
     1
290
     0
176
     1
290
     0
176
     1
290
     0
176
     1
290
     0
176
     1
 90
       50
176
     1
 40
0.0
176
     1
 40
1.0
176
     1
 90
        0
176
     1
 62
    18
420
        0
176
     1
 90
       50
176
     1
 90
        3
176
     1
 62
     5
420
      255
176
     1
290
     0
176
     1
 90
       50
176
     1
 90
       50
176
     1
 90
       50
176
     1
290
     0
176
     1
 90
       50
176
     1
 62
   256
176
     0
 40
1.0
176
     0
 90
        2
176
     1
  1
strokes_ogs.tif
176
     1
290
     0
176
     1
 40
1.0
176
     1
 40
1.0
176
     1
  0
VISUALSTYLE
  5
1BB3
102
{ACAD_REACTORS
330
1BB0
102
}
330
1BB0
100
AcDbVisualStyle
  2
Gouraud
 70
     2
177
     3
291
     1
 70
    58
 90
        2
176
     1
 90
        2
176
     1
 90
        1
176
     1
 90
        2
176
     1
 40
0.6
176
     1
 40
30.0
176
     1
 62
     7
420
 16777215
176
     1
 90
        0
176
     1
 90
        0
176
     1
 62
     7
176
     1
 62
   257
176
     1
 90
        1
176
     1
 90
        1
176
     1
 40
1.0
176
     1
 90
        0
176
     1
 62
     7
176
     1
 40
1.0
176
     1
 90
        1
176
     1
 90
        6
176
     1
 90
        2
176
     1
 62
     7
176
     1
 90
        5
176
     1
 90
        0
176
     1
 90
        0
176
     1
290
     0
176
     1
 90
       13
176
     1
 40
0.0
176
     1
 90
        0
176
     1
290
     0
176
     1
290
     1
176
     1
290
     1
176
     1
290
     0
176
     1
290
     0
176
     1
290
     0
176
     1
290
     0
176
     1
290
     0
176
     1
290
     0
176
     1
 90
       50
176
     1
 40
0.0
176
     1
 40
1.0
176
     1
 90
        0
176
     1
 62
    18
420
        0
176
     1
 90
       50
176
     1
 90
        3
176
     1
 62
     5
420
      255
176
     1
290
     0
176
     1
 90
       50
176
     1
 90
       50
176
     1
 90
       50
176
     1
290
     0
176
     1
 90
       50
176
     1
 62
   256
176
     0
 40
1.0
176
     0
 90
        2
176
     1
  1
strokes_ogs.tif
176
     1
290
     0
176
     1
 40
1.0
176
     1
 40
1.0
176
     1
  0
VISUALSTYLE
  5
1BB4
102
{ACAD_REACTORS
330
1BB0
102
}
330
1BB0
100
AcDbVisualStyle
  2
GouraudWithEdges
 70
     3
177
     3
291
     1
 70
    58
 90
        2
176
     1
 90
        2
176
     1
 90
        1
176
     1
 90
        2
176
     1
 40
0.6
176
     1
 40
30.0
176
     1
 62
     7
420
 16777215
176
     1
 90
        1
176
     1
 90
        0
176
     1
 62
     7
176
     1
 62
   257
176
     1
 90
        1
176
     1
 90
        1
176
     1
 40
1.0
176
     1
 90
        0
176
     1
 62
   257
176
     1
 40
1.0
176
     1
 90
        1
176
     1
 90
        6
176
     1
 90
        2
176
     1
 62
     7
176
     1
 90
        5
176
     1
 90
        0
176
     1
 90
        0
176
     1
290
     0
176
     1
 90
       13
176
     1
 40
0.0
176
     1
 90
        0
176
     1
290
     0
176
     1
290
     1
176
     1
290
     1
176
     1
290
     0
176
     1
290
     0
176
     1
290
     0
176
     1
290
     0
176
     1
290
     0
176
     1
290
     0
176
     1
 90
       50
176
     1
 40
0.0
176
     1
 40
1.0
176
     1
 90
        0
176
     1
 62
    18
420
        0
176
     1
 90
       50
176
     1
 90
        3
176
     1
 62
     5
420
      255
176
     1
290
     0
176
     1
 90
       50
176
     1
 90
       50
176
     1
 90
       50
176
     1
290
     0
176
     1
 90
       50
176
     1
 62
   256
176
     0
 40
1.0
176
     0
 90
        2
176
     1
  1
strokes_ogs.tif
176
     1
290
     0
176
     1
 40
1.0
176
     1
 40
1.0
176
     1
  0
VISUALSTYLE
  5
1BB7
102
{ACAD_REACTORS
330
1BB0
102
}
330
1BB0
100
AcDbVisualStyle
  2
Hidden
 70
     6
177
     3
291
     0
 70
    58
 90
        1
176
     1
 90
        2
176
     1
 90
        2
176
     1
 90
        0
176
     1
 40
0.6
176
     1
 40
30.0
176
     1
 62
     7
420
 16777215
176
     1
 90
        2
176
     1
 90
        2
176
     1
 62
     7
176
     1
 62
   257
176
     1
 90
        2
176
     1
 90
        1
176
     1
 40
40.0
176
     1
 90
        0
176
     1
 62
   257
176
     1
 40
1.0
176
     1
 90
        1
176
     1
 90
        6
176
     1
 90
        2
176
     1
 62
     7
176
     1
 90
        3
176
     1
 90
        0
176
     1
 90
        0
176
     1
290
     0
176
     1
 90
        1
176
     1
 40
0.0
176
     1
 90
        0
176
     1
290
     0
176
     1
290
     1
176
     1
290
     1
176
     1
290
     0
176
     1
290
     0
176
     1
290
     0
176
     1
290
     0
176
     1
290
     0
176
     1
290
     0
176
     1
 90
       50
176
     1
 40
0.0
176
     1
 40
1.0
176
     1
 90
        0
176
     1
 62
    18
420
        0
176
     1
 90
       50
176
     1
 90
        3
176
     1
 62
     5
420
      255
176
     1
290
     0
176
     1
 90
       50
176
     1
 90
       50
176
     1
 90
       50
176
     1
290
     0
176
     1
 90
       50
176
     1
 62
   256
176
     0
 40
1.0
176
     0
 90
        2
176
     1
  1
strokes_ogs.tif
176
     1
290
     0
176
     1
 40
1.0
176
     1
 40
1.0
176
     1
  0
VISUALSTYLE
  5
1BC1
102
{ACAD_REACTORS
330
1BB0
102
}
330
1BB0
100
AcDbVisualStyle
  2
JitterOff
 70
    20
177
     3
291
     1
 70
    58
 90
        2
176
     0
 90
        2
176
     0
 90
        0
176
     0
 90
        0
176
     0
 40
0.6
176
     0
 40
30.0
176
     0
 62
     7
420
 16777215
176
     0
 90
        1
176
     0
 90
        4
176
     0
 62
     7
176
     0
 62
   257
176
     0
 90
        1
176
     0
 90
        1
176
     0
 40
1.0
176
     0
 90
       10
176
     2
 62
     7
176
     0
 40
1.0
176
     0
 90
        1
176
     0
 90
        6
176
     0
 90
        2
176
     0
 62
     7
176
     0
 90
        5
176
     0
 90
        0
176
     0
 90
        0
176
     0
290
     0
176
     0
 90
        1
176
     0
 40
0.0
176
     0
 90
        0
176
     0
290
     0
176
     0
290
     1
176
     0
290
     1
176
     0
290
     0
176
     0
290
     0
176
     0
290
     0
176
     0
290
     0
176
     0
290
     0
176
     0
290
     0
176
     0
 90
       50
176
     0
 40
0.0
176
     0
 40
1.0
176
     0
 90
        0
176
     0
 62
    18
420
        0
176
     0
 90
       50
176
     0
 90
        3
176
     0
 62
     5
420
      255
176
     0
290
     0
176
     0
 90
       50
176
     0
 90
       50
176
     0
 90
       50
176
     0
290
     0
176
     0
 90
       50
176
     0
 62
   256
176
     0
 40
1.0
176
     0
 90
        2
176
     0
  1
strokes_ogs.tif
176
     0
290
     0
176
     0
 40
1.0
176
     0
 40
1.0
176
     0
  0
VISUALSTYLE
  5
1BBE
102
{ACAD_REACTORS
330
1BB0
102
}
330
1BB0
100
AcDbVisualStyle
  2
Linepattern
 70
    14
177
     3
291
     1
 70
    58
 90
        2
176
     1
 90
        2
176
     1
 90
        0
176
     1
 90
        0
176
     1
 40
0.6
176
     1
 40
30.0
176
     1
 62
     7
420
 16777215
176
     1
 90
        1
176
     1
 90
        4
176
     1
 62
     7
176
     1
 62
   257
176
     1
 90
        7
176
     1
 90
        7
176
     1
 40
1.0
176
     1
 90
        8
176
     1
 62
     7
176
     1
 40
1.0
176
     1
 90
        1
176
     1
 90
        6
176
     1
 90
        2
176
     1
 62
     7
176
     1
 90
        5
176
     1
 90
        0
176
     1
 90
        0
176
     1
290
     0
176
     1
 90
        1
176
     1
 40
0.0
176
     1
 90
        0
176
     1
290
     0
176
     1
290
     1
176
     1
290
     1
176
     1
290
     0
176
     1
290
     0
176
     1
290
     0
176
     1
290
     0
176
     1
290
     0
176
     1
290
     0
176
     1
 90
       50
176
     1
 40
0.0
176
     1
 40
1.0
176
     1
 90
        0
176
     1
 62
    18
420
        0
176
     1
 90
       50
176
     1
 90
        3
176
     1
 62
     5
420
      255
176
     1
290
     0
176
     1
 90
       50
176
     1
 90
       50
176
     1
 90
       50
176
     1
290
     0
176
     1
 90
       50
176
     1
 62
   256
176
     0
 40
1.0
176
     0
 90
        2
176
     1
  1
strokes_ogs.tif
176
     1
290
     0
176
     1
 40
1.0
176
     1
 40
1.0
176
     1
  0
VISUALSTYLE
  5
1BC2
102
{ACAD_REACTORS
330
1BB0
102
}
330
1BB0
100
AcDbVisualStyle
  2
OverhangOff
 70
    21
177
     3
291
     1
 70
    58
 90
        2
176
     0
 90
        2
176
     0
 90
        0
176
     0
 90
        0
176
     0
 40
0.6
176
     0
 40
30.0
176
     0
 62
     7
420
 16777215
176
     0
 90
        1
176
     0
 90
        4
176
     0
 62
     7
176
     0
 62
   257
176
     0
 90
        1
176
     0
 90
        1
176
     0
 40
1.0
176
     0
 90
        9
176
     2
 62
     7
176
     0
 40
1.0
176
     0
 90
        1
176
     0
 90
        6
176
     0
 90
        2
176
     0
 62
     7
176
     0
 90
        5
176
     0
 90
        0
176
     0
 90
        0
176
     0
290
     0
176
     0
 90
        1
176
     0
 40
0.0
176
     0
 90
        0
176
     0
290
     0
176
     0
290
     1
176
     0
290
     1
176
     0
290
     0
176
     0
290
     0
176
     0
290
     0
176
     0
290
     0
176
     0
290
     0
176
     0
290
     0
176
     0
 90
       50
176
     0
 40
0.0
176
     0
 40
1.0
176
     0
 90
        0
176
     0
 62
    18
420
        0
176
     0
 90
       50
176
     0
 90
        3
176
     0
 62
     5
420
      255
176
     0
290
     0
176
     0
 90
       50
176
     0
 90
       50
176
     0
 90
       50
176
     0
290
     0
176
     0
 90
       50
176
     0
 62
   256
176
     0
 40
1.0
176
     0
 90
        2
176
     0
  1
strokes_ogs.tif
176
     0
290
     0
176
     0
 40
1.0
176
     0
 40
1.0
176
     0
  0
VISUALSTYLE
  5
1BB9
102
{ACAD_REACTORS
330
1BB0
102
}
330
1BB0
100
AcDbVisualStyle
  2
Realistic
 70
     8
177
     3
291
     0
 70
    58
 90
        2
176
     1
 90
        3
176
     1
 90
        0
176
     1
 90
        2
176
     1
 40
0.6
176
     1
 40
30.0
176
     1
 62
     7
420
 16777215
176
     1
 90
        0
176
     1
 90
        0
176
     1
 62
     7
176
     1
 62
   257
176
     1
 90
        1
176
     1
 90
        1
176
     1
 40
1.0
176
     1
 90
        8
176
     1
 62
   257
176
     1
 40
1.0
176
     1
 90
        1
176
     1
 90
        6
176
     1
 90
        2
176
     1
 62
     7
176
     1
 90
        3
176
     1
 90
        0
176
     1
 90
        0
176
     1
290
     0
176
     1
 90
       13
176
     1
 40
0.0
176
     1
 90
        0
176
     1
290
     0
176
     1
290
     1
176
     1
290
     1
176
     1
290
     0
176
     1
290
     0
176
     1
290
     0
176
     1
290
     0
176
     1
290
     0
176
     1
290
     0
176
     1
 90
       50
176
     1
 40
0.0
176
     1
 40
1.0
176
     1
 90
        0
176
     1
 62
    18
420
        0
176
     1
 90
       50
176
     1
 90
        3
176
     1
 62
     5
420
      255
176
     1
290
     0
176
     1
 90
       50
176
     1
 90
       50
176
     1
 90
       50
176
     1
290
     0
176
     1
 90
       50
176
     1
 62
   256
176
     0
 40
1.0
176
     0
 90
        2
176
     1
  1
strokes_ogs.tif
176
     1
290
     0
176
     1
 40
1.0
176
     1
 40
1.0
176
     1
  0
VISUALSTYLE
  5
1BC8
102
{ACAD_REACTORS
330
1BB0
102
}
330
1BB0
100
AcDbVisualStyle
  2
Shaded
 70
    27
177
     3
291
     0
 70
    58
 90
        2
176
     1
 90
        2
176
     1
 90
        1
176
     1
 90
        2
176
     1
 40
0.6
176
     1
 40
30.0
176
     1
 62
     7
420
 16777215
176
     1
 90
        0
176
     1
 90
        4
176
     1
 62
     7
176
     1
 62
   257
176
     1
 90
        1
176
     1
 90
        1
176
     1
 40
1.0
176
     1
 90
        8
176
     1
 62
   257
176
     1
 40
1.0
176
     1
 90
        1
176
     1
 90
        6
176
     1
 90
        2
176
     1
 62
     8
420
  7895160
176
     1
 90
        3
176
     1
 90
        0
176
     1
 90
        0
176
     1
290
     0
176
     1
 90
        5
176
     1
 40
0.0
176
     1
 90
        0
176
     1
290
     0
176
     1
290
     1
176
     1
290
     1
176
     1
290
     0
176
     1
290
     0
176
     1
290
     0
176
     1
290
     0
176
     1
290
     0
176
     1
290
     0
176
     1
 90
       50
176
     1
 40
0.0
176
     1
 40
1.0
176
     1
 90
        0
176
     1
 62
    18
420
        0
176
     1
 90
       50
176
     1
 90
        3
176
     1
 62
     5
420
      255
176
     1
290
     0
176
     1
 90
       50
176
     1
 90
       50
176
     1
 90
       50
176
     1
290
     0
176
     1
 90
       50
176
     1
 62
   256
176
     0
 40
1.0
176
     0
 90
        2
176
     1
  1
strokes_ogs.tif
176
     1
290
     0
176
     1
 40
1.0
176
     1
 40
1.0
176
     1
  0
VISUALSTYLE
  5
1BC7
102
{ACAD_REACTORS
330
1BB0
102
}
330
1BB0
100
AcDbVisualStyle
  2
Shaded with edges
 70
    26
177
     3
291
     0
 70
    58
 90
        2
176
     1
 90
        2
176
     1
 90
        1
176
     1
 90
        2
176
     1
 40
0.6
176
     1
 40
30.0
176
     1
 62
     7
420
 16777215
176
     1
 90
        1
176
     1
 90
       10
176
     1
 62
     7
176
     1
 62
   257
176
     1
 90
        2
176
     1
 90
        1
176
     1
 40
1.0
176
     1
 90
        8
176
     1
 62
   257
176
     1
 40
1.0
176
     1
 90
        1
176
     1
 90
        6
176
     1
 90
        2
176
     1
 62
     7
176
     1
 90
        3
176
     1
 90
        0
176
     1
 90
        0
176
     1
290
     0
176
     1
 90
        5
176
     1
 40
0.0
176
     1
 90
        0
176
     1
290
     0
176
     1
290
     1
176
     1
290
     1
176
     1
290
     0
176
     1
290
     0
176
     1
290
     0
176
     1
290
     0
176
     1
290
     0
176
     1
290
     0
176
     1
 90
       50
176
     1
 40
0.0
176
     1
 40
1.0
176
     1
 90
        0
176
     1
 62
    18
420
        0
176
     1
 90
       50
176
     1
 90
        3
176
     1
 62
     5
420
      255
176
     1
290
     0
176
     1
 90
       50
176
     1
 90
       50
176
     1
 90
       50
176
     1
290
     0
176
     1
 90
       50
176
     1
 62
   256
176
     0
 40
1.0
176
     0
 90
        2
176
     1
  1
strokes_ogs.tif
176
     1
290
     0
176
     1
 40
1.0
176
     1
 40
1.0
176
     1
  0
VISUALSTYLE
  5
1BC4
102
{ACAD_REACTORS
330
1BB0
102
}
330
1BB0
100
AcDbVisualStyle
  2
Shades of Gray
 70
    23
177
     3
291
     0
 70
    58
 90
        2
176
     1
 90
        2
176
     1
 90
        3
176
     1
 90
        0
176
     1
 40
0.6
176
     1
 40
30.0
176
     1
 62
     7
420
 16777215
176
     1
 90
        2
176
     1
 90
        2
176
     1
 62
     7
176
     1
 62
     7
176
     1
 90
        1
176
     1
 90
        1
176
     1
 40
40.0
176
     1
 90
        8
176
     1
 62
     7
176
     1
 40
1.0
176
     1
 90
        1
176
     1
 90
        6
176
     1
 90
        2
176
     1
 62
     7
176
     1
 90
        3
176
     1
 90
        0
176
     1
 90
        0
176
     1
290
     0
176
     1
 90
        1
176
     1
 40
0.0
176
     1
 90
        0
176
     1
290
     0
176
     1
290
     1
176
     1
290
     1
176
     1
290
     0
176
     1
290
     0
176
     1
290
     0
176
     1
290
     0
176
     1
290
     0
176
     1
290
     0
176
     1
 90
       50
176
     1
 40
0.0
176
     1
 40
1.0
176
     1
 90
        0
176
     1
 62
    18
420
        0
176
     1
 90
       50
176
     1
 90
        3
176
     1
 62
     5
420
      255
176
     1
290
     0
176
     1
 90
       50
176
     1
 90
       50
176
     1
 90
       50
176
     1
290
     0
176
     1
 90
       50
176
     1
 62
   256
176
     0
 40
1.0
176
     0
 90
        2
176
     1
  1
strokes_ogs.tif
176
     1
290
     0
176
     1
 40
1.0
176
     1
 40
1.0
176
     1
  0
VISUALSTYLE
  5
1BC5
102
{ACAD_REACTORS
330
1BB0
102
}
330
1BB0
100
AcDbVisualStyle
  2
Sketchy
 70
    24
177
     3
291
     0
 70
    58
 90
        1
176
     1
 90
        2
176
     1
 90
        2
176
     1
 90
        0
176
     1
 40
0.6
176
     1
 40
30.0
176
     1
 62
     7
420
 16777215
176
     1
 90
        2
176
     1
 90
        2
176
     1
 62
     7
176
     1
 62
     7
176
     1
 90
        1
176
     1
 90
        1
176
     1
 40
40.0
176
     1
 90
       11
176
     1
 62
     7
176
     1
 40
1.0
176
     1
 90
        1
176
     1
 90
        6
176
     1
 90
        2
176
     1
 62
     7
176
     1
 90
        6
176
     1
 90
        0
176
     1
 90
        0
176
     1
290
     0
176
     1
 90
        1
176
     1
 40
0.0
176
     1
 90
        0
176
     1
290
     0
176
     1
290
     1
176
     1
290
     1
176
     1
290
     0
176
     1
290
     0
176
     1
290
     0
176
     1
290
     0
176
     1
290
     0
176
     1
290
     0
176
     1
 90
       50
176
     1
 40
0.0
176
     1
 40
1.0
176
     1
 90
        0
176
     1
 62
    18
420
        0
176
     1
 90
       50
176
     1
 90
        3
176
     1
 62
     5
420
      255
176
     1
290
     0
176
     1
 90
       50
176
     1
 90
       50
176
     1
 90
       50
176
     1
290
     0
176
     1
 90
       50
176
     1
 62
   256
176
     0
 40
1.0
176
     0
 90
        2
176
     1
  1
strokes_ogs.tif
176
     1
290
     0
176
     1
 40
1.0
176
     1
 40
1.0
176
     1
  0
VISUALSTYLE
  5
1BBD
102
{ACAD_REACTORS
330
1BB0
102
}
330
1BB0
100
AcDbVisualStyle
  2
Thicken
 70
    13
177
     3
291
     1
 70
    58
 90
        2
176
     1
 90
        2
176
     1
 90
        0
176
     1
 90
        0
176
     1
 40
0.6
176
     1
 40
30.0
176
     1
 62
     7
420
 16777215
176
     1
 90
        1
176
     1
 90
        4
176
     1
 62
     7
176
     1
 62
   257
176
     1
 90
        1
176
     1
 90
        1
176
     1
 40
1.0
176
     1
 90
       12
176
     1
 62
     7
176
     1
 40
1.0
176
     1
 90
        1
176
     1
 90
        6
176
     1
 90
        2
176
     1
 62
     7
176
     1
 90
        5
176
     1
 90
        0
176
     1
 90
        0
176
     1
290
     0
176
     1
 90
        1
176
     1
 40
0.0
176
     1
 90
        0
176
     1
290
     0
176
     1
290
     1
176
     1
290
     1
176
     1
290
     0
176
     1
290
     0
176
     1
290
     0
176
     1
290
     0
176
     1
290
     0
176
     1
290
     0
176
     1
 90
       50
176
     1
 40
0.0
176
     1
 40
1.0
176
     1
 90
        0
176
     1
 62
    18
420
        0
176
     1
 90
       50
176
     1
 90
        3
176
     1
 62
     5
420
      255
176
     1
290
     0
176
     1
 90
       50
176
     1
 90
       50
176
     1
 90
       50
176
     1
290
     0
176
     1
 90
       50
176
     1
 62
   256
176
     0
 40
1.0
176
     0
 90
        2
176
     1
  1
strokes_ogs.tif
176
     1
290
     0
176
     1
 40
1.0
176
     1
 40
1.0
176
     1
  0
VISUALSTYLE
  5
1BB6
102
{ACAD_REACTORS
330
1BB0
102
}
330
1BB0
100
AcDbVisualStyle
  2
Wireframe
 70
     5
177
     3
291
     0
 70
    58
 90
        0
176
     1
 90
        2
176
     1
 90
        0
176
     1
 90
        0
176
     1
 40
0.6
176
     1
 40
30.0
176
     1
 62
     7
420
 16777215
176
     1
 90
        1
176
     1
 90
        4
176
     1
 62
     7
176
     1
 62
   257
176
     1
 90
        1
176
     1
 90
        1
176
     1
 40
1.0
176
     1
 90
        0
176
     1
 62
   257
176
     1
 40
1.0
176
     1
 90
        1
176
     1
 90
        6
176
     1
 90
        2
176
     1
 62
     7
176
     1
 90
        3
176
     1
 90
        0
176
     1
 90
        0
176
     1
290
     0
176
     1
 90
        1
176
     1
 40
0.0
176
     1
 90
        0
176
     1
290
     0
176
     1
290
     1
176
     1
290
     1
176
     1
290
     0
176
     1
290
     0
176
     1
290
     0
176
     1
290
     0
176
     1
290
     0
176
     1
290
     0
176
     1
 90
       50
176
     1
 40
0.0
176
     1
 40
1.0
176
     1
 90
        0
176
     1
 62
    18
420
        0
176
     1
 90
       50
176
     1
 90
        3
176
     1
 62
     5
420
      255
176
     1
290
     0
176
     1
 90
       50
176
     1
 90
       50
176
     1
 90
       50
176
     1
290
     0
176
     1
 90
       50
176
     1
 62
   256
176
     0
 40
1.0
176
     0
 90
        2
176
     1
  1
strokes_ogs.tif
176
     1
290
     0
176
     1
 40
1.0
176
     1
 40
1.0
176
     1
  0
VISUALSTYLE
  5
1BC6
102
{ACAD_REACTORS
330
1BB0
102
}
330
1BB0
100
AcDbVisualStyle
  2
X-Ray
 70
    25
177
     3
291
     0
 70
    58
 90
        2
176
     1
 90
        2
176
     1
 90
        1
176
     1
 90
        1
176
     1
 40
0.5
176
     1
 40
30.0
176
     1
 62
     7
420
 16777215
176
     1
 90
        1
176
     1
 90
        0
176
     1
 62
     7
176
     1
 62
   257
176
     1
 90
        1
176
     1
 90
        1
176
     1
 40
1.0
176
     1
 90
        8
176
     1
 62
     7
176
     1
 40
1.0
176
     1
 90
        1
176
     1
 90
        6
176
     1
 90
        2
176
     1
 62
     7
176
     1
 90
        3
176
     1
 90
        0
176
     1
 90
        0
176
     1
290
     0
176
     1
 90
       13
176
     1
 40
0.0
176
     1
 90
        0
176
     1
290
     0
176
     1
290
     1
176
     1
290
     1
176
     1
290
     0
176
     1
290
     0
176
     1
290
     0
176
     1
290
     0
176
     1
290
     0
176
     1
290
     0
176
     1
 90
       50
176
     1
 40
0.0
176
     1
 40
1.0
176
     1
 90
        0
176
     1
 62
    18
420
        0
176
     1
 90
       50
176
     1
 90
        3
176
     1
 62
     5
420
      255
176
     1
290
     0
176
     1
 90
       50
176
     1
 90
       50
176
     1
 90
       50
176
     1
290
     0
176
     1
 90
       50
176
     1
 62
   256
176
     0
 40
1.0
176
     0
 90
        2
176
     1
  1
strokes_ogs.tif
176
     1
290
     0
176
     1
 40
1.0
176
     1
 40
1.0
176
     1
  0
DICTIONARYVAR
  5
1C58
102
{ACAD_REACTORS
330
1C57
102
}
330
1C57
100
DictionaryVariables
280
     0
  1
1:1
  0
DICTIONARYVAR
  5
1C5D
102
{ACAD_REACTORS
330
1C57
102
}
330
1C57
100
DictionaryVariables
280
     0
  1
Standard
  0
DICTIONARYVAR
  5
1C5C
102
{ACAD_REACTORS
330
1C57
102
}
330
1C57
100
DictionaryVariables
280
     0
  1
Standard
  0
XRECORD
  5
1BE7
102
{ACAD_REACTORS
330
1BE5
102
}
330
1BE5
100
AcDbXrecord
280
     1
1000
#ffffff
  0
XRECORD
  5
1BE8
102
{ACAD_REACTORS
330
1BE5
102
}
330
1BE5
100
AcDbXrecord
280
     1
1000
FullColor
  0
XRECORD
  5
1BE9
102
{ACAD_REACTORS
330
1BE5
102
}
330
1BE5
100
AcDbXrecord
280
     1
290
     1
  0
XRECORD
  5
1BEA
102
{ACAD_REACTORS
330
1BE5
102
}
330
1BE5
100
AcDbXrecord
280
     1
290
     1
  0
XRECORD
  5
1BEB
102
{ACAD_REACTORS
330
1BE5
102
}
330
1BE5
100
AcDbXrecord
280
     1
290
     1
  0
XRECORD
  5
1BEC
102
{ACAD_REACTORS
330
1BE5
102
}
330
1BE5
100
AcDbXrecord
280
     1
290
     1
  0
XRECORD
  5
1BED
102
{ACAD_REACTORS
330
1BE5
102
}
330
1BE5
100
AcDbXrecord
280
     1
1000
auto
  0
XRECORD
  5
1BEE
102
{ACAD_REACTORS
330
1BE5
102
}
330
1BE5
100
AcDbXrecord
280
     1
1000
auto
  0
XRECORD
  5
1BEF
102
{ACAD_REACTORS
330
1BE5
102
}
330
1BE5
100
AcDbXrecord
280
     1
1000
auto
  0
XRECORD
  5
1BF0
102
{ACAD_REACTORS
330
1BE5
102
}
330
1BE5
100
AcDbXrecord
280
     1
1000
auto
  0
XRECORD
  5
1BF1
102
{ACAD_REACTORS
330
1BE5
102
}
330
1BE5
100
AcDbXrecord
280
     1
1000
auto
  0
XRECORD
  5
1BF2
102
{ACAD_REACTORS
330
1BE5
102
}
330
1BE5
100
AcDbXrecord
280
     1
1000
auto
  0
XRECORD
  5
1BF3
102
{ACAD_REACTORS
330
1BE5
102
}
330
1BE5
100
AcDbXrecord
280
     1
1000
auto
  0
XRECORD
  5
1BF4
102
{ACAD_REACTORS
330
1BE5
102
}
330
1BE5
100
AcDbXrecord
280
     1
1000
auto
  0
XRECORD
  5
1BF5
102
{ACAD_REACTORS
330
1BE5
102
}
330
1BE5
100
AcDbXrecord
280
     1
290
     0
  0
XRECORD
  5
1BF6
102
{ACAD_REACTORS
330
1BE5
102
}
330
1BE5
100
AcDbXrecord
280
     1
290
     0
  0
XRECORD
  5
1BF7
102
{ACAD_REACTORS
330
1BE5
102
}
330
1BE5
100
AcDbXrecord
280
     1
290
     0
  0
XRECORD
  5
1BF8
102
{ACAD_REACTORS
330
1BE5
102
}
330
1BE5
100
AcDbXrecord
280
     1
290
     0
  0
XRECORD
  5
1BF9
102
{ACAD_REACTORS
330
1BE5
102
}
330
1BE5
100
AcDbXrecord
280
     1
 90
    65537
  0
XRECORD
  5
1BFA
102
{ACAD_REACTORS
330
1BE5
102
}
330
1BE5
100
AcDbXrecord
280
     1
 90
    65537
  0
XRECORD
  5
1BFB
102
{ACAD_REACTORS
330
1BE5
102
}
330
1BE5
100
AcDbXrecord
280
     1
 90
    65537
  0
XRECORD
  5
1BFC
102
{ACAD_REACTORS
330
1BE5
102
}
330
1BE5
100
AcDbXrecord
280
     1
 90
    65537
  0
XRECORD
  5
1BFD
102
{ACAD_REACTORS
330
1BE5
102
}
330
1BE5
100
AcDbXrecord
280
     1
1000
auto
  0
XRECORD
  5
1BFE
102
{ACAD_REACTORS
330
1BE5
102
}
330
1BE5
100
AcDbXrecord
280
     1
1000
auto
  0
XRECORD
  5
1BFF
102
{ACAD_REACTORS
330
1BE5
102
}
330
1BE5
100
AcDbXrecord
280
     1
1000
auto
  0
XRECORD
  5
1C00
102
{ACAD_REACTORS
330
1BE5
102
}
330
1BE5
100
AcDbXrecord
280
     1
1000
auto
  0
XRECORD
  5
1C01
102
{ACAD_REACTORS
330
1BE5
102
}
330
1BE5
100
AcDbXrecord
280
     1
1000
auto
  0
XRECORD
  5
1C02
102
{ACAD_REACTORS
330
1BE5
102
}
330
1BE5
100
AcDbXrecord
280
     1
1000
auto
  0
XRECORD
  5
1C03
102
{ACAD_REACTORS
330
1BE5
102
}
330
1BE5
100
AcDbXrecord
280
     1
1000
auto
  0
XRECORD
  5
1C04
102
{ACAD_REACTORS
330
1BE5
102
}
330
1BE5
100
AcDbXrecord
280
     1
1000
auto
  0
XRECORD
  5
1C05
102
{ACAD_REACTORS
330
1BE5
102
}
330
1BE5
100
AcDbXrecord
280
     1
 90
        1
  0
XRECORD
  5
1C06
102
{ACAD_REACTORS
330
1BE5
102
}
330
1BE5
100
AcDbXrecord
280
     1
 40
10.0
  0
XRECORD
  5
1C07
102
{ACAD_REACTORS
330
1BE5
102
}
330
1BE5
100
AcDbXrecord
280
     1
 40
10.0
  0
XRECORD
  5
1C08
102
{ACAD_REACTORS
330
1BE5
102
}
330
1BE5
100
AcDbXrecord
280
     1
 40
10.0
  0
XRECORD
  5
1C09
102
{ACAD_REACTORS
330
1BE5
102
}
330
1BE5
100
AcDbXrecord
280
     1
 40
10.0
  0
XRECORD
  5
1C0A
102
{ACAD_REACTORS
330
1BE5
102
}
330
1BE5
100
AcDbXrecord
280
     1
290
     0
  0
XRECORD
  5
1C0B
102
{ACAD_REACTORS
330
1BE5
102
}
330
1BE5
100
AcDbXrecord
280
     1
 90
        1
  0
XRECORD
  5
1C0C
102
{ACAD_REACTORS
330
1BE5
102
}
330
1BE5
100
AcDbXrecord
280
     1
 40
54.00053522503728
  0
XRECORD
  5
1C0D
102
{ACAD_REACTORS
330
1BE5
102
}
330
1BE5
100
AcDbXrecord
280
     1
 40
-137.6068160537974
  0
XRECORD
  5
1C0E
102
{ACAD_REACTORS
330
1BE5
102
}
330
1BE5
100
AcDbXrecord
280
     1
1000
Portrait
  0
XRECORD
  5
1C0F
102
{ACAD_REACTORS
330
1BE5
102
}
330
1BE5
100
AcDbXrecord
280
     1
 40
297.0
  0
XRECORD
  5
1C10
102
{ACAD_REACTORS
330
1BE5
102
}
330
1BE5
100
AcDbXrecord
280
     1
 40
210.0
  0
XRECORD
  5
1C11
102
{ACAD_REACTORS
330
1BE5
102
}
330
1BE5
100
AcDbXrecord
280
     1
1000
0.76
  0
XRECORD
  5
1C12
102
{ACAD_REACTORS
330
1BE5
102
}
330
1BE5
100
AcDbXrecord
280
     1
290
     1
  0
XRECORD
  5
1C13
102
{ACAD_REACTORS
330
1BE5
102
}
330
1BE5
100
AcDbXrecord
280
     1
290
     0
  0
XRECORD
  5
1C14
102
{ACAD_REACTORS
330
1BE5
102
}
330
1BE5
100
AcDbXrecord
280
     1
1000
Inside
  0
XRECORD
  5
1C15
102
{ACAD_REACTORS
330
1BE5
102
}
330
1BE5
100
AcDbXrecord
280
     1
1000
Arial,10,-1,5,50,0,0,0,0,0
  0
XRECORD
  5
1C16
102
{ACAD_REACTORS
330
1BE5
102
}
330
1BE5
100
AcDbXrecord
280
     1
1000
TopLeft
  0
XRECORD
  5
1C17
102
{ACAD_REACTORS
330
1BE5
102
}
330
1BE5
100
AcDbXrecord
280
     1
1000
3.31.2
  0
XRECORD
  5
1C18
102
{ACAD_REACTORS
330
1BE5
102
}
330
1BE5
100
AcDbXrecord
280
     1
 90
        4
  0
XRECORD
  5
1C19
102
{ACAD_REACTORS
330
1BE5
102
}
330
1BE5
100
AcDbXrecord
280
     1
  0
XRECORD
  5
1C1A
102
{ACAD_REACTORS
330
1BE5
102
}
330
1BE5
100
AcDbXrecord
280
     1
 40
370.2648741418764
  0
XRECORD
  5
1C1B
102
{ACAD_REACTORS
330
1BE5
102
}
330
1BE5
100
AcDbXrecord
280
     1
 40
722.2826086956522
  0
DICTIONARY
  5
1C59
330
1BE0
100
AcDbDictionary
280
     1
281
     1
  3
ACAD_ROUNDTRIP_2008_TABLESTYLE_CELLSTYLEMAP
360
1C5A
  0
CELLSTYLEMAP
  5
1C5A
102
{ACAD_REACTORS
330
1C59
102
}
330
1C59
100
AcDbCellStyleMap
 90
        3
300
CELLSTYLE
  1
TABLEFORMAT_BEGIN
 90
        5
170
     1
 91
        0
 92
    32768
 62
   257
 93
        1
300
CONTENTFORMAT
  1
CONTENTFORMAT_BEGIN
 90
        0
 91
        0
 92
        4
 93
        0
300

 40
0.0
140
1.0
 94
        5
 62
     0
340
1B98
144
0.25
309
CONTENTFORMAT_END
171
     1
301
MARGIN
  1
CELLMARGIN_BEGIN
 40
0.06
 40
0.06
 40
0.06
 40
0.06
 40
0.06
 40
0.06
309
CELLMARGIN_END
 94
        6
 95
        1
302
GRIDFORMAT
  1
GRIDFORMAT_BEGIN
 90
        0
 91
        1
 62
     0
 92
       -2
340
1B9A
 93
        0
 40
0.045
309
GRIDFORMAT_END
 95
        2
302
GRIDFORMAT
  1
GRIDFORMAT_BEGIN
 90
        0
 91
        1
 62
     0
 92
       -2
340
1B9A
 93
        0
 40
0.045
309
GRIDFORMAT_END
 95
        4
302
GRIDFORMAT
  1
GRIDFORMAT_BEGIN
 90
        0
 91
        1
 62
     0
 92
       -2
340
1B9A
 93
        0
 40
0.045
309
GRIDFORMAT_END
 95
        8
302
GRIDFORMAT
  1
GRIDFORMAT_BEGIN
 90
        0
 91
        1
 62
     0
 92
       -2
340
1B9A
 93
        0
 40
0.045
309
GRIDFORMAT_END
 95
       16
302
GRIDFORMAT
  1
GRIDFORMAT_BEGIN
 90
        0
 91
        1
 62
     0
 92
       -2
340
1B9A
 93
        0
 40
0.045
309
GRIDFORMAT_END
 95
       32
302
GRIDFORMAT
  1
GRIDFORMAT_BEGIN
 90
        0
 91
        1
 62
     0
 92
       -2
340
1B9A
 93
        0
 40
0.045
309
GRIDFORMAT_END
309
TABLEFORMAT_END
  1
CELLSTYLE_BEGIN
 90
        1
 91
        1
300
_TITLE
309
CELLSTYLE_END
300
CELLSTYLE
  1
TABLEFORMAT_BEGIN
 90
        5
170
     1
 91
        0
 92
        0
 62
   257
 93
        1
300
CONTENTFORMAT
  1
CONTENTFORMAT_BEGIN
 90
        0
 91
        0
 92
        4
 93
        0
300

 40
0.0
140
1.0
 94
        5
 62
     0
340
1B98
144
0.18
309
CONTENTFORMAT_END
171
     1
301
MARGIN
  1
CELLMARGIN_BEGIN
 40
0.06
 40
0.06
 40
0.06
 40
0.06
 40
0.06
 40
0.06
309
CELLMARGIN_END
 94
        6
 95
        1
302
GRIDFORMAT
  1
GRIDFORMAT_BEGIN
 90
        0
 91
        1
 62
     0
 92
       -2
340
1B9A
 93
        0
 40
0.045
309
GRIDFORMAT_END
 95
        2
302
GRIDFORMAT
  1
GRIDFORMAT_BEGIN
 90
        0
 91
        1
 62
     0
 92
       -2
340
1B9A
 93
        0
 40
0.045
309
GRIDFORMAT_END
 95
        4
302
GRIDFORMAT
  1
GRIDFORMAT_BEGIN
 90
        0
 91
        1
 62
     0
 92
       -2
340
1B9A
 93
        0
 40
0.045
309
GRIDFORMAT_END
 95
        8
302
GRIDFORMAT
  1
GRIDFORMAT_BEGIN
 90
        0
 91
        1
 62
     0
 92
       -2
340
1B9A
 93
        0
 40
0.045
309
GRIDFORMAT_END
 95
       16
302
GRIDFORMAT
  1
GRIDFORMAT_BEGIN
 90
        0
 91
        1
 62
     0
 92
       -2
340
1B9A
 93
        0
 40
0.045
309
GRIDFORMAT_END
 95
       32
302
GRIDFORMAT
  1
GRIDFORMAT_BEGIN
 90
        0
 91
        1
 62
     0
 92
       -2
340
1B9A
 93
        0
 40
0.045
309
GRIDFORMAT_END
309
TABLEFORMAT_END
  1
CELLSTYLE_BEGIN
 90
        2
 91
        1
300
_HEADER
309
CELLSTYLE_END
300
CELLSTYLE
  1
TABLEFORMAT_BEGIN
 90
        5
170
     1
 91
        0
 92
        0
 62
   257
 93
        1
300
CONTENTFORMAT
  1
CONTENTFORMAT_BEGIN
 90
        0
 91
        0
 92
        4
 93
        0
300

 40
0.0
140
1.0
 94
        2
 62
     0
340
1B98
144
0.18
309
CONTENTFORMAT_END
171
     1
301
MARGIN
  1
CELLMARGIN_BEGIN
 40
0.06
 40
0.06
 40
0.06
 40
0.06
 40
0.06
 40
0.06
309
CELLMARGIN_END
 94
        6
 95
        1
302
GRIDFORMAT
  1
GRIDFORMAT_BEGIN
 90
        0
 91
        1
 62
     0
 92
       -2
340
1B9A
 93
        0
 40
0.045
309
GRIDFORMAT_END
 95
        2
302
GRIDFORMAT
  1
GRIDFORMAT_BEGIN
 90
        0
 91
        1
 62
     0
 92
       -2
340
1B9A
 93
        0
 40
0.045
309
GRIDFORMAT_END
 95
        4
302
GRIDFORMAT
  1
GRIDFORMAT_BEGIN
 90
        0
 91
        1
 62
     0
 92
       -2
340
1B9A
 93
        0
 40
0.045
309
GRIDFORMAT_END
 95
        8
302
GRIDFORMAT
  1
GRIDFORMAT_BEGIN
 90
        0
 91
        1
 62
     0
 92
       -2
340
1B9A
 93
        0
 40
0.045
309
GRIDFORMAT_END
 95
       16
302
GRIDFORMAT
  1
GRIDFORMAT_BEGIN
 90
        0
 91
        1
 62
     0
 92
       -2
340
1B9A
 93
        0
 40
0.045
309
GRIDFORMAT_END
 95
       32
302
GRIDFORMAT
  1
GRIDFORMAT_BEGIN
 90
        0
 91
        1
 62
     0
 92
       -2
340
1B9A
 93
        0
 40
0.045
309
GRIDFORMAT_END
309
TABLEFORMAT_END
  1
CELLSTYLE_BEGIN
 90
        3
 91
        2
300
_DATA
309
CELLSTYLE_END
  0
ENDSEC
  0
EOF
