  0
SECTION
  2
HEADER
  9
$ACADVER
  1
AC1027
  9
$ACADMAINTVER
 70
   105
  9
$DWGCODEPAGE
  3
ANSI_1252
  9
$LASTSAVEDBY
  1
Usuario
  9
$REQUIREDVERSIONS
160
                 0
  9
$INSBASE
 10
0.0
 20
0.0
 30
0.0
  9
$EXTMIN
 10
67.15842996187939
 20
-108.2120792116921
 30
0.0
  9
$EXTMAX
 10
317.1584299618794
 20
223.7879207883079
 30
0.0
  9
$LIMMIN
 10
0.0
 20
0.0
  9
$LIMMAX
 10
12.0
 20
9.0
  9
$ORTHOMODE
 70
     0
  9
$REGENMODE
 70
     1
  9
$FILLMODE
 70
     1
  9
$QTEXTMODE
 70
     0
  9
$MIRRTEXT
 70
     0
  9
$LTSCALE
 40
1.0
  9
$ATTMODE
 70
     1
  9
$TEXTSIZE
 40
0.2
  9
$TRACEWID
 40
0.05
  9
$TEXTSTYLE
  7
Standard
  9
$CLAYER
  8
0
  9
$CELTYPE
  6
ByLayer
  9
$CECOLOR
 62
   256
  9
$CELTSCALE
 40
1.0
  9
$DISPSILH
 70
     0
  9
$DIMSCALE
 40
1.0
  9
$DIMASZ
 40
2.5
  9
$DIMEXO
 40
0.625
  9
$DIMDLI
 40
5.0
  9
$DIMRND
 40
0.0
  9
$DIMDLE
 40
0.0
  9
$DIMEXE
 40
1.25
  9
$DIMTP
 40
0.0
  9
$DIMTM
 40
0.0
  9
$DIMTXT
 40
2.5
  9
$DIMCEN
 40
0.09
  9
$DIMTSZ
 40
0.0
  9
$DIMTOL
 70
     0
  9
$DIMLIM
 70
     0
  9
$DIMTIH
 70
     0
  9
$DIMTOH
 70
     1
  9
$DIMSE1
 70
     0
  9
$DIMSE2
 70
     0
  9
$DIMTAD
 70
     1
  9
$DIMZIN
 70
     8
  9
$DIMBLK
  1

  9
$DIMASO
 70
     1
  9
$DIMSHO
 70
     1
  9
$DIMPOST
  1

  9
$DIMAPOST
  1

  9
$DIMALT
 70
     0
  9
$DIMALTD
 70
     2
  9
$DIMALTF
 40
25.4
  9
$DIMLFAC
 40
1.0
  9
$DIMTOFL
 70
     0
  9
$DIMTVP
 40
0.0
  9
$DIMTIX
 70
     0
  9
$DIMSOXD
 70
     0
  9
$DIMSAH
 70
     0
  9
$DIMBLK1
  1

  9
$DIMBLK2
  1

  9
$DIMSTYLE
  2
Standard
  9
$DIMCLRD
 70
     0
  9
$DIMCLRE
 70
     0
  9
$DIMCLRT
 70
     0
  9
$DIMTFAC
 40
1.0
  9
$DIMGAP
 40
0.625
  9
$DIMJUST
 70
     0
  9
$DIMSD1
 70
     0
  9
$DIMSD2
 70
     0
  9
$DIMTOLJ
 70
     1
  9
$DIMTZIN
 70
     0
  9
$DIMALTZ
 70
     0
  9
$DIMALTTZ
 70
     0
  9
$DIMUPT
 70
     0
  9
$DIMDEC
 70
     4
  9
$DIMTDEC
 70
     4
  9
$DIMALTU
 70
     2
  9
$DIMALTTD
 70
     2
  9
$DIMTXSTY
  7
Standard
  9
$DIMAUNIT
 70
     0
  9
$DIMADEC
 70
     0
  9
$DIMALTRND
 40
0.0
  9
$DIMAZIN
 70
     2
  9
$DIMDSEP
 70
    46
  9
$DIMATFIT
 70
     0
  9
$DIMFRAC
 70
     0
  9
$DIMLDRBLK
  1

  9
$DIMLUNIT
 70
     2
  9
$DIMLWD
 70
    -2
  9
$DIMLWE
 70
    -2
  9
$DIMTMOVE
 70
     0
  9
$DIMFXL
 40
1.0
  9
$DIMFXLON
 70
     0
  9
$DIMJOGANG
 40
0.7853981633974483
  9
$DIMTFILL
 70
     0
  9
$DIMTFILLCLR
 70
     0
  9
$DIMARCSYM
 70
     0
  9
$DIMLTYPE
  6

  9
$DIMLTEX1
  6

  9
$DIMLTEX2
  6

  9
$DIMTXTDIRECTION
 70
     0
  9
$LUNITS
 70
     2
  9
$LUPREC
 70
     4
  9
$SKETCHINC
 40
0.1
  9
$FILLETRAD
 40
0.0
  9
$AUNITS
 70
     0
  9
$AUPREC
 70
     0
  9
$MENU
  1
.
  9
$ELEVATION
 40
0.0
  9
$PELEVATION
 40
0.0
  9
$THICKNESS
 40
0.0
  9
$LIMCHECK
 70
     0
  9
$CHAMFERA
 40
0.0
  9
$CHAMFERB
 40
0.0
  9
$CHAMFERC
 40
0.0
  9
$CHAMFERD
 40
0.0
  9
$SKPOLY
 70
     0
  9
$TDCREATE
 40
2460709.817263056
  9
$TDUCREATE
 40
2460709.775596389
  9
$TDUPDATE
 40
2460709.817263854
  9
$TDUUPDATE
 40
2460709.775597188
  9
$TDINDWG
 40
0.0000000116
  9
$TDUSRTIMER
 40
0.0000000116
  9
$USRTIMER
 70
     1
  9
$ANGBASE
 50
0.0
  9
$ANGDIR
 70
     0
  9
$PDMODE
 70
     0
  9
$PDSIZE
 40
0.0
  9
$PLINEWID
 40
0.0
  9
$SPLFRAME
 70
     0
  9
$SPLINETYPE
 70
     6
  9
$SPLINESEGS
 70
     8
  9
$HANDSEED
  5
1D73
  9
$SURFTAB1
 70
     6
  9
$SURFTAB2
 70
     6
  9
$SURFTYPE
 70
     6
  9
$SURFU
 70
     6
  9
$SURFV
 70
     6
  9
$UCSBASE
  2

  9
$UCSNAME
  2

  9
$UCSORG
 10
0.0
 20
0.0
 30
0.0
  9
$UCSXDIR
 10
1.0
 20
0.0
 30
0.0
  9
$UCSYDIR
 10
0.0
 20
1.0
 30
0.0
  9
$UCSORTHOREF
  2

  9
$UCSORTHOVIEW
 70
     0
  9
$UCSORGTOP
 10
0.0
 20
0.0
 30
0.0
  9
$UCSORGBOTTOM
 10
0.0
 20
0.0
 30
0.0
  9
$UCSORGLEFT
 10
0.0
 20
0.0
 30
0.0
  9
$UCSORGRIGHT
 10
0.0
 20
0.0
 30
0.0
  9
$UCSORGFRONT
 10
0.0
 20
0.0
 30
0.0
  9
$UCSORGBACK
 10
0.0
 20
0.0
 30
0.0
  9
$PUCSBASE
  2

  9
$PUCSNAME
  2

  9
$PUCSORG
 10
0.0
 20
0.0
 30
0.0
  9
$PUCSXDIR
 10
1.0
 20
0.0
 30
0.0
  9
$PUCSYDIR
 10
0.0
 20
1.0
 30
0.0
  9
$PUCSORTHOREF
  2

  9
$PUCSORTHOVIEW
 70
     0
  9
$PUCSORGTOP
 10
0.0
 20
0.0
 30
0.0
  9
$PUCSORGBOTTOM
 10
0.0
 20
0.0
 30
0.0
  9
$PUCSORGLEFT
 10
0.0
 20
0.0
 30
0.0
  9
$PUCSORGRIGHT
 10
0.0
 20
0.0
 30
0.0
  9
$PUCSORGFRONT
 10
0.0
 20
0.0
 30
0.0
  9
$PUCSORGBACK
 10
0.0
 20
0.0
 30
0.0
  9
$USERI1
 70
     0
  9
$USERI2
 70
     0
  9
$USERI3
 70
     0
  9
$USERI4
 70
     0
  9
$USERI5
 70
     0
  9
$USERR1
 40
0.0
  9
$USERR2
 40
0.0
  9
$USERR3
 40
0.0
  9
$USERR4
 40
0.0
  9
$USERR5
 40
0.0
  9
$WORLDVIEW
 70
     1
  9
$SHADEDGE
 70
     3
  9
$SHADEDIF
 70
    70
  9
$TILEMODE
 70
     1
  9
$MAXACTVP
 70
    64
  9
$PINSBASE
 10
0.0
 20
0.0
 30
0.0
  9
$PLIMCHECK
 70
     0
  9
$PEXTMIN
 10
0.0
 20
0.0
 30
0.0
  9
$PEXTMAX
 10
0.0
 20
0.0
 30
0.0
  9
$PLIMMIN
 10
-20.0
 20
-7.5
  9
$PLIMMAX
 10
277.0
 20
202.5
  9
$UNITMODE
 70
     0
  9
$VISRETAIN
 70
     1
  9
$PLINEGEN
 70
     0
  9
$PSLTSCALE
 70
     1
  9
$TREEDEPTH
 70
  3020
  9
$CMLSTYLE
  2
Standard
  9
$CMLJUST
 70
     0
  9
$CMLSCALE
 40
1.0
  9
$PROXYGRAPHICS
 70
     1
  9
$MEASUREMENT
 70
     1
  9
$CELWEIGHT
370
    -1
  9
$ENDCAPS
280
     0
  9
$JOINSTYLE
280
     0
  9
$LWDISPLAY
290
     0
  9
$INSUNITS
 70
     4
  9
$HYPERLINKBASE
  1

  9
$STYLESHEET
  1

  9
$XEDIT
290
     1
  9
$CEPSNTYPE
380
     0
  9
$PSTYLEMODE
290
     1
  9
$FINGERPRINTGUID
  2
{00b7f526-c9ca-4aff-9582-79f7a6451238}
  9
$VERSIONGUID
  2
{FAEB1C32-E019-11D5-929B-00C0DF256EC4}
  9
$EXTNAMES
290
     1
  9
$PSVPSCALE
 40
0.0
  9
$OLESTARTUP
290
     0
  9
$SORTENTS
280
   127
  9
$INDEXCTL
280
     0
  9
$HIDETEXT
280
     1
  9
$XCLIPFRAME
280
     2
  9
$HALOGAP
280
     0
  9
$OBSCOLOR
 70
   257
  9
$OBSLTYPE
280
     0
  9
$INTERSECTIONDISPLAY
280
     0
  9
$INTERSECTIONCOLOR
 70
   257
  9
$DIMASSOC
280
     2
  9
$PROJECTNAME
  1

  9
$CAMERADISPLAY
290
     0
  9
$LENSLENGTH
 40
50.0
  9
$CAMERAHEIGHT
 40
0.0
  9
$STEPSPERSEC
 40
2.0
  9
$STEPSIZE
 40
6.0
  9
$3DDWFPREC
 40
2.0
  9
$PSOLWIDTH
 40
0.25
  9
$PSOLHEIGHT
 40
4.0
  9
$LOFTANG1
 40
1.570796326794897
  9
$LOFTANG2
 40
1.570796326794897
  9
$LOFTMAG1
 40
0.0
  9
$LOFTMAG2
 40
0.0
  9
$LOFTPARAM
 70
     7
  9
$LOFTNORMALS
280
     1
  9
$LATITUDE
 40
37.795
  9
$LONGITUDE
 40
-122.394
  9
$NORTHDIRECTION
 40
0.0
  9
$TIMEZONE
 70
 -8000
  9
$LIGHTGLYPHDISPLAY
280
     1
  9
$TILEMODELIGHTSYNCH
280
     1
  9
$CMATERIAL
347
1CD9
  9
$SOLIDHIST
280
     0
  9
$SHOWHIST
280
     1
  9
$DWFFRAME
280
     2
  9
$DGNFRAME
280
     2
  9
$REALWORLDSCALE
290
     1
  9
$INTERFERECOLOR
 62
   256
  9
$CSHADOW
280
     0
  9
$SHADOWPLANELOCATION
 40
0.0
  0
ENDSEC
  0
SECTION
  2
CLASSES
  0
CLASS
  1
ACDBDICTIONARYWDFLT
  2
AcDbDictionaryWithDefault
  3
ObjectDBX Classes
 90
        0
 91
        3
280
     0
281
     0
  0
CLASS
  1
VISUALSTYLE
  2
AcDbVisualStyle
  3
ObjectDBX Classes
 90
     4095
 91
        3
280
     0
281
     0
  0
CLASS
  1
MATERIAL
  2
AcDbMaterial
  3
ObjectDBX Classes
 90
     1153
 91
        3
280
     0
281
     0
  0
CLASS
  1
SCALE
  2
AcDbScale
  3
ObjectDBX Classes
 90
     1153
 91
        3
280
     0
281
     0
  0
CLASS
  1
TABLESTYLE
  2
AcDbTableStyle
  3
ObjectDBX Classes
 90
     4095
 91
        3
280
     0
281
     0
  0
CLASS
  1
MLEADERSTYLE
  2
AcDbMLeaderStyle
  3
ACDB_MLEADERSTYLE_CLASS
 90
     4095
 91
        3
280
     0
281
     0
  0
CLASS
  1
SUN
  2
AcDbSun
  3
SCENEOE
 90
     1153
 91
        3
280
     0
281
     0
  0
CLASS
  1
RASTERVARIABLES
  2
AcDbRasterVariables
  3
ISM
 90
        0
 91
        3
280
     0
281
     0
  0
CLASS
  1
IMAGEDEF
  2
AcDbRasterImageDef
  3
ISM
 90
        0
 91
        3
280
     0
281
     0
  0
CLASS
  1
IMAGE
  2
AcDbRasterImage
  3
ISM
 90
      127
 91
        4
280
     0
281
     1
  0
CLASS
  1
IMAGEDEF_REACTOR
  2
AcDbRasterImageDefReactor
  3
ISM
 90
        1
 91
        3
280
     0
281
     0
  0
CLASS
  1
DICTIONARYVAR
  2
AcDbDictionaryVar
  3
ObjectDBX Classes
 90
        0
 91
        3
280
     0
281
     0
  0
CLASS
  1
CELLSTYLEMAP
  2
AcDbCellStyleMap
  3
ObjectDBX Classes
 90
     1152
 91
        3
280
     0
281
     0
  0
ENDSEC
  0
SECTION
  2
TABLES
  0
TABLE
  2
VPORT
  5
1C9E
330
0
100
AcDbSymbolTable
 70
     1
  0
VPORT
  5
1CBE
330
1C9E
100
AcDbSymbolTableRecord
100
AcDbViewportTableRecord
  2
*Active
 70
     0
 10
0.0
 20
0.0
 11
1.0
 21
1.0
 12
192.1584299618793
 22
57.78792078830787
 13
0.0
 23
0.0
 14
0.5
 24
0.5
 15
0.5
 25
0.5
 16
0.0
 26
0.0
 36
1.0
 17
0.0
 27
0.0
 37
0.0
 40
370.5434782608696
 41
1.950718685831622
 42
50.0
 43
0.0
 44
0.0
 50
0.0
 51
0.0
 71
     0
 72
   100
 73
     1
 74
     3
 75
     0
 76
     0
 77
     0
 78
     0
281
     0
 65
     1
110
0.0
120
0.0
130
0.0
111
1.0
121
0.0
131
0.0
112
0.0
122
1.0
132
0.0
 79
     0
146
0.0
348
1CC4
 60
     3
 61
     5
292
     1
282
     1
141
0.0
142
0.0
 63
   250
361
1CF2
  0
ENDTAB
  0
TABLE
  2
LTYPE
  5
1C9B
330
0
100
AcDbSymbolTable
 70
    48
  0
LTYPE
  5
1CA9
330
1C9B
100
AcDbSymbolTableRecord
100
AcDbLinetypeTableRecord
  2
ByBlock
 70
     0
  3

 72
    65
 73
     0
 40
0.0
  0
LTYPE
  5
1CAA
330
1C9B
100
AcDbSymbolTableRecord
100
AcDbLinetypeTableRecord
  2
ByLayer
 70
     0
  3

 72
    65
 73
     0
 40
0.0
  0
LTYPE
  5
1CAB
330
1C9B
100
AcDbSymbolTableRecord
100
AcDbLinetypeTableRecord
  2
Continuous
 70
     0
  3
Solid line
 72
    65
 73
     0
 40
0.0
  0
LTYPE
  5
1D2E
330
1C9B
100
AcDbSymbolTableRecord
100
AcDbLinetypeTableRecord
  2
HOT_WATER_SUPPLY
 70
     0
  3
Hot water supply ---- HW ---- HW ---- HW ----
 72
    65
 73
     3
 40
22.86
 49
12.7
 74
     0
 49
-5.08
 74
     2
 75
     0
340
1D2D
 46
2.54
 50
0.0
 44
-2.54
 45
-1.27
  9
HW
 49
-5.08
 74
     0
  0
LTYPE
  5
1D2F
330
1C9B
100
AcDbSymbolTableRecord
100
AcDbLinetypeTableRecord
  2
HIDDENX2
 70
     0
  3
Hidden (2x) ____ ____ ____ ____ ____ ____ ____ 
 72
    65
 73
     2
 40
19.05
 49
12.7
 74
     0
 49
-6.35
 74
     0
  0
LTYPE
  5
1D31
330
1C9B
100
AcDbSymbolTableRecord
100
AcDbLinetypeTableRecord
  2
ZIGZAG
 70
     0
  3
Zig zag /\/\/\/\/\/\/\/\/\/\/\/\/\/\/\/\/\/\/\/\/\/\/\/
 72
    65
 73
     4
 40
20.32254
 49
0.00254
 74
     0
 49
-5.08
 74
     2
 75
     0
340
1D30
 46
5.08
 50
0.0
 44
-5.08
 45
0.0
  9
ZIG
 49
-10.16
 74
     2
 75
     0
340
1D30
 46
5.08
 50
180.0
 44
5.08
 45
0.0
  9
ZIG
 49
-5.08
 74
     0
  0
LTYPE
  5
1D32
330
1C9B
100
AcDbSymbolTableRecord
100
AcDbLinetypeTableRecord
  2
TRACKS
 70
     0
  3
Tracks -|-|-|-|-|-|-|-|-|-|-|-|-|-|-|-|-|-|-|-|-|-|-|-|-
 72
    65
 73
     2
 40
7.62
 49
3.81
 74
     2
 75
     0
340
1D30
 46
6.35
 50
0.0
 44
0.0
 45
0.0
  9
TRACK1
 49
3.81
 74
     0
  0
LTYPE
  5
1D33
330
1C9B
100
AcDbSymbolTableRecord
100
AcDbLinetypeTableRecord
  2
PHANTOMX2
 70
     0
  3
Phantom (2x) ____________    ____    ____   _
 72
    65
 73
     6
 40
127.0
 49
63.5
 74
     0
 49
-12.7
 74
     0
 49
12.7
 74
     0
 49
-12.7
 74
     0
 49
12.7
 74
     0
 49
-12.7
 74
     0
  0
LTYPE
  5
1D34
330
1C9B
100
AcDbSymbolTableRecord
100
AcDbLinetypeTableRecord
  2
ACAD_ISO05W100
 70
     0
  3
ISO long-dash double-dot ____ .. ____ .. ____ . 
 72
    65
 73
     6
 40
33.0
 49
24.0
 74
     0
 49
-3.0
 74
     0
 49
0.0
 74
     0
 49
-3.0
 74
     0
 49
0.0
 74
     0
 49
-3.0
 74
     0
  0
LTYPE
  5
1D35
330
1C9B
100
AcDbSymbolTableRecord
100
AcDbLinetypeTableRecord
  2
ACAD_ISO04W100
 70
     0
  3
ISO long-dash dot ____ . ____ . ____ . ____ . _
 72
    65
 73
     4
 40
30.0
 49
24.0
 74
     0
 49
-3.0
 74
     0
 49
0.0
 74
     0
 49
-3.0
 74
     0
  0
LTYPE
  5
1D36
330
1C9B
100
AcDbSymbolTableRecord
100
AcDbLinetypeTableRecord
  2
ACAD_ISO03W100
 70
     0
  3
ISO dash space __    __    __    __    __    __
 72
    65
 73
     2
 40
30.0
 49
12.0
 74
     0
 49
-18.0
 74
     0
  0
LTYPE
  5
1D37
330
1C9B
100
AcDbSymbolTableRecord
100
AcDbLinetypeTableRecord
  2
ACAD_ISO02W100
 70
     0
  3
ISO dash __ __ __ __ __ __ __ __ __ __ __ __ __
 72
    65
 73
     2
 40
15.0
 49
12.0
 74
     0
 49
-3.0
 74
     0
  0
LTYPE
  5
1D38
330
1C9B
100
AcDbSymbolTableRecord
100
AcDbLinetypeTableRecord
  2
ACAD_ISO09W100
 70
     0
  3
ISO long-dash double-short-dash ____ __ __ ____
 72
    65
 73
     6
 40
45.0
 49
24.0
 74
     0
 49
-3.0
 74
     0
 49
6.0
 74
     0
 49
-3.0
 74
     0
 49
6.0
 74
     0
 49
-3.0
 74
     0
  0
LTYPE
  5
1D39
330
1C9B
100
AcDbSymbolTableRecord
100
AcDbLinetypeTableRecord
  2
ACAD_ISO08W100
 70
     0
  3
ISO long-dash short-dash ____ __ ____ __ ____ _
 72
    65
 73
     4
 40
36.0
 49
24.0
 74
     0
 49
-3.0
 74
     0
 49
6.0
 74
     0
 49
-3.0
 74
     0
  0
LTYPE
  5
1D3A
330
1C9B
100
AcDbSymbolTableRecord
100
AcDbLinetypeTableRecord
  2
ACAD_ISO07W100
 70
     0
  3
ISO dot . . . . . . . . . . . . . . . . . . . . 
 72
    65
 73
     2
 40
3.0
 49
0.0
 74
     0
 49
-3.0
 74
     0
  0
LTYPE
  5
1D3B
330
1C9B
100
AcDbSymbolTableRecord
100
AcDbLinetypeTableRecord
  2
ACAD_ISO06W100
 70
     0
  3
ISO long-dash triple-dot ____ ... ____ ... ____
 72
    65
 73
     8
 40
36.0
 49
24.0
 74
     0
 49
-3.0
 74
     0
 49
0.0
 74
     0
 49
-3.0
 74
     0
 49
0.0
 74
     0
 49
-3.0
 74
     0
 49
0.0
 74
     0
 49
-3.0
 74
     0
  0
LTYPE
  5
1D3C
330
1C9B
100
AcDbSymbolTableRecord
100
AcDbLinetypeTableRecord
  2
CENTER2
 70
     0
  3
Center (.5x) ___ _ ___ _ ___ _ ___ _ ___ _ ___
 72
    65
 73
     4
 40
28.575
 49
19.05
 74
     0
 49
-3.175
 74
     0
 49
3.175
 74
     0
 49
-3.175
 74
     0
  0
LTYPE
  5
1D3D
330
1C9B
100
AcDbSymbolTableRecord
100
AcDbLinetypeTableRecord
  2
CENTER
 70
     0
  3
Center ____ _ ____ _ ____ _ ____ _ ____ _ ____
 72
    65
 73
     4
 40
50.8
 49
31.75
 74
     0
 49
-6.35
 74
     0
 49
6.35
 74
     0
 49
-6.35
 74
     0
  0
LTYPE
  5
1D3E
330
1C9B
100
AcDbSymbolTableRecord
100
AcDbLinetypeTableRecord
  2
BORDERX2
 70
     0
  3
Border (2x) ____  ____  .  ____  ____  .  ___
 72
    65
 73
     6
 40
88.89999999999999
 49
25.4
 74
     0
 49
-12.7
 74
     0
 49
25.4
 74
     0
 49
-12.7
 74
     0
 49
0.0
 74
     0
 49
-12.7
 74
     0
  0
LTYPE
  5
1D3F
330
1C9B
100
AcDbSymbolTableRecord
100
AcDbLinetypeTableRecord
  2
BORDER2
 70
     0
  3
Border (.5x) __.__.__.__.__.__.__.__.__.__.__.
 72
    65
 73
     6
 40
22.225
 49
6.35
 74
     0
 49
-3.175
 74
     0
 49
6.35
 74
     0
 49
-3.175
 74
     0
 49
0.0
 74
     0
 49
-3.175
 74
     0
  0
LTYPE
  5
1D40
330
1C9B
100
AcDbSymbolTableRecord
100
AcDbLinetypeTableRecord
  2
DASHDOTX2
 70
     0
  3
Dash dot (2x) ____  .  ____  .  ____  .  ___
 72
    65
 73
     4
 40
50.8
 49
25.4
 74
     0
 49
-12.7
 74
     0
 49
0.0
 74
     0
 49
-12.7
 74
     0
  0
LTYPE
  5
1D41
330
1C9B
100
AcDbSymbolTableRecord
100
AcDbLinetypeTableRecord
  2
DASHDOT2
 70
     0
  3
Dash dot (.5x) _._._._._._._._._._._._._._._.
 72
    65
 73
     4
 40
12.7
 49
6.35
 74
     0
 49
-3.175
 74
     0
 49
0.0
 74
     0
 49
-3.175
 74
     0
  0
LTYPE
  5
1D42
330
1C9B
100
AcDbSymbolTableRecord
100
AcDbLinetypeTableRecord
  2
DASHDOT
 70
     0
  3
Dash dot __ . __ . __ . __ . __ . __ . __ . __
 72
    65
 73
     4
 40
25.4
 49
12.7
 74
     0
 49
-6.35
 74
     0
 49
0.0
 74
     0
 49
-6.35
 74
     0
  0
LTYPE
  5
1D43
330
1C9B
100
AcDbSymbolTableRecord
100
AcDbLinetypeTableRecord
  2
CENTERX2
 70
     0
  3
Center (2x) ________  __  ________  __  _____
 72
    65
 73
     4
 40
101.6
 49
63.5
 74
     0
 49
-12.7
 74
     0
 49
12.7
 74
     0
 49
-12.7
 74
     0
  0
LTYPE
  5
1D44
330
1C9B
100
AcDbSymbolTableRecord
100
AcDbLinetypeTableRecord
  2
ACAD_ISO13W100
 70
     0
  3
ISO double-dash double-dot __ __ . . __ __ . . _
 72
    65
 73
     8
 40
36.0
 49
12.0
 74
     0
 49
-3.0
 74
     0
 49
12.0
 74
     0
 49
-3.0
 74
     0
 49
0.0
 74
     0
 49
-3.0
 74
     0
 49
0.0
 74
     0
 49
-3.0
 74
     0
  0
LTYPE
  5
1D45
330
1C9B
100
AcDbSymbolTableRecord
100
AcDbLinetypeTableRecord
  2
ACAD_ISO12W100
 70
     0
  3
ISO dash double-dot __ . . __ . . __ . . __ . . 
 72
    65
 73
     6
 40
21.0
 49
12.0
 74
     0
 49
-3.0
 74
     0
 49
0.0
 74
     0
 49
-3.0
 74
     0
 49
0.0
 74
     0
 49
-3.0
 74
     0
  0
LTYPE
  5
1D46
330
1C9B
100
AcDbSymbolTableRecord
100
AcDbLinetypeTableRecord
  2
ACAD_ISO11W100
 70
     0
  3
ISO double-dash dot __ __ . __ __ . __ __ . __ _
 72
    65
 73
     6
 40
33.0
 49
12.0
 74
     0
 49
-3.0
 74
     0
 49
12.0
 74
     0
 49
-3.0
 74
     0
 49
0.0
 74
     0
 49
-3.0
 74
     0
  0
LTYPE
  5
1D47
330
1C9B
100
AcDbSymbolTableRecord
100
AcDbLinetypeTableRecord
  2
ACAD_ISO10W100
 70
     0
  3
ISO dash dot __ . __ . __ . __ . __ . __ . __ . 
 72
    65
 73
     4
 40
18.0
 49
12.0
 74
     0
 49
-3.0
 74
     0
 49
0.0
 74
     0
 49
-3.0
 74
     0
  0
LTYPE
  5
1D48
330
1C9B
100
AcDbSymbolTableRecord
100
AcDbLinetypeTableRecord
  2
BORDER
 70
     0
  3
Border __ __ . __ __ . __ __ . __ __ . __ __ .
 72
    65
 73
     6
 40
44.45
 49
12.7
 74
     0
 49
-6.35
 74
     0
 49
12.7
 74
     0
 49
-6.35
 74
     0
 49
0.0
 74
     0
 49
-6.35
 74
     0
  0
LTYPE
  5
1D49
330
1C9B
100
AcDbSymbolTableRecord
100
AcDbLinetypeTableRecord
  2
BATTING
 70
     0
  3
Batting SSSSSSSSSSSSSSSSSSSSSSSSSSSSSSSSSSSSSSSSSSSSSSS
 72
    65
 73
     4
 40
10.16254
 49
0.00254
 74
     0
 49
-2.54
 74
     2
 75
     0
340
1D30
 46
2.54
 50
0.0
 44
-2.54
 45
0.0
  9
BAT
 49
-5.08
 74
     2
 75
     0
340
1D30
 46
2.54
 50
180.0
 44
2.54
 45
0.0
  9
BAT
 49
-2.54
 74
     0
  0
LTYPE
  5
1D4A
330
1C9B
100
AcDbSymbolTableRecord
100
AcDbLinetypeTableRecord
  2
ACAD_ISO15W100
 70
     0
  3
ISO double-dash triple-dot __ __ . . . __ __ . .
 72
    65
 73
    10
 40
39.0
 49
12.0
 74
     0
 49
-3.0
 74
     0
 49
12.0
 74
     0
 49
-3.0
 74
     0
 49
0.0
 74
     0
 49
-3.0
 74
     0
 49
0.0
 74
     0
 49
-3.0
 74
     0
 49
0.0
 74
     0
 49
-3.0
 74
     0
  0
LTYPE
  5
1D4B
330
1C9B
100
AcDbSymbolTableRecord
100
AcDbLinetypeTableRecord
  2
ACAD_ISO14W100
 70
     0
  3
ISO dash triple-dot __ . . . __ . . . __ . . . _
 72
    65
 73
     8
 40
24.0
 49
12.0
 74
     0
 49
-3.0
 74
     0
 49
0.0
 74
     0
 49
-3.0
 74
     0
 49
0.0
 74
     0
 49
-3.0
 74
     0
 49
0.0
 74
     0
 49
-3.0
 74
     0
  0
LTYPE
  5
1D4C
330
1C9B
100
AcDbSymbolTableRecord
100
AcDbLinetypeTableRecord
  2
FENCELINE1
 70
     0
  3
Fenceline circle ----0-----0----0-----0----0-----0--
 72
    65
 73
     4
 40
36.83
 49
6.35
 74
     0
 49
-2.54
 74
     2
 75
     0
340
1D30
 46
2.54
 50
0.0
 44
-2.54
 45
0.0
  9
CIRC1
 49
-2.54
 74
     0
 49
25.4
 74
     0
  0
LTYPE
  5
1D4E
330
1C9B
100
AcDbSymbolTableRecord
100
AcDbLinetypeTableRecord
  2
DRAINAGE2
 70
     0
  3
Drainage reversed----<----<----<----
 72
    65
 73
     2
 40
10.16
 49
5.08
 74
     2
 75
     0
340
1D4D
 46
2.54
 50
0.0
 44
0.0
 45
0.0
  9
RIGHT_ARROW
 49
5.08
 74
     0
  0
LTYPE
  5
1D4F
330
1C9B
100
AcDbSymbolTableRecord
100
AcDbLinetypeTableRecord
  2
DRAINAGE
 70
     0
  3
Drainage ---->---->---->----
 72
    65
 73
     2
 40
10.16
 49
5.08
 74
     2
 75
     0
340
1D4D
 46
2.54
 50
180.0
 44
0.0
 45
0.0
  9
RIGHT_ARROW
 49
5.08
 74
     0
  0
LTYPE
  5
1D50
330
1C9B
100
AcDbSymbolTableRecord
100
AcDbLinetypeTableRecord
  2
DOTX2
 70
     0
  3
Dot (2x) .  .  .  .  .  .  .  .  .  .  .  .  .  .
 72
    65
 73
     2
 40
12.7
 49
0.0
 74
     0
 49
-12.7
 74
     0
  0
LTYPE
  5
1D51
330
1C9B
100
AcDbSymbolTableRecord
100
AcDbLinetypeTableRecord
  2
HIDDEN2
 70
     0
  3
Hidden (.5x) _ _ _ _ _ _ _ _ _ _ _ _ _ _ _ _ _ 
 72
    65
 73
     2
 40
4.762499999999999
 49
3.175
 74
     0
 49
-1.5875
 74
     0
  0
LTYPE
  5
1D52
330
1C9B
100
AcDbSymbolTableRecord
100
AcDbLinetypeTableRecord
  2
HIDDEN
 70
     0
  3
Hidden __ __ __ __ __ __ __ __ __ __ __ __ __ __
 72
    65
 73
     2
 40
9.524999999999999
 49
6.35
 74
     0
 49
-3.175
 74
     0
  0
LTYPE
  5
1D53
330
1C9B
100
AcDbSymbolTableRecord
100
AcDbLinetypeTableRecord
  2
GAS_LINE
 70
     0
  3
Gas line ----GAS----GAS----GAS----GAS----GAS----GAS--
 72
    65
 73
     3
 40
24.13
 49
12.7
 74
     0
 49
-5.08
 74
     2
 75
     0
340
1D2D
 46
2.54
 50
0.0
 44
-2.54
 45
-1.27
  9
GAS
 49
-6.35
 74
     0
  0
LTYPE
  5
1D54
330
1C9B
100
AcDbSymbolTableRecord
100
AcDbLinetypeTableRecord
  2
FENCELINE2
 70
     0
  3
Fenceline square ----[]-----[]----[]-----[]----[]---
 72
    65
 73
     4
 40
36.83
 49
6.35
 74
     0
 49
-2.54
 74
     2
 75
     0
340
1D30
 46
2.54
 50
0.0
 44
-2.54
 45
0.0
  9
BOX
 49
-2.54
 74
     0
 49
25.4
 74
     0
  0
LTYPE
  5
1D55
330
1C9B
100
AcDbSymbolTableRecord
100
AcDbLinetypeTableRecord
  2
DIVIDE
 70
     0
  3
Divide ____ . . ____ . . ____ . . ____ . . ____
 72
    65
 73
     6
 40
31.75
 49
12.7
 74
     0
 49
-6.35
 74
     0
 49
0.0
 74
     0
 49
-6.35
 74
     0
 49
0.0
 74
     0
 49
-6.35
 74
     0
  0
LTYPE
  5
1D56
330
1C9B
100
AcDbSymbolTableRecord
100
AcDbLinetypeTableRecord
  2
DASHEDX2
 70
     0
  3
Dashed (2x) ____  ____  ____  ____  ____  ___
 72
    65
 73
     2
 40
38.09999999999999
 49
25.4
 74
     0
 49
-12.7
 74
     0
  0
LTYPE
  5
1D57
330
1C9B
100
AcDbSymbolTableRecord
100
AcDbLinetypeTableRecord
  2
DASHED2
 70
     0
  3
Dashed (.5x) _ _ _ _ _ _ _ _ _ _ _ _ _ _ _ _ _ 
 72
    65
 73
     2
 40
9.524999999999999
 49
6.35
 74
     0
 49
-3.175
 74
     0
  0
LTYPE
  5
1D58
330
1C9B
100
AcDbSymbolTableRecord
100
AcDbLinetypeTableRecord
  2
DASHED
 70
     0
  3
Dashed __ __ __ __ __ __ __ __ __ __ __ __ __ _
 72
    65
 73
     2
 40
19.05
 49
12.7
 74
     0
 49
-6.35
 74
     0
  0
LTYPE
  5
1D59
330
1C9B
100
AcDbSymbolTableRecord
100
AcDbLinetypeTableRecord
  2
DOT2
 70
     0
  3
Dot (.5x) ........................................
 72
    65
 73
     2
 40
3.175
 49
0.0
 74
     0
 49
-3.175
 74
     0
  0
LTYPE
  5
1D5A
330
1C9B
100
AcDbSymbolTableRecord
100
AcDbLinetypeTableRecord
  2
DOT
 70
     0
  3
Dot . . . . . . . . . . . . . . . . . . . . . . . .
 72
    65
 73
     2
 40
6.35
 49
0.0
 74
     0
 49
-6.35
 74
     0
  0
LTYPE
  5
1D5B
330
1C9B
100
AcDbSymbolTableRecord
100
AcDbLinetypeTableRecord
  2
DIVIDEX2
 70
     0
  3
Divide (2x) ________  .  .  ________  .  .  _
 72
    65
 73
     6
 40
63.5
 49
25.4
 74
     0
 49
-12.7
 74
     0
 49
0.0
 74
     0
 49
-12.7
 74
     0
 49
0.0
 74
     0
 49
-12.7
 74
     0
  0
LTYPE
  5
1D5C
330
1C9B
100
AcDbSymbolTableRecord
100
AcDbLinetypeTableRecord
  2
DIVIDE2
 70
     0
  3
Divide (.5x) __..__..__..__..__..__..__..__.._
 72
    65
 73
     6
 40
15.875
 49
6.35
 74
     0
 49
-3.175
 74
     0
 49
0.0
 74
     0
 49
-3.175
 74
     0
 49
0.0
 74
     0
 49
-3.175
 74
     0
  0
LTYPE
  5
1D5D
330
1C9B
100
AcDbSymbolTableRecord
100
AcDbLinetypeTableRecord
  2
PHANTOM2
 70
     0
  3
Phantom (.5x) ___ _ _ ___ _ _ ___ _ _ ___ _ _
 72
    65
 73
     6
 40
31.75
 49
15.875
 74
     0
 49
-3.175
 74
     0
 49
3.175
 74
     0
 49
-3.175
 74
     0
 49
3.175
 74
     0
 49
-3.175
 74
     0
  0
LTYPE
  5
1D5E
330
1C9B
100
AcDbSymbolTableRecord
100
AcDbLinetypeTableRecord
  2
PHANTOM
 70
     0
  3
Phantom ______  __  __  ______  __  __  ______ 
 72
    65
 73
     6
 40
63.50000000000001
 49
31.75
 74
     0
 49
-6.35
 74
     0
 49
6.35
 74
     0
 49
-6.35
 74
     0
 49
6.35
 74
     0
 49
-6.35
 74
     0
  0
ENDTAB
  0
TABLE
  2
LAYER
  5
1C99
330
0
100
AcDbSymbolTable
 70
     2
  0
LAYER
  5
1CA6
330
1C99
100
AcDbSymbolTableRecord
100
AcDbLayerTableRecord
  2
0
 70
     0
 62
     7
  6
Continuous
370
    25
390
1CA5
347
1CDB
348
0
  0
LAYER
  5
1D5F
330
1C99
100
AcDbSymbolTableRecord
100
AcDbLayerTableRecord
  2
Defpoints
 70
     0
 62
     7
  6
Continuous
290
     0
370
    -3
390
1CA5
347
1CDB
348
0
  0
ENDTAB
  0
TABLE
  2
STYLE
  5
1C9A
330
0
100
AcDbSymbolTable
 70
     5
  0
STYLE
  5
1CA7
330
1C9A
100
AcDbSymbolTableRecord
100
AcDbTextStyleTableRecord
  2
Standard
 70
     0
 40
0.0
 41
1.0
 50
0.0
 71
     0
 42
0.2
  3
txt
  4

  0
STYLE
  5
1D2D
330
1C9A
100
AcDbSymbolTableRecord
100
AcDbTextStyleTableRecord
  2
textstyle0
 70
     0
 40
0.0
 41
1.0
 50
0.0
 71
     0
 42
0.2
  3
STANDARD
  4

  0
STYLE
  5
1D30
330
1C9A
100
AcDbSymbolTableRecord
100
AcDbTextStyleTableRecord
  2
textstyle1
 70
     0
 40
0.0
 41
1.0
 50
0.0
 71
     0
 42
0.2
  3
ltypeshp.shx
  4

  0
STYLE
  5
1D4D
330
1C9A
100
AcDbSymbolTableRecord
100
AcDbTextStyleTableRecord
  2
textstyle2
 70
     0
 40
0.0
 41
1.0
 50
0.0
 71
     0
 42
0.2
  3
qcadshp.shx
  4

  0
STYLE
  5
1D67
330
1C9A
100
AcDbSymbolTableRecord
100
AcDbTextStyleTableRecord
  2
textstyle3
 70
     0
 40
0.0
 41
1.0
 50
0.0
 71
     0
 42
0.2
  3

  4

1001
ACAD
1000
Standard
1071
        0
  0
ENDTAB
  0
TABLE
  2
VIEW
  5
1C9C
330
0
100
AcDbSymbolTable
 70
     0
  0
ENDTAB
  0
TABLE
  2
UCS
  5
1C9D
330
0
100
AcDbSymbolTable
 70
     0
  0
ENDTAB
  0
TABLE
  2
APPID
  5
1C9F
330
0
100
AcDbSymbolTable
 70
     2
  0
APPID
  5
1CA8
330
1C9F
100
AcDbSymbolTableRecord
100
AcDbRegAppTableRecord
  2
ACAD
 70
     0
  0
APPID
  5
1CF3
330
1C9F
100
AcDbSymbolTableRecord
100
AcDbRegAppTableRecord
  2
QCAD
 70
     0
  0
ENDTAB
  0
TABLE
  2
DIMSTYLE
  5
1CA0
330
0
100
AcDbSymbolTable
 70
     2
100
AcDbDimStyleTable
  0
DIMSTYLE
105
1CBC
330
1CA0
100
AcDbSymbolTableRecord
100
AcDbDimStyleTableRecord
  2
Standard
 70
     0
178
     0
340
1CA7
  0
DIMSTYLE
105
1D2C
102
{ACAD_REACTORS
330
186D
330
186F
330
1871
330
1872
330
1873
330
1874
330
1875
330
1876
330
1877
330
1878
330
187A
330
187B
330
1A28
102
}
330
1CA0
100
AcDbSymbolTableRecord
100
AcDbDimStyleTableRecord
  2
QCADDimStyle
 70
     0
 41
2.5
 42
0.625
 43
5.0
 44
1.25
 73
     0
 77
     1
 78
     8
 79
     2
140
2.5
147
0.625
178
     0
279
     2
340
1CA7
  0
ENDTAB
  0
TABLE
  2
BLOCK_RECORD
  5
1C98
330
0
100
AcDbSymbolTable
 70
     0
  0
BLOCK_RECORD
  5
1CB4
330
1C98
100
AcDbSymbolTableRecord
100
AcDbBlockTableRecord
  2
*Model_Space
340
1CB7
 70
     0
280
     1
281
     0
  0
BLOCK_RECORD
  5
1CB0
330
1C98
100
AcDbSymbolTableRecord
100
AcDbBlockTableRecord
  2
*Paper_Space
340
1CB3
 70
     0
280
     1
281
     0
  0
ENDTAB
  0
ENDSEC
  0
SECTION
  2
BLOCKS
  0
BLOCK
  5
1CB5
330
1CB4
100
AcDbEntity
  8
0
100
AcDbBlockBegin
  2
*Model_Space
 70
     0
 10
0.0
 20
0.0
 30
0.0
  3
*Model_Space
  1

  0
ENDBLK
  5
1CB6
330
1CB4
100
AcDbEntity
  8
0
100
AcDbBlockEnd
  0
BLOCK
  5
1CB1
330
1CB0
100
AcDbEntity
 67
     1
  8
0
100
AcDbBlockBegin
  2
*Paper_Space
 70
     0
 10
0.0
 20
0.0
 30
0.0
  3
*Paper_Space
  1

  0
ENDBLK
  5
1CB2
330
1CB0
100
AcDbEntity
 67
     1
  8
0
100
AcDbBlockEnd
  0
ENDSEC
  0
SECTION
  2
ENTITIES
  0
LINE
  5
39
330
1CB4
100
AcDbEntity
  8
0
100
AcDbLine
 10
68.15842996187939
 20
-107.2120792116921
 30
0.0
 11
316.1584299618794
 21
-107.2120792116921
 31
0.0
  0
IMAGE
  5
16C5
330
1CB4
100
AcDbEntity
  8
0
160
               140
310
8C000000010000008400000006000000050000000F1B71B642175F4012643C893151614000000000000000002BE7E162A5FF604012643C893151614000000000000000002BE7E162A5FF6040166A4593FAC3624000000000000000000F1B71B642175F40166A4593FAC3624000000000000000000F1B71B642175F4012643C
310
89315161400000000000000000
100
AcDbRasterImage
 90
        0
 10
124.3634468178318
 20
138.53729688449
 30
0.0
 11
0.05457977434060732
 21
0.0
 31
0.0
 12
2.993677757765378E-18
 22
0.04889046800840362
 32
0.0
 13
213.0
 23
237.0
340
1D63
 70
     7
280
     0
281
    50
282
    50
283
     0
360
1D64
 71
     1
 91
        2
 14
-0.5
 24
-0.5
 14
212.5
 24
236.5
290
     0
  0
IMAGE
  5
1BCB
330
1CB4
100
AcDbEntity
  8
0
160
               140
310
8C00000001000000840000000600000005000000F4369231B4C26E4055E727D3C165614000000000000000004CC89D1C5C1B704055E727D3C165614000000000000000004CC89D1C5C1B704059ED30DD8AD862400000000000000000F4369231B4C26E4059ED30DD8AD862400000000000000000F4369231B4C26E4055E727
310
D3C16561400000000000000000
100
AcDbRasterImage
 90
        0
 10
246.0844962936168
 20
139.1799102572792
 30
0.0
 11
0.05457977434060732
 21
0.0
 31
0.0
 12
2.993677757765378E-18
 22
0.04889046800840362
 32
0.0
 13
213.0
 23
237.0
340
1D65
 70
     7
280
     0
281
    50
282
    50
283
     0
360
1D66
 71
     1
 91
        2
 14
-0.5
 24
-0.5
 14
212.5
 24
236.5
290
     0
  0
LINE
  5
3A
330
1CB4
100
AcDbEntity
  8
0
100
AcDbLine
 10
276.1584299618794
 20
-77.21207921169213
 30
0.0
 11
316.1584299618794
 21
-77.21207921169213
 31
0.0
  0
LINE
  5
3B
330
1CB4
100
AcDbEntity
  8
0
100
AcDbLine
 10
316.1584299618794
 20
-107.2120792116921
 30
0.0
 11
316.1584299618794
 21
222.7879207883079
 31
0.0
  0
LINE
  5
3C
330
1CB4
100
AcDbEntity
  8
0
100
AcDbLine
 10
196.1584299618794
 20
-67.21207921169213
 30
0.0
 11
316.1584299618794
 21
-67.21207921169213
 31
0.0
  0
LINE
  5
3D
330
1CB4
100
AcDbEntity
  8
0
100
AcDbLine
 10
276.1584299618794
 20
-87.21207921169213
 30
0.0
 11
316.1584299618794
 21
-87.21207921169213
 31
0.0
  0
CIRCLE
  5
16C7
330
1CB4
100
AcDbEntity
  8
0
370
    25
100
AcDbCircle
 10
105.0
 20
144.0
 30
0.0
 40
3.299999999999999
  0
CIRCLE
  5
1BCC
330
1CB4
100
AcDbEntity
  8
0
370
    25
100
AcDbCircle
 10
226.721049475785
 20
144.642613372789
 30
0.0
 40
3.299999999999999
  0
LINE
  5
3E
330
1CB4
100
AcDbEntity
  8
0
100
AcDbLine
 10
276.1584299618794
 20
-97.21207921169213
 30
0.0
 11
316.1584299618794
 21
-97.21207921169213
 31
0.0
  0
CIRCLE
  5
16C8
330
1CB4
100
AcDbEntity
  8
0
370
    25
100
AcDbCircle
 10
105.0
 20
123.9999999999998
 30
0.0
 40
3.299999999999999
  0
CIRCLE
  5
1BCD
330
1CB4
100
AcDbEntity
  8
0
370
    25
100
AcDbCircle
 10
226.721049475785
 20
124.6426133727888
 30
0.0
 40
3.299999999999999
  0
LINE
  5
3F
330
1CB4
100
AcDbEntity
  8
0
100
AcDbLine
 10
196.1584299618794
 20
-107.2120792116921
 30
0.0
 11
196.1584299618794
 21
-47.21207921169213
 31
0.0
  0
CIRCLE
  5
16C9
330
1CB4
100
AcDbEntity
  8
0
370
    25
100
AcDbCircle
 10
155.0
 20
121.9999999999998
 30
0.0
 40
3.3
  0
CIRCLE
  5
1BCE
330
1CB4
100
AcDbEntity
  8
0
370
    25
100
AcDbCircle
 10
276.721049475785
 20
122.6426133727888
 30
0.0
 40
3.3
  0
LINE
  5
40
330
1CB4
100
AcDbEntity
  8
0
100
AcDbLine
 10
196.1584299618794
 20
-47.21207921169213
 30
0.0
 11
316.1584299618794
 21
-47.21207921169213
 31
0.0
  0
CIRCLE
  5
16CA
330
1CB4
100
AcDbEntity
  8
0
370
    25
100
AcDbCircle
 10
119.0
 20
126.9999999999999
 30
0.0
 40
1.600000000000001
  0
CIRCLE
  5
1BCF
330
1CB4
100
AcDbEntity
  8
0
370
    25
100
AcDbCircle
 10
240.721049475785
 20
127.6426133727889
 30
0.0
 40
1.600000000000001
  0
LINE
  5
41
330
1CB4
100
AcDbEntity
  8
0
100
AcDbLine
 10
276.1584299618794
 20
-67.21207921169213
 30
0.0
 11
276.1584299618794
 21
-107.2120792116921
 31
0.0
  0
CIRCLE
  5
16CB
330
1CB4
100
AcDbEntity
  8
0
370
    25
100
AcDbCircle
 10
105.0
 20
107.9999999999999
 30
0.0
 40
3.299999999999999
  0
CIRCLE
  5
1BD0
330
1CB4
100
AcDbEntity
  8
0
370
    25
100
AcDbCircle
 10
226.721049475785
 20
108.6426133727889
 30
0.0
 40
3.299999999999999
  0
LINE
  5
42
330
1CB4
100
AcDbEntity
  8
0
100
AcDbLine
 10
196.1584299618794
 20
-57.21207921169213
 30
0.0
 11
316.1584299618794
 21
-57.21207921169213
 31
0.0
  0
CIRCLE
  5
16CC
330
1CB4
100
AcDbEntity
  8
0
370
    25
100
AcDbCircle
 10
155.0
 20
144.0
 30
0.0
 40
3.299999999999999
  0
CIRCLE
  5
1BD1
330
1CB4
100
AcDbEntity
  8
0
370
    25
100
AcDbCircle
 10
276.721049475785
 20
144.642613372789
 30
0.0
 40
3.299999999999999
  0
LINE
  5
43
330
1CB4
100
AcDbEntity
  8
0
100
AcDbLine
 10
296.1584299618794
 20
-97.21207921169213
 30
0.0
 11
296.1584299618794
 21
-107.2120792116921
 31
0.0
  0
CIRCLE
  5
16CD
330
1CB4
100
AcDbEntity
  8
0
370
    25
100
AcDbCircle
 10
131.0
 20
123.9999999999998
 30
0.0
 40
3.299999999999999
  0
CIRCLE
  5
1BD2
330
1CB4
100
AcDbEntity
  8
0
370
    25
100
AcDbCircle
 10
252.721049475785
 20
124.6426133727888
 30
0.0
 40
3.299999999999999
  0
MTEXT
  5
44
330
1CB4
100
AcDbEntity
  8
0
100
AcDbMText
 10
240.0
 20
-50.0
 30
0.0
 40
2.5
 41
0.0
 46
0.0
 71
     2
 72
     1
  1
\H4;Sequencer Panela Erica Synths
  7
textstyle3
 73
     1
 44
1.0
  0
CIRCLE
  5
16CE
330
1CB4
100
AcDbEntity
  8
0
370
    25
100
AcDbCircle
 10
131.0
 20
107.9999999999999
 30
0.0
 40
3.299999999999999
  0
CIRCLE
  5
1BD3
330
1CB4
100
AcDbEntity
  8
0
370
    25
100
AcDbCircle
 10
252.721049475785
 20
108.6426133727889
 30
0.0
 40
3.299999999999999
  0
IMAGE
  5
45
330
1CB4
100
AcDbEntity
  8
0
160
               140
310
8C00000001000000840000000600000005000000F6FBF22BB7286B40687D8217820D59C00000000000000000FB7DF9955B147040687D8217820D59C00000000000000000FB7DF9955B147040687D8217828D51C00000000000000000F7FBF22BB7286B40687D8217828D51C00000000000000000F6FBF22BB7286B40687D82
310
17820D59C00000000000000000
100
AcDbRasterImage
 90
        0
 10
217.2723598237787
 20
-100.211065175468
 30
0.0
 11
0.1877934272300469
 21
0.0
 31
0.0
 12
7.750929108527552E-18
 22
0.1265822784810127
 32
0.0
 13
213.0
 23
237.0
340
1D68
 70
     7
280
     0
281
    50
282
    50
283
     0
360
1D69
 71
     1
 91
        2
 14
-0.5
 24
-0.5
 14
212.5
 24
236.5
290
     0
  0
CIRCLE
  5
16CF
330
1CB4
100
AcDbEntity
  8
0
370
    25
100
AcDbCircle
 10
131.0
 20
91.99999999999986
 30
0.0
 40
3.299999999999999
  0
CIRCLE
  5
1BD4
330
1CB4
100
AcDbEntity
  8
0
370
    25
100
AcDbCircle
 10
252.721049475785
 20
92.6426133727889
 30
0.0
 40
3.299999999999999
  0
CIRCLE
  5
16D0
330
1CB4
100
AcDbEntity
  8
0
370
    25
100
AcDbCircle
 10
131.0
 20
75.99999999999984
 30
0.0
 40
3.299999999999999
  0
CIRCLE
  5
1BD5
330
1CB4
100
AcDbEntity
  8
0
370
    25
100
AcDbCircle
 10
252.721049475785
 20
76.64261337278889
 30
0.0
 40
3.299999999999999
  0
CIRCLE
  5
16D1
330
1CB4
100
AcDbEntity
  8
0
370
    25
100
AcDbCircle
 10
131.0
 20
59.99999999999984
 30
0.0
 40
3.299999999999999
  0
CIRCLE
  5
1BD6
330
1CB4
100
AcDbEntity
  8
0
370
    25
100
AcDbCircle
 10
252.721049475785
 20
60.64261337278888
 30
0.0
 40
3.299999999999999
  0
MTEXT
  5
46
330
1CB4
100
AcDbEntity
  8
0
100
AcDbMText
 10
236.4644028113674
 20
-101.5243361984385
 30
0.0
 40
2.5
 41
0.0
 46
0.0
 71
     2
 72
     1
  1
\H4;Elektronika
  7
textstyle3
 73
     1
 44
1.0
  0
CIRCLE
  5
16D2
330
1CB4
100
AcDbEntity
  8
0
370
    25
100
AcDbCircle
 10
105.0
 20
91.99999999999986
 30
0.0
 40
3.299999999999999
  0
CIRCLE
  5
1BD7
330
1CB4
100
AcDbEntity
  8
0
370
    25
100
AcDbCircle
 10
226.721049475785
 20
92.6426133727889
 30
0.0
 40
3.299999999999999
  0
MTEXT
  5
47
330
1CB4
100
AcDbEntity
  8
0
100
AcDbMText
 10
296.9330527614354
 20
-70.77052110355854
 30
0.0
 40
2.5
 41
0.0
 46
0.0
 71
     2
 72
     1
  1
\H3;Egilea: Aitor A.
  7
textstyle3
 73
     1
 44
1.0
  0
CIRCLE
  5
16D3
330
1CB4
100
AcDbEntity
  8
0
370
    25
100
AcDbCircle
 10
105.0
 20
75.99999999999984
 30
0.0
 40
3.300000000000001
  0
CIRCLE
  5
1BD8
330
1CB4
100
AcDbEntity
  8
0
370
    25
100
AcDbCircle
 10
226.721049475785
 20
76.64261337278889
 30
0.0
 40
3.300000000000001
  0
MTEXT
  5
48
330
1CB4
100
AcDbEntity
  8
0
100
AcDbMText
 10
295.9248571214381
 20
-80.9823500334931
 30
0.0
 40
2.5
 41
0.0
 46
0.0
 71
     2
 72
     1
  1
\H3;Data: 2025/01/30
  7
textstyle3
 73
     1
 44
1.0
  0
CIRCLE
  5
16D4
330
1CB4
100
AcDbEntity
  8
0
370
    25
100
AcDbCircle
 10
105.0000000000001
 20
59.99999999999984
 30
0.0
 40
3.300000000000001
  0
CIRCLE
  5
1BD9
330
1CB4
100
AcDbEntity
  8
0
370
    25
100
AcDbCircle
 10
226.7210494757851
 20
60.64261337278888
 30
0.0
 40
3.300000000000001
  0
LINE
  5
49
330
1CB4
100
AcDbEntity
  8
0
100
AcDbLine
 10
317.1584299618794
 20
-108.2120792116921
 30
0.0
 11
317.1584299618794
 21
223.7879207883079
 31
0.0
  0
CIRCLE
  5
16D5
330
1CB4
100
AcDbEntity
  8
0
370
    25
100
AcDbCircle
 10
119.0
 20
110.9999999999999
 30
0.0
 40
1.600000000000001
  0
CIRCLE
  5
1BDA
330
1CB4
100
AcDbEntity
  8
0
370
    25
100
AcDbCircle
 10
240.721049475785
 20
111.6426133727889
 30
0.0
 40
1.600000000000001
  0
LINE
  5
4A
330
1CB4
100
AcDbEntity
  8
0
100
AcDbLine
 10
67.15842996187939
 20
-108.2120792116921
 30
0.0
 11
317.1584299618794
 21
-108.2120792116921
 31
0.0
  0
CIRCLE
  5
16D6
330
1CB4
100
AcDbEntity
  8
0
370
    25
100
AcDbCircle
 10
119.0
 20
94.99999999999986
 30
0.0
 40
1.600000000000001
  0
CIRCLE
  5
1BDB
330
1CB4
100
AcDbEntity
  8
0
370
    25
100
AcDbCircle
 10
240.721049475785
 20
95.6426133727889
 30
0.0
 40
1.600000000000001
  0
MTEXT
  5
4B
330
1CB4
100
AcDbEntity
  8
0
100
AcDbMText
 10
217.0126435941306
 20
-61.13415816117288
 30
0.0
 40
2.5
 41
0.0
 46
0.0
 71
     2
 72
     1
  1
\H4;Definitiboa
  7
textstyle3
 73
     1
 44
1.0
  0
CIRCLE
  5
16D7
330
1CB4
100
AcDbEntity
  8
0
370
    25
100
AcDbCircle
 10
119.0
 20
78.99999999999984
 30
0.0
 40
1.600000000000001
  0
CIRCLE
  5
1BDC
330
1CB4
100
AcDbEntity
  8
0
370
    25
100
AcDbCircle
 10
240.721049475785
 20
79.64261337278889
 30
0.0
 40
1.600000000000001
  0
CIRCLE
  5
16D8
330
1CB4
100
AcDbEntity
  8
0
370
    25
100
AcDbCircle
 10
119.0
 20
62.99999999999984
 30
0.0
 40
1.600000000000001
  0
CIRCLE
  5
1BDD
330
1CB4
100
AcDbEntity
  8
0
370
    25
100
AcDbCircle
 10
240.721049475785
 20
63.64261337278889
 30
0.0
 40
1.600000000000001
  0
CIRCLE
  5
16D9
330
1CB4
100
AcDbEntity
  8
0
370
    25
100
AcDbCircle
 10
155.0
 20
109.5999999999999
 30
0.0
 40
3.3
  0
CIRCLE
  5
1BDE
330
1CB4
100
AcDbEntity
  8
0
370
    25
100
AcDbCircle
 10
276.721049475785
 20
110.2426133727889
 30
0.0
 40
3.3
  0
CIRCLE
  5
16DA
330
1CB4
100
AcDbEntity
  8
0
370
    25
100
AcDbCircle
 10
155.0
 20
97.19999999999996
 30
0.0
 40
3.3
  0
CIRCLE
  5
1BDF
330
1CB4
100
AcDbEntity
  8
0
370
    25
100
AcDbCircle
 10
276.721049475785
 20
97.842613372789
 30
0.0
 40
3.3
  0
CIRCLE
  5
16DB
330
1CB4
100
AcDbEntity
  8
0
370
    25
100
AcDbCircle
 10
155.0
 20
84.79999999999984
 30
0.0
 40
3.3
  0
CIRCLE
  5
1BE0
330
1CB4
100
AcDbEntity
  8
0
370
    25
100
AcDbCircle
 10
276.721049475785
 20
85.44261337278888
 30
0.0
 40
3.3
  0
CIRCLE
  5
16DC
330
1CB4
100
AcDbEntity
  8
0
370
    25
100
AcDbCircle
 10
155.0
 20
72.39999999999986
 30
0.0
 40
3.3
  0
CIRCLE
  5
1BE1
330
1CB4
100
AcDbEntity
  8
0
370
    25
100
AcDbCircle
 10
276.721049475785
 20
73.0426133727889
 30
0.0
 40
3.3
  0
CIRCLE
  5
16DD
330
1CB4
100
AcDbEntity
  8
0
370
    25
100
AcDbCircle
 10
155.0
 20
59.99999999999984
 30
0.0
 40
3.3
  0
CIRCLE
  5
1BE2
330
1CB4
100
AcDbEntity
  8
0
370
    25
100
AcDbCircle
 10
276.721049475785
 20
60.64261337278888
 30
0.0
 40
3.3
  0
ARC
  5
16DE
330
1CB4
100
AcDbEntity
  8
0
370
    25
100
AcDbCircle
 10
86.34999999999988
 20
43.59999999999985
 30
0.0
 40
1.600000000000001
100
AcDbArc
 50
90.0
 51
270.0
  0
ARC
  5
1BE3
330
1CB4
100
AcDbEntity
  8
0
370
    25
100
AcDbCircle
 10
208.0710494757849
 20
44.2426133727889
 30
0.0
 40
1.600000000000001
100
AcDbArc
 50
90.0
 51
270.0
  0
ARC
  5
1799
330
1CB4
100
AcDbEntity
  8
0
370
    25
100
AcDbCircle
 10
86.34999999999998
 20
166.3999999999998
 30
0.0
 40
1.600000000000001
100
AcDbArc
 50
90.0
 51
270.0
  0
ARC
  5
1BE4
330
1CB4
100
AcDbEntity
  8
0
370
    25
100
AcDbCircle
 10
208.071049475785
 20
167.0426133727888
 30
0.0
 40
1.600000000000001
100
AcDbArc
 50
90.0
 51
270.0
  0
ARC
  5
16DF
330
1CB4
100
AcDbEntity
  8
0
370
    25
100
AcDbCircle
 10
171.8499999999998
 20
43.59999999999975
 30
0.0
 40
1.600000000000001
100
AcDbArc
 50
90.0
 51
270.0
  0
ARC
  5
1BE5
330
1CB4
100
AcDbEntity
  8
0
370
    25
100
AcDbCircle
 10
293.5710494757848
 20
44.2426133727888
 30
0.0
 40
1.600000000000001
100
AcDbArc
 50
90.0
 51
270.0
  0
ARC
  5
16E0
330
1CB4
100
AcDbEntity
  8
0
370
    25
100
AcDbCircle
 10
171.85
 20
166.3999999999998
 30
0.0
 40
1.600000000000001
100
AcDbArc
 50
90.0
 51
270.0
  0
ARC
  5
1BE6
330
1CB4
100
AcDbEntity
  8
0
370
    25
100
AcDbCircle
 10
293.5710494757851
 20
167.0426133727888
 30
0.0
 40
1.600000000000001
100
AcDbArc
 50
90.0
 51
270.0
  0
ARC
  5
16E2
330
1CB4
100
AcDbEntity
  8
0
370
    25
100
AcDbCircle
 10
86.34999999999988
 20
43.59999999999985
 30
0.0
 40
1.600000000000001
100
AcDbArc
 50
90.0
 51
270.0
  0
ARC
  5
1BE7
330
1CB4
100
AcDbEntity
  8
0
370
    25
100
AcDbCircle
 10
208.0710494757849
 20
44.2426133727889
 30
0.0
 40
1.600000000000001
100
AcDbArc
 50
90.0
 51
270.0
  0
ARC
  5
179A
330
1CB4
100
AcDbEntity
  8
0
370
    25
100
AcDbCircle
 10
86.34999999999998
 20
166.3999999999998
 30
0.0
 40
1.600000000000001
100
AcDbArc
 50
90.0
 51
270.0
  0
ARC
  5
1BE8
330
1CB4
100
AcDbEntity
  8
0
370
    25
100
AcDbCircle
 10
208.071049475785
 20
167.0426133727888
 30
0.0
 40
1.600000000000001
100
AcDbArc
 50
90.0
 51
270.0
  0
ARC
  5
16E3
330
1CB4
100
AcDbEntity
  8
0
370
    25
100
AcDbCircle
 10
171.85
 20
166.3999999999998
 30
0.0
 40
1.600000000000001
100
AcDbArc
 50
90.0
 51
270.0
  0
ARC
  5
1BE9
330
1CB4
100
AcDbEntity
  8
0
370
    25
100
AcDbCircle
 10
293.5710494757851
 20
167.0426133727888
 30
0.0
 40
1.600000000000001
100
AcDbArc
 50
90.0
 51
270.0
  0
ARC
  5
16E5
330
1CB4
100
AcDbEntity
  8
0
370
    25
100
AcDbCircle
 10
88.15000000000009
 20
43.59999999999985
 30
0.0
 40
1.600000000000001
100
AcDbArc
 50
270.0
 51
90.0
  0
ARC
  5
1BEA
330
1CB4
100
AcDbEntity
  8
0
370
    25
100
AcDbCircle
 10
209.8710494757851
 20
44.2426133727889
 30
0.0
 40
1.600000000000001
100
AcDbArc
 50
270.0
 51
90.0
  0
ARC
  5
179B
330
1CB4
100
AcDbEntity
  8
0
370
    25
100
AcDbCircle
 10
88.15000000000019
 20
166.3999999999998
 30
0.0
 40
1.600000000000001
100
AcDbArc
 50
270.0
 51
90.0
  0
ARC
  5
1BEB
330
1CB4
100
AcDbEntity
  8
0
370
    25
100
AcDbCircle
 10
209.8710494757852
 20
167.0426133727888
 30
0.0
 40
1.600000000000001
100
AcDbArc
 50
270.0
 51
90.0
  0
ARC
  5
16E6
330
1CB4
100
AcDbEntity
  8
0
370
    25
100
AcDbCircle
 10
173.6499999999999
 20
43.59999999999975
 30
0.0
 40
1.600000000000001
100
AcDbArc
 50
270.0
 51
90.0
  0
ARC
  5
1BEC
330
1CB4
100
AcDbEntity
  8
0
370
    25
100
AcDbCircle
 10
295.3710494757849
 20
44.2426133727888
 30
0.0
 40
1.600000000000001
100
AcDbArc
 50
270.0
 51
90.0
  0
ARC
  5
16E7
330
1CB4
100
AcDbEntity
  8
0
370
    25
100
AcDbCircle
 10
173.6500000000001
 20
166.3999999999998
 30
0.0
 40
1.600000000000001
100
AcDbArc
 50
270.0
 51
90.0
  0
ARC
  5
1BED
330
1CB4
100
AcDbEntity
  8
0
370
    25
100
AcDbCircle
 10
295.3710494757851
 20
167.0426133727888
 30
0.0
 40
1.600000000000001
100
AcDbArc
 50
270.0
 51
90.0
  0
ARC
  5
16E9
330
1CB4
100
AcDbEntity
  8
0
370
    25
100
AcDbCircle
 10
88.14999999999989
 20
43.59999999999985
 30
0.0
 40
1.600000000000001
100
AcDbArc
 50
270.0
 51
90.0
  0
ARC
  5
1BEE
330
1CB4
100
AcDbEntity
  8
0
370
    25
100
AcDbCircle
 10
209.8710494757849
 20
44.2426133727889
 30
0.0
 40
1.600000000000001
100
AcDbArc
 50
270.0
 51
90.0
  0
ARC
  5
179C
330
1CB4
100
AcDbEntity
  8
0
370
    25
100
AcDbCircle
 10
88.14999999999999
 20
166.3999999999998
 30
0.0
 40
1.600000000000001
100
AcDbArc
 50
270.0
 51
90.0
  0
ARC
  5
1BEF
330
1CB4
100
AcDbEntity
  8
0
370
    25
100
AcDbCircle
 10
209.871049475785
 20
167.0426133727888
 30
0.0
 40
1.600000000000001
100
AcDbArc
 50
270.0
 51
90.0
  0
ARC
  5
16EA
330
1CB4
100
AcDbEntity
  8
0
370
    25
100
AcDbCircle
 10
173.6500000000001
 20
166.3999999999996
 30
0.0
 40
1.600000000000001
100
AcDbArc
 50
270.0
 51
90.0
  0
ARC
  5
1BF0
330
1CB4
100
AcDbEntity
  8
0
370
    25
100
AcDbCircle
 10
295.3710494757851
 20
167.0426133727887
 30
0.0
 40
1.600000000000001
100
AcDbArc
 50
270.0
 51
90.0
  0
LINE
  5
16EC
330
1CB4
100
AcDbEntity
  8
0
370
    25
100
AcDbLine
 10
86.34999999999998
 20
45.19999999999995
 30
0.0
 11
88.15000000000009
 21
45.19999999999985
 31
0.0
  0
LINE
  5
1BF1
330
1CB4
100
AcDbEntity
  8
0
370
    25
100
AcDbLine
 10
208.071049475785
 20
45.842613372789
 30
0.0
 11
209.8710494757851
 21
45.84261337278889
 31
0.0
  0
LINE
  5
179D
330
1CB4
100
AcDbEntity
  8
0
370
    25
100
AcDbLine
 10
86.35000000000008
 20
168.0
 30
0.0
 11
88.15000000000019
 21
167.9999999999998
 31
0.0
  0
LINE
  5
1BF2
330
1CB4
100
AcDbEntity
  8
0
370
    25
100
AcDbLine
 10
208.0710494757851
 20
168.642613372789
 30
0.0
 11
209.8710494757852
 21
168.6426133727888
 31
0.0
  0
LINE
  5
16ED
330
1CB4
100
AcDbEntity
  8
0
370
    25
100
AcDbLine
 10
171.8499999999998
 20
45.19999999999986
 30
0.0
 11
173.6499999999999
 21
45.19999999999986
 31
0.0
  0
LINE
  5
1BF3
330
1CB4
100
AcDbEntity
  8
0
370
    25
100
AcDbLine
 10
293.5710494757848
 20
45.8426133727889
 30
0.0
 11
295.3710494757849
 21
45.8426133727889
 31
0.0
  0
LINE
  5
16EE
330
1CB4
100
AcDbEntity
  8
0
370
    25
100
AcDbLine
 10
171.85
 20
167.9999999999998
 30
0.0
 11
173.6500000000001
 21
167.9999999999998
 31
0.0
  0
LINE
  5
1BF4
330
1CB4
100
AcDbEntity
  8
0
370
    25
100
AcDbLine
 10
293.5710494757851
 20
168.6426133727888
 30
0.0
 11
295.3710494757851
 21
168.6426133727888
 31
0.0
  0
LINE
  5
16F0
330
1CB4
100
AcDbEntity
  8
0
370
    25
100
AcDbLine
 10
86.34999999999988
 20
45.19999999999995
 30
0.0
 11
88.14999999999989
 21
45.19999999999995
 31
0.0
  0
LINE
  5
1BF5
330
1CB4
100
AcDbEntity
  8
0
370
    25
100
AcDbLine
 10
208.0710494757849
 20
45.842613372789
 30
0.0
 11
209.8710494757849
 21
45.842613372789
 31
0.0
  0
LINE
  5
179E
330
1CB4
100
AcDbEntity
  8
0
370
    25
100
AcDbLine
 10
86.34999999999998
 20
168.0
 30
0.0
 11
88.14999999999999
 21
168.0
 31
0.0
  0
LINE
  5
1BF6
330
1CB4
100
AcDbEntity
  8
0
370
    25
100
AcDbLine
 10
208.071049475785
 20
168.642613372789
 30
0.0
 11
209.871049475785
 21
168.642613372789
 31
0.0
  0
LINE
  5
16F1
330
1CB4
100
AcDbEntity
  8
0
370
    25
100
AcDbLine
 10
171.85
 20
167.9999999999996
 30
0.0
 11
173.6500000000001
 21
168.0000000000002
 31
0.0
  0
LINE
  5
1BF7
330
1CB4
100
AcDbEntity
  8
0
370
    25
100
AcDbLine
 10
293.5710494757851
 20
168.6426133727886
 30
0.0
 11
295.3710494757851
 21
168.6426133727892
 31
0.0
  0
LINE
  5
16F3
330
1CB4
100
AcDbEntity
  8
0
370
    25
100
AcDbLine
 10
86.34999999999988
 20
41.99999999999984
 30
0.0
 11
88.14999999999989
 21
41.99999999999984
 31
0.0
  0
LINE
  5
1BF8
330
1CB4
100
AcDbEntity
  8
0
370
    25
100
AcDbLine
 10
208.0710494757849
 20
42.64261337278888
 30
0.0
 11
209.8710494757849
 21
42.64261337278888
 31
0.0
  0
LINE
  5
179F
330
1CB4
100
AcDbEntity
  8
0
370
    25
100
AcDbLine
 10
86.34999999999998
 20
164.7999999999999
 30
0.0
 11
88.14999999999999
 21
164.7999999999999
 31
0.0
  0
LINE
  5
1BF9
330
1CB4
100
AcDbEntity
  8
0
370
    25
100
AcDbLine
 10
208.071049475785
 20
165.4426133727889
 30
0.0
 11
209.871049475785
 21
165.4426133727889
 31
0.0
  0
LINE
  5
16F4
330
1CB4
100
AcDbEntity
  8
0
370
    25
100
AcDbLine
 10
171.8499999999998
 20
41.99999999999976
 30
0.0
 11
173.6499999999999
 21
41.99999999999976
 31
0.0
  0
LINE
  5
1BFA
330
1CB4
100
AcDbEntity
  8
0
370
    25
100
AcDbLine
 10
293.5710494757848
 20
42.6426133727888
 30
0.0
 11
295.3710494757849
 21
42.6426133727888
 31
0.0
  0
LINE
  5
16F5
330
1CB4
100
AcDbEntity
  8
0
370
    25
100
AcDbLine
 10
171.85
 20
164.7999999999998
 30
0.0
 11
173.6500000000001
 21
164.7999999999998
 31
0.0
  0
LINE
  5
1BFB
330
1CB4
100
AcDbEntity
  8
0
370
    25
100
AcDbLine
 10
293.5710494757851
 20
165.4426133727889
 30
0.0
 11
295.3710494757851
 21
165.4426133727889
 31
0.0
  0
LINE
  5
16F7
330
1CB4
100
AcDbEntity
  8
0
370
    25
100
AcDbLine
 10
86.34999999999988
 20
41.99999999999984
 30
0.0
 11
88.14999999999989
 21
41.99999999999984
 31
0.0
  0
LINE
  5
1BFC
330
1CB4
100
AcDbEntity
  8
0
370
    25
100
AcDbLine
 10
208.0710494757849
 20
42.64261337278888
 30
0.0
 11
209.8710494757849
 21
42.64261337278888
 31
0.0
  0
LINE
  5
17A0
330
1CB4
100
AcDbEntity
  8
0
370
    25
100
AcDbLine
 10
86.34999999999998
 20
164.7999999999999
 30
0.0
 11
88.14999999999999
 21
164.7999999999999
 31
0.0
  0
LINE
  5
1BFD
330
1CB4
100
AcDbEntity
  8
0
370
    25
100
AcDbLine
 10
208.071049475785
 20
165.4426133727889
 30
0.0
 11
209.871049475785
 21
165.4426133727889
 31
0.0
  0
LINE
  5
16F8
330
1CB4
100
AcDbEntity
  8
0
370
    25
100
AcDbLine
 10
171.85
 20
164.7999999999999
 30
0.0
 11
173.6500000000001
 21
164.7999999999998
 31
0.0
  0
LINE
  5
1BFE
330
1CB4
100
AcDbEntity
  8
0
370
    25
100
AcDbLine
 10
293.5710494757851
 20
165.4426133727889
 30
0.0
 11
295.3710494757851
 21
165.4426133727889
 31
0.0
  0
LINE
  5
16FB
330
1CB4
100
AcDbEntity
  8
0
370
    25
100
AcDbLine
 10
84.49999999999999
 20
159.3999999999998
 30
0.0
 11
118.0
 21
159.3999999999998
 31
0.0
  0
LINE
  5
1BFF
330
1CB4
100
AcDbEntity
  8
0
370
    25
100
AcDbLine
 10
206.221049475785
 20
160.0426133727888
 30
0.0
 11
239.721049475785
 21
160.0426133727888
 31
0.0
  0
LINE
  5
16FC
330
1CB4
100
AcDbEntity
  8
0
370
    25
100
AcDbLine
 10
142.0
 20
159.3999999999998
 30
0.0
 11
175.5
 21
159.4
 31
0.0
  0
LINE
  5
1C00
330
1CB4
100
AcDbEntity
  8
0
370
    25
100
AcDbLine
 10
263.721049475785
 20
160.0426133727888
 30
0.0
 11
297.221049475785
 21
160.042613372789
 31
0.0
  0
LINE
  5
16FD
330
1CB4
100
AcDbEntity
  8
0
370
    25
100
AcDbLine
 10
84.49999999999979
 20
47.99999999999984
 30
0.0
 11
118.0
 21
47.99999999999984
 31
0.0
  0
LINE
  5
1C01
330
1CB4
100
AcDbEntity
  8
0
370
    25
100
AcDbLine
 10
206.2210494757848
 20
48.64261337278888
 30
0.0
 11
239.721049475785
 21
48.64261337278888
 31
0.0
  0
LINE
  5
16FE
330
1CB4
100
AcDbEntity
  8
0
370
    25
100
AcDbLine
 10
142.0
 20
47.99999999999984
 30
0.0
 11
175.5
 21
47.99999999999984
 31
0.0
  0
LINE
  5
1C02
330
1CB4
100
AcDbEntity
  8
0
370
    25
100
AcDbLine
 10
263.721049475785
 20
48.64261337278888
 30
0.0
 11
297.221049475785
 21
48.64261337278888
 31
0.0
  0
ARC
  5
16FF
330
1CB4
100
AcDbEntity
  8
0
370
    25
100
AcDbCircle
 10
84.49999999999999
 20
156.8999999999998
 30
0.0
 40
2.5
100
AcDbArc
 50
90.0
 51
180.0
1001
QCAD
1000
reversed:1
  0
ARC
  5
1C03
330
1CB4
100
AcDbEntity
  8
0
370
    25
100
AcDbCircle
 10
206.221049475785
 20
157.5426133727888
 30
0.0
 40
2.5
100
AcDbArc
 50
90.0
 51
180.0
1001
QCAD
1000
reversed:1
  0
ARC
  5
1700
330
1CB4
100
AcDbEntity
  8
0
370
    25
100
AcDbCircle
 10
175.5
 20
156.8999999999998
 30
0.0
 40
2.5
100
AcDbArc
 50
0.0
 51
90.0
1001
QCAD
1000
reversed:1
  0
ARC
  5
1C04
330
1CB4
100
AcDbEntity
  8
0
370
    25
100
AcDbCircle
 10
297.221049475785
 20
157.5426133727888
 30
0.0
 40
2.5
100
AcDbArc
 50
0.0
 51
90.0
1001
QCAD
1000
reversed:1
  0
ARC
  5
1701
330
1CB4
100
AcDbEntity
  8
0
370
    25
100
AcDbCircle
 10
175.5
 20
50.49999999999984
 30
0.0
 40
2.5
100
AcDbArc
 50
270.0000000000001
 51
0.0
1001
QCAD
1000
reversed:1
  0
ARC
  5
1C05
330
1CB4
100
AcDbEntity
  8
0
370
    25
100
AcDbCircle
 10
297.221049475785
 20
51.14261337278888
 30
0.0
 40
2.5
100
AcDbArc
 50
270.0000000000001
 51
0.0
1001
QCAD
1000
reversed:1
  0
ARC
  5
1702
330
1CB4
100
AcDbEntity
  8
0
370
    25
100
AcDbCircle
 10
84.49999999999989
 20
50.49999999999984
 30
0.0
 40
2.5
100
AcDbArc
 50
180.0
 51
270.0
1001
QCAD
1000
reversed:1
  0
ARC
  5
1C06
330
1CB4
100
AcDbEntity
  8
0
370
    25
100
AcDbCircle
 10
206.2210494757849
 20
51.14261337278888
 30
0.0
 40
2.5
100
AcDbArc
 50
180.0
 51
270.0
1001
QCAD
1000
reversed:1
  0
MTEXT
  5
1703
330
1CB4
100
AcDbEntity
  8
0
370
    50
100
AcDbMText
 10
129.8401787779552
 20
160.7839479472636
 30
0.0
 40
2.5
 41
0.0
 46
0.0
 71
     2
 72
     1
  1
SEQUENCER
  7
textstyle3
 73
     1
 44
1.0
  0
MTEXT
  5
1C07
330
1CB4
100
AcDbEntity
  8
0
370
    50
100
AcDbMText
 10
251.5612282537402
 20
161.4265613200527
 30
0.0
 40
2.5
 41
0.0
 46
0.0
 71
     2
 72
     1
  1
SEQUENCER
  7
textstyle3
 73
     1
 44
1.0
  0
MTEXT
  5
1704
330
1CB4
100
AcDbEntity
  8
0
370
    50
100
AcDbMText
 10
130.0079268268315
 20
50.31116864723752
 30
0.0
 40
2.0
 41
0.0
 46
0.0
 71
     2
 72
     1
  1
\H4.5;Syntek
  7
textstyle3
 73
     1
 44
1.0
  0
MTEXT
  5
1C08
330
1CB4
100
AcDbEntity
  8
0
370
    50
100
AcDbMText
 10
251.7289763026166
 20
50.95378202002615
 30
0.0
 40
2.0
 41
0.0
 46
0.0
 71
     2
 72
     1
  1
\H4.5;Syntek
  7
textstyle3
 73
     1
 44
1.0
  0
MTEXT
  5
1705
330
1CB4
100
AcDbEntity
  8
0
370
    25
100
AcDbMText
 10
104.9792071914353
 20
131.2072541402908
 30
0.0
 40
2.0
 41
0.0
 46
0.0
 71
     2
 72
     1
  1
GATE1\P
  7
textstyle3
 73
     1
 44
1.0
  0
MTEXT
  5
1C09
330
1CB4
100
AcDbEntity
  8
0
370
    25
100
AcDbMText
 10
226.7002566672203
 20
131.8498675130799
 30
0.0
 40
2.0
 41
0.0
 46
0.0
 71
     2
 72
     1
  1
GATE1\P
  7
textstyle3
 73
     1
 44
1.0
  0
MTEXT
  5
1706
330
1CB4
100
AcDbEntity
  8
0
370
    25
100
AcDbMText
 10
105.2861879117738
 20
114.5279683352374
 30
0.0
 40
2.0
 41
0.0
 46
0.0
 71
     2
 72
     1
  1
GATE 2
  7
textstyle3
 73
     1
 44
1.0
  0
MTEXT
  5
1C0A
330
1CB4
100
AcDbEntity
  8
0
370
    25
100
AcDbMText
 10
227.0072373875588
 20
115.1705817080265
 30
0.0
 40
2.0
 41
0.0
 46
0.0
 71
     2
 72
     1
  1
GATE 2
  7
textstyle3
 73
     1
 44
1.0
  0
MTEXT
  5
1707
330
1CB4
100
AcDbEntity
  8
0
370
    25
100
AcDbMText
 10
105.4057239303422
 20
98.46248024781029
 30
0.0
 40
2.0
 41
0.0
 46
0.0
 71
     2
 72
     1
  1
GATE 3
  7
textstyle3
 73
     1
 44
1.0
  0
MTEXT
  5
1C0B
330
1CB4
100
AcDbEntity
  8
0
370
    25
100
AcDbMText
 10
227.1267734061272
 20
99.10509362059906
 30
0.0
 40
2.0
 41
0.0
 46
0.0
 71
     2
 72
     1
  1
GATE 3
  7
textstyle3
 73
     1
 44
1.0
  0
MTEXT
  5
1708
330
1CB4
100
AcDbEntity
  8
0
370
    25
100
AcDbMText
 10
105.7
 20
82.00000000000006
 30
0.0
 40
2.0
 41
0.0
 46
0.0
 71
     2
 72
     1
  1
GATE 4
  7
textstyle3
 73
     1
 44
1.0
  0
MTEXT
  5
1C0C
330
1CB4
100
AcDbEntity
  8
0
370
    25
100
AcDbMText
 10
227.421049475785
 20
82.64261337278907
 30
0.0
 40
2.0
 41
0.0
 46
0.0
 71
     2
 72
     1
  1
GATE 4
  7
textstyle3
 73
     1
 44
1.0
  0
MTEXT
  5
1709
330
1CB4
100
AcDbEntity
  8
0
370
    25
100
AcDbMText
 10
105.6999999999999
 20
65.99999999999984
 30
0.0
 40
2.0
 41
0.0
 46
0.0
 71
     2
 72
     1
  1
GATE 5\P
  7
textstyle3
 73
     1
 44
1.0
  0
MTEXT
  5
1C0D
330
1CB4
100
AcDbEntity
  8
0
370
    25
100
AcDbMText
 10
227.4210494757849
 20
66.64261337278867
 30
0.0
 40
2.0
 41
0.0
 46
0.0
 71
     2
 72
     1
  1
GATE 5\P
  7
textstyle3
 73
     1
 44
1.0
  0
MTEXT
  5
170A
330
1CB4
100
AcDbEntity
  8
0
370
    25
100
AcDbMText
 10
131.7
 20
130.9999999999995
 30
0.0
 40
2.0
 41
0.0
 46
0.0
 71
     2
 72
     1
  1
STEP 1 LVL\P
  7
textstyle3
 73
     1
 44
1.0
  0
MTEXT
  5
1C0E
330
1CB4
100
AcDbEntity
  8
0
370
    25
100
AcDbMText
 10
253.4210494757851
 20
131.6426133727886
 30
0.0
 40
2.0
 41
0.0
 46
0.0
 71
     2
 72
     1
  1
STEP 1 LVL\P
  7
textstyle3
 73
     1
 44
1.0
  0
MTEXT
  5
170B
330
1CB4
100
AcDbEntity
  8
0
370
    25
100
AcDbMText
 10
131.1309248562488
 20
115.5649532398613
 30
0.0
 40
2.0
 41
0.0
 46
0.0
 71
     2
 72
     1
  1
STEP 2 LVL\P
  7
textstyle3
 73
     1
 44
1.0
  0
MTEXT
  5
1C0F
330
1CB4
100
AcDbEntity
  8
0
370
    25
100
AcDbMText
 10
252.8519743320339
 20
116.2075666126503
 30
0.0
 40
2.0
 41
0.0
 46
0.0
 71
     2
 72
     1
  1
STEP 2 LVL\P
  7
textstyle3
 73
     1
 44
1.0
  0
MTEXT
  5
170C
330
1CB4
100
AcDbEntity
  8
0
370
    25
100
AcDbMText
 10
131.2173313335639
 20
99.8468650720756
 30
0.0
 40
2.0
 41
0.0
 46
0.0
 71
     2
 72
     1
  1
STEP 3 LVL\P
  7
textstyle3
 73
     1
 44
1.0
  0
MTEXT
  5
1C10
330
1CB4
100
AcDbEntity
  8
0
370
    25
100
AcDbMText
 10
252.938380809349
 20
100.4894784448647
 30
0.0
 40
2.0
 41
0.0
 46
0.0
 71
     2
 72
     1
  1
STEP 3 LVL\P
  7
textstyle3
 73
     1
 44
1.0
  0
MTEXT
  5
170D
330
1CB4
100
AcDbEntity
  8
0
370
    25
100
AcDbMText
 10
131.6266389606818
 20
83.98619452125811
 30
0.0
 40
2.0
 41
0.0
 46
0.0
 71
     2
 72
     1
  1
STEP 4 LVL\P
  7
textstyle3
 73
     1
 44
1.0
  0
MTEXT
  5
1C11
330
1CB4
100
AcDbEntity
  8
0
370
    25
100
AcDbMText
 10
253.3476884364669
 20
84.62880789404707
 30
0.0
 40
2.0
 41
0.0
 46
0.0
 71
     2
 72
     1
  1
STEP 4 LVL\P
  7
textstyle3
 73
     1
 44
1.0
  0
MTEXT
  5
170E
330
1CB4
100
AcDbEntity
  8
0
370
    25
100
AcDbMText
 10
131.4972977505125
 20
67.66939155078157
 30
0.0
 40
2.0
 41
0.0
 46
0.0
 71
     2
 72
     1
  1
STEP 5 LVL\P
  7
textstyle3
 73
     1
 44
1.0
  0
MTEXT
  5
1C12
330
1CB4
100
AcDbEntity
  8
0
370
    25
100
AcDbMText
 10
253.2183472262976
 20
68.31200492357036
 30
0.0
 40
2.0
 41
0.0
 46
0.0
 71
     2
 72
     1
  1
STEP 5 LVL\P
  7
textstyle3
 73
     1
 44
1.0
  0
LINE
  5
170F
330
1CB4
100
AcDbEntity
  8
0
370
    25
100
AcDbLine
 10
153.2
 20
147.1176914536239
 30
0.0
 11
152.7
 21
147.9837168574083
 31
0.0
  0
LINE
  5
1C13
330
1CB4
100
AcDbEntity
  8
0
370
    25
100
AcDbLine
 10
274.9210494757851
 20
147.7603048264129
 30
0.0
 11
274.4210494757851
 21
148.6263302301973
 31
0.0
  0
LINE
  5
1710
330
1CB4
100
AcDbEntity
  8
0
370
    25
100
AcDbLine
 10
129.2
 20
127.117691453624
 30
0.0
 11
128.7
 21
127.9837168574083
 31
0.0
  0
LINE
  5
1C14
330
1CB4
100
AcDbEntity
  8
0
370
    25
100
AcDbLine
 10
250.9210494757851
 20
127.760304826413
 30
0.0
 11
250.4210494757851
 21
128.6263302301973
 31
0.0
  0
LINE
  5
1711
330
1CB4
100
AcDbEntity
  8
0
370
    25
100
AcDbLine
 10
129.2
 20
111.117691453624
 30
0.0
 11
128.7
 21
111.9837168574084
 31
0.0
  0
LINE
  5
1C15
330
1CB4
100
AcDbEntity
  8
0
370
    25
100
AcDbLine
 10
250.9210494757851
 20
111.760304826413
 30
0.0
 11
250.4210494757851
 21
112.6263302301974
 31
0.0
  0
LINE
  5
1712
330
1CB4
100
AcDbEntity
  8
0
370
    25
100
AcDbLine
 10
129.2
 20
95.11769145362396
 30
0.0
 11
128.7000000000002
 21
95.98371685740824
 31
0.0
  0
LINE
  5
1C16
330
1CB4
100
AcDbEntity
  8
0
370
    25
100
AcDbLine
 10
250.9210494757851
 20
95.760304826413
 30
0.0
 11
250.4210494757852
 21
96.62633023019728
 31
0.0
  0
LINE
  5
1713
330
1CB4
100
AcDbEntity
  8
0
370
    25
100
AcDbLine
 10
129.2000000000002
 20
79.11769145362396
 30
0.0
 11
128.7000000000002
 21
79.98371685740835
 31
0.0
  0
LINE
  5
1C17
330
1CB4
100
AcDbEntity
  8
0
370
    25
100
AcDbLine
 10
250.9210494757852
 20
79.760304826413
 30
0.0
 11
250.4210494757852
 21
80.6263302301974
 31
0.0
  0
LINE
  5
1714
330
1CB4
100
AcDbEntity
  8
0
370
    25
100
AcDbLine
 10
129.2000000000002
 20
63.11769145362385
 30
0.0
 11
128.6999999999999
 21
63.98371685740824
 31
0.0
  0
LINE
  5
1C18
330
1CB4
100
AcDbEntity
  8
0
370
    25
100
AcDbLine
 10
250.9210494757852
 20
63.76030482641289
 30
0.0
 11
250.421049475785
 21
64.62633023019728
 31
0.0
  0
LINE
  5
1715
330
1CB4
100
AcDbEntity
  8
0
370
    25
100
AcDbLine
 10
151.8823085463762
 20
145.7999999999999
 30
0.0
 11
151.0162831425916
 21
146.2999999999999
 31
0.0
  0
LINE
  5
1C19
330
1CB4
100
AcDbEntity
  8
0
370
    25
100
AcDbLine
 10
273.6033580221612
 20
146.4426133727889
 30
0.0
 11
272.7373326183767
 21
146.9426133727889
 31
0.0
  0
LINE
  5
1716
330
1CB4
100
AcDbEntity
  8
0
370
    25
100
AcDbLine
 10
127.8823085463762
 20
125.7999999999999
 30
0.0
 11
127.0162831425916
 21
126.2999999999999
 31
0.0
  0
LINE
  5
1C1A
330
1CB4
100
AcDbEntity
  8
0
370
    25
100
AcDbLine
 10
249.6033580221612
 20
126.4426133727889
 30
0.0
 11
248.7373326183767
 21
126.9426133727889
 31
0.0
  0
LINE
  5
1717
330
1CB4
100
AcDbEntity
  8
0
370
    25
100
AcDbLine
 10
127.8823085463762
 20
109.7999999999998
 30
0.0
 11
127.0162831425916
 21
110.3
 31
0.0
  0
LINE
  5
1C1B
330
1CB4
100
AcDbEntity
  8
0
370
    25
100
AcDbLine
 10
249.6033580221612
 20
110.4426133727888
 30
0.0
 11
248.7373326183767
 21
110.942613372789
 31
0.0
  0
LINE
  5
1718
330
1CB4
100
AcDbEntity
  8
0
370
    25
100
AcDbLine
 10
127.8823085463762
 20
93.79999999999995
 30
0.0
 11
127.0162831425916
 21
94.29999999999984
 31
0.0
  0
LINE
  5
1C1C
330
1CB4
100
AcDbEntity
  8
0
370
    25
100
AcDbLine
 10
249.6033580221612
 20
94.442613372789
 30
0.0
 11
248.7373326183767
 21
94.94261337278888
 31
0.0
  0
LINE
  5
1719
330
1CB4
100
AcDbEntity
  8
0
370
    25
100
AcDbLine
 10
127.8823085463762
 20
77.79999999999995
 30
0.0
 11
127.0162831425916
 21
78.29999999999984
 31
0.0
  0
LINE
  5
1C1D
330
1CB4
100
AcDbEntity
  8
0
370
    25
100
AcDbLine
 10
249.6033580221612
 20
78.442613372789
 30
0.0
 11
248.7373326183767
 21
78.94261337278888
 31
0.0
  0
LINE
  5
171A
330
1CB4
100
AcDbEntity
  8
0
370
    25
100
AcDbLine
 10
127.8823085463762
 20
61.79999999999984
 30
0.0
 11
127.0162831425916
 21
62.29999999999984
 31
0.0
  0
LINE
  5
1C1E
330
1CB4
100
AcDbEntity
  8
0
370
    25
100
AcDbLine
 10
249.6033580221612
 20
62.44261337278888
 30
0.0
 11
248.7373326183767
 21
62.94261337278888
 31
0.0
  0
LINE
  5
171B
330
1CB4
100
AcDbEntity
  8
0
370
    25
100
AcDbLine
 10
151.4000000000001
 20
144.0
 30
0.0
 11
150.4000000000001
 21
144.0
 31
0.0
  0
LINE
  5
1C1F
330
1CB4
100
AcDbEntity
  8
0
370
    25
100
AcDbLine
 10
273.1210494757851
 20
144.642613372789
 30
0.0
 11
272.1210494757851
 21
144.642613372789
 31
0.0
  0
LINE
  5
171C
330
1CB4
100
AcDbEntity
  8
0
370
    25
100
AcDbLine
 10
127.4000000000001
 20
123.9999999999998
 30
0.0
 11
126.4000000000001
 21
123.9999999999998
 31
0.0
  0
LINE
  5
1C20
330
1CB4
100
AcDbEntity
  8
0
370
    25
100
AcDbLine
 10
249.1210494757851
 20
124.6426133727888
 30
0.0
 11
248.1210494757851
 21
124.6426133727888
 31
0.0
  0
LINE
  5
171D
330
1CB4
100
AcDbEntity
  8
0
370
    25
100
AcDbLine
 10
127.4000000000002
 20
107.9999999999999
 30
0.0
 11
126.4000000000001
 21
107.9999999999999
 31
0.0
  0
LINE
  5
1C21
330
1CB4
100
AcDbEntity
  8
0
370
    25
100
AcDbLine
 10
249.1210494757852
 20
108.6426133727889
 30
0.0
 11
248.1210494757851
 21
108.6426133727889
 31
0.0
  0
LINE
  5
171E
330
1CB4
100
AcDbEntity
  8
0
370
    25
100
AcDbLine
 10
127.4000000000001
 20
91.99999999999986
 30
0.0
 11
126.4000000000002
 21
91.99999999999986
 31
0.0
  0
LINE
  5
1C22
330
1CB4
100
AcDbEntity
  8
0
370
    25
100
AcDbLine
 10
249.1210494757851
 20
92.6426133727889
 30
0.0
 11
248.1210494757852
 21
92.6426133727889
 31
0.0
  0
LINE
  5
171F
330
1CB4
100
AcDbEntity
  8
0
370
    25
100
AcDbLine
 10
127.4000000000001
 20
75.99999999999984
 30
0.0
 11
126.4000000000001
 21
75.99999999999984
 31
0.0
  0
LINE
  5
1C23
330
1CB4
100
AcDbEntity
  8
0
370
    25
100
AcDbLine
 10
249.1210494757851
 20
76.64261337278889
 30
0.0
 11
248.1210494757851
 21
76.64261337278889
 31
0.0
  0
LINE
  5
1720
330
1CB4
100
AcDbEntity
  8
0
370
    25
100
AcDbLine
 10
127.4000000000001
 20
59.99999999999984
 30
0.0
 11
126.4000000000002
 21
59.99999999999984
 31
0.0
  0
LINE
  5
1C24
330
1CB4
100
AcDbEntity
  8
0
370
    25
100
AcDbLine
 10
249.1210494757851
 20
60.64261337278888
 30
0.0
 11
248.1210494757852
 21
60.64261337278888
 31
0.0
  0
LINE
  5
1721
330
1CB4
100
AcDbEntity
  8
0
370
    25
100
AcDbLine
 10
151.8823085463762
 20
142.1999999999999
 30
0.0
 11
151.0162831425916
 21
141.6999999999999
 31
0.0
  0
LINE
  5
1C25
330
1CB4
100
AcDbEntity
  8
0
370
    25
100
AcDbLine
 10
273.6033580221612
 20
142.8426133727889
 30
0.0
 11
272.7373326183767
 21
142.3426133727889
 31
0.0
  0
LINE
  5
1722
330
1CB4
100
AcDbEntity
  8
0
370
    25
100
AcDbLine
 10
127.8823085463762
 20
122.1999999999999
 30
0.0
 11
127.0162831425916
 21
121.6999999999998
 31
0.0
  0
LINE
  5
1C26
330
1CB4
100
AcDbEntity
  8
0
370
    25
100
AcDbLine
 10
249.6033580221612
 20
122.8426133727889
 30
0.0
 11
248.7373326183767
 21
122.3426133727888
 31
0.0
  0
LINE
  5
1723
330
1CB4
100
AcDbEntity
  8
0
370
    25
100
AcDbLine
 10
127.8823085463762
 20
106.2
 30
0.0
 11
127.0162831425916
 21
105.7
 31
0.0
  0
LINE
  5
1C27
330
1CB4
100
AcDbEntity
  8
0
370
    25
100
AcDbLine
 10
249.6033580221612
 20
106.842613372789
 30
0.0
 11
248.7373326183767
 21
106.342613372789
 31
0.0
  0
LINE
  5
1724
330
1CB4
100
AcDbEntity
  8
0
370
    25
100
AcDbLine
 10
127.8823085463762
 20
90.19999999999996
 30
0.0
 11
127.0162831425918
 21
89.69999999999996
 31
0.0
  0
LINE
  5
1C28
330
1CB4
100
AcDbEntity
  8
0
370
    25
100
AcDbLine
 10
249.6033580221612
 20
90.842613372789
 30
0.0
 11
248.7373326183768
 21
90.342613372789
 31
0.0
  0
LINE
  5
1725
330
1CB4
100
AcDbEntity
  8
0
370
    25
100
AcDbLine
 10
127.8823085463762
 20
74.19999999999996
 30
0.0
 11
127.0162831425915
 21
73.69999999999996
 31
0.0
  0
LINE
  5
1C29
330
1CB4
100
AcDbEntity
  8
0
370
    25
100
AcDbLine
 10
249.6033580221612
 20
74.842613372789
 30
0.0
 11
248.7373326183766
 21
74.342613372789
 31
0.0
  0
LINE
  5
1726
330
1CB4
100
AcDbEntity
  8
0
370
    25
100
AcDbLine
 10
127.8823085463762
 20
58.19999999999995
 30
0.0
 11
127.0162831425918
 21
57.69999999999995
 31
0.0
  0
LINE
  5
1C2A
330
1CB4
100
AcDbEntity
  8
0
370
    25
100
AcDbLine
 10
249.6033580221612
 20
58.842613372789
 30
0.0
 11
248.7373326183768
 21
58.342613372789
 31
0.0
  0
LINE
  5
1727
330
1CB4
100
AcDbEntity
  8
0
370
    25
100
AcDbLine
 10
153.2
 20
140.8823085463759
 30
0.0
 11
152.7
 21
140.0162831425916
 31
0.0
  0
LINE
  5
1C2B
330
1CB4
100
AcDbEntity
  8
0
370
    25
100
AcDbLine
 10
274.9210494757851
 20
141.5249219191649
 30
0.0
 11
274.4210494757851
 21
140.6588965153806
 31
0.0
  0
LINE
  5
1728
330
1CB4
100
AcDbEntity
  8
0
370
    25
100
AcDbLine
 10
129.2
 20
120.8823085463758
 30
0.0
 11
128.7
 21
120.0162831425915
 31
0.0
  0
LINE
  5
1C2C
330
1CB4
100
AcDbEntity
  8
0
370
    25
100
AcDbLine
 10
250.9210494757851
 20
121.5249219191648
 30
0.0
 11
250.4210494757851
 21
120.6588965153805
 31
0.0
  0
LINE
  5
1729
330
1CB4
100
AcDbEntity
  8
0
370
    25
100
AcDbLine
 10
129.2
 20
104.882308546376
 30
0.0
 11
128.7
 21
104.0162831425916
 31
0.0
  0
LINE
  5
1C2D
330
1CB4
100
AcDbEntity
  8
0
370
    25
100
AcDbLine
 10
250.9210494757851
 20
105.524921919165
 30
0.0
 11
250.4210494757851
 21
104.6588965153806
 31
0.0
  0
LINE
  5
172A
330
1CB4
100
AcDbEntity
  8
0
370
    25
100
AcDbLine
 10
129.2
 20
88.88230854637595
 30
0.0
 11
128.7
 21
88.01628314259145
 31
0.0
  0
LINE
  5
1C2E
330
1CB4
100
AcDbEntity
  8
0
370
    25
100
AcDbLine
 10
250.9210494757851
 20
89.524921919165
 30
0.0
 11
250.4210494757851
 21
88.65889651538049
 31
0.0
  0
LINE
  5
172B
330
1CB4
100
AcDbEntity
  8
0
370
    25
100
AcDbLine
 10
129.2
 20
72.88230854637595
 30
0.0
 11
128.6999999999999
 21
72.01628314259143
 31
0.0
  0
LINE
  5
1C2F
330
1CB4
100
AcDbEntity
  8
0
370
    25
100
AcDbLine
 10
250.9210494757851
 20
73.524921919165
 30
0.0
 11
250.421049475785
 21
72.65889651538048
 31
0.0
  0
LINE
  5
172C
330
1CB4
100
AcDbEntity
  8
0
370
    25
100
AcDbLine
 10
129.2000000000002
 20
56.88230854637585
 30
0.0
 11
128.7
 21
56.01628314259143
 31
0.0
  0
LINE
  5
1C30
330
1CB4
100
AcDbEntity
  8
0
370
    25
100
AcDbLine
 10
250.9210494757852
 20
57.5249219191649
 30
0.0
 11
250.4210494757851
 21
56.65889651538048
 31
0.0
  0
LINE
  5
172D
330
1CB4
100
AcDbEntity
  8
0
370
    25
100
AcDbLine
 10
156.8000000000002
 20
140.8823085463759
 30
0.0
 11
157.3000000000002
 21
140.0162831425915
 31
0.0
  0
LINE
  5
1C31
330
1CB4
100
AcDbEntity
  8
0
370
    25
100
AcDbLine
 10
278.5210494757852
 20
141.5249219191649
 30
0.0
 11
279.0210494757852
 21
140.6588965153805
 31
0.0
  0
LINE
  5
172E
330
1CB4
100
AcDbEntity
  8
0
370
    25
100
AcDbLine
 10
132.8000000000002
 20
120.8823085463759
 30
0.0
 11
133.3000000000002
 21
120.0162831425915
 31
0.0
  0
LINE
  5
1C32
330
1CB4
100
AcDbEntity
  8
0
370
    25
100
AcDbLine
 10
254.5210494757852
 20
121.5249219191649
 30
0.0
 11
255.0210494757852
 21
120.6588965153805
 31
0.0
  0
LINE
  5
172F
330
1CB4
100
AcDbEntity
  8
0
370
    25
100
AcDbLine
 10
132.8000000000002
 20
104.882308546376
 30
0.0
 11
133.3000000000002
 21
104.0162831425914
 31
0.0
  0
LINE
  5
1C33
330
1CB4
100
AcDbEntity
  8
0
370
    25
100
AcDbLine
 10
254.5210494757852
 20
105.524921919165
 30
0.0
 11
255.0210494757852
 21
104.6588965153804
 31
0.0
  0
LINE
  5
1730
330
1CB4
100
AcDbEntity
  8
0
370
    25
100
AcDbLine
 10
132.8000000000002
 20
88.88230854637584
 30
0.0
 11
133.3000000000002
 21
88.01628314259156
 31
0.0
  0
LINE
  5
1C34
330
1CB4
100
AcDbEntity
  8
0
370
    25
100
AcDbLine
 10
254.5210494757852
 20
89.52492191916488
 30
0.0
 11
255.0210494757852
 21
88.6588965153806
 31
0.0
  0
LINE
  5
1731
330
1CB4
100
AcDbEntity
  8
0
370
    25
100
AcDbLine
 10
132.8000000000002
 20
72.88230854637584
 30
0.0
 11
133.3000000000002
 21
72.01628314259143
 31
0.0
  0
LINE
  5
1C35
330
1CB4
100
AcDbEntity
  8
0
370
    25
100
AcDbLine
 10
254.5210494757852
 20
73.52492191916488
 30
0.0
 11
255.0210494757852
 21
72.65889651538048
 31
0.0
  0
LINE
  5
1732
330
1CB4
100
AcDbEntity
  8
0
370
    25
100
AcDbLine
 10
132.8
 20
56.88230854637585
 30
0.0
 11
133.3000000000002
 21
56.01628314259143
 31
0.0
  0
LINE
  5
1C36
330
1CB4
100
AcDbEntity
  8
0
370
    25
100
AcDbLine
 10
254.521049475785
 20
57.5249219191649
 30
0.0
 11
255.0210494757852
 21
56.65889651538048
 31
0.0
  0
LINE
  5
1733
330
1CB4
100
AcDbEntity
  8
0
370
    25
100
AcDbLine
 10
158.1176914536239
 20
142.1999999999999
 30
0.0
 11
158.9837168574086
 21
141.6999999999999
 31
0.0
  0
LINE
  5
1C37
330
1CB4
100
AcDbEntity
  8
0
370
    25
100
AcDbLine
 10
279.838740929409
 20
142.8426133727889
 30
0.0
 11
280.7047663331936
 21
142.3426133727889
 31
0.0
  0
LINE
  5
1734
330
1CB4
100
AcDbEntity
  8
0
370
    25
100
AcDbLine
 10
134.117691453624
 20
122.1999999999998
 30
0.0
 11
134.9837168574086
 21
121.6999999999998
 31
0.0
  0
LINE
  5
1C38
330
1CB4
100
AcDbEntity
  8
0
370
    25
100
AcDbLine
 10
255.8387409294091
 20
122.8426133727888
 30
0.0
 11
256.7047663331936
 21
122.3426133727888
 31
0.0
  0
LINE
  5
1735
330
1CB4
100
AcDbEntity
  8
0
370
    25
100
AcDbLine
 10
134.117691453624
 20
106.2
 30
0.0
 11
134.9837168574086
 21
105.7
 31
0.0
  0
LINE
  5
1C39
330
1CB4
100
AcDbEntity
  8
0
370
    25
100
AcDbLine
 10
255.8387409294091
 20
106.842613372789
 30
0.0
 11
256.7047663331936
 21
106.342613372789
 31
0.0
  0
LINE
  5
1736
330
1CB4
100
AcDbEntity
  8
0
370
    25
100
AcDbLine
 10
134.117691453624
 20
90.19999999999996
 30
0.0
 11
134.9837168574086
 21
89.69999999999996
 31
0.0
  0
LINE
  5
1C3A
330
1CB4
100
AcDbEntity
  8
0
370
    25
100
AcDbLine
 10
255.8387409294091
 20
90.842613372789
 30
0.0
 11
256.7047663331936
 21
90.342613372789
 31
0.0
  0
LINE
  5
1737
330
1CB4
100
AcDbEntity
  8
0
370
    25
100
AcDbLine
 10
134.1176914536239
 20
74.19999999999985
 30
0.0
 11
134.9837168574086
 21
73.69999999999996
 31
0.0
  0
LINE
  5
1C3B
330
1CB4
100
AcDbEntity
  8
0
370
    25
100
AcDbLine
 10
255.838740929409
 20
74.84261337278889
 30
0.0
 11
256.7047663331936
 21
74.342613372789
 31
0.0
  0
LINE
  5
1738
330
1CB4
100
AcDbEntity
  8
0
370
    25
100
AcDbLine
 10
134.1176914536242
 20
58.19999999999995
 30
0.0
 11
134.9837168574086
 21
57.69999999999995
 31
0.0
  0
LINE
  5
1C3C
330
1CB4
100
AcDbEntity
  8
0
370
    25
100
AcDbLine
 10
255.8387409294092
 20
58.842613372789
 30
0.0
 11
256.7047663331936
 21
58.342613372789
 31
0.0
  0
LINE
  5
1739
330
1CB4
100
AcDbEntity
  8
0
370
    25
100
AcDbLine
 10
158.6000000000001
 20
144.0
 30
0.0
 11
159.6000000000001
 21
143.9999999999999
 31
0.0
  0
LINE
  5
1C3D
330
1CB4
100
AcDbEntity
  8
0
370
    25
100
AcDbLine
 10
280.3210494757852
 20
144.642613372789
 30
0.0
 11
281.3210494757852
 21
144.6426133727889
 31
0.0
  0
LINE
  5
173A
330
1CB4
100
AcDbEntity
  8
0
370
    25
100
AcDbLine
 10
134.6
 20
123.9999999999998
 30
0.0
 11
135.6
 21
123.9999999999998
 31
0.0
  0
LINE
  5
1C3E
330
1CB4
100
AcDbEntity
  8
0
370
    25
100
AcDbLine
 10
256.3210494757851
 20
124.6426133727888
 30
0.0
 11
257.3210494757851
 21
124.6426133727888
 31
0.0
  0
LINE
  5
173B
330
1CB4
100
AcDbEntity
  8
0
370
    25
100
AcDbLine
 10
134.6
 20
107.9999999999999
 30
0.0
 11
135.6
 21
107.9999999999999
 31
0.0
  0
LINE
  5
1C3F
330
1CB4
100
AcDbEntity
  8
0
370
    25
100
AcDbLine
 10
256.3210494757851
 20
108.6426133727889
 30
0.0
 11
257.3210494757851
 21
108.6426133727889
 31
0.0
  0
LINE
  5
173C
330
1CB4
100
AcDbEntity
  8
0
370
    25
100
AcDbLine
 10
134.6
 20
91.99999999999986
 30
0.0
 11
135.6
 21
91.99999999999986
 31
0.0
  0
LINE
  5
1C40
330
1CB4
100
AcDbEntity
  8
0
370
    25
100
AcDbLine
 10
256.3210494757851
 20
92.6426133727889
 30
0.0
 11
257.3210494757851
 21
92.6426133727889
 31
0.0
  0
LINE
  5
173D
330
1CB4
100
AcDbEntity
  8
0
370
    25
100
AcDbLine
 10
134.6
 20
75.99999999999984
 30
0.0
 11
135.6
 21
75.99999999999984
 31
0.0
  0
LINE
  5
1C41
330
1CB4
100
AcDbEntity
  8
0
370
    25
100
AcDbLine
 10
256.3210494757851
 20
76.64261337278889
 30
0.0
 11
257.3210494757851
 21
76.64261337278889
 31
0.0
  0
LINE
  5
173E
330
1CB4
100
AcDbEntity
  8
0
370
    25
100
AcDbLine
 10
134.6
 20
59.99999999999984
 30
0.0
 11
135.6
 21
59.99999999999984
 31
0.0
  0
LINE
  5
1C42
330
1CB4
100
AcDbEntity
  8
0
370
    25
100
AcDbLine
 10
256.3210494757851
 20
60.64261337278888
 30
0.0
 11
257.3210494757851
 21
60.64261337278888
 31
0.0
  0
LINE
  5
173F
330
1CB4
100
AcDbEntity
  8
0
370
    25
100
AcDbLine
 10
158.1176914536239
 20
145.7999999999999
 30
0.0
 11
158.9837168574086
 21
146.2999999999999
 31
0.0
  0
LINE
  5
1C43
330
1CB4
100
AcDbEntity
  8
0
370
    25
100
AcDbLine
 10
279.838740929409
 20
146.4426133727889
 30
0.0
 11
280.7047663331936
 21
146.9426133727889
 31
0.0
  0
LINE
  5
1740
330
1CB4
100
AcDbEntity
  8
0
370
    25
100
AcDbLine
 10
134.1176914536239
 20
125.7999999999999
 30
0.0
 11
134.9837168574086
 21
126.2999999999999
 31
0.0
  0
LINE
  5
1C44
330
1CB4
100
AcDbEntity
  8
0
370
    25
100
AcDbLine
 10
255.838740929409
 20
126.4426133727889
 30
0.0
 11
256.7047663331936
 21
126.9426133727889
 31
0.0
  0
LINE
  5
1741
330
1CB4
100
AcDbEntity
  8
0
370
    25
100
AcDbLine
 10
134.117691453624
 20
109.7999999999998
 30
0.0
 11
134.9837168574086
 21
110.2999999999998
 31
0.0
  0
LINE
  5
1C45
330
1CB4
100
AcDbEntity
  8
0
370
    25
100
AcDbLine
 10
255.8387409294091
 20
110.4426133727888
 30
0.0
 11
256.7047663331936
 21
110.9426133727888
 31
0.0
  0
LINE
  5
1742
330
1CB4
100
AcDbEntity
  8
0
370
    25
100
AcDbLine
 10
134.117691453624
 20
93.79999999999995
 30
0.0
 11
134.9837168574086
 21
94.29999999999984
 31
0.0
  0
LINE
  5
1C46
330
1CB4
100
AcDbEntity
  8
0
370
    25
100
AcDbLine
 10
255.8387409294091
 20
94.442613372789
 30
0.0
 11
256.7047663331936
 21
94.94261337278888
 31
0.0
  0
LINE
  5
1743
330
1CB4
100
AcDbEntity
  8
0
370
    25
100
AcDbLine
 10
134.117691453624
 20
77.79999999999984
 30
0.0
 11
134.9837168574086
 21
78.29999999999984
 31
0.0
  0
LINE
  5
1C47
330
1CB4
100
AcDbEntity
  8
0
370
    25
100
AcDbLine
 10
255.8387409294091
 20
78.44261337278888
 30
0.0
 11
256.7047663331936
 21
78.94261337278888
 31
0.0
  0
LINE
  5
1744
330
1CB4
100
AcDbEntity
  8
0
370
    25
100
AcDbLine
 10
134.1176914536242
 20
61.79999999999984
 30
0.0
 11
134.9837168574086
 21
62.29999999999984
 31
0.0
  0
LINE
  5
1C48
330
1CB4
100
AcDbEntity
  8
0
370
    25
100
AcDbLine
 10
255.8387409294092
 20
62.44261337278888
 30
0.0
 11
256.7047663331936
 21
62.94261337278888
 31
0.0
  0
LINE
  5
1745
330
1CB4
100
AcDbEntity
  8
0
370
    25
100
AcDbLine
 10
156.8000000000002
 20
147.1176914536239
 30
0.0
 11
157.3000000000002
 21
147.9837168574083
 31
0.0
  0
LINE
  5
1C49
330
1CB4
100
AcDbEntity
  8
0
370
    25
100
AcDbLine
 10
278.5210494757852
 20
147.7603048264129
 30
0.0
 11
279.0210494757852
 21
148.6263302301973
 31
0.0
  0
LINE
  5
1746
330
1CB4
100
AcDbEntity
  8
0
370
    25
100
AcDbLine
 10
132.8000000000002
 20
127.117691453624
 30
0.0
 11
133.3000000000002
 21
127.9837168574083
 31
0.0
  0
LINE
  5
1C4A
330
1CB4
100
AcDbEntity
  8
0
370
    25
100
AcDbLine
 10
254.5210494757852
 20
127.760304826413
 30
0.0
 11
255.0210494757852
 21
128.6263302301973
 31
0.0
  0
LINE
  5
1747
330
1CB4
100
AcDbEntity
  8
0
370
    25
100
AcDbLine
 10
132.8000000000002
 20
111.117691453624
 30
0.0
 11
133.3000000000002
 21
111.9837168574082
 31
0.0
  0
LINE
  5
1C4B
330
1CB4
100
AcDbEntity
  8
0
370
    25
100
AcDbLine
 10
254.5210494757852
 20
111.760304826413
 30
0.0
 11
255.0210494757852
 21
112.6263302301972
 31
0.0
  0
LINE
  5
1748
330
1CB4
100
AcDbEntity
  8
0
370
    25
100
AcDbLine
 10
132.8000000000002
 20
95.11769145362385
 30
0.0
 11
133.3000000000002
 21
95.98371685740835
 31
0.0
  0
LINE
  5
1C4C
330
1CB4
100
AcDbEntity
  8
0
370
    25
100
AcDbLine
 10
254.5210494757852
 20
95.76030482641289
 30
0.0
 11
255.0210494757852
 21
96.6263302301974
 31
0.0
  0
LINE
  5
1749
330
1CB4
100
AcDbEntity
  8
0
370
    25
100
AcDbLine
 10
132.8000000000002
 20
79.11769145362396
 30
0.0
 11
133.3000000000002
 21
79.98371685740824
 31
0.0
  0
LINE
  5
1C4D
330
1CB4
100
AcDbEntity
  8
0
370
    25
100
AcDbLine
 10
254.5210494757852
 20
79.760304826413
 30
0.0
 11
255.0210494757852
 21
80.62633023019728
 31
0.0
  0
LINE
  5
174A
330
1CB4
100
AcDbEntity
  8
0
370
    25
100
AcDbLine
 10
132.8000000000002
 20
63.11769145362385
 30
0.0
 11
133.3000000000002
 21
63.98371685740824
 31
0.0
  0
LINE
  5
1C4E
330
1CB4
100
AcDbEntity
  8
0
370
    25
100
AcDbLine
 10
254.5210494757852
 20
63.76030482641289
 30
0.0
 11
255.0210494757852
 21
64.62633023019728
 31
0.0
  0
LINE
  5
174B
330
1CB4
100
AcDbEntity
  8
0
370
    25
100
AcDbLine
 10
155.0
 20
147.6
 30
0.0
 11
155.0
 21
148.6
 31
0.0
  0
LINE
  5
1C4F
330
1CB4
100
AcDbEntity
  8
0
370
    25
100
AcDbLine
 10
276.721049475785
 20
148.242613372789
 30
0.0
 11
276.721049475785
 21
149.242613372789
 31
0.0
  0
LINE
  5
174C
330
1CB4
100
AcDbEntity
  8
0
370
    25
100
AcDbLine
 10
131.0
 20
127.5999999999999
 30
0.0
 11
131.0
 21
128.5999999999999
 31
0.0
  0
LINE
  5
1C50
330
1CB4
100
AcDbEntity
  8
0
370
    25
100
AcDbLine
 10
252.721049475785
 20
128.242613372789
 30
0.0
 11
252.721049475785
 21
129.242613372789
 31
0.0
  0
LINE
  5
174D
330
1CB4
100
AcDbEntity
  8
0
370
    25
100
AcDbLine
 10
131.0
 20
111.5999999999999
 30
0.0
 11
131.0
 21
112.5999999999999
 31
0.0
  0
LINE
  5
1C51
330
1CB4
100
AcDbEntity
  8
0
370
    25
100
AcDbLine
 10
252.721049475785
 20
112.2426133727889
 30
0.0
 11
252.721049475785
 21
113.2426133727889
 31
0.0
  0
LINE
  5
174E
330
1CB4
100
AcDbEntity
  8
0
370
    25
100
AcDbLine
 10
131.0
 20
95.59999999999985
 30
0.0
 11
131.0
 21
96.59999999999985
 31
0.0
  0
LINE
  5
1C52
330
1CB4
100
AcDbEntity
  8
0
370
    25
100
AcDbLine
 10
252.721049475785
 20
96.2426133727889
 30
0.0
 11
252.721049475785
 21
97.2426133727889
 31
0.0
  0
LINE
  5
174F
330
1CB4
100
AcDbEntity
  8
0
370
    25
100
AcDbLine
 10
131.0
 20
79.59999999999985
 30
0.0
 11
131.0
 21
80.59999999999985
 31
0.0
  0
LINE
  5
1C53
330
1CB4
100
AcDbEntity
  8
0
370
    25
100
AcDbLine
 10
252.721049475785
 20
80.2426133727889
 30
0.0
 11
252.721049475785
 21
81.2426133727889
 31
0.0
  0
LINE
  5
1750
330
1CB4
100
AcDbEntity
  8
0
370
    25
100
AcDbLine
 10
131.0
 20
63.59999999999985
 30
0.0
 11
131.0
 21
64.59999999999985
 31
0.0
  0
LINE
  5
1C54
330
1CB4
100
AcDbEntity
  8
0
370
    25
100
AcDbLine
 10
252.721049475785
 20
64.2426133727889
 30
0.0
 11
252.721049475785
 21
65.2426133727889
 31
0.0
  0
MTEXT
  5
1751
330
1CB4
100
AcDbEntity
  8
0
370
    25
100
AcDbMText
 10
155.0393297519627
 20
152.0678260414866
 30
0.0
 40
2.0
 41
0.0
 46
0.0
 71
     2
 72
     1
  1
RATE
  7
textstyle3
 73
     1
 44
1.0
  0
MTEXT
  5
1C55
330
1CB4
100
AcDbEntity
  8
0
370
    25
100
AcDbMText
 10
276.7603792277477
 20
152.7104394142757
 30
0.0
 40
2.0
 41
0.0
 46
0.0
 71
     2
 72
     1
  1
RATE
  7
textstyle3
 73
     1
 44
1.0
  0
MTEXT
  5
1752
330
1CB4
100
AcDbEntity
  8
0
370
    25
100
AcDbMText
 10
105.5226424638877
 20
156.0585754058854
 30
0.0
 40
2.0
 41
0.0
 46
0.0
 71
     2
 72
     1
  1
 STEP\PCOUNT
  7
textstyle3
 73
     1
 44
1.0
  0
MTEXT
  5
1C56
330
1CB4
100
AcDbEntity
  8
0
370
    25
100
AcDbMText
 10
227.2436919396727
 20
156.7011887786744
 30
0.0
 40
2.0
 41
0.0
 46
0.0
 71
     2
 72
     1
  1
 STEP\PCOUNT
  7
textstyle3
 73
     1
 44
1.0
  0
MTEXT
  5
1753
330
1CB4
100
AcDbEntity
  8
0
370
    25
100
AcDbMText
 10
110.6389878028607
 20
149.2026726516617
 30
0.0
 40
2.0
 41
0.0
 46
0.0
 71
     2
 72
     1
  1
\H1.5;3\P\P4\P\P5
  7
textstyle3
 73
     1
 44
1.0
  0
MTEXT
  5
1C57
330
1CB4
100
AcDbEntity
  8
0
370
    25
100
AcDbMText
 10
232.3600372786457
 20
149.8452860244508
 30
0.0
 40
2.0
 41
0.0
 46
0.0
 71
     2
 72
     1
  1
\H1.5;3\P\P4\P\P5
  7
textstyle3
 73
     1
 44
1.0
  0
MTEXT
  5
1754
330
1CB4
100
AcDbEntity
  8
0
370
    25
100
AcDbMText
 10
154.7
 20
127.9999999999998
 30
0.0
 40
2.0
 41
0.0
 46
0.0
 71
     2
 72
     1
  1
CLK IN
  7
textstyle3
 73
     1
 44
1.0
  0
MTEXT
  5
1C58
330
1CB4
100
AcDbEntity
  8
0
370
    25
100
AcDbMText
 10
276.4210494757851
 20
128.642613372789
 30
0.0
 40
2.0
 41
0.0
 46
0.0
 71
     2
 72
     1
  1
CLK IN
  7
textstyle3
 73
     1
 44
1.0
  0
MTEXT
  5
1755
330
1CB4
100
AcDbEntity
  8
0
370
    25
100
AcDbMText
 10
155.7
 20
116.0000000000005
 30
0.0
 40
2.0
 41
0.0
 46
0.0
 71
     2
 72
     1
  1
CLK OUT
  7
textstyle3
 73
     1
 44
1.0
  0
MTEXT
  5
1C59
330
1CB4
100
AcDbEntity
  8
0
370
    25
100
AcDbMText
 10
277.4210494757851
 20
116.6426133727897
 30
0.0
 40
2.0
 41
0.0
 46
0.0
 71
     2
 72
     1
  1
CLK OUT
  7
textstyle3
 73
     1
 44
1.0
  0
MTEXT
  5
1756
330
1CB4
100
AcDbEntity
  8
0
370
    25
100
AcDbMText
 10
154.8556521299321
 20
103.3022871301691
 30
0.0
 40
2.0
 41
0.0
 46
0.0
 71
     2
 72
     1
  1
RESET
  7
textstyle3
 73
     1
 44
1.0
  0
MTEXT
  5
1C5A
330
1CB4
100
AcDbEntity
  8
0
370
    25
100
AcDbMText
 10
276.5767016057171
 20
103.9449005029581
 30
0.0
 40
2.0
 41
0.0
 46
0.0
 71
     2
 72
     1
  1
RESET
  7
textstyle3
 73
     1
 44
1.0
  0
MTEXT
  5
1757
330
1CB4
100
AcDbEntity
  8
0
370
    25
100
AcDbMText
 10
154.7
 20
90.99999999999898
 30
0.0
 40
2.0
 41
0.0
 46
0.0
 71
     2
 72
     1
  1
GATE OUT
  7
textstyle3
 73
     1
 44
1.0
  0
MTEXT
  5
1C5B
330
1CB4
100
AcDbEntity
  8
0
370
    25
100
AcDbMText
 10
276.4210494757851
 20
91.64261337278799
 30
0.0
 40
2.0
 41
0.0
 46
0.0
 71
     2
 72
     1
  1
GATE OUT
  7
textstyle3
 73
     1
 44
1.0
  0
MTEXT
  5
1758
330
1CB4
100
AcDbEntity
  8
0
370
    25
100
AcDbMText
 10
155.1553299393993
 20
78.84049428886725
 30
0.0
 40
2.0
 41
0.0
 46
0.0
 71
     2
 72
     1
  1
CV OUT
  7
textstyle3
 73
     1
 44
1.0
  0
MTEXT
  5
1C5C
330
1CB4
100
AcDbEntity
  8
0
370
    25
100
AcDbMText
 10
276.8763794151843
 20
79.48310766165652
 30
0.0
 40
2.0
 41
0.0
 46
0.0
 71
     2
 72
     1
  1
CV OUT
  7
textstyle3
 73
     1
 44
1.0
  0
MTEXT
  5
1759
330
1CB4
100
AcDbEntity
  8
0
370
    25
100
AcDbMText
 10
154.7494509281152
 20
66.5
 30
0.0
 40
2.0
 41
0.0
 46
0.0
 71
     2
 72
     1
  1
CV RANGE
  7
textstyle3
 73
     1
 44
1.0
  0
MTEXT
  5
1C5D
330
1CB4
100
AcDbEntity
  8
0
370
    25
100
AcDbMText
 10
276.4705004039002
 20
67.14261337278914
 30
0.0
 40
2.0
 41
0.0
 46
0.0
 71
     2
 72
     1
  1
CV RANGE
  7
textstyle3
 73
     1
 44
1.0
  0
MTEXT
  5
175A
330
1CB4
100
AcDbEntity
  8
0
370
    25
100
AcDbMText
 10
148.7494509281152
 20
62.5
 30
0.0
 40
2.0
 41
0.0
 46
0.0
 71
     2
 72
     1
  1
5V
  7
textstyle3
 73
     1
 44
1.0
  0
MTEXT
  5
1C5E
330
1CB4
100
AcDbEntity
  8
0
370
    25
100
AcDbMText
 10
270.4705004039002
 20
63.14261337278923
 30
0.0
 40
2.0
 41
0.0
 46
0.0
 71
     2
 72
     1
  1
5V
  7
textstyle3
 73
     1
 44
1.0
  0
MTEXT
  5
175B
330
1CB4
100
AcDbEntity
  8
0
370
    25
100
AcDbMText
 10
148.7494509281152
 20
56.5
 30
0.0
 40
2.0
 41
0.0
 46
0.0
 71
     2
 72
     1
  1
2.5V
  7
textstyle3
 73
     1
 44
1.0
  0
MTEXT
  5
1C5F
330
1CB4
100
AcDbEntity
  8
0
370
    25
100
AcDbMText
 10
270.4705004039002
 20
57.14261337278915
 30
0.0
 40
2.0
 41
0.0
 46
0.0
 71
     2
 72
     1
  1
2.5V
  7
textstyle3
 73
     1
 44
1.0
  0
CIRCLE
  5
175E
330
1CB4
100
AcDbEntity
  8
0
370
    25
100
AcDbCircle
 10
105.0000000000001
 20
59.99999999999984
 30
0.0
 40
0.3000000000000012
  0
CIRCLE
  5
1C60
330
1CB4
100
AcDbEntity
  8
0
370
    25
100
AcDbCircle
 10
226.7210494757851
 20
60.64261337278888
 30
0.0
 40
0.3000000000000012
  0
CIRCLE
  5
175F
330
1CB4
100
AcDbEntity
  8
0
370
    25
100
AcDbCircle
 10
105.0
 20
75.99999999999984
 30
0.0
 40
0.3000000000000012
  0
CIRCLE
  5
1C61
330
1CB4
100
AcDbEntity
  8
0
370
    25
100
AcDbCircle
 10
226.721049475785
 20
76.64261337278889
 30
0.0
 40
0.3000000000000012
  0
CIRCLE
  5
1760
330
1CB4
100
AcDbEntity
  8
0
370
    25
100
AcDbCircle
 10
131.0
 20
59.99999999999984
 30
0.0
 40
0.2999999999999989
  0
CIRCLE
  5
1C62
330
1CB4
100
AcDbEntity
  8
0
370
    25
100
AcDbCircle
 10
252.721049475785
 20
60.64261337278888
 30
0.0
 40
0.2999999999999989
  0
CIRCLE
  5
1761
330
1CB4
100
AcDbEntity
  8
0
370
    25
100
AcDbCircle
 10
131.0
 20
75.99999999999984
 30
0.0
 40
0.2999999999999989
  0
CIRCLE
  5
1C63
330
1CB4
100
AcDbEntity
  8
0
370
    25
100
AcDbCircle
 10
252.721049475785
 20
76.64261337278889
 30
0.0
 40
0.2999999999999989
  0
CIRCLE
  5
1762
330
1CB4
100
AcDbEntity
  8
0
370
    25
100
AcDbCircle
 10
105.0
 20
91.99999999999986
 30
0.0
 40
0.2999999999999989
  0
CIRCLE
  5
1C64
330
1CB4
100
AcDbEntity
  8
0
370
    25
100
AcDbCircle
 10
226.721049475785
 20
92.6426133727889
 30
0.0
 40
0.2999999999999989
  0
CIRCLE
  5
1763
330
1CB4
100
AcDbEntity
  8
0
370
    25
100
AcDbCircle
 10
105.0
 20
107.9999999999999
 30
0.0
 40
0.2999999999999989
  0
CIRCLE
  5
1C65
330
1CB4
100
AcDbEntity
  8
0
370
    25
100
AcDbCircle
 10
226.721049475785
 20
108.6426133727889
 30
0.0
 40
0.2999999999999989
  0
CIRCLE
  5
1764
330
1CB4
100
AcDbEntity
  8
0
370
    25
100
AcDbCircle
 10
105.0
 20
123.9999999999998
 30
0.0
 40
0.2999999999999989
  0
CIRCLE
  5
1C66
330
1CB4
100
AcDbEntity
  8
0
370
    25
100
AcDbCircle
 10
226.721049475785
 20
124.6426133727888
 30
0.0
 40
0.2999999999999989
  0
CIRCLE
  5
1765
330
1CB4
100
AcDbEntity
  8
0
370
    25
100
AcDbCircle
 10
131.0
 20
123.9999999999998
 30
0.0
 40
0.2999999999999989
  0
CIRCLE
  5
1C67
330
1CB4
100
AcDbEntity
  8
0
370
    25
100
AcDbCircle
 10
252.721049475785
 20
124.6426133727888
 30
0.0
 40
0.2999999999999989
  0
CIRCLE
  5
1766
330
1CB4
100
AcDbEntity
  8
0
370
    25
100
AcDbCircle
 10
131.0
 20
107.9999999999999
 30
0.0
 40
0.2999999999999989
  0
CIRCLE
  5
1C68
330
1CB4
100
AcDbEntity
  8
0
370
    25
100
AcDbCircle
 10
252.721049475785
 20
108.6426133727889
 30
0.0
 40
0.2999999999999989
  0
CIRCLE
  5
1767
330
1CB4
100
AcDbEntity
  8
0
370
    25
100
AcDbCircle
 10
131.0
 20
91.99999999999986
 30
0.0
 40
0.2999999999999989
  0
CIRCLE
  5
1C69
330
1CB4
100
AcDbEntity
  8
0
370
    25
100
AcDbCircle
 10
252.721049475785
 20
92.6426133727889
 30
0.0
 40
0.2999999999999989
  0
CIRCLE
  5
1768
330
1CB4
100
AcDbEntity
  8
0
370
    25
100
AcDbCircle
 10
105.0
 20
144.0
 30
0.0
 40
0.2999999999999989
  0
CIRCLE
  5
1C6A
330
1CB4
100
AcDbEntity
  8
0
370
    25
100
AcDbCircle
 10
226.721049475785
 20
144.642613372789
 30
0.0
 40
0.2999999999999989
  0
CIRCLE
  5
1769
330
1CB4
100
AcDbEntity
  8
0
370
    25
100
AcDbCircle
 10
155.0
 20
144.0
 30
0.0
 40
0.2999999999999989
  0
CIRCLE
  5
1C6B
330
1CB4
100
AcDbEntity
  8
0
370
    25
100
AcDbCircle
 10
276.721049475785
 20
144.642613372789
 30
0.0
 40
0.2999999999999989
  0
CIRCLE
  5
176A
330
1CB4
100
AcDbEntity
  8
0
370
    25
100
AcDbCircle
 10
155.0
 20
121.9999999999998
 30
0.0
 40
0.2999999999999998
  0
CIRCLE
  5
1C6C
330
1CB4
100
AcDbEntity
  8
0
370
    25
100
AcDbCircle
 10
276.721049475785
 20
122.6426133727888
 30
0.0
 40
0.2999999999999998
  0
CIRCLE
  5
176B
330
1CB4
100
AcDbEntity
  8
0
370
    25
100
AcDbCircle
 10
155.0
 20
109.5999999999999
 30
0.0
 40
0.2999999999999998
  0
CIRCLE
  5
1C6D
330
1CB4
100
AcDbEntity
  8
0
370
    25
100
AcDbCircle
 10
276.721049475785
 20
110.2426133727889
 30
0.0
 40
0.2999999999999998
  0
CIRCLE
  5
176C
330
1CB4
100
AcDbEntity
  8
0
370
    25
100
AcDbCircle
 10
155.0
 20
97.19999999999996
 30
0.0
 40
0.2999999999999998
  0
CIRCLE
  5
1C6E
330
1CB4
100
AcDbEntity
  8
0
370
    25
100
AcDbCircle
 10
276.721049475785
 20
97.842613372789
 30
0.0
 40
0.2999999999999998
  0
CIRCLE
  5
176D
330
1CB4
100
AcDbEntity
  8
0
370
    25
100
AcDbCircle
 10
155.0
 20
84.79999999999984
 30
0.0
 40
0.2999999999999998
  0
CIRCLE
  5
1C6F
330
1CB4
100
AcDbEntity
  8
0
370
    25
100
AcDbCircle
 10
276.721049475785
 20
85.44261337278888
 30
0.0
 40
0.2999999999999998
  0
CIRCLE
  5
176E
330
1CB4
100
AcDbEntity
  8
0
370
    25
100
AcDbCircle
 10
155.0
 20
72.39999999999986
 30
0.0
 40
0.2999999999999998
  0
CIRCLE
  5
1C70
330
1CB4
100
AcDbEntity
  8
0
370
    25
100
AcDbCircle
 10
276.721049475785
 20
73.0426133727889
 30
0.0
 40
0.2999999999999998
  0
CIRCLE
  5
176F
330
1CB4
100
AcDbEntity
  8
0
370
    25
100
AcDbCircle
 10
155.0
 20
59.99999999999984
 30
0.0
 40
0.2999999999999998
  0
CIRCLE
  5
1C71
330
1CB4
100
AcDbEntity
  8
0
370
    25
100
AcDbCircle
 10
276.721049475785
 20
60.64261337278888
 30
0.0
 40
0.2999999999999998
  0
CIRCLE
  5
1770
330
1CB4
100
AcDbEntity
  8
0
370
    25
100
AcDbCircle
 10
119.0
 20
94.99999999999986
 30
0.0
 40
0.3000000000000009
  0
CIRCLE
  5
1C72
330
1CB4
100
AcDbEntity
  8
0
370
    25
100
AcDbCircle
 10
240.721049475785
 20
95.6426133727889
 30
0.0
 40
0.3000000000000009
  0
CIRCLE
  5
1771
330
1CB4
100
AcDbEntity
  8
0
370
    25
100
AcDbCircle
 10
119.0
 20
110.9999999999999
 30
0.0
 40
0.3000000000000009
  0
CIRCLE
  5
1C73
330
1CB4
100
AcDbEntity
  8
0
370
    25
100
AcDbCircle
 10
240.721049475785
 20
111.6426133727889
 30
0.0
 40
0.3000000000000009
  0
CIRCLE
  5
1772
330
1CB4
100
AcDbEntity
  8
0
370
    25
100
AcDbCircle
 10
119.0
 20
78.99999999999984
 30
0.0
 40
0.3000000000000009
  0
CIRCLE
  5
1C74
330
1CB4
100
AcDbEntity
  8
0
370
    25
100
AcDbCircle
 10
240.721049475785
 20
79.64261337278889
 30
0.0
 40
0.3000000000000009
  0
CIRCLE
  5
1773
330
1CB4
100
AcDbEntity
  8
0
370
    25
100
AcDbCircle
 10
119.0
 20
126.9999999999999
 30
0.0
 40
0.3000000000000009
  0
CIRCLE
  5
1C75
330
1CB4
100
AcDbEntity
  8
0
370
    25
100
AcDbCircle
 10
240.721049475785
 20
127.6426133727889
 30
0.0
 40
0.3000000000000009
  0
CIRCLE
  5
1774
330
1CB4
100
AcDbEntity
  8
0
370
    25
100
AcDbCircle
 10
119.0
 20
62.99999999999984
 30
0.0
 40
0.3000000000000009
  0
CIRCLE
  5
1C76
330
1CB4
100
AcDbEntity
  8
0
370
    25
100
AcDbCircle
 10
240.721049475785
 20
63.64261337278889
 30
0.0
 40
0.3000000000000009
  0
CIRCLE
  5
1775
330
1CB4
100
AcDbEntity
  8
0
370
    25
100
AcDbCircle
 10
105.0000000000001
 20
59.99999999999984
 30
0.0
 40
3.500000000000001
  0
CIRCLE
  5
1C77
330
1CB4
100
AcDbEntity
  8
0
370
    25
100
AcDbCircle
 10
226.7210494757851
 20
60.64261337278888
 30
0.0
 40
3.500000000000001
  0
CIRCLE
  5
1776
330
1CB4
100
AcDbEntity
  8
0
370
    25
100
AcDbCircle
 10
105.0
 20
75.99999999999984
 30
0.0
 40
3.500000000000001
  0
CIRCLE
  5
1C78
330
1CB4
100
AcDbEntity
  8
0
370
    25
100
AcDbCircle
 10
226.721049475785
 20
76.64261337278889
 30
0.0
 40
3.500000000000001
  0
CIRCLE
  5
1777
330
1CB4
100
AcDbEntity
  8
0
370
    25
100
AcDbCircle
 10
105.0
 20
91.99999999999986
 30
0.0
 40
3.499999999999999
  0
CIRCLE
  5
1C79
330
1CB4
100
AcDbEntity
  8
0
370
    25
100
AcDbCircle
 10
226.721049475785
 20
92.6426133727889
 30
0.0
 40
3.499999999999999
  0
CIRCLE
  5
1778
330
1CB4
100
AcDbEntity
  8
0
370
    25
100
AcDbCircle
 10
105.0
 20
107.9999999999999
 30
0.0
 40
3.499999999999999
  0
CIRCLE
  5
1C7A
330
1CB4
100
AcDbEntity
  8
0
370
    25
100
AcDbCircle
 10
226.721049475785
 20
108.6426133727889
 30
0.0
 40
3.499999999999999
  0
CIRCLE
  5
1779
330
1CB4
100
AcDbEntity
  8
0
370
    25
100
AcDbCircle
 10
105.0
 20
123.9999999999998
 30
0.0
 40
3.499999999999999
  0
CIRCLE
  5
1C7B
330
1CB4
100
AcDbEntity
  8
0
370
    25
100
AcDbCircle
 10
226.721049475785
 20
124.6426133727888
 30
0.0
 40
3.499999999999999
  0
CIRCLE
  5
177A
330
1CB4
100
AcDbEntity
  8
0
370
    25
100
AcDbCircle
 10
105.0
 20
144.0
 30
0.0
 40
3.499999999999999
  0
CIRCLE
  5
1C7C
330
1CB4
100
AcDbEntity
  8
0
370
    25
100
AcDbCircle
 10
226.721049475785
 20
144.642613372789
 30
0.0
 40
3.499999999999999
  0
CIRCLE
  5
177B
330
1CB4
100
AcDbEntity
  8
0
370
    25
100
AcDbCircle
 10
131.0
 20
123.9999999999998
 30
0.0
 40
3.499999999999999
  0
CIRCLE
  5
1C7D
330
1CB4
100
AcDbEntity
  8
0
370
    25
100
AcDbCircle
 10
252.721049475785
 20
124.6426133727888
 30
0.0
 40
3.499999999999999
  0
CIRCLE
  5
177C
330
1CB4
100
AcDbEntity
  8
0
370
    25
100
AcDbCircle
 10
131.0
 20
107.9999999999999
 30
0.0
 40
3.499999999999999
  0
CIRCLE
  5
1C7E
330
1CB4
100
AcDbEntity
  8
0
370
    25
100
AcDbCircle
 10
252.721049475785
 20
108.6426133727889
 30
0.0
 40
3.499999999999999
  0
CIRCLE
  5
177D
330
1CB4
100
AcDbEntity
  8
0
370
    25
100
AcDbCircle
 10
131.0
 20
91.99999999999986
 30
0.0
 40
3.499999999999999
  0
CIRCLE
  5
1C7F
330
1CB4
100
AcDbEntity
  8
0
370
    25
100
AcDbCircle
 10
252.721049475785
 20
92.6426133727889
 30
0.0
 40
3.499999999999999
  0
CIRCLE
  5
177E
330
1CB4
100
AcDbEntity
  8
0
370
    25
100
AcDbCircle
 10
131.0
 20
75.99999999999984
 30
0.0
 40
3.499999999999999
  0
CIRCLE
  5
1C80
330
1CB4
100
AcDbEntity
  8
0
370
    25
100
AcDbCircle
 10
252.721049475785
 20
76.64261337278889
 30
0.0
 40
3.499999999999999
  0
CIRCLE
  5
177F
330
1CB4
100
AcDbEntity
  8
0
370
    25
100
AcDbCircle
 10
131.0
 20
59.99999999999984
 30
0.0
 40
3.499999999999999
  0
CIRCLE
  5
1C81
330
1CB4
100
AcDbEntity
  8
0
370
    25
100
AcDbCircle
 10
252.721049475785
 20
60.64261337278888
 30
0.0
 40
3.499999999999999
  0
CIRCLE
  5
1780
330
1CB4
100
AcDbEntity
  8
0
370
    25
100
AcDbCircle
 10
155.0
 20
59.99999999999984
 30
0.0
 40
3.5
  0
CIRCLE
  5
1C82
330
1CB4
100
AcDbEntity
  8
0
370
    25
100
AcDbCircle
 10
276.721049475785
 20
60.64261337278888
 30
0.0
 40
3.5
  0
CIRCLE
  5
1781
330
1CB4
100
AcDbEntity
  8
0
370
    25
100
AcDbCircle
 10
155.0
 20
72.39999999999986
 30
0.0
 40
3.5
  0
CIRCLE
  5
1C83
330
1CB4
100
AcDbEntity
  8
0
370
    25
100
AcDbCircle
 10
276.721049475785
 20
73.0426133727889
 30
0.0
 40
3.5
  0
CIRCLE
  5
1782
330
1CB4
100
AcDbEntity
  8
0
370
    25
100
AcDbCircle
 10
155.0
 20
84.79999999999984
 30
0.0
 40
3.5
  0
CIRCLE
  5
1C84
330
1CB4
100
AcDbEntity
  8
0
370
    25
100
AcDbCircle
 10
276.721049475785
 20
85.44261337278888
 30
0.0
 40
3.5
  0
CIRCLE
  5
1783
330
1CB4
100
AcDbEntity
  8
0
370
    25
100
AcDbCircle
 10
155.0
 20
97.19999999999996
 30
0.0
 40
3.5
  0
CIRCLE
  5
1C85
330
1CB4
100
AcDbEntity
  8
0
370
    25
100
AcDbCircle
 10
276.721049475785
 20
97.842613372789
 30
0.0
 40
3.5
  0
CIRCLE
  5
1784
330
1CB4
100
AcDbEntity
  8
0
370
    25
100
AcDbCircle
 10
155.0
 20
109.5999999999999
 30
0.0
 40
3.5
  0
CIRCLE
  5
1C86
330
1CB4
100
AcDbEntity
  8
0
370
    25
100
AcDbCircle
 10
276.721049475785
 20
110.2426133727889
 30
0.0
 40
3.5
  0
CIRCLE
  5
1785
330
1CB4
100
AcDbEntity
  8
0
370
    25
100
AcDbCircle
 10
155.0
 20
121.9999999999998
 30
0.0
 40
3.5
  0
CIRCLE
  5
1C87
330
1CB4
100
AcDbEntity
  8
0
370
    25
100
AcDbCircle
 10
276.721049475785
 20
122.6426133727888
 30
0.0
 40
3.5
  0
CIRCLE
  5
1786
330
1CB4
100
AcDbEntity
  8
0
370
    25
100
AcDbCircle
 10
155.0
 20
144.0
 30
0.0
 40
3.499999999999999
  0
CIRCLE
  5
1C88
330
1CB4
100
AcDbEntity
  8
0
370
    25
100
AcDbCircle
 10
276.721049475785
 20
144.642613372789
 30
0.0
 40
3.499999999999999
  0
CIRCLE
  5
1787
330
1CB4
100
AcDbEntity
  8
0
370
    25
100
AcDbCircle
 10
172.7499999999998
 20
43.59999999999975
 30
0.0
 40
1.599999999999994
  0
CIRCLE
  5
1C89
330
1CB4
100
AcDbEntity
  8
0
370
    25
100
AcDbCircle
 10
294.4710494757848
 20
44.2426133727888
 30
0.0
 40
1.599999999999994
  0
CIRCLE
  5
1788
330
1CB4
100
AcDbEntity
  8
0
370
    25
100
AcDbCircle
 10
172.75
 20
166.3999999999998
 30
0.0
 40
1.599999999999994
  0
CIRCLE
  5
1C8A
330
1CB4
100
AcDbEntity
  8
0
370
    25
100
AcDbCircle
 10
294.471049475785
 20
167.0426133727888
 30
0.0
 40
1.599999999999994
  0
CIRCLE
  5
178A
330
1CB4
100
AcDbEntity
  8
0
370
    25
100
AcDbCircle
 10
87.24999999999989
 20
43.59999999999985
 30
0.0
 40
1.599999999999994
  0
CIRCLE
  5
1C8B
330
1CB4
100
AcDbEntity
  8
0
370
    25
100
AcDbCircle
 10
208.9710494757849
 20
44.2426133727889
 30
0.0
 40
1.599999999999994
  0
CIRCLE
  5
17A1
330
1CB4
100
AcDbEntity
  8
0
370
    25
100
AcDbCircle
 10
87.24999999999999
 20
166.3999999999998
 30
0.0
 40
1.599999999999994
  0
CIRCLE
  5
1C8C
330
1CB4
100
AcDbEntity
  8
0
370
    25
100
AcDbCircle
 10
208.971049475785
 20
167.0426133727888
 30
0.0
 40
1.599999999999994
  0
CIRCLE
  5
178B
330
1CB4
100
AcDbEntity
  8
0
370
    25
100
AcDbCircle
 10
172.7499999999998
 20
43.59999999999975
 30
0.0
 40
0.3999999999999944
  0
CIRCLE
  5
1C8D
330
1CB4
100
AcDbEntity
  8
0
370
    25
100
AcDbCircle
 10
294.4710494757848
 20
44.2426133727888
 30
0.0
 40
0.3999999999999944
  0
CIRCLE
  5
178C
330
1CB4
100
AcDbEntity
  8
0
370
    25
100
AcDbCircle
 10
172.75
 20
166.3999999999998
 30
0.0
 40
0.3999999999999944
  0
CIRCLE
  5
1C8E
330
1CB4
100
AcDbEntity
  8
0
370
    25
100
AcDbCircle
 10
294.471049475785
 20
167.0426133727888
 30
0.0
 40
0.3999999999999944
  0
CIRCLE
  5
178E
330
1CB4
100
AcDbEntity
  8
0
370
    25
100
AcDbCircle
 10
87.24999999999989
 20
43.59999999999985
 30
0.0
 40
0.3999999999999944
  0
CIRCLE
  5
1C8F
330
1CB4
100
AcDbEntity
  8
0
370
    25
100
AcDbCircle
 10
208.9710494757849
 20
44.2426133727889
 30
0.0
 40
0.3999999999999944
  0
CIRCLE
  5
17A2
330
1CB4
100
AcDbEntity
  8
0
370
    25
100
AcDbCircle
 10
87.24999999999999
 20
166.3999999999998
 30
0.0
 40
0.3999999999999944
  0
CIRCLE
  5
1C90
330
1CB4
100
AcDbEntity
  8
0
370
    25
100
AcDbCircle
 10
208.971049475785
 20
167.0426133727888
 30
0.0
 40
0.3999999999999944
  0
LINE
  5
178F
330
1CB4
100
AcDbEntity
  8
0
370
    25
100
AcDbLine
 10
79.99999999999999
 20
170.0
 30
0.0
 11
180.0
 21
170.0
 31
0.0
  0
LINE
  5
1C91
330
1CB4
100
AcDbEntity
  8
0
370
    25
100
AcDbLine
 10
201.721049475785
 20
170.642613372789
 30
0.0
 11
301.721049475785
 21
170.642613372789
 31
0.0
  0
LINE
  5
1790
330
1CB4
100
AcDbEntity
  8
0
370
    25
100
AcDbLine
 10
79.99999999999999
 20
39.99999999999984
 30
0.0
 11
180.0
 21
39.99999999999984
 31
0.0
  0
LINE
  5
1C92
330
1CB4
100
AcDbEntity
  8
0
370
    25
100
AcDbLine
 10
201.721049475785
 20
40.64261337278888
 30
0.0
 11
301.721049475785
 21
40.64261337278888
 31
0.0
  0
LINE
  5
6F9
330
1CB4
100
AcDbEntity
  8
0
100
AcDbLine
 10
67.15842996187939
 20
-108.2120792116921
 30
0.0
 11
67.15842996187939
 21
223.7879207883079
 31
0.0
  0
LINE
  5
6FA
330
1CB4
100
AcDbEntity
  8
0
100
AcDbLine
 10
68.15842996187939
 20
-107.2120792116921
 30
0.0
 11
68.15842996187939
 21
222.7879207883079
 31
0.0
  0
LINE
  5
6FD
330
1CB4
100
AcDbEntity
  8
0
100
AcDbLine
 10
67.1584299618794
 20
223.7879207883079
 30
0.0
 11
317.1584299618794
 21
223.7879207883079
 31
0.0
  0
LINE
  5
6FE
330
1CB4
100
AcDbEntity
  8
0
100
AcDbLine
 10
68.1584299618794
 20
222.7879207883079
 30
0.0
 11
316.1584299618794
 21
222.7879207883079
 31
0.0
  0
LINE
  5
1791
330
1CB4
100
AcDbEntity
  8
0
370
    25
100
AcDbLine
 10
180.0
 20
170.0
 30
0.0
 11
180.0
 21
39.99999999999984
 31
0.0
  0
LINE
  5
1C93
330
1CB4
100
AcDbEntity
  8
0
370
    25
100
AcDbLine
 10
301.721049475785
 20
170.642613372789
 30
0.0
 11
301.721049475785
 21
40.64261337278888
 31
0.0
  0
LINE
  5
1792
330
1CB4
100
AcDbEntity
  8
0
370
    25
100
AcDbLine
 10
178.0
 20
156.8999999999998
 30
0.0
 11
178.0
 21
50.49999999999984
 31
0.0
  0
LINE
  5
1C94
330
1CB4
100
AcDbEntity
  8
0
370
    25
100
AcDbLine
 10
299.721049475785
 20
157.5426133727888
 30
0.0
 11
299.721049475785
 21
51.14261337278888
 31
0.0
  0
LINE
  5
1793
330
1CB4
100
AcDbEntity
  8
0
370
    25
100
AcDbLine
 10
79.99999999999999
 20
39.99999999999984
 30
0.0
 11
79.99999999999999
 21
170.0
 31
0.0
  0
LINE
  5
1C95
330
1CB4
100
AcDbEntity
  8
0
370
    25
100
AcDbLine
 10
201.721049475785
 20
40.64261337278888
 30
0.0
 11
201.721049475785
 21
170.642613372789
 31
0.0
  0
LINE
  5
1794
330
1CB4
100
AcDbEntity
  8
0
370
    25
100
AcDbLine
 10
81.99999999999989
 20
50.49999999999984
 30
0.0
 11
81.99999999999999
 21
156.8999999999998
 31
0.0
  0
LINE
  5
1C96
330
1CB4
100
AcDbEntity
  8
0
370
    25
100
AcDbLine
 10
203.7210494757849
 20
51.14261337278888
 30
0.0
 11
203.721049475785
 21
157.5426133727888
 31
0.0
  0
DIMENSION
  5
186D
330
1CB4
100
AcDbEntity
  8
0
100
AcDbDimension
280
     0
 10
79.99999999999999
 20
26.47876366899964
 30
0.0
 11
130.0
 21
28.35376366899964
 31
0.0
 70
    32
 71
     5
 42
-1.0
 73
     0
 74
     0
 75
     0
  3
QCADDimStyle
100
AcDbAlignedDimension
 13
79.99999999999999
 23
39.99999999999982
 33
0.0
 14
180.0
 24
39.99999999999984
 34
0.0
100
AcDbRotatedDimension
1001
ACAD
1000
DSTYLE
1002
{
1070
   289
1070
     0
1002
}
  0
DIMENSION
  5
186F
330
1CB4
100
AcDbEntity
  8
0
100
AcDbDimension
280
     0
 10
131.0
 20
133.9999999999999
 30
0.0
 11
143.0
 21
135.8749999999999
 31
0.0
 70
    32
 71
     5
 42
-1.0
 73
     0
 74
     0
 75
     0
  3
QCADDimStyle
100
AcDbAlignedDimension
 13
131.0
 23
123.9999999999998
 33
0.0
 14
155.0
 24
121.9999999999998
 34
0.0
100
AcDbRotatedDimension
1001
ACAD
1000
DSTYLE
1002
{
1070
   289
1070
     0
1002
}
  0
DIMENSION
  5
1871
330
1CB4
100
AcDbEntity
  8
0
100
AcDbDimension
280
     0
 10
105.0
 20
133.9999999999999
 30
0.0
 11
118.0
 21
135.8749999999999
 31
0.0
 70
    32
 71
     5
 42
-1.0
 73
     0
 74
     0
 75
     0
  3
QCADDimStyle
100
AcDbAlignedDimension
 13
105.0
 23
123.9999999999998
 33
0.0
 14
131.0
 24
123.9999999999998
 34
0.0
100
AcDbRotatedDimension
1001
ACAD
1000
DSTYLE
1002
{
1070
   289
1070
     0
1002
}
  0
DIMENSION
  5
1872
330
1CB4
100
AcDbEntity
  8
0
100
AcDbDimension
280
     0
 10
131.0
 20
117.9999999999999
 30
0.0
 11
125.0
 21
119.8749999999999
 31
0.0
 70
    32
 71
     5
 42
-1.0
 73
     0
 74
     0
 75
     0
  3
QCADDimStyle
100
AcDbAlignedDimension
 13
131.0
 23
123.9999999999998
 33
0.0
 14
119.0
 24
126.9999999999999
 34
0.0
100
AcDbRotatedDimension
1001
ACAD
1000
DSTYLE
1002
{
1070
   289
1070
     0
1002
}
  0
DIMENSION
  5
1873
330
1CB4
100
AcDbEntity
  8
0
100
AcDbDimension
280
     0
 10
97.00000000000001
 20
144.0
 30
0.0
 11
95.12500000000001
 21
133.9999999999999
 31
0.0
 70
    32
 71
     5
 42
-1.0
 73
     0
 74
     0
 75
     0
  3
QCADDimStyle
100
AcDbAlignedDimension
 13
105.0
 23
144.0
 33
0.0
 14
105.0
 24
123.9999999999998
 34
0.0
 50
90.0
100
AcDbRotatedDimension
1001
ACAD
1000
DSTYLE
1002
{
1070
   289
1070
     0
1002
}
  0
DIMENSION
  5
1874
330
1CB4
100
AcDbEntity
  8
0
100
AcDbDimension
280
     0
 10
113.9807041727431
 20
123.9999999999999
 30
0.0
 11
112.1057041727431
 21
125.4999999999999
 31
0.0
 70
    32
 71
     5
 42
-1.0
 73
     0
 74
     0
 75
     0
  3
QCADDimStyle
100
AcDbAlignedDimension
 13
131.0
 23
123.9999999999999
 33
0.0
 14
119.0
 24
126.9999999999999
 34
0.0
 50
90.0
100
AcDbRotatedDimension
1001
ACAD
1000
DSTYLE
1002
{
1070
   289
1070
     0
1002
}
  0
DIMENSION
  5
1875
330
1CB4
100
AcDbEntity
  8
0
100
AcDbDimension
280
     0
 10
97.0
 20
123.9999999999998
 30
0.0
 11
95.125
 21
115.9999999999999
 31
0.0
 70
    32
 71
     5
 42
-1.0
 73
     0
 74
     0
 75
     0
  3
QCADDimStyle
100
AcDbAlignedDimension
 13
105.0
 23
123.9999999999998
 33
0.0
 14
105.0
 24
107.9999999999999
 34
0.0
 50
90.0
100
AcDbRotatedDimension
1001
ACAD
1000
DSTYLE
1002
{
1070
   289
1070
     0
1002
}
  0
DIMENSION
  5
1876
330
1CB4
100
AcDbEntity
  8
0
100
AcDbDimension
280
     0
 10
115.2005364762268
 20
110.9999999999999
 30
0.0
 11
113.3255364762268
 21
102.9999999999999
 31
0.0
 70
    32
 71
     5
 42
-1.0
 73
     0
 74
     0
 75
     0
  3
QCADDimStyle
100
AcDbAlignedDimension
 13
119.0
 23
110.9999999999999
 33
0.0
 14
119.0
 24
94.99999999999984
 34
0.0
 50
90.0
100
AcDbRotatedDimension
1001
ACAD
1000
DSTYLE
1002
{
1070
   289
1070
     0
1002
}
  0
DIMENSION
  5
1877
330
1CB4
100
AcDbEntity
  8
0
100
AcDbDimension
280
     0
 10
167.9979261392967
 20
121.9999999999998
 30
0.0
 11
166.1229261392967
 21
115.7999999999998
 31
0.0
 70
    32
 71
     5
 42
-1.0
 73
     0
 74
     0
 75
     0
  3
QCADDimStyle
100
AcDbAlignedDimension
 13
155.0
 23
121.9999999999998
 33
0.0
 14
155.0
 24
109.5999999999999
 34
0.0
 50
90.0
100
AcDbRotatedDimension
1001
ACAD
1000
DSTYLE
1002
{
1070
   289
1070
     0
1002
}
  0
DIMENSION
  5
1878
330
1CB4
100
AcDbEntity
  8
0
100
AcDbDimension
280
     0
 10
167.0
 20
45.19999999999984
 30
0.0
 11
164.7494509281152
 21
37.50000000000004
 31
0.0
 70
   160
 71
     5
 42
-1.0
 73
     0
 74
     0
 75
     0
  3
QCADDimStyle
100
AcDbAlignedDimension
 13
172.9999999999998
 23
45.19999999999991
 33
0.0
 14
172.9999999999998
 24
41.99999999999981
 34
0.0
 50
90.0
100
AcDbRotatedDimension
1001
ACAD
1000
DSTYLE
1002
{
1070
   289
1070
     0
1002
}
  0
DIMENSION
  5
187A
330
1CB4
100
AcDbEntity
  8
0
100
AcDbDimension
280
     0
 10
185.163892790655
 20
166.3999999999998
 30
0.0
 11
183.288892790655
 21
104.9999999999998
 31
0.0
 70
    32
 71
     5
 42
-1.0
 73
     0
 74
     0
 75
     0
  3
QCADDimStyle
100
AcDbAlignedDimension
 13
173.0
 23
166.3999999999998
 33
0.0
 14
172.9999999999998
 24
43.59999999999974
 34
0.0
 50
90.0
100
AcDbRotatedDimension
1001
ACAD
1000
DSTYLE
1002
{
1070
   289
1070
     0
1002
}
  0
DIMENSION
  5
187B
330
1CB4
100
AcDbEntity
  8
0
100
AcDbDimension
280
     0
 10
190.3331662703424
 20
39.99999999999984
 30
0.0
 11
188.4581662703424
 21
104.9999999999999
 31
0.0
 70
    32
 71
     5
 42
-1.0
 73
     0
 74
     0
 75
     0
  3
QCADDimStyle
100
AcDbAlignedDimension
 13
180.0
 23
39.99999999999984
 33
0.0
 14
180.0
 24
170.0
 34
0.0
 50
90.0
100
AcDbRotatedDimension
1001
ACAD
1000
DSTYLE
1002
{
1070
   289
1070
     0
1002
}
  0
DIMENSION
  5
1A28
330
1CB4
100
AcDbEntity
  8
0
100
AcDbDimension
280
     0
 10
87.24999999999989
 20
33.74022515144369
 30
0.0
 11
129.9999999999998
 21
35.61522515144369
 31
0.0
 70
    32
 71
     5
 42
-1.0
 73
     0
 74
     0
 75
     0
  3
QCADDimStyle
100
AcDbAlignedDimension
 13
87.24999999999989
 23
43.59999999999987
 33
0.0
 14
172.7499999999998
 24
43.59999999999986
 34
0.0
100
AcDbRotatedDimension
1001
ACAD
1000
DSTYLE
1002
{
1070
   289
1070
     0
1002
}
  0
VIEWPORT
  5
1D60
330
1CB0
100
AcDbEntity
 67
     1
  8
0
100
AcDbViewport
 10
128.5
 20
97.5
 30
0.0
 40
314.226
 41
222.18
 68
     1
 69
     1
 12
128.5
 22
97.5
 13
0.0
 23
0.0
 14
10.0
 24
10.0
 15
10.0
 25
10.0
 16
0.0
 26
0.0
 36
1.0
 17
0.0
 27
0.0
 37
0.0
 42
50.0
 43
0.0
 44
0.0
 45
222.18
 50
0.0
 51
0.0
 72
   100
 90
   557152
  1

281
     0
 71
     1
 74
     0
110
0.0
120
0.0
130
0.0
111
1.0
121
0.0
131
0.0
112
0.0
122
1.0
132
0.0
 79
     0
146
0.0
170
     0
 61
     5
348
1CC4
292
     1
282
     1
141
0.0
142
0.0
 63
   256
361
1D61
  0
ENDSEC
  0
SECTION
  2
OBJECTS
  0
DICTIONARY
  5
1CA2
330
0
100
AcDbDictionary
281
     1
  3
ACAD_DETAILVIEWSTYLE
350
1D71
  3
ACAD_GROUP
350
1CA3
  3
ACAD_IMAGE_DICT
350
1D62
  3
ACAD_IMAGE_VARS
350
1D2B
  3
ACAD_LAYOUT
350
1CAF
  3
ACAD_MATERIAL
350
1CD8
  3
ACAD_MLEADERSTYLE
350
1CF0
  3
ACAD_MLINESTYLE
350
1CAC
  3
ACAD_PLOTSETTINGS
350
1CAE
  3
ACAD_PLOTSTYLENAME
350
1CA4
  3
ACAD_SCALELIST
350
1CDC
  3
ACAD_SECTIONVIEWSTYLE
350
1D72
  3
ACAD_TABLESTYLE
350
1CEE
  3
ACAD_VISUALSTYLE
350
1CBF
  3
ACDB_RECOMPOSE_DATA
350
1D6E
  3
AcDbVariableDictionary
350
1D6A
  3
QCAD_OBJECTS
350
1CF4
  0
SUN
  5
1CF2
330
1CBE
100
AcDbSun
 90
        1
290
     0
 63
     7
421
 16777215
 40
1.0
291
     1
 91
  2455826
 92
 54000000
292
     0
 70
     2
 71
   256
280
     1
  0
IMAGEDEF_REACTOR
  5
1D64
330
16C5
100
AcDbRasterImageDefReactor
 90
        2
330
16C5
  0
IMAGEDEF_REACTOR
  5
1D66
330
1BCB
100
AcDbRasterImageDefReactor
 90
        2
330
1BCB
  0
IMAGEDEF_REACTOR
  5
1D69
330
45
100
AcDbRasterImageDefReactor
 90
        2
330
45
  0
SUN
  5
1D61
330
1D60
100
AcDbSun
 90
        1
290
     0
 63
     7
421
 16777215
 40
1.0
291
     1
 91
  2455826
 92
 54000000
292
     0
 70
     2
 71
   256
280
     1
  0
DICTIONARY
  5
1D71
102
{ACAD_REACTORS
330
1CA2
102
}
330
1CA2
100
AcDbDictionary
281
     1
  0
DICTIONARY
  5
1CA3
102
{ACAD_REACTORS
330
1CA2
102
}
330
1CA2
100
AcDbDictionary
281
     1
  0
DICTIONARY
  5
1D62
102
{ACAD_REACTORS
330
1CA2
102
}
330
1CA2
100
AcDbDictionary
281
     1
  3
image_515
350
1D65
  3
image_59
350
1D63
  3
image_79
350
1D68
  0
RASTERVARIABLES
  5
1D2B
102
{ACAD_REACTORS
330
1CA2
102
}
330
1CA2
100
AcDbRasterVariables
 90
        0
 70
     1
 71
     1
 72
     1
  0
DICTIONARY
  5
1CAF
102
{ACAD_REACTORS
330
1CA2
102
}
330
1CA2
100
AcDbDictionary
281
     1
  3
Layout1
350
1CB3
  3
Model
350
1CB7
  0
DICTIONARY
  5
1CD8
102
{ACAD_REACTORS
330
1CA2
102
}
330
1CA2
100
AcDbDictionary
281
     1
  3
ByBlock
350
1CDA
  3
ByLayer
350
1CD9
  3
Global
350
1CDB
  0
DICTIONARY
  5
1CF0
102
{ACAD_REACTORS
330
1CA2
102
}
330
1CA2
100
AcDbDictionary
281
     1
  3
Standard
350
1CF1
  0
DICTIONARY
  5
1CAC
102
{ACAD_REACTORS
330
1CA2
102
}
330
1CA2
100
AcDbDictionary
281
     1
  3
Standard
350
1CAD
  0
DICTIONARY
  5
1CAE
102
{ACAD_REACTORS
330
1CA2
102
}
330
1CA2
100
AcDbDictionary
281
     1
  0
ACDBDICTIONARYWDFLT
  5
1CA4
102
{ACAD_REACTORS
330
1CA2
102
}
330
1CA2
100
AcDbDictionary
281
     1
  3
Normal
350
1CA5
100
AcDbDictionaryWithDefault
340
1CA5
  0
DICTIONARY
  5
1CDC
102
{ACAD_REACTORS
330
1CA2
102
}
330
1CA2
100
AcDbDictionary
281
     1
  3
A0
350
1CDD
  3
A1
350
1CDE
  3
A2
350
1CDF
  3
A3
350
1CE0
  3
A4
350
1CE1
  3
A5
350
1CE2
  3
A6
350
1CE3
  3
A7
350
1CE4
  3
A8
350
1CE5
  3
A9
350
1CE6
  3
B1
350
1CE7
  3
B2
350
1CE8
  3
B3
350
1CE9
  3
B4
350
1CEA
  3
B5
350
1CEB
  3
B6
350
1CEC
  3
B7
350
1CED
  0
DICTIONARY
  5
1D72
102
{ACAD_REACTORS
330
1CA2
102
}
330
1CA2
100
AcDbDictionary
281
     1
  0
DICTIONARY
  5
1CEE
102
{ACAD_REACTORS
330
1CA2
102
}
330
1CA2
100
AcDbDictionary
281
     1
  3
Standard
350
1CEF
  0
DICTIONARY
  5
1CBF
102
{ACAD_REACTORS
330
1CA2
102
}
330
1CA2
100
AcDbDictionary
281
     1
  3
2dWireframe
350
1CC4
  3
Basic
350
1CC7
  3
Brighten
350
1CCB
  3
ColorChange
350
1CCF
  3
Conceptual
350
1CC9
  3
Dim
350
1CCA
  3
EdgeColorOff
350
1CD2
  3
Facepattern
350
1CCE
  3
Flat
350
1CC0
  3
FlatWithEdges
350
1CC1
  3
Gouraud
350
1CC2
  3
GouraudWithEdges
350
1CC3
  3
Hidden
350
1CC6
  3
JitterOff
350
1CD0
  3
Linepattern
350
1CCD
  3
OverhangOff
350
1CD1
  3
Realistic
350
1CC8
  3
Shaded
350
1CD7
  3
Shaded with edges
350
1CD6
  3
Shades of Gray
350
1CD3
  3
Sketchy
350
1CD4
  3
Thicken
350
1CCC
  3
Wireframe
350
1CC5
  3
X-Ray
350
1CD5
  0
XRECORD
  5
1D6E
102
{ACAD_REACTORS
330
1CA2
102
}
330
1CA2
100
AcDbXrecord
280
     1
 90
        1
330
1CEF
  0
DICTIONARY
  5
1D6A
102
{ACAD_REACTORS
330
1CA2
102
}
330
1CA2
100
AcDbDictionary
281
     1
  3
CANNOSCALE
350
1D6B
  3
CMLEADERSTYLE
350
1D70
  3
CTABLESTYLE
350
1D6F
  0
DICTIONARY
  5
1CF4
102
{ACAD_REACTORS
330
1CA2
102
}
330
1CA2
100
AcDbDictionary
281
     1
  3
ColorSettings/BackgroundColor
350
1CF6
  3
ColorSettings/ColorMode
350
1CF7
  3
Grid/DisplayGrid00
350
1CF8
  3
Grid/DisplayGrid01
350
1CF9
  3
Grid/DisplayGrid02
350
1CFA
  3
Grid/DisplayGrid03
350
1CFB
  3
Grid/GridSpacingX00
350
1CFC
  3
Grid/GridSpacingX01
350
1CFD
  3
Grid/GridSpacingX02
350
1CFE
  3
Grid/GridSpacingX03
350
1CFF
  3
Grid/GridSpacingY00
350
1D00
  3
Grid/GridSpacingY01
350
1D01
  3
Grid/GridSpacingY02
350
1D02
  3
Grid/GridSpacingY03
350
1D03
  3
Grid/IsometricGrid00
350
1D04
  3
Grid/IsometricGrid01
350
1D05
  3
Grid/IsometricGrid02
350
1D06
  3
Grid/IsometricGrid03
350
1D07
  3
Grid/IsometricProjection00
350
1D08
  3
Grid/IsometricProjection01
350
1D09
  3
Grid/IsometricProjection02
350
1D0A
  3
Grid/IsometricProjection03
350
1D0B
  3
Grid/MetaGridSpacingX00
350
1D0C
  3
Grid/MetaGridSpacingX01
350
1D0D
  3
Grid/MetaGridSpacingX02
350
1D0E
  3
Grid/MetaGridSpacingX03
350
1D0F
  3
Grid/MetaGridSpacingY00
350
1D10
  3
Grid/MetaGridSpacingY01
350
1D11
  3
Grid/MetaGridSpacingY02
350
1D12
  3
Grid/MetaGridSpacingY03
350
1D13
  3
MultiPageSettings/Columns
350
1D14
  3
MultiPageSettings/GlueMarginsBottom
350
1D15
  3
MultiPageSettings/GlueMarginsLeft
350
1D16
  3
MultiPageSettings/GlueMarginsRight
350
1D17
  3
MultiPageSettings/GlueMarginsTop
350
1D18
  3
MultiPageSettings/PrintCropMarks
350
1D19
  3
MultiPageSettings/Rows
350
1D1A
  3
PageSettings/OffsetX
350
1D1B
  3
PageSettings/OffsetY
350
1D1C
  3
PageSettings/PageOrientation
350
1D1D
  3
PageSettings/PaperHeight
350
1D1E
  3
PageSettings/PaperWidth
350
1D1F
  3
PageSettings/Scale
350
1D20
  3
PageSettings/ShowPaperBorders
350
1D21
  3
PageTagSettings/EnablePageTags
350
1D22
  3
PageTagSettings/TagAlignment
350
1D23
  3
PageTagSettings/TagFont
350
1D24
  3
PageTagSettings/TagPosition
350
1D25
  3
QCADVersion
350
1D26
  3
UnitSettings/PaperUnit
350
1D27
  3
ViewportCenter
350
1D28
  3
ViewportHeight
350
1D29
  3
ViewportWidth
350
1D2A
  0
IMAGEDEF
  5
1D65
102
{ACAD_REACTORS
330
1D62
330
1D66
102
}
330
1D62
100
AcDbRasterImageDef
 90
        0
  1
C:/Users/Usuario/Desktop/Logo Don Bosco txuri beltz.bmp
 10
213.0
 20
237.0
 11
0.004694835680751174
 21
0.004694835680751174
280
     1
281
     1
  0
IMAGEDEF
  5
1D63
102
{ACAD_REACTORS
330
1D62
330
1D64
102
}
330
1D62
100
AcDbRasterImageDef
 90
        0
  1
C:/Users/Usuario/Desktop/Logo Don Bosco txuri beltz.bmp
 10
213.0
 20
237.0
 11
0.004694835680751174
 21
0.004694835680751174
280
     1
281
     1
  0
IMAGEDEF
  5
1D68
102
{ACAD_REACTORS
330
1D62
330
1D69
102
}
330
1D62
100
AcDbRasterImageDef
 90
        0
  1
C:/Users/Usuario/Desktop/Logo Don Bosco txuri beltz.bmp
 10
213.0
 20
237.0
 11
0.004694835680751174
 21
0.004694835680751174
280
     1
281
     1
  0
LAYOUT
  5
1CB3
102
{ACAD_REACTORS
330
1CAF
102
}
330
1CAF
100
AcDbPlotSettings
  1

  2
none_device
  4
ISO_A4_(210.00_x_297.00_MM)
  6

 40
7.5
 41
20.0
 42
7.5
 43
20.0
 44
210.0
 45
297.0
 46
0.0
 47
0.0
 48
0.0
 49
0.0
140
0.0
141
0.0
142
1.0
143
384.0
 70
   688
 72
     1
 73
     1
 74
     5
  7

 75
     3
 76
     0
 77
     2
 78
   300
147
0.0026041666666667
148
0.0
149
0.0
100
AcDbLayout
  1
Layout1
 70
     1
 71
     0
 10
-20.0
 20
-7.5
 11
277.0
 21
202.5
 12
0.0
 22
0.0
 32
0.0
 14
0.0
 24
0.0
 34
0.0
 15
0.0
 25
0.0
 35
0.0
146
0.0
 13
0.0
 23
0.0
 33
0.0
 16
1.0
 26
0.0
 36
0.0
 17
0.0
 27
1.0
 37
0.0
 76
     0
330
1CB0
331
1D60
  0
LAYOUT
  5
1CB7
102
{ACAD_REACTORS
330
1CAF
102
}
330
1CAF
100
AcDbPlotSettings
  1

  2
none_device
  4
Letter_(8.50_x_11.00_Inches)
  6

 40
6.35
 41
6.35
 42
6.35000508
 43
6.35000508
 44
215.9
 45
279.4
 46
0.0
 47
0.0
 48
0.0
 49
0.0
140
0.0
141
0.0
142
1.0
143
1.0
 70
  1712
 72
     0
 73
     0
 74
     0
  7

 75
     0
 76
     0
 77
     2
 78
   300
147
1.0
148
0.0
149
0.0
100
AcDbLayout
  1
Model
 70
     1
 71
     0
 10
0.0
 20
0.0
 11
12.0
 21
9.0
 12
0.0
 22
0.0
 32
0.0
 14
67.15842996187939
 24
-108.2120792116921
 34
0.0
 15
317.1584299618794
 25
223.7879207883079
 35
0.0
146
0.0
 13
0.0
 23
0.0
 33
0.0
 16
1.0
 26
0.0
 36
0.0
 17
0.0
 27
1.0
 37
0.0
 76
     0
330
1CB4
331
1CBE
  0
MATERIAL
  5
1CDA
102
{ACAD_REACTORS
330
1CD8
102
}
330
1CD8
100
AcDbMaterial
  1
ByBlock
 72
     1
 94
      127
  0
MATERIAL
  5
1CD9
102
{ACAD_REACTORS
330
1CD8
102
}
330
1CD8
100
AcDbMaterial
  1
ByLayer
 72
     1
 94
      127
  0
MATERIAL
  5
1CDB
102
{ACAD_REACTORS
330
1CD8
102
}
330
1CD8
100
AcDbMaterial
  1
Global
 72
     1
 94
      127
  0
MLEADERSTYLE
  5
1CF1
102
{ACAD_REACTORS
330
1CF0
102
}
330
1CF0
100
AcDbMLeaderStyle
179
     2
170
     2
171
     1
172
     0
 90
        2
 40
0.0
 41
0.0
173
     1
 91
-1056964608
340
1CA9
 92
       -2
290
     1
 42
0.09
291
     1
 43
0.36
  3
Standard
341
0
 44
0.18
300

342
1CA7
174
     1
178
     6
175
     1
176
     0
 93
-1056964608
 45
0.18
292
     0
297
     0
 46
0.18
343
0
 94
-1056964608
 47
1.0
 49
1.0
140
1.0
293
     1
141
0.0
294
     1
177
     0
142
1.0
295
     0
296
     0
143
0.125
271
     0
272
     9
273
     9
298
     0
  0
MLINESTYLE
  5
1CAD
102
{ACAD_REACTORS
330
1CAC
102
}
330
1CAC
100
AcDbMlineStyle
  2
Standard
 70
     0
  3

 62
   256
 51
90.0
 52
90.0
 71
     2
 49
0.5
 62
   256
  6
BYLAYER
 49
-0.5
 62
   256
  6
BYLAYER
  0
ACDBPLACEHOLDER
  5
1CA5
102
{ACAD_REACTORS
330
1CA4
102
}
330
1CA4
  0
SCALE
  5
1CDD
102
{ACAD_REACTORS
330
1CDC
102
}
330
1CDC
100
AcDbScale
 70
     0
300
1:1
140
1.0
141
1.0
290
     1
  0
SCALE
  5
1CDE
102
{ACAD_REACTORS
330
1CDC
102
}
330
1CDC
100
AcDbScale
 70
     0
300
1/128" = 1'-0"
140
0.0078125
141
12.0
290
     0
  0
SCALE
  5
1CDF
102
{ACAD_REACTORS
330
1CDC
102
}
330
1CDC
100
AcDbScale
 70
     0
300
1/64" = 1'-0"
140
0.015625
141
12.0
290
     0
  0
SCALE
  5
1CE0
102
{ACAD_REACTORS
330
1CDC
102
}
330
1CDC
100
AcDbScale
 70
     0
300
1/32" = 1'-0"
140
0.03125
141
12.0
290
     0
  0
SCALE
  5
1CE1
102
{ACAD_REACTORS
330
1CDC
102
}
330
1CDC
100
AcDbScale
 70
     0
300
1/16" = 1'-0"
140
0.0625
141
12.0
290
     0
  0
SCALE
  5
1CE2
102
{ACAD_REACTORS
330
1CDC
102
}
330
1CDC
100
AcDbScale
 70
     0
300
3/32" = 1'-0"
140
0.09375
141
12.0
290
     0
  0
SCALE
  5
1CE3
102
{ACAD_REACTORS
330
1CDC
102
}
330
1CDC
100
AcDbScale
 70
     0
300
1/8" = 1'-0"
140
0.125
141
12.0
290
     0
  0
SCALE
  5
1CE4
102
{ACAD_REACTORS
330
1CDC
102
}
330
1CDC
100
AcDbScale
 70
     0
300
3/16" = 1'-0"
140
0.1875
141
12.0
290
     0
  0
SCALE
  5
1CE5
102
{ACAD_REACTORS
330
1CDC
102
}
330
1CDC
100
AcDbScale
 70
     0
300
1/4" = 1'-0"
140
0.25
141
12.0
290
     0
  0
SCALE
  5
1CE6
102
{ACAD_REACTORS
330
1CDC
102
}
330
1CDC
100
AcDbScale
 70
     0
300
3/8" = 1'-0"
140
0.375
141
12.0
290
     0
  0
SCALE
  5
1CE7
102
{ACAD_REACTORS
330
1CDC
102
}
330
1CDC
100
AcDbScale
 70
     0
300
1/2" = 1'-0"
140
0.5
141
12.0
290
     0
  0
SCALE
  5
1CE8
102
{ACAD_REACTORS
330
1CDC
102
}
330
1CDC
100
AcDbScale
 70
     0
300
3/4" = 1'-0"
140
0.75
141
12.0
290
     0
  0
SCALE
  5
1CE9
102
{ACAD_REACTORS
330
1CDC
102
}
330
1CDC
100
AcDbScale
 70
     0
300
1" = 1'-0"
140
1.0
141
12.0
290
     0
  0
SCALE
  5
1CEA
102
{ACAD_REACTORS
330
1CDC
102
}
330
1CDC
100
AcDbScale
 70
     0
300
1-1/2" = 1'-0"
140
1.5
141
12.0
290
     0
  0
SCALE
  5
1CEB
102
{ACAD_REACTORS
330
1CDC
102
}
330
1CDC
100
AcDbScale
 70
     0
300
3" = 1'-0"
140
3.0
141
12.0
290
     0
  0
SCALE
  5
1CEC
102
{ACAD_REACTORS
330
1CDC
102
}
330
1CDC
100
AcDbScale
 70
     0
300
6" = 1'-0"
140
6.0
141
12.0
290
     0
  0
SCALE
  5
1CED
102
{ACAD_REACTORS
330
1CDC
102
}
330
1CDC
100
AcDbScale
 70
     0
300
1'-0" = 1'-0"
140
12.0
141
12.0
290
     0
  0
TABLESTYLE
  5
1CEF
102
{ACAD_REACTORS
330
1CEE
102
}
102
{ACAD_XDICTIONARY
360
1D6C
102
}
330
1CEE
100
AcDbTableStyle
  3
Standard
 70
     0
 71
     0
 40
0.06
 41
0.06
280
     0
281
     0
  7
Standard
140
0.18
170
     2
 62
     0
 63
   257
283
     0
 90
        4
 91
        0
  1

274
    -2
284
     1
 64
     0
275
    -2
285
     1
 65
     0
276
    -2
286
     1
 66
     0
277
    -2
287
     1
 67
     0
278
    -2
288
     1
 68
     0
279
    -2
289
     1
 69
     0
  7
Standard
140
0.25
170
     5
 62
     0
 63
   257
283
     0
 90
        4
 91
        0
  1

274
    -2
284
     1
 64
     0
275
    -2
285
     1
 65
     0
276
    -2
286
     1
 66
     0
277
    -2
287
     1
 67
     0
278
    -2
288
     1
 68
     0
279
    -2
289
     1
 69
     0
  7
Standard
140
0.18
170
     5
 62
     0
 63
   257
283
     0
 90
        4
 91
        0
  1

274
    -2
284
     1
 64
     0
275
    -2
285
     1
 65
     0
276
    -2
286
     1
 66
     0
277
    -2
287
     1
 67
     0
278
    -2
288
     1
 68
     0
279
    -2
289
     1
 69
     0
  0
VISUALSTYLE
  5
1CC4
102
{ACAD_REACTORS
330
1CBF
102
}
330
1CBF
100
AcDbVisualStyle
  2
2dWireframe
 70
     4
177
     3
291
     0
 70
    58
 90
        0
176
     1
 90
        2
176
     1
 90
        0
176
     1
 90
        0
176
     1
 40
0.6
176
     1
 40
30.0
176
     1
 62
     7
420
 16777215
176
     1
 90
        1
176
     1
 90
        4
176
     1
 62
     7
176
     1
 62
   257
176
     1
 90
        1
176
     1
 90
        1
176
     1
 40
1.0
176
     1
 90
        0
176
     1
 62
   257
176
     1
 40
1.0
176
     1
 90
        1
176
     1
 90
        6
176
     1
 90
        2
176
     1
 62
     7
176
     1
 90
        5
176
     1
 90
        0
176
     1
 90
        0
176
     1
290
     0
176
     1
 90
        1
176
     1
 40
0.0
176
     1
 90
        0
176
     1
290
     1
176
     1
290
     1
176
     1
290
     0
176
     1
290
     0
176
     1
290
     0
176
     1
290
     0
176
     1
290
     0
176
     1
290
     0
176
     1
290
     0
176
     1
 90
       50
176
     1
 40
0.0
176
     1
 40
1.0
176
     1
 90
        0
176
     1
 62
    18
420
        0
176
     1
 90
       50
176
     1
 90
        3
176
     1
 62
     5
420
      255
176
     1
290
     0
176
     1
 90
       50
176
     1
 90
       50
176
     1
 90
       50
176
     1
290
     0
176
     1
 90
       50
176
     1
 62
   256
176
     0
 40
1.0
176
     0
 90
        2
176
     1
  1
strokes_ogs.tif
176
     1
290
     0
176
     1
 40
1.0
176
     1
 40
1.0
176
     1
  0
VISUALSTYLE
  5
1CC7
102
{ACAD_REACTORS
330
1CBF
102
}
330
1CBF
100
AcDbVisualStyle
  2
Basic
 70
     7
177
     3
291
     1
 70
    58
 90
        1
176
     1
 90
        0
176
     1
 90
        1
176
     1
 90
        0
176
     1
 40
0.6
176
     1
 40
30.0
176
     1
 62
     7
420
 16777215
176
     1
 90
        0
176
     1
 90
        4
176
     1
 62
     7
176
     1
 62
   257
176
     1
 90
        1
176
     1
 90
        1
176
     1
 40
1.0
176
     1
 90
        8
176
     1
 62
     7
176
     1
 40
1.0
176
     1
 90
        1
176
     1
 90
        6
176
     1
 90
        2
176
     1
 62
     7
176
     1
 90
        5
176
     1
 90
        0
176
     1
 90
        0
176
     1
290
     0
176
     1
 90
        1
176
     1
 40
0.0
176
     1
 90
        0
176
     1
290
     0
176
     1
290
     1
176
     1
290
     1
176
     1
290
     0
176
     1
290
     0
176
     1
290
     0
176
     1
290
     0
176
     1
290
     0
176
     1
290
     0
176
     1
 90
       50
176
     1
 40
0.0
176
     1
 40
1.0
176
     1
 90
        0
176
     1
 62
    18
420
        0
176
     1
 90
       50
176
     1
 90
        3
176
     1
 62
     5
420
      255
176
     1
290
     0
176
     1
 90
       50
176
     1
 90
       50
176
     1
 90
       50
176
     1
290
     0
176
     1
 90
       50
176
     1
 62
   256
176
     0
 40
1.0
176
     0
 90
        2
176
     1
  1
strokes_ogs.tif
176
     1
290
     0
176
     1
 40
1.0
176
     1
 40
1.0
176
     1
  0
VISUALSTYLE
  5
1CCB
102
{ACAD_REACTORS
330
1CBF
102
}
330
1CBF
100
AcDbVisualStyle
  2
Brighten
 70
    12
177
     3
291
     1
 70
    58
 90
        2
176
     1
 90
        2
176
     1
 90
        0
176
     1
 90
        0
176
     1
 40
0.6
176
     1
 40
30.0
176
     1
 62
     7
420
 16777215
176
     1
 90
        1
176
     1
 90
        4
176
     1
 62
     7
176
     1
 62
   257
176
     1
 90
        1
176
     1
 90
        1
176
     1
 40
1.0
176
     1
 90
        8
176
     1
 62
     7
176
     1
 40
1.0
176
     1
 90
        1
176
     1
 90
        6
176
     1
 90
        2
176
     1
 62
     7
176
     1
 90
        5
176
     1
 90
        0
176
     1
 90
        0
176
     1
290
     0
176
     1
 90
        1
176
     1
 40
50.0
176
     1
 90
        0
176
     1
290
     0
176
     1
290
     1
176
     1
290
     1
176
     1
290
     0
176
     1
290
     0
176
     1
290
     0
176
     1
290
     0
176
     1
290
     0
176
     1
290
     0
176
     1
 90
       50
176
     1
 40
0.0
176
     1
 40
1.0
176
     1
 90
        0
176
     1
 62
    18
420
        0
176
     1
 90
       50
176
     1
 90
        3
176
     1
 62
     5
420
      255
176
     1
290
     0
176
     1
 90
       50
176
     1
 90
       50
176
     1
 90
       50
176
     1
290
     0
176
     1
 90
       50
176
     1
 62
   256
176
     0
 40
1.0
176
     0
 90
        2
176
     1
  1
strokes_ogs.tif
176
     1
290
     0
176
     1
 40
1.0
176
     1
 40
1.0
176
     1
  0
VISUALSTYLE
  5
1CCF
102
{ACAD_REACTORS
330
1CBF
102
}
330
1CBF
100
AcDbVisualStyle
  2
ColorChange
 70
    16
177
     3
291
     1
 70
    58
 90
        2
176
     1
 90
        2
176
     1
 90
        3
176
     1
 90
        0
176
     1
 40
0.6
176
     1
 40
30.0
176
     1
 62
     8
420
  8421504
176
     1
 90
        1
176
     1
 90
        4
176
     1
 62
     7
176
     1
 62
   257
176
     1
 90
        1
176
     1
 90
        1
176
     1
 40
1.0
176
     1
 90
        8
176
     1
 62
     8
420
  8421504
176
     1
 40
1.0
176
     1
 90
        1
176
     1
 90
        6
176
     1
 90
        2
176
     1
 62
     7
176
     1
 90
        5
176
     1
 90
        0
176
     1
 90
        0
176
     1
290
     0
176
     1
 90
        1
176
     1
 40
0.0
176
     1
 90
        0
176
     1
290
     0
176
     1
290
     1
176
     1
290
     1
176
     1
290
     0
176
     1
290
     0
176
     1
290
     0
176
     1
290
     0
176
     1
290
     0
176
     1
290
     0
176
     1
 90
       50
176
     1
 40
0.0
176
     1
 40
1.0
176
     1
 90
        0
176
     1
 62
    18
420
        0
176
     1
 90
       50
176
     1
 90
        3
176
     1
 62
     5
420
      255
176
     1
290
     0
176
     1
 90
       50
176
     1
 90
       50
176
     1
 90
       50
176
     1
290
     0
176
     1
 90
       50
176
     1
 62
   256
176
     0
 40
1.0
176
     0
 90
        2
176
     1
  1
strokes_ogs.tif
176
     1
290
     0
176
     1
 40
1.0
176
     1
 40
1.0
176
     1
  0
VISUALSTYLE
  5
1CC9
102
{ACAD_REACTORS
330
1CBF
102
}
330
1CBF
100
AcDbVisualStyle
  2
Conceptual
 70
     9
177
     3
291
     0
 70
    58
 90
        3
176
     1
 90
        2
176
     1
 90
        0
176
     1
 90
        0
176
     1
 40
0.6
176
     1
 40
30.0
176
     1
 62
     7
420
 16777215
176
     1
 90
        2
176
     1
 90
        2
176
     1
 62
     7
176
     1
 62
   257
176
     1
 90
        1
176
     1
 90
        1
176
     1
 40
179.0
176
     1
 90
        8
176
     1
 62
     7
176
     1
 40
1.0
176
     1
 90
        1
176
     1
 90
        6
176
     1
 90
        2
176
     1
 62
     7
176
     1
 90
        3
176
     1
 90
        0
176
     1
 90
        0
176
     1
290
     0
176
     1
 90
        1
176
     1
 40
0.0
176
     1
 90
        0
176
     1
290
     0
176
     1
290
     1
176
     1
290
     1
176
     1
290
     0
176
     1
290
     0
176
     1
290
     0
176
     1
290
     0
176
     1
290
     0
176
     1
290
     0
176
     1
 90
       50
176
     1
 40
0.0
176
     1
 40
1.0
176
     1
 90
        0
176
     1
 62
    18
420
        0
176
     1
 90
       50
176
     1
 90
        3
176
     1
 62
     5
420
      255
176
     1
290
     0
176
     1
 90
       50
176
     1
 90
       50
176
     1
 90
       50
176
     1
290
     0
176
     1
 90
       50
176
     1
 62
   256
176
     0
 40
1.0
176
     0
 90
        2
176
     1
  1
strokes_ogs.tif
176
     1
290
     0
176
     1
 40
1.0
176
     1
 40
1.0
176
     1
  0
VISUALSTYLE
  5
1CCA
102
{ACAD_REACTORS
330
1CBF
102
}
330
1CBF
100
AcDbVisualStyle
  2
Dim
 70
    11
177
     3
291
     1
 70
    58
 90
        2
176
     1
 90
        2
176
     1
 90
        0
176
     1
 90
        0
176
     1
 40
0.6
176
     1
 40
30.0
176
     1
 62
     7
420
 16777215
176
     1
 90
        1
176
     1
 90
        4
176
     1
 62
     7
176
     1
 62
   257
176
     1
 90
        1
176
     1
 90
        1
176
     1
 40
1.0
176
     1
 90
        8
176
     1
 62
     7
176
     1
 40
1.0
176
     1
 90
        1
176
     1
 90
        6
176
     1
 90
        2
176
     1
 62
     7
176
     1
 90
        5
176
     1
 90
        0
176
     1
 90
        0
176
     1
290
     0
176
     1
 90
        1
176
     1
 40
-50.0
176
     1
 90
        0
176
     1
290
     0
176
     1
290
     1
176
     1
290
     1
176
     1
290
     0
176
     1
290
     0
176
     1
290
     0
176
     1
290
     0
176
     1
290
     0
176
     1
290
     0
176
     1
 90
       50
176
     1
 40
0.0
176
     1
 40
1.0
176
     1
 90
        0
176
     1
 62
    18
420
        0
176
     1
 90
       50
176
     1
 90
        3
176
     1
 62
     5
420
      255
176
     1
290
     0
176
     1
 90
       50
176
     1
 90
       50
176
     1
 90
       50
176
     1
290
     0
176
     1
 90
       50
176
     1
 62
   256
176
     0
 40
1.0
176
     0
 90
        2
176
     1
  1
strokes_ogs.tif
176
     1
290
     0
176
     1
 40
1.0
176
     1
 40
1.0
176
     1
  0
VISUALSTYLE
  5
1CD2
102
{ACAD_REACTORS
330
1CBF
102
}
330
1CBF
100
AcDbVisualStyle
  2
EdgeColorOff
 70
    22
177
     3
291
     1
 70
    58
 90
        2
176
     0
 90
        2
176
     0
 90
        0
176
     0
 90
        0
176
     0
 40
0.6
176
     0
 40
30.0
176
     0
 62
     7
420
 16777215
176
     0
 90
        1
176
     0
 90
        4
176
     0
 62
     7
176
     0
 62
   257
176
     0
 90
        1
176
     0
 90
        1
176
     0
 40
1.0
176
     0
 90
        8
176
     2
 62
     7
176
     0
 40
1.0
176
     0
 90
        1
176
     0
 90
        6
176
     0
 90
        2
176
     0
 62
     7
176
     0
 90
        5
176
     0
 90
        0
176
     0
 90
        0
176
     0
290
     0
176
     0
 90
        1
176
     0
 40
0.0
176
     0
 90
        0
176
     0
290
     0
176
     0
290
     1
176
     0
290
     1
176
     0
290
     0
176
     0
290
     0
176
     0
290
     0
176
     0
290
     0
176
     0
290
     0
176
     0
290
     0
176
     0
 90
       50
176
     0
 40
0.0
176
     0
 40
1.0
176
     0
 90
        0
176
     0
 62
    18
420
        0
176
     0
 90
       50
176
     0
 90
        3
176
     0
 62
     5
420
      255
176
     0
290
     0
176
     0
 90
       50
176
     0
 90
       50
176
     0
 90
       50
176
     0
290
     0
176
     0
 90
       50
176
     0
 62
   256
176
     0
 40
1.0
176
     0
 90
        2
176
     0
  1
strokes_ogs.tif
176
     0
290
     0
176
     0
 40
1.0
176
     0
 40
1.0
176
     0
  0
VISUALSTYLE
  5
1CCE
102
{ACAD_REACTORS
330
1CBF
102
}
330
1CBF
100
AcDbVisualStyle
  2
Facepattern
 70
    15
177
     3
291
     1
 70
    58
 90
        2
176
     1
 90
        2
176
     1
 90
        0
176
     1
 90
        0
176
     1
 40
0.6
176
     1
 40
30.0
176
     1
 62
     7
420
 16777215
176
     1
 90
        1
176
     1
 90
        4
176
     1
 62
     7
176
     1
 62
   257
176
     1
 90
        1
176
     1
 90
        1
176
     1
 40
1.0
176
     1
 90
        8
176
     1
 62
     7
176
     1
 40
1.0
176
     1
 90
        1
176
     1
 90
        6
176
     1
 90
        2
176
     1
 62
     7
176
     1
 90
        5
176
     1
 90
        0
176
     1
 90
        0
176
     1
290
     0
176
     1
 90
        1
176
     1
 40
0.0
176
     1
 90
        0
176
     1
290
     0
176
     1
290
     1
176
     1
290
     1
176
     1
290
     0
176
     1
290
     0
176
     1
290
     0
176
     1
290
     0
176
     1
290
     0
176
     1
290
     0
176
     1
 90
       50
176
     1
 40
0.0
176
     1
 40
1.0
176
     1
 90
        0
176
     1
 62
    18
420
        0
176
     1
 90
       50
176
     1
 90
        3
176
     1
 62
     5
420
      255
176
     1
290
     0
176
     1
 90
       50
176
     1
 90
       50
176
     1
 90
       50
176
     1
290
     0
176
     1
 90
       50
176
     1
 62
   256
176
     0
 40
1.0
176
     0
 90
        2
176
     1
  1
strokes_ogs.tif
176
     1
290
     0
176
     1
 40
1.0
176
     1
 40
1.0
176
     1
  0
VISUALSTYLE
  5
1CC0
102
{ACAD_REACTORS
330
1CBF
102
}
330
1CBF
100
AcDbVisualStyle
  2
Flat
 70
     0
177
     3
291
     1
 70
    58
 90
        2
176
     1
 90
        1
176
     1
 90
        1
176
     1
 90
        2
176
     1
 40
0.6
176
     1
 40
30.0
176
     1
 62
     7
420
 16777215
176
     1
 90
        0
176
     1
 90
        0
176
     1
 62
     7
176
     1
 62
   257
176
     1
 90
        1
176
     1
 90
        1
176
     1
 40
1.0
176
     1
 90
        8
176
     1
 62
     7
176
     1
 40
1.0
176
     1
 90
        1
176
     1
 90
        6
176
     1
 90
        2
176
     1
 62
     7
176
     1
 90
        5
176
     1
 90
        0
176
     1
 90
        0
176
     1
290
     0
176
     1
 90
       13
176
     1
 40
0.0
176
     1
 90
        0
176
     1
290
     0
176
     1
290
     1
176
     1
290
     1
176
     1
290
     0
176
     1
290
     0
176
     1
290
     0
176
     1
290
     0
176
     1
290
     0
176
     1
290
     0
176
     1
 90
       50
176
     1
 40
0.0
176
     1
 40
1.0
176
     1
 90
        0
176
     1
 62
    18
420
        0
176
     1
 90
       50
176
     1
 90
        3
176
     1
 62
     5
420
      255
176
     1
290
     0
176
     1
 90
       50
176
     1
 90
       50
176
     1
 90
       50
176
     1
290
     0
176
     1
 90
       50
176
     1
 62
   256
176
     0
 40
1.0
176
     0
 90
        2
176
     1
  1
strokes_ogs.tif
176
     1
290
     0
176
     1
 40
1.0
176
     1
 40
1.0
176
     1
  0
VISUALSTYLE
  5
1CC1
102
{ACAD_REACTORS
330
1CBF
102
}
330
1CBF
100
AcDbVisualStyle
  2
FlatWithEdges
 70
     1
177
     3
291
     1
 70
    58
 90
        2
176
     1
 90
        1
176
     1
 90
        1
176
     1
 90
        2
176
     1
 40
0.6
176
     1
 40
30.0
176
     1
 62
     7
420
 16777215
176
     1
 90
        1
176
     1
 90
        0
176
     1
 62
     7
176
     1
 62
   257
176
     1
 90
        1
176
     1
 90
        1
176
     1
 40
1.0
176
     1
 90
        0
176
     1
 62
   257
176
     1
 40
1.0
176
     1
 90
        1
176
     1
 90
        6
176
     1
 90
        2
176
     1
 62
     7
176
     1
 90
        5
176
     1
 90
        0
176
     1
 90
        0
176
     1
290
     0
176
     1
 90
       13
176
     1
 40
0.0
176
     1
 90
        0
176
     1
290
     0
176
     1
290
     1
176
     1
290
     1
176
     1
290
     0
176
     1
290
     0
176
     1
290
     0
176
     1
290
     0
176
     1
290
     0
176
     1
290
     0
176
     1
 90
       50
176
     1
 40
0.0
176
     1
 40
1.0
176
     1
 90
        0
176
     1
 62
    18
420
        0
176
     1
 90
       50
176
     1
 90
        3
176
     1
 62
     5
420
      255
176
     1
290
     0
176
     1
 90
       50
176
     1
 90
       50
176
     1
 90
       50
176
     1
290
     0
176
     1
 90
       50
176
     1
 62
   256
176
     0
 40
1.0
176
     0
 90
        2
176
     1
  1
strokes_ogs.tif
176
     1
290
     0
176
     1
 40
1.0
176
     1
 40
1.0
176
     1
  0
VISUALSTYLE
  5
1CC2
102
{ACAD_REACTORS
330
1CBF
102
}
330
1CBF
100
AcDbVisualStyle
  2
Gouraud
 70
     2
177
     3
291
     1
 70
    58
 90
        2
176
     1
 90
        2
176
     1
 90
        1
176
     1
 90
        2
176
     1
 40
0.6
176
     1
 40
30.0
176
     1
 62
     7
420
 16777215
176
     1
 90
        0
176
     1
 90
        0
176
     1
 62
     7
176
     1
 62
   257
176
     1
 90
        1
176
     1
 90
        1
176
     1
 40
1.0
176
     1
 90
        0
176
     1
 62
     7
176
     1
 40
1.0
176
     1
 90
        1
176
     1
 90
        6
176
     1
 90
        2
176
     1
 62
     7
176
     1
 90
        5
176
     1
 90
        0
176
     1
 90
        0
176
     1
290
     0
176
     1
 90
       13
176
     1
 40
0.0
176
     1
 90
        0
176
     1
290
     0
176
     1
290
     1
176
     1
290
     1
176
     1
290
     0
176
     1
290
     0
176
     1
290
     0
176
     1
290
     0
176
     1
290
     0
176
     1
290
     0
176
     1
 90
       50
176
     1
 40
0.0
176
     1
 40
1.0
176
     1
 90
        0
176
     1
 62
    18
420
        0
176
     1
 90
       50
176
     1
 90
        3
176
     1
 62
     5
420
      255
176
     1
290
     0
176
     1
 90
       50
176
     1
 90
       50
176
     1
 90
       50
176
     1
290
     0
176
     1
 90
       50
176
     1
 62
   256
176
     0
 40
1.0
176
     0
 90
        2
176
     1
  1
strokes_ogs.tif
176
     1
290
     0
176
     1
 40
1.0
176
     1
 40
1.0
176
     1
  0
VISUALSTYLE
  5
1CC3
102
{ACAD_REACTORS
330
1CBF
102
}
330
1CBF
100
AcDbVisualStyle
  2
GouraudWithEdges
 70
     3
177
     3
291
     1
 70
    58
 90
        2
176
     1
 90
        2
176
     1
 90
        1
176
     1
 90
        2
176
     1
 40
0.6
176
     1
 40
30.0
176
     1
 62
     7
420
 16777215
176
     1
 90
        1
176
     1
 90
        0
176
     1
 62
     7
176
     1
 62
   257
176
     1
 90
        1
176
     1
 90
        1
176
     1
 40
1.0
176
     1
 90
        0
176
     1
 62
   257
176
     1
 40
1.0
176
     1
 90
        1
176
     1
 90
        6
176
     1
 90
        2
176
     1
 62
     7
176
     1
 90
        5
176
     1
 90
        0
176
     1
 90
        0
176
     1
290
     0
176
     1
 90
       13
176
     1
 40
0.0
176
     1
 90
        0
176
     1
290
     0
176
     1
290
     1
176
     1
290
     1
176
     1
290
     0
176
     1
290
     0
176
     1
290
     0
176
     1
290
     0
176
     1
290
     0
176
     1
290
     0
176
     1
 90
       50
176
     1
 40
0.0
176
     1
 40
1.0
176
     1
 90
        0
176
     1
 62
    18
420
        0
176
     1
 90
       50
176
     1
 90
        3
176
     1
 62
     5
420
      255
176
     1
290
     0
176
     1
 90
       50
176
     1
 90
       50
176
     1
 90
       50
176
     1
290
     0
176
     1
 90
       50
176
     1
 62
   256
176
     0
 40
1.0
176
     0
 90
        2
176
     1
  1
strokes_ogs.tif
176
     1
290
     0
176
     1
 40
1.0
176
     1
 40
1.0
176
     1
  0
VISUALSTYLE
  5
1CC6
102
{ACAD_REACTORS
330
1CBF
102
}
330
1CBF
100
AcDbVisualStyle
  2
Hidden
 70
     6
177
     3
291
     0
 70
    58
 90
        1
176
     1
 90
        2
176
     1
 90
        2
176
     1
 90
        0
176
     1
 40
0.6
176
     1
 40
30.0
176
     1
 62
     7
420
 16777215
176
     1
 90
        2
176
     1
 90
        2
176
     1
 62
     7
176
     1
 62
   257
176
     1
 90
        2
176
     1
 90
        1
176
     1
 40
40.0
176
     1
 90
        0
176
     1
 62
   257
176
     1
 40
1.0
176
     1
 90
        1
176
     1
 90
        6
176
     1
 90
        2
176
     1
 62
     7
176
     1
 90
        3
176
     1
 90
        0
176
     1
 90
        0
176
     1
290
     0
176
     1
 90
        1
176
     1
 40
0.0
176
     1
 90
        0
176
     1
290
     0
176
     1
290
     1
176
     1
290
     1
176
     1
290
     0
176
     1
290
     0
176
     1
290
     0
176
     1
290
     0
176
     1
290
     0
176
     1
290
     0
176
     1
 90
       50
176
     1
 40
0.0
176
     1
 40
1.0
176
     1
 90
        0
176
     1
 62
    18
420
        0
176
     1
 90
       50
176
     1
 90
        3
176
     1
 62
     5
420
      255
176
     1
290
     0
176
     1
 90
       50
176
     1
 90
       50
176
     1
 90
       50
176
     1
290
     0
176
     1
 90
       50
176
     1
 62
   256
176
     0
 40
1.0
176
     0
 90
        2
176
     1
  1
strokes_ogs.tif
176
     1
290
     0
176
     1
 40
1.0
176
     1
 40
1.0
176
     1
  0
VISUALSTYLE
  5
1CD0
102
{ACAD_REACTORS
330
1CBF
102
}
330
1CBF
100
AcDbVisualStyle
  2
JitterOff
 70
    20
177
     3
291
     1
 70
    58
 90
        2
176
     0
 90
        2
176
     0
 90
        0
176
     0
 90
        0
176
     0
 40
0.6
176
     0
 40
30.0
176
     0
 62
     7
420
 16777215
176
     0
 90
        1
176
     0
 90
        4
176
     0
 62
     7
176
     0
 62
   257
176
     0
 90
        1
176
     0
 90
        1
176
     0
 40
1.0
176
     0
 90
       10
176
     2
 62
     7
176
     0
 40
1.0
176
     0
 90
        1
176
     0
 90
        6
176
     0
 90
        2
176
     0
 62
     7
176
     0
 90
        5
176
     0
 90
        0
176
     0
 90
        0
176
     0
290
     0
176
     0
 90
        1
176
     0
 40
0.0
176
     0
 90
        0
176
     0
290
     0
176
     0
290
     1
176
     0
290
     1
176
     0
290
     0
176
     0
290
     0
176
     0
290
     0
176
     0
290
     0
176
     0
290
     0
176
     0
290
     0
176
     0
 90
       50
176
     0
 40
0.0
176
     0
 40
1.0
176
     0
 90
        0
176
     0
 62
    18
420
        0
176
     0
 90
       50
176
     0
 90
        3
176
     0
 62
     5
420
      255
176
     0
290
     0
176
     0
 90
       50
176
     0
 90
       50
176
     0
 90
       50
176
     0
290
     0
176
     0
 90
       50
176
     0
 62
   256
176
     0
 40
1.0
176
     0
 90
        2
176
     0
  1
strokes_ogs.tif
176
     0
290
     0
176
     0
 40
1.0
176
     0
 40
1.0
176
     0
  0
VISUALSTYLE
  5
1CCD
102
{ACAD_REACTORS
330
1CBF
102
}
330
1CBF
100
AcDbVisualStyle
  2
Linepattern
 70
    14
177
     3
291
     1
 70
    58
 90
        2
176
     1
 90
        2
176
     1
 90
        0
176
     1
 90
        0
176
     1
 40
0.6
176
     1
 40
30.0
176
     1
 62
     7
420
 16777215
176
     1
 90
        1
176
     1
 90
        4
176
     1
 62
     7
176
     1
 62
   257
176
     1
 90
        7
176
     1
 90
        7
176
     1
 40
1.0
176
     1
 90
        8
176
     1
 62
     7
176
     1
 40
1.0
176
     1
 90
        1
176
     1
 90
        6
176
     1
 90
        2
176
     1
 62
     7
176
     1
 90
        5
176
     1
 90
        0
176
     1
 90
        0
176
     1
290
     0
176
     1
 90
        1
176
     1
 40
0.0
176
     1
 90
        0
176
     1
290
     0
176
     1
290
     1
176
     1
290
     1
176
     1
290
     0
176
     1
290
     0
176
     1
290
     0
176
     1
290
     0
176
     1
290
     0
176
     1
290
     0
176
     1
 90
       50
176
     1
 40
0.0
176
     1
 40
1.0
176
     1
 90
        0
176
     1
 62
    18
420
        0
176
     1
 90
       50
176
     1
 90
        3
176
     1
 62
     5
420
      255
176
     1
290
     0
176
     1
 90
       50
176
     1
 90
       50
176
     1
 90
       50
176
     1
290
     0
176
     1
 90
       50
176
     1
 62
   256
176
     0
 40
1.0
176
     0
 90
        2
176
     1
  1
strokes_ogs.tif
176
     1
290
     0
176
     1
 40
1.0
176
     1
 40
1.0
176
     1
  0
VISUALSTYLE
  5
1CD1
102
{ACAD_REACTORS
330
1CBF
102
}
330
1CBF
100
AcDbVisualStyle
  2
OverhangOff
 70
    21
177
     3
291
     1
 70
    58
 90
        2
176
     0
 90
        2
176
     0
 90
        0
176
     0
 90
        0
176
     0
 40
0.6
176
     0
 40
30.0
176
     0
 62
     7
420
 16777215
176
     0
 90
        1
176
     0
 90
        4
176
     0
 62
     7
176
     0
 62
   257
176
     0
 90
        1
176
     0
 90
        1
176
     0
 40
1.0
176
     0
 90
        9
176
     2
 62
     7
176
     0
 40
1.0
176
     0
 90
        1
176
     0
 90
        6
176
     0
 90
        2
176
     0
 62
     7
176
     0
 90
        5
176
     0
 90
        0
176
     0
 90
        0
176
     0
290
     0
176
     0
 90
        1
176
     0
 40
0.0
176
     0
 90
        0
176
     0
290
     0
176
     0
290
     1
176
     0
290
     1
176
     0
290
     0
176
     0
290
     0
176
     0
290
     0
176
     0
290
     0
176
     0
290
     0
176
     0
290
     0
176
     0
 90
       50
176
     0
 40
0.0
176
     0
 40
1.0
176
     0
 90
        0
176
     0
 62
    18
420
        0
176
     0
 90
       50
176
     0
 90
        3
176
     0
 62
     5
420
      255
176
     0
290
     0
176
     0
 90
       50
176
     0
 90
       50
176
     0
 90
       50
176
     0
290
     0
176
     0
 90
       50
176
     0
 62
   256
176
     0
 40
1.0
176
     0
 90
        2
176
     0
  1
strokes_ogs.tif
176
     0
290
     0
176
     0
 40
1.0
176
     0
 40
1.0
176
     0
  0
VISUALSTYLE
  5
1CC8
102
{ACAD_REACTORS
330
1CBF
102
}
330
1CBF
100
AcDbVisualStyle
  2
Realistic
 70
     8
177
     3
291
     0
 70
    58
 90
        2
176
     1
 90
        3
176
     1
 90
        0
176
     1
 90
        2
176
     1
 40
0.6
176
     1
 40
30.0
176
     1
 62
     7
420
 16777215
176
     1
 90
        0
176
     1
 90
        0
176
     1
 62
     7
176
     1
 62
   257
176
     1
 90
        1
176
     1
 90
        1
176
     1
 40
1.0
176
     1
 90
        8
176
     1
 62
   257
176
     1
 40
1.0
176
     1
 90
        1
176
     1
 90
        6
176
     1
 90
        2
176
     1
 62
     7
176
     1
 90
        3
176
     1
 90
        0
176
     1
 90
        0
176
     1
290
     0
176
     1
 90
       13
176
     1
 40
0.0
176
     1
 90
        0
176
     1
290
     0
176
     1
290
     1
176
     1
290
     1
176
     1
290
     0
176
     1
290
     0
176
     1
290
     0
176
     1
290
     0
176
     1
290
     0
176
     1
290
     0
176
     1
 90
       50
176
     1
 40
0.0
176
     1
 40
1.0
176
     1
 90
        0
176
     1
 62
    18
420
        0
176
     1
 90
       50
176
     1
 90
        3
176
     1
 62
     5
420
      255
176
     1
290
     0
176
     1
 90
       50
176
     1
 90
       50
176
     1
 90
       50
176
     1
290
     0
176
     1
 90
       50
176
     1
 62
   256
176
     0
 40
1.0
176
     0
 90
        2
176
     1
  1
strokes_ogs.tif
176
     1
290
     0
176
     1
 40
1.0
176
     1
 40
1.0
176
     1
  0
VISUALSTYLE
  5
1CD7
102
{ACAD_REACTORS
330
1CBF
102
}
330
1CBF
100
AcDbVisualStyle
  2
Shaded
 70
    27
177
     3
291
     0
 70
    58
 90
        2
176
     1
 90
        2
176
     1
 90
        1
176
     1
 90
        2
176
     1
 40
0.6
176
     1
 40
30.0
176
     1
 62
     7
420
 16777215
176
     1
 90
        0
176
     1
 90
        4
176
     1
 62
     7
176
     1
 62
   257
176
     1
 90
        1
176
     1
 90
        1
176
     1
 40
1.0
176
     1
 90
        8
176
     1
 62
   257
176
     1
 40
1.0
176
     1
 90
        1
176
     1
 90
        6
176
     1
 90
        2
176
     1
 62
     8
420
  7895160
176
     1
 90
        3
176
     1
 90
        0
176
     1
 90
        0
176
     1
290
     0
176
     1
 90
        5
176
     1
 40
0.0
176
     1
 90
        0
176
     1
290
     0
176
     1
290
     1
176
     1
290
     1
176
     1
290
     0
176
     1
290
     0
176
     1
290
     0
176
     1
290
     0
176
     1
290
     0
176
     1
290
     0
176
     1
 90
       50
176
     1
 40
0.0
176
     1
 40
1.0
176
     1
 90
        0
176
     1
 62
    18
420
        0
176
     1
 90
       50
176
     1
 90
        3
176
     1
 62
     5
420
      255
176
     1
290
     0
176
     1
 90
       50
176
     1
 90
       50
176
     1
 90
       50
176
     1
290
     0
176
     1
 90
       50
176
     1
 62
   256
176
     0
 40
1.0
176
     0
 90
        2
176
     1
  1
strokes_ogs.tif
176
     1
290
     0
176
     1
 40
1.0
176
     1
 40
1.0
176
     1
  0
VISUALSTYLE
  5
1CD6
102
{ACAD_REACTORS
330
1CBF
102
}
330
1CBF
100
AcDbVisualStyle
  2
Shaded with edges
 70
    26
177
     3
291
     0
 70
    58
 90
        2
176
     1
 90
        2
176
     1
 90
        1
176
     1
 90
        2
176
     1
 40
0.6
176
     1
 40
30.0
176
     1
 62
     7
420
 16777215
176
     1
 90
        1
176
     1
 90
       10
176
     1
 62
     7
176
     1
 62
   257
176
     1
 90
        2
176
     1
 90
        1
176
     1
 40
1.0
176
     1
 90
        8
176
     1
 62
   257
176
     1
 40
1.0
176
     1
 90
        1
176
     1
 90
        6
176
     1
 90
        2
176
     1
 62
     7
176
     1
 90
        3
176
     1
 90
        0
176
     1
 90
        0
176
     1
290
     0
176
     1
 90
        5
176
     1
 40
0.0
176
     1
 90
        0
176
     1
290
     0
176
     1
290
     1
176
     1
290
     1
176
     1
290
     0
176
     1
290
     0
176
     1
290
     0
176
     1
290
     0
176
     1
290
     0
176
     1
290
     0
176
     1
 90
       50
176
     1
 40
0.0
176
     1
 40
1.0
176
     1
 90
        0
176
     1
 62
    18
420
        0
176
     1
 90
       50
176
     1
 90
        3
176
     1
 62
     5
420
      255
176
     1
290
     0
176
     1
 90
       50
176
     1
 90
       50
176
     1
 90
       50
176
     1
290
     0
176
     1
 90
       50
176
     1
 62
   256
176
     0
 40
1.0
176
     0
 90
        2
176
     1
  1
strokes_ogs.tif
176
     1
290
     0
176
     1
 40
1.0
176
     1
 40
1.0
176
     1
  0
VISUALSTYLE
  5
1CD3
102
{ACAD_REACTORS
330
1CBF
102
}
330
1CBF
100
AcDbVisualStyle
  2
Shades of Gray
 70
    23
177
     3
291
     0
 70
    58
 90
        2
176
     1
 90
        2
176
     1
 90
        3
176
     1
 90
        0
176
     1
 40
0.6
176
     1
 40
30.0
176
     1
 62
     7
420
 16777215
176
     1
 90
        2
176
     1
 90
        2
176
     1
 62
     7
176
     1
 62
     7
176
     1
 90
        1
176
     1
 90
        1
176
     1
 40
40.0
176
     1
 90
        8
176
     1
 62
     7
176
     1
 40
1.0
176
     1
 90
        1
176
     1
 90
        6
176
     1
 90
        2
176
     1
 62
     7
176
     1
 90
        3
176
     1
 90
        0
176
     1
 90
        0
176
     1
290
     0
176
     1
 90
        1
176
     1
 40
0.0
176
     1
 90
        0
176
     1
290
     0
176
     1
290
     1
176
     1
290
     1
176
     1
290
     0
176
     1
290
     0
176
     1
290
     0
176
     1
290
     0
176
     1
290
     0
176
     1
290
     0
176
     1
 90
       50
176
     1
 40
0.0
176
     1
 40
1.0
176
     1
 90
        0
176
     1
 62
    18
420
        0
176
     1
 90
       50
176
     1
 90
        3
176
     1
 62
     5
420
      255
176
     1
290
     0
176
     1
 90
       50
176
     1
 90
       50
176
     1
 90
       50
176
     1
290
     0
176
     1
 90
       50
176
     1
 62
   256
176
     0
 40
1.0
176
     0
 90
        2
176
     1
  1
strokes_ogs.tif
176
     1
290
     0
176
     1
 40
1.0
176
     1
 40
1.0
176
     1
  0
VISUALSTYLE
  5
1CD4
102
{ACAD_REACTORS
330
1CBF
102
}
330
1CBF
100
AcDbVisualStyle
  2
Sketchy
 70
    24
177
     3
291
     0
 70
    58
 90
        1
176
     1
 90
        2
176
     1
 90
        2
176
     1
 90
        0
176
     1
 40
0.6
176
     1
 40
30.0
176
     1
 62
     7
420
 16777215
176
     1
 90
        2
176
     1
 90
        2
176
     1
 62
     7
176
     1
 62
     7
176
     1
 90
        1
176
     1
 90
        1
176
     1
 40
40.0
176
     1
 90
       11
176
     1
 62
     7
176
     1
 40
1.0
176
     1
 90
        1
176
     1
 90
        6
176
     1
 90
        2
176
     1
 62
     7
176
     1
 90
        6
176
     1
 90
        0
176
     1
 90
        0
176
     1
290
     0
176
     1
 90
        1
176
     1
 40
0.0
176
     1
 90
        0
176
     1
290
     0
176
     1
290
     1
176
     1
290
     1
176
     1
290
     0
176
     1
290
     0
176
     1
290
     0
176
     1
290
     0
176
     1
290
     0
176
     1
290
     0
176
     1
 90
       50
176
     1
 40
0.0
176
     1
 40
1.0
176
     1
 90
        0
176
     1
 62
    18
420
        0
176
     1
 90
       50
176
     1
 90
        3
176
     1
 62
     5
420
      255
176
     1
290
     0
176
     1
 90
       50
176
     1
 90
       50
176
     1
 90
       50
176
     1
290
     0
176
     1
 90
       50
176
     1
 62
   256
176
     0
 40
1.0
176
     0
 90
        2
176
     1
  1
strokes_ogs.tif
176
     1
290
     0
176
     1
 40
1.0
176
     1
 40
1.0
176
     1
  0
VISUALSTYLE
  5
1CCC
102
{ACAD_REACTORS
330
1CBF
102
}
330
1CBF
100
AcDbVisualStyle
  2
Thicken
 70
    13
177
     3
291
     1
 70
    58
 90
        2
176
     1
 90
        2
176
     1
 90
        0
176
     1
 90
        0
176
     1
 40
0.6
176
     1
 40
30.0
176
     1
 62
     7
420
 16777215
176
     1
 90
        1
176
     1
 90
        4
176
     1
 62
     7
176
     1
 62
   257
176
     1
 90
        1
176
     1
 90
        1
176
     1
 40
1.0
176
     1
 90
       12
176
     1
 62
     7
176
     1
 40
1.0
176
     1
 90
        1
176
     1
 90
        6
176
     1
 90
        2
176
     1
 62
     7
176
     1
 90
        5
176
     1
 90
        0
176
     1
 90
        0
176
     1
290
     0
176
     1
 90
        1
176
     1
 40
0.0
176
     1
 90
        0
176
     1
290
     0
176
     1
290
     1
176
     1
290
     1
176
     1
290
     0
176
     1
290
     0
176
     1
290
     0
176
     1
290
     0
176
     1
290
     0
176
     1
290
     0
176
     1
 90
       50
176
     1
 40
0.0
176
     1
 40
1.0
176
     1
 90
        0
176
     1
 62
    18
420
        0
176
     1
 90
       50
176
     1
 90
        3
176
     1
 62
     5
420
      255
176
     1
290
     0
176
     1
 90
       50
176
     1
 90
       50
176
     1
 90
       50
176
     1
290
     0
176
     1
 90
       50
176
     1
 62
   256
176
     0
 40
1.0
176
     0
 90
        2
176
     1
  1
strokes_ogs.tif
176
     1
290
     0
176
     1
 40
1.0
176
     1
 40
1.0
176
     1
  0
VISUALSTYLE
  5
1CC5
102
{ACAD_REACTORS
330
1CBF
102
}
330
1CBF
100
AcDbVisualStyle
  2
Wireframe
 70
     5
177
     3
291
     0
 70
    58
 90
        0
176
     1
 90
        2
176
     1
 90
        0
176
     1
 90
        0
176
     1
 40
0.6
176
     1
 40
30.0
176
     1
 62
     7
420
 16777215
176
     1
 90
        1
176
     1
 90
        4
176
     1
 62
     7
176
     1
 62
   257
176
     1
 90
        1
176
     1
 90
        1
176
     1
 40
1.0
176
     1
 90
        0
176
     1
 62
   257
176
     1
 40
1.0
176
     1
 90
        1
176
     1
 90
        6
176
     1
 90
        2
176
     1
 62
     7
176
     1
 90
        3
176
     1
 90
        0
176
     1
 90
        0
176
     1
290
     0
176
     1
 90
        1
176
     1
 40
0.0
176
     1
 90
        0
176
     1
290
     0
176
     1
290
     1
176
     1
290
     1
176
     1
290
     0
176
     1
290
     0
176
     1
290
     0
176
     1
290
     0
176
     1
290
     0
176
     1
290
     0
176
     1
 90
       50
176
     1
 40
0.0
176
     1
 40
1.0
176
     1
 90
        0
176
     1
 62
    18
420
        0
176
     1
 90
       50
176
     1
 90
        3
176
     1
 62
     5
420
      255
176
     1
290
     0
176
     1
 90
       50
176
     1
 90
       50
176
     1
 90
       50
176
     1
290
     0
176
     1
 90
       50
176
     1
 62
   256
176
     0
 40
1.0
176
     0
 90
        2
176
     1
  1
strokes_ogs.tif
176
     1
290
     0
176
     1
 40
1.0
176
     1
 40
1.0
176
     1
  0
VISUALSTYLE
  5
1CD5
102
{ACAD_REACTORS
330
1CBF
102
}
330
1CBF
100
AcDbVisualStyle
  2
X-Ray
 70
    25
177
     3
291
     0
 70
    58
 90
        2
176
     1
 90
        2
176
     1
 90
        1
176
     1
 90
        1
176
     1
 40
0.5
176
     1
 40
30.0
176
     1
 62
     7
420
 16777215
176
     1
 90
        1
176
     1
 90
        0
176
     1
 62
     7
176
     1
 62
   257
176
     1
 90
        1
176
     1
 90
        1
176
     1
 40
1.0
176
     1
 90
        8
176
     1
 62
     7
176
     1
 40
1.0
176
     1
 90
        1
176
     1
 90
        6
176
     1
 90
        2
176
     1
 62
     7
176
     1
 90
        3
176
     1
 90
        0
176
     1
 90
        0
176
     1
290
     0
176
     1
 90
       13
176
     1
 40
0.0
176
     1
 90
        0
176
     1
290
     0
176
     1
290
     1
176
     1
290
     1
176
     1
290
     0
176
     1
290
     0
176
     1
290
     0
176
     1
290
     0
176
     1
290
     0
176
     1
290
     0
176
     1
 90
       50
176
     1
 40
0.0
176
     1
 40
1.0
176
     1
 90
        0
176
     1
 62
    18
420
        0
176
     1
 90
       50
176
     1
 90
        3
176
     1
 62
     5
420
      255
176
     1
290
     0
176
     1
 90
       50
176
     1
 90
       50
176
     1
 90
       50
176
     1
290
     0
176
     1
 90
       50
176
     1
 62
   256
176
     0
 40
1.0
176
     0
 90
        2
176
     1
  1
strokes_ogs.tif
176
     1
290
     0
176
     1
 40
1.0
176
     1
 40
1.0
176
     1
  0
DICTIONARYVAR
  5
1D6B
102
{ACAD_REACTORS
330
1D6A
102
}
330
1D6A
100
DictionaryVariables
280
     0
  1
1:1
  0
DICTIONARYVAR
  5
1D70
102
{ACAD_REACTORS
330
1D6A
102
}
330
1D6A
100
DictionaryVariables
280
     0
  1
Standard
  0
DICTIONARYVAR
  5
1D6F
102
{ACAD_REACTORS
330
1D6A
102
}
330
1D6A
100
DictionaryVariables
280
     0
  1
Standard
  0
XRECORD
  5
1CF6
102
{ACAD_REACTORS
330
1CF4
102
}
330
1CF4
100
AcDbXrecord
280
     1
1000
#ffffff
  0
XRECORD
  5
1CF7
102
{ACAD_REACTORS
330
1CF4
102
}
330
1CF4
100
AcDbXrecord
280
     1
1000
FullColor
  0
XRECORD
  5
1CF8
102
{ACAD_REACTORS
330
1CF4
102
}
330
1CF4
100
AcDbXrecord
280
     1
290
     1
  0
XRECORD
  5
1CF9
102
{ACAD_REACTORS
330
1CF4
102
}
330
1CF4
100
AcDbXrecord
280
     1
290
     1
  0
XRECORD
  5
1CFA
102
{ACAD_REACTORS
330
1CF4
102
}
330
1CF4
100
AcDbXrecord
280
     1
290
     1
  0
XRECORD
  5
1CFB
102
{ACAD_REACTORS
330
1CF4
102
}
330
1CF4
100
AcDbXrecord
280
     1
290
     1
  0
XRECORD
  5
1CFC
102
{ACAD_REACTORS
330
1CF4
102
}
330
1CF4
100
AcDbXrecord
280
     1
1000
auto
  0
XRECORD
  5
1CFD
102
{ACAD_REACTORS
330
1CF4
102
}
330
1CF4
100
AcDbXrecord
280
     1
1000
auto
  0
XRECORD
  5
1CFE
102
{ACAD_REACTORS
330
1CF4
102
}
330
1CF4
100
AcDbXrecord
280
     1
1000
auto
  0
XRECORD
  5
1CFF
102
{ACAD_REACTORS
330
1CF4
102
}
330
1CF4
100
AcDbXrecord
280
     1
1000
auto
  0
XRECORD
  5
1D00
102
{ACAD_REACTORS
330
1CF4
102
}
330
1CF4
100
AcDbXrecord
280
     1
1000
auto
  0
XRECORD
  5
1D01
102
{ACAD_REACTORS
330
1CF4
102
}
330
1CF4
100
AcDbXrecord
280
     1
1000
auto
  0
XRECORD
  5
1D02
102
{ACAD_REACTORS
330
1CF4
102
}
330
1CF4
100
AcDbXrecord
280
     1
1000
auto
  0
XRECORD
  5
1D03
102
{ACAD_REACTORS
330
1CF4
102
}
330
1CF4
100
AcDbXrecord
280
     1
1000
auto
  0
XRECORD
  5
1D04
102
{ACAD_REACTORS
330
1CF4
102
}
330
1CF4
100
AcDbXrecord
280
     1
290
     0
  0
XRECORD
  5
1D05
102
{ACAD_REACTORS
330
1CF4
102
}
330
1CF4
100
AcDbXrecord
280
     1
290
     0
  0
XRECORD
  5
1D06
102
{ACAD_REACTORS
330
1CF4
102
}
330
1CF4
100
AcDbXrecord
280
     1
290
     0
  0
XRECORD
  5
1D07
102
{ACAD_REACTORS
330
1CF4
102
}
330
1CF4
100
AcDbXrecord
280
     1
290
     0
  0
XRECORD
  5
1D08
102
{ACAD_REACTORS
330
1CF4
102
}
330
1CF4
100
AcDbXrecord
280
     1
 90
    65537
  0
XRECORD
  5
1D09
102
{ACAD_REACTORS
330
1CF4
102
}
330
1CF4
100
AcDbXrecord
280
     1
 90
    65537
  0
XRECORD
  5
1D0A
102
{ACAD_REACTORS
330
1CF4
102
}
330
1CF4
100
AcDbXrecord
280
     1
 90
    65537
  0
XRECORD
  5
1D0B
102
{ACAD_REACTORS
330
1CF4
102
}
330
1CF4
100
AcDbXrecord
280
     1
 90
    65537
  0
XRECORD
  5
1D0C
102
{ACAD_REACTORS
330
1CF4
102
}
330
1CF4
100
AcDbXrecord
280
     1
1000
auto
  0
XRECORD
  5
1D0D
102
{ACAD_REACTORS
330
1CF4
102
}
330
1CF4
100
AcDbXrecord
280
     1
1000
auto
  0
XRECORD
  5
1D0E
102
{ACAD_REACTORS
330
1CF4
102
}
330
1CF4
100
AcDbXrecord
280
     1
1000
auto
  0
XRECORD
  5
1D0F
102
{ACAD_REACTORS
330
1CF4
102
}
330
1CF4
100
AcDbXrecord
280
     1
1000
auto
  0
XRECORD
  5
1D10
102
{ACAD_REACTORS
330
1CF4
102
}
330
1CF4
100
AcDbXrecord
280
     1
1000
auto
  0
XRECORD
  5
1D11
102
{ACAD_REACTORS
330
1CF4
102
}
330
1CF4
100
AcDbXrecord
280
     1
1000
auto
  0
XRECORD
  5
1D12
102
{ACAD_REACTORS
330
1CF4
102
}
330
1CF4
100
AcDbXrecord
280
     1
1000
auto
  0
XRECORD
  5
1D13
102
{ACAD_REACTORS
330
1CF4
102
}
330
1CF4
100
AcDbXrecord
280
     1
1000
auto
  0
XRECORD
  5
1D14
102
{ACAD_REACTORS
330
1CF4
102
}
330
1CF4
100
AcDbXrecord
280
     1
 90
        1
  0
XRECORD
  5
1D15
102
{ACAD_REACTORS
330
1CF4
102
}
330
1CF4
100
AcDbXrecord
280
     1
 40
10.0
  0
XRECORD
  5
1D16
102
{ACAD_REACTORS
330
1CF4
102
}
330
1CF4
100
AcDbXrecord
280
     1
 40
10.0
  0
XRECORD
  5
1D17
102
{ACAD_REACTORS
330
1CF4
102
}
330
1CF4
100
AcDbXrecord
280
     1
 40
10.0
  0
XRECORD
  5
1D18
102
{ACAD_REACTORS
330
1CF4
102
}
330
1CF4
100
AcDbXrecord
280
     1
 40
10.0
  0
XRECORD
  5
1D19
102
{ACAD_REACTORS
330
1CF4
102
}
330
1CF4
100
AcDbXrecord
280
     1
290
     0
  0
XRECORD
  5
1D1A
102
{ACAD_REACTORS
330
1CF4
102
}
330
1CF4
100
AcDbXrecord
280
     1
 90
        1
  0
XRECORD
  5
1D1B
102
{ACAD_REACTORS
330
1CF4
102
}
330
1CF4
100
AcDbXrecord
280
     1
 40
54.00053522503728
  0
XRECORD
  5
1D1C
102
{ACAD_REACTORS
330
1CF4
102
}
330
1CF4
100
AcDbXrecord
280
     1
 40
-137.6068160537974
  0
XRECORD
  5
1D1D
102
{ACAD_REACTORS
330
1CF4
102
}
330
1CF4
100
AcDbXrecord
280
     1
1000
Portrait
  0
XRECORD
  5
1D1E
102
{ACAD_REACTORS
330
1CF4
102
}
330
1CF4
100
AcDbXrecord
280
     1
 40
297.0
  0
XRECORD
  5
1D1F
102
{ACAD_REACTORS
330
1CF4
102
}
330
1CF4
100
AcDbXrecord
280
     1
 40
210.0
  0
XRECORD
  5
1D20
102
{ACAD_REACTORS
330
1CF4
102
}
330
1CF4
100
AcDbXrecord
280
     1
1000
0.76
  0
XRECORD
  5
1D21
102
{ACAD_REACTORS
330
1CF4
102
}
330
1CF4
100
AcDbXrecord
280
     1
290
     1
  0
XRECORD
  5
1D22
102
{ACAD_REACTORS
330
1CF4
102
}
330
1CF4
100
AcDbXrecord
280
     1
290
     0
  0
XRECORD
  5
1D23
102
{ACAD_REACTORS
330
1CF4
102
}
330
1CF4
100
AcDbXrecord
280
     1
1000
Inside
  0
XRECORD
  5
1D24
102
{ACAD_REACTORS
330
1CF4
102
}
330
1CF4
100
AcDbXrecord
280
     1
1000
Arial,10,-1,5,50,0,0,0,0,0
  0
XRECORD
  5
1D25
102
{ACAD_REACTORS
330
1CF4
102
}
330
1CF4
100
AcDbXrecord
280
     1
1000
TopLeft
  0
XRECORD
  5
1D26
102
{ACAD_REACTORS
330
1CF4
102
}
330
1CF4
100
AcDbXrecord
280
     1
1000
3.31.2
  0
XRECORD
  5
1D27
102
{ACAD_REACTORS
330
1CF4
102
}
330
1CF4
100
AcDbXrecord
280
     1
 90
        4
  0
XRECORD
  5
1D28
102
{ACAD_REACTORS
330
1CF4
102
}
330
1CF4
100
AcDbXrecord
280
     1
  0
XRECORD
  5
1D29
102
{ACAD_REACTORS
330
1CF4
102
}
330
1CF4
100
AcDbXrecord
280
     1
 40
370.5434782608696
  0
XRECORD
  5
1D2A
102
{ACAD_REACTORS
330
1CF4
102
}
330
1CF4
100
AcDbXrecord
280
     1
 40
722.8260869565217
  0
DICTIONARY
  5
1D6C
330
1CEF
100
AcDbDictionary
280
     1
281
     1
  3
ACAD_ROUNDTRIP_2008_TABLESTYLE_CELLSTYLEMAP
360
1D6D
  0
CELLSTYLEMAP
  5
1D6D
102
{ACAD_REACTORS
330
1D6C
102
}
330
1D6C
100
AcDbCellStyleMap
 90
        3
300
CELLSTYLE
  1
TABLEFORMAT_BEGIN
 90
        5
170
     1
 91
        0
 92
    32768
 62
   257
 93
        1
300
CONTENTFORMAT
  1
CONTENTFORMAT_BEGIN
 90
        0
 91
        0
 92
        4
 93
        0
300

 40
0.0
140
1.0
 94
        5
 62
     0
340
1CA7
144
0.25
309
CONTENTFORMAT_END
171
     1
301
MARGIN
  1
CELLMARGIN_BEGIN
 40
0.06
 40
0.06
 40
0.06
 40
0.06
 40
0.06
 40
0.06
309
CELLMARGIN_END
 94
        6
 95
        1
302
GRIDFORMAT
  1
GRIDFORMAT_BEGIN
 90
        0
 91
        1
 62
     0
 92
       -2
340
1CA9
 93
        0
 40
0.045
309
GRIDFORMAT_END
 95
        2
302
GRIDFORMAT
  1
GRIDFORMAT_BEGIN
 90
        0
 91
        1
 62
     0
 92
       -2
340
1CA9
 93
        0
 40
0.045
309
GRIDFORMAT_END
 95
        4
302
GRIDFORMAT
  1
GRIDFORMAT_BEGIN
 90
        0
 91
        1
 62
     0
 92
       -2
340
1CA9
 93
        0
 40
0.045
309
GRIDFORMAT_END
 95
        8
302
GRIDFORMAT
  1
GRIDFORMAT_BEGIN
 90
        0
 91
        1
 62
     0
 92
       -2
340
1CA9
 93
        0
 40
0.045
309
GRIDFORMAT_END
 95
       16
302
GRIDFORMAT
  1
GRIDFORMAT_BEGIN
 90
        0
 91
        1
 62
     0
 92
       -2
340
1CA9
 93
        0
 40
0.045
309
GRIDFORMAT_END
 95
       32
302
GRIDFORMAT
  1
GRIDFORMAT_BEGIN
 90
        0
 91
        1
 62
     0
 92
       -2
340
1CA9
 93
        0
 40
0.045
309
GRIDFORMAT_END
309
TABLEFORMAT_END
  1
CELLSTYLE_BEGIN
 90
        1
 91
        1
300
_TITLE
309
CELLSTYLE_END
300
CELLSTYLE
  1
TABLEFORMAT_BEGIN
 90
        5
170
     1
 91
        0
 92
        0
 62
   257
 93
        1
300
CONTENTFORMAT
  1
CONTENTFORMAT_BEGIN
 90
        0
 91
        0
 92
        4
 93
        0
300

 40
0.0
140
1.0
 94
        5
 62
     0
340
1CA7
144
0.18
309
CONTENTFORMAT_END
171
     1
301
MARGIN
  1
CELLMARGIN_BEGIN
 40
0.06
 40
0.06
 40
0.06
 40
0.06
 40
0.06
 40
0.06
309
CELLMARGIN_END
 94
        6
 95
        1
302
GRIDFORMAT
  1
GRIDFORMAT_BEGIN
 90
        0
 91
        1
 62
     0
 92
       -2
340
1CA9
 93
        0
 40
0.045
309
GRIDFORMAT_END
 95
        2
302
GRIDFORMAT
  1
GRIDFORMAT_BEGIN
 90
        0
 91
        1
 62
     0
 92
       -2
340
1CA9
 93
        0
 40
0.045
309
GRIDFORMAT_END
 95
        4
302
GRIDFORMAT
  1
GRIDFORMAT_BEGIN
 90
        0
 91
        1
 62
     0
 92
       -2
340
1CA9
 93
        0
 40
0.045
309
GRIDFORMAT_END
 95
        8
302
GRIDFORMAT
  1
GRIDFORMAT_BEGIN
 90
        0
 91
        1
 62
     0
 92
       -2
340
1CA9
 93
        0
 40
0.045
309
GRIDFORMAT_END
 95
       16
302
GRIDFORMAT
  1
GRIDFORMAT_BEGIN
 90
        0
 91
        1
 62
     0
 92
       -2
340
1CA9
 93
        0
 40
0.045
309
GRIDFORMAT_END
 95
       32
302
GRIDFORMAT
  1
GRIDFORMAT_BEGIN
 90
        0
 91
        1
 62
     0
 92
       -2
340
1CA9
 93
        0
 40
0.045
309
GRIDFORMAT_END
309
TABLEFORMAT_END
  1
CELLSTYLE_BEGIN
 90
        2
 91
        1
300
_HEADER
309
CELLSTYLE_END
300
CELLSTYLE
  1
TABLEFORMAT_BEGIN
 90
        5
170
     1
 91
        0
 92
        0
 62
   257
 93
        1
300
CONTENTFORMAT
  1
CONTENTFORMAT_BEGIN
 90
        0
 91
        0
 92
        4
 93
        0
300

 40
0.0
140
1.0
 94
        2
 62
     0
340
1CA7
144
0.18
309
CONTENTFORMAT_END
171
     1
301
MARGIN
  1
CELLMARGIN_BEGIN
 40
0.06
 40
0.06
 40
0.06
 40
0.06
 40
0.06
 40
0.06
309
CELLMARGIN_END
 94
        6
 95
        1
302
GRIDFORMAT
  1
GRIDFORMAT_BEGIN
 90
        0
 91
        1
 62
     0
 92
       -2
340
1CA9
 93
        0
 40
0.045
309
GRIDFORMAT_END
 95
        2
302
GRIDFORMAT
  1
GRIDFORMAT_BEGIN
 90
        0
 91
        1
 62
     0
 92
       -2
340
1CA9
 93
        0
 40
0.045
309
GRIDFORMAT_END
 95
        4
302
GRIDFORMAT
  1
GRIDFORMAT_BEGIN
 90
        0
 91
        1
 62
     0
 92
       -2
340
1CA9
 93
        0
 40
0.045
309
GRIDFORMAT_END
 95
        8
302
GRIDFORMAT
  1
GRIDFORMAT_BEGIN
 90
        0
 91
        1
 62
     0
 92
       -2
340
1CA9
 93
        0
 40
0.045
309
GRIDFORMAT_END
 95
       16
302
GRIDFORMAT
  1
GRIDFORMAT_BEGIN
 90
        0
 91
        1
 62
     0
 92
       -2
340
1CA9
 93
        0
 40
0.045
309
GRIDFORMAT_END
 95
       32
302
GRIDFORMAT
  1
GRIDFORMAT_BEGIN
 90
        0
 91
        1
 62
     0
 92
       -2
340
1CA9
 93
        0
 40
0.045
309
GRIDFORMAT_END
309
TABLEFORMAT_END
  1
CELLSTYLE_BEGIN
 90
        3
 91
        2
300
_DATA
309
CELLSTYLE_END
  0
ENDSEC
  0
EOF
