  0
SECTION
  2
HEADER
  9
$ACADVER
  1
AC1027
  9
$ACADMAINTVER
 70
   105
  9
$DWGCODEPAGE
  3
ANSI_1252
  9
$LASTSAVEDBY
  1
Usuario
  9
$REQUIREDVERSIONS
160
                 0
  9
$INSBASE
 10
0.0
 20
0.0
 30
0.0
  9
$EXTMIN
 10
67.15842996187939
 20
-108.2120792116921
 30
0.0
  9
$EXTMAX
 10
317.1584299618794
 20
223.7879207883079
 30
0.0
  9
$LIMMIN
 10
0.0
 20
0.0
  9
$LIMMAX
 10
12.0
 20
9.0
  9
$ORTHOMODE
 70
     0
  9
$REGENMODE
 70
     1
  9
$FILLMODE
 70
     1
  9
$QTEXTMODE
 70
     0
  9
$MIRRTEXT
 70
     0
  9
$LTSCALE
 40
1.0
  9
$ATTMODE
 70
     1
  9
$TEXTSIZE
 40
0.2
  9
$TRACEWID
 40
0.05
  9
$TEXTSTYLE
  7
Standard
  9
$CLAYER
  8
0
  9
$CELTYPE
  6
ByLayer
  9
$CECOLOR
 62
   256
  9
$CELTSCALE
 40
1.0
  9
$DISPSILH
 70
     0
  9
$DIMSCALE
 40
1.0
  9
$DIMASZ
 40
2.5
  9
$DIMEXO
 40
0.625
  9
$DIMDLI
 40
5.0
  9
$DIMRND
 40
0.0
  9
$DIMDLE
 40
0.0
  9
$DIMEXE
 40
1.25
  9
$DIMTP
 40
0.0
  9
$DIMTM
 40
0.0
  9
$DIMTXT
 40
2.5
  9
$DIMCEN
 40
0.09
  9
$DIMTSZ
 40
0.0
  9
$DIMTOL
 70
     0
  9
$DIMLIM
 70
     0
  9
$DIMTIH
 70
     0
  9
$DIMTOH
 70
     1
  9
$DIMSE1
 70
     0
  9
$DIMSE2
 70
     0
  9
$DIMTAD
 70
     1
  9
$DIMZIN
 70
     8
  9
$DIMBLK
  1

  9
$DIMASO
 70
     1
  9
$DIMSHO
 70
     1
  9
$DIMPOST
  1

  9
$DIMAPOST
  1

  9
$DIMALT
 70
     0
  9
$DIMALTD
 70
     2
  9
$DIMALTF
 40
25.4
  9
$DIMLFAC
 40
1.0
  9
$DIMTOFL
 70
     0
  9
$DIMTVP
 40
0.0
  9
$DIMTIX
 70
     0
  9
$DIMSOXD
 70
     0
  9
$DIMSAH
 70
     0
  9
$DIMBLK1
  1

  9
$DIMBLK2
  1

  9
$DIMSTYLE
  2
Standard
  9
$DIMCLRD
 70
     0
  9
$DIMCLRE
 70
     0
  9
$DIMCLRT
 70
     0
  9
$DIMTFAC
 40
1.0
  9
$DIMGAP
 40
0.625
  9
$DIMJUST
 70
     0
  9
$DIMSD1
 70
     0
  9
$DIMSD2
 70
     0
  9
$DIMTOLJ
 70
     1
  9
$DIMTZIN
 70
     0
  9
$DIMALTZ
 70
     0
  9
$DIMALTTZ
 70
     0
  9
$DIMUPT
 70
     0
  9
$DIMDEC
 70
     4
  9
$DIMTDEC
 70
     4
  9
$DIMALTU
 70
     2
  9
$DIMALTTD
 70
     2
  9
$DIMTXSTY
  7
Standard
  9
$DIMAUNIT
 70
     0
  9
$DIMADEC
 70
     0
  9
$DIMALTRND
 40
0.0
  9
$DIMAZIN
 70
     2
  9
$DIMDSEP
 70
    46
  9
$DIMATFIT
 70
     0
  9
$DIMFRAC
 70
     0
  9
$DIMLDRBLK
  1

  9
$DIMLUNIT
 70
     2
  9
$DIMLWD
 70
    -2
  9
$DIMLWE
 70
    -2
  9
$DIMTMOVE
 70
     0
  9
$DIMFXL
 40
1.0
  9
$DIMFXLON
 70
     0
  9
$DIMJOGANG
 40
0.7853981633974483
  9
$DIMTFILL
 70
     0
  9
$DIMTFILLCLR
 70
     0
  9
$DIMARCSYM
 70
     0
  9
$DIMLTYPE
  6

  9
$DIMLTEX1
  6

  9
$DIMLTEX2
  6

  9
$DIMTXTDIRECTION
 70
     0
  9
$LUNITS
 70
     2
  9
$LUPREC
 70
     4
  9
$SKETCHINC
 40
0.1
  9
$FILLETRAD
 40
0.0
  9
$AUNITS
 70
     0
  9
$AUPREC
 70
     0
  9
$MENU
  1
.
  9
$ELEVATION
 40
0.0
  9
$PELEVATION
 40
0.0
  9
$THICKNESS
 40
0.0
  9
$LIMCHECK
 70
     0
  9
$CHAMFERA
 40
0.0
  9
$CHAMFERB
 40
0.0
  9
$CHAMFERC
 40
0.0
  9
$CHAMFERD
 40
0.0
  9
$SKPOLY
 70
     0
  9
$TDCREATE
 40
2460714.694985822
  9
$TDUCREATE
 40
2460714.653319155
  9
$TDUPDATE
 40
2460714.694986377
  9
$TDUUPDATE
 40
2460714.653319711
  9
$TDINDWG
 40
0.0000000116
  9
$TDUSRTIMER
 40
0.0000000116
  9
$USRTIMER
 70
     1
  9
$ANGBASE
 50
0.0
  9
$ANGDIR
 70
     0
  9
$PDMODE
 70
     0
  9
$PDSIZE
 40
0.0
  9
$PLINEWID
 40
0.0
  9
$SPLFRAME
 70
     0
  9
$SPLINETYPE
 70
     6
  9
$SPLINESEGS
 70
     8
  9
$HANDSEED
  5
2180
  9
$SURFTAB1
 70
     6
  9
$SURFTAB2
 70
     6
  9
$SURFTYPE
 70
     6
  9
$SURFU
 70
     6
  9
$SURFV
 70
     6
  9
$UCSBASE
  2

  9
$UCSNAME
  2

  9
$UCSORG
 10
0.0
 20
0.0
 30
0.0
  9
$UCSXDIR
 10
1.0
 20
0.0
 30
0.0
  9
$UCSYDIR
 10
0.0
 20
1.0
 30
0.0
  9
$UCSORTHOREF
  2

  9
$UCSORTHOVIEW
 70
     0
  9
$UCSORGTOP
 10
0.0
 20
0.0
 30
0.0
  9
$UCSORGBOTTOM
 10
0.0
 20
0.0
 30
0.0
  9
$UCSORGLEFT
 10
0.0
 20
0.0
 30
0.0
  9
$UCSORGRIGHT
 10
0.0
 20
0.0
 30
0.0
  9
$UCSORGFRONT
 10
0.0
 20
0.0
 30
0.0
  9
$UCSORGBACK
 10
0.0
 20
0.0
 30
0.0
  9
$PUCSBASE
  2

  9
$PUCSNAME
  2

  9
$PUCSORG
 10
0.0
 20
0.0
 30
0.0
  9
$PUCSXDIR
 10
1.0
 20
0.0
 30
0.0
  9
$PUCSYDIR
 10
0.0
 20
1.0
 30
0.0
  9
$PUCSORTHOREF
  2

  9
$PUCSORTHOVIEW
 70
     0
  9
$PUCSORGTOP
 10
0.0
 20
0.0
 30
0.0
  9
$PUCSORGBOTTOM
 10
0.0
 20
0.0
 30
0.0
  9
$PUCSORGLEFT
 10
0.0
 20
0.0
 30
0.0
  9
$PUCSORGRIGHT
 10
0.0
 20
0.0
 30
0.0
  9
$PUCSORGFRONT
 10
0.0
 20
0.0
 30
0.0
  9
$PUCSORGBACK
 10
0.0
 20
0.0
 30
0.0
  9
$USERI1
 70
     0
  9
$USERI2
 70
     0
  9
$USERI3
 70
     0
  9
$USERI4
 70
     0
  9
$USERI5
 70
     0
  9
$USERR1
 40
0.0
  9
$USERR2
 40
0.0
  9
$USERR3
 40
0.0
  9
$USERR4
 40
0.0
  9
$USERR5
 40
0.0
  9
$WORLDVIEW
 70
     1
  9
$SHADEDGE
 70
     3
  9
$SHADEDIF
 70
    70
  9
$TILEMODE
 70
     1
  9
$MAXACTVP
 70
    64
  9
$PINSBASE
 10
0.0
 20
0.0
 30
0.0
  9
$PLIMCHECK
 70
     0
  9
$PEXTMIN
 10
0.0
 20
0.0
 30
0.0
  9
$PEXTMAX
 10
0.0
 20
0.0
 30
0.0
  9
$PLIMMIN
 10
-20.0
 20
-7.5
  9
$PLIMMAX
 10
277.0
 20
202.5
  9
$UNITMODE
 70
     0
  9
$VISRETAIN
 70
     1
  9
$PLINEGEN
 70
     0
  9
$PSLTSCALE
 70
     1
  9
$TREEDEPTH
 70
  3020
  9
$CMLSTYLE
  2
Standard
  9
$CMLJUST
 70
     0
  9
$CMLSCALE
 40
1.0
  9
$PROXYGRAPHICS
 70
     1
  9
$MEASUREMENT
 70
     1
  9
$CELWEIGHT
370
    -1
  9
$ENDCAPS
280
     0
  9
$JOINSTYLE
280
     0
  9
$LWDISPLAY
290
     0
  9
$INSUNITS
 70
     4
  9
$HYPERLINKBASE
  1

  9
$STYLESHEET
  1

  9
$XEDIT
290
     1
  9
$CEPSNTYPE
380
     0
  9
$PSTYLEMODE
290
     1
  9
$FINGERPRINTGUID
  2
{b6a5db0b-532b-424c-b238-f05d8d12ca6f}
  9
$VERSIONGUID
  2
{FAEB1C32-E019-11D5-929B-00C0DF256EC4}
  9
$EXTNAMES
290
     1
  9
$PSVPSCALE
 40
0.0
  9
$OLESTARTUP
290
     0
  9
$SORTENTS
280
   127
  9
$INDEXCTL
280
     0
  9
$HIDETEXT
280
     1
  9
$XCLIPFRAME
280
     2
  9
$HALOGAP
280
     0
  9
$OBSCOLOR
 70
   257
  9
$OBSLTYPE
280
     0
  9
$INTERSECTIONDISPLAY
280
     0
  9
$INTERSECTIONCOLOR
 70
   257
  9
$DIMASSOC
280
     2
  9
$PROJECTNAME
  1

  9
$CAMERADISPLAY
290
     0
  9
$LENSLENGTH
 40
50.0
  9
$CAMERAHEIGHT
 40
0.0
  9
$STEPSPERSEC
 40
2.0
  9
$STEPSIZE
 40
6.0
  9
$3DDWFPREC
 40
2.0
  9
$PSOLWIDTH
 40
0.25
  9
$PSOLHEIGHT
 40
4.0
  9
$LOFTANG1
 40
1.570796326794897
  9
$LOFTANG2
 40
1.570796326794897
  9
$LOFTMAG1
 40
0.0
  9
$LOFTMAG2
 40
0.0
  9
$LOFTPARAM
 70
     7
  9
$LOFTNORMALS
280
     1
  9
$LATITUDE
 40
37.795
  9
$LONGITUDE
 40
-122.394
  9
$NORTHDIRECTION
 40
0.0
  9
$TIMEZONE
 70
 -8000
  9
$LIGHTGLYPHDISPLAY
280
     1
  9
$TILEMODELIGHTSYNCH
280
     1
  9
$CMATERIAL
347
20E6
  9
$SOLIDHIST
280
     0
  9
$SHOWHIST
280
     1
  9
$DWFFRAME
280
     2
  9
$DGNFRAME
280
     2
  9
$REALWORLDSCALE
290
     1
  9
$INTERFERECOLOR
 62
   256
  9
$CSHADOW
280
     0
  9
$SHADOWPLANELOCATION
 40
0.0
  0
ENDSEC
  0
SECTION
  2
CLASSES
  0
CLASS
  1
ACDBDICTIONARYWDFLT
  2
AcDbDictionaryWithDefault
  3
ObjectDBX Classes
 90
        0
 91
        3
280
     0
281
     0
  0
CLASS
  1
VISUALSTYLE
  2
AcDbVisualStyle
  3
ObjectDBX Classes
 90
     4095
 91
        3
280
     0
281
     0
  0
CLASS
  1
MATERIAL
  2
AcDbMaterial
  3
ObjectDBX Classes
 90
     1153
 91
        3
280
     0
281
     0
  0
CLASS
  1
SCALE
  2
AcDbScale
  3
ObjectDBX Classes
 90
     1153
 91
        3
280
     0
281
     0
  0
CLASS
  1
TABLESTYLE
  2
AcDbTableStyle
  3
ObjectDBX Classes
 90
     4095
 91
        3
280
     0
281
     0
  0
CLASS
  1
MLEADERSTYLE
  2
AcDbMLeaderStyle
  3
ACDB_MLEADERSTYLE_CLASS
 90
     4095
 91
        3
280
     0
281
     0
  0
CLASS
  1
SUN
  2
AcDbSun
  3
SCENEOE
 90
     1153
 91
        3
280
     0
281
     0
  0
CLASS
  1
RASTERVARIABLES
  2
AcDbRasterVariables
  3
ISM
 90
        0
 91
        3
280
     0
281
     0
  0
CLASS
  1
IMAGEDEF
  2
AcDbRasterImageDef
  3
ISM
 90
        0
 91
        3
280
     0
281
     0
  0
CLASS
  1
IMAGE
  2
AcDbRasterImage
  3
ISM
 90
      127
 91
        4
280
     0
281
     1
  0
CLASS
  1
IMAGEDEF_REACTOR
  2
AcDbRasterImageDefReactor
  3
ISM
 90
        1
 91
        3
280
     0
281
     0
  0
CLASS
  1
DICTIONARYVAR
  2
AcDbDictionaryVar
  3
ObjectDBX Classes
 90
        0
 91
        3
280
     0
281
     0
  0
CLASS
  1
CELLSTYLEMAP
  2
AcDbCellStyleMap
  3
ObjectDBX Classes
 90
     1152
 91
        3
280
     0
281
     0
  0
ENDSEC
  0
SECTION
  2
TABLES
  0
TABLE
  2
VPORT
  5
20AB
330
0
100
AcDbSymbolTable
 70
     1
  0
VPORT
  5
20CB
330
20AB
100
AcDbSymbolTableRecord
100
AcDbViewportTableRecord
  2
*Active
 70
     0
 10
0.0
 20
0.0
 11
1.0
 21
1.0
 12
192.1584299618794
 22
57.78792078830796
 13
0.0
 23
0.0
 14
0.5
 24
0.5
 15
0.5
 25
0.5
 16
0.0
 26
0.0
 36
1.0
 17
0.0
 27
0.0
 37
0.0
 40
356.3864942528735
 41
2.016085790884719
 42
50.0
 43
0.0
 44
0.0
 50
0.0
 51
0.0
 71
     0
 72
   100
 73
     1
 74
     3
 75
     0
 76
     0
 77
     0
 78
     0
281
     0
 65
     1
110
0.0
120
0.0
130
0.0
111
1.0
121
0.0
131
0.0
112
0.0
122
1.0
132
0.0
 79
     0
146
0.0
348
20D1
 60
     3
 61
     5
292
     1
282
     1
141
0.0
142
0.0
 63
   250
361
20FF
  0
ENDTAB
  0
TABLE
  2
LTYPE
  5
20A8
330
0
100
AcDbSymbolTable
 70
    48
  0
LTYPE
  5
20B6
330
20A8
100
AcDbSymbolTableRecord
100
AcDbLinetypeTableRecord
  2
ByBlock
 70
     0
  3

 72
    65
 73
     0
 40
0.0
  0
LTYPE
  5
20B7
330
20A8
100
AcDbSymbolTableRecord
100
AcDbLinetypeTableRecord
  2
ByLayer
 70
     0
  3

 72
    65
 73
     0
 40
0.0
  0
LTYPE
  5
20B8
330
20A8
100
AcDbSymbolTableRecord
100
AcDbLinetypeTableRecord
  2
Continuous
 70
     0
  3
Solid line
 72
    65
 73
     0
 40
0.0
  0
LTYPE
  5
213A
330
20A8
100
AcDbSymbolTableRecord
100
AcDbLinetypeTableRecord
  2
CENTER
 70
     0
  3
Center ____ _ ____ _ ____ _ ____ _ ____ _ ____
 72
    65
 73
     4
 40
50.8
 49
31.75
 74
     0
 49
-6.35
 74
     0
 49
6.35
 74
     0
 49
-6.35
 74
     0
  0
LTYPE
  5
213B
330
20A8
100
AcDbSymbolTableRecord
100
AcDbLinetypeTableRecord
  2
BORDERX2
 70
     0
  3
Border (2x) ____  ____  .  ____  ____  .  ___
 72
    65
 73
     6
 40
88.89999999999999
 49
25.4
 74
     0
 49
-12.7
 74
     0
 49
25.4
 74
     0
 49
-12.7
 74
     0
 49
0.0
 74
     0
 49
-12.7
 74
     0
  0
LTYPE
  5
213C
330
20A8
100
AcDbSymbolTableRecord
100
AcDbLinetypeTableRecord
  2
CENTERX2
 70
     0
  3
Center (2x) ________  __  ________  __  _____
 72
    65
 73
     4
 40
101.6
 49
63.5
 74
     0
 49
-12.7
 74
     0
 49
12.7
 74
     0
 49
-12.7
 74
     0
  0
LTYPE
  5
213D
330
20A8
100
AcDbSymbolTableRecord
100
AcDbLinetypeTableRecord
  2
CENTER2
 70
     0
  3
Center (.5x) ___ _ ___ _ ___ _ ___ _ ___ _ ___
 72
    65
 73
     4
 40
28.575
 49
19.05
 74
     0
 49
-3.175
 74
     0
 49
3.175
 74
     0
 49
-3.175
 74
     0
  0
LTYPE
  5
213E
330
20A8
100
AcDbSymbolTableRecord
100
AcDbLinetypeTableRecord
  2
DASHDOT2
 70
     0
  3
Dash dot (.5x) _._._._._._._._._._._._._._._.
 72
    65
 73
     4
 40
12.7
 49
6.35
 74
     0
 49
-3.175
 74
     0
 49
0.0
 74
     0
 49
-3.175
 74
     0
  0
LTYPE
  5
213F
330
20A8
100
AcDbSymbolTableRecord
100
AcDbLinetypeTableRecord
  2
DASHDOT
 70
     0
  3
Dash dot __ . __ . __ . __ . __ . __ . __ . __
 72
    65
 73
     4
 40
25.4
 49
12.7
 74
     0
 49
-6.35
 74
     0
 49
0.0
 74
     0
 49
-6.35
 74
     0
  0
LTYPE
  5
2140
330
20A8
100
AcDbSymbolTableRecord
100
AcDbLinetypeTableRecord
  2
ACAD_ISO10W100
 70
     0
  3
ISO dash dot __ . __ . __ . __ . __ . __ . __ . 
 72
    65
 73
     4
 40
18.0
 49
12.0
 74
     0
 49
-3.0
 74
     0
 49
0.0
 74
     0
 49
-3.0
 74
     0
  0
LTYPE
  5
2141
330
20A8
100
AcDbSymbolTableRecord
100
AcDbLinetypeTableRecord
  2
ACAD_ISO09W100
 70
     0
  3
ISO long-dash double-short-dash ____ __ __ ____
 72
    65
 73
     6
 40
45.0
 49
24.0
 74
     0
 49
-3.0
 74
     0
 49
6.0
 74
     0
 49
-3.0
 74
     0
 49
6.0
 74
     0
 49
-3.0
 74
     0
  0
LTYPE
  5
2142
330
20A8
100
AcDbSymbolTableRecord
100
AcDbLinetypeTableRecord
  2
ACAD_ISO12W100
 70
     0
  3
ISO dash double-dot __ . . __ . . __ . . __ . . 
 72
    65
 73
     6
 40
21.0
 49
12.0
 74
     0
 49
-3.0
 74
     0
 49
0.0
 74
     0
 49
-3.0
 74
     0
 49
0.0
 74
     0
 49
-3.0
 74
     0
  0
LTYPE
  5
2143
330
20A8
100
AcDbSymbolTableRecord
100
AcDbLinetypeTableRecord
  2
ACAD_ISO11W100
 70
     0
  3
ISO double-dash dot __ __ . __ __ . __ __ . __ _
 72
    65
 73
     6
 40
33.0
 49
12.0
 74
     0
 49
-3.0
 74
     0
 49
12.0
 74
     0
 49
-3.0
 74
     0
 49
0.0
 74
     0
 49
-3.0
 74
     0
  0
LTYPE
  5
2144
330
20A8
100
AcDbSymbolTableRecord
100
AcDbLinetypeTableRecord
  2
ACAD_ISO14W100
 70
     0
  3
ISO dash triple-dot __ . . . __ . . . __ . . . _
 72
    65
 73
     8
 40
24.0
 49
12.0
 74
     0
 49
-3.0
 74
     0
 49
0.0
 74
     0
 49
-3.0
 74
     0
 49
0.0
 74
     0
 49
-3.0
 74
     0
 49
0.0
 74
     0
 49
-3.0
 74
     0
  0
LTYPE
  5
2145
330
20A8
100
AcDbSymbolTableRecord
100
AcDbLinetypeTableRecord
  2
ACAD_ISO13W100
 70
     0
  3
ISO double-dash double-dot __ __ . . __ __ . . _
 72
    65
 73
     8
 40
36.0
 49
12.0
 74
     0
 49
-3.0
 74
     0
 49
12.0
 74
     0
 49
-3.0
 74
     0
 49
0.0
 74
     0
 49
-3.0
 74
     0
 49
0.0
 74
     0
 49
-3.0
 74
     0
  0
LTYPE
  5
2147
330
20A8
100
AcDbSymbolTableRecord
100
AcDbLinetypeTableRecord
  2
BATTING
 70
     0
  3
Batting SSSSSSSSSSSSSSSSSSSSSSSSSSSSSSSSSSSSSSSSSSSSSSS
 72
    65
 73
     4
 40
10.16254
 49
0.00254
 74
     0
 49
-2.54
 74
     2
 75
     0
340
2146
 46
2.54
 50
0.0
 44
-2.54
 45
0.0
  9
BAT
 49
-5.08
 74
     2
 75
     0
340
2146
 46
2.54
 50
180.0
 44
2.54
 45
0.0
  9
BAT
 49
-2.54
 74
     0
  0
LTYPE
  5
2148
330
20A8
100
AcDbSymbolTableRecord
100
AcDbLinetypeTableRecord
  2
ACAD_ISO15W100
 70
     0
  3
ISO double-dash triple-dot __ __ . . . __ __ . .
 72
    65
 73
    10
 40
39.0
 49
12.0
 74
     0
 49
-3.0
 74
     0
 49
12.0
 74
     0
 49
-3.0
 74
     0
 49
0.0
 74
     0
 49
-3.0
 74
     0
 49
0.0
 74
     0
 49
-3.0
 74
     0
 49
0.0
 74
     0
 49
-3.0
 74
     0
  0
LTYPE
  5
2149
330
20A8
100
AcDbSymbolTableRecord
100
AcDbLinetypeTableRecord
  2
ACAD_ISO02W100
 70
     0
  3
ISO dash __ __ __ __ __ __ __ __ __ __ __ __ __
 72
    65
 73
     2
 40
15.0
 49
12.0
 74
     0
 49
-3.0
 74
     0
  0
LTYPE
  5
214A
330
20A8
100
AcDbSymbolTableRecord
100
AcDbLinetypeTableRecord
  2
ACAD_ISO04W100
 70
     0
  3
ISO long-dash dot ____ . ____ . ____ . ____ . _
 72
    65
 73
     4
 40
30.0
 49
24.0
 74
     0
 49
-3.0
 74
     0
 49
0.0
 74
     0
 49
-3.0
 74
     0
  0
LTYPE
  5
214B
330
20A8
100
AcDbSymbolTableRecord
100
AcDbLinetypeTableRecord
  2
ACAD_ISO03W100
 70
     0
  3
ISO dash space __    __    __    __    __    __
 72
    65
 73
     2
 40
30.0
 49
12.0
 74
     0
 49
-18.0
 74
     0
  0
LTYPE
  5
214C
330
20A8
100
AcDbSymbolTableRecord
100
AcDbLinetypeTableRecord
  2
ACAD_ISO06W100
 70
     0
  3
ISO long-dash triple-dot ____ ... ____ ... ____
 72
    65
 73
     8
 40
36.0
 49
24.0
 74
     0
 49
-3.0
 74
     0
 49
0.0
 74
     0
 49
-3.0
 74
     0
 49
0.0
 74
     0
 49
-3.0
 74
     0
 49
0.0
 74
     0
 49
-3.0
 74
     0
  0
LTYPE
  5
214D
330
20A8
100
AcDbSymbolTableRecord
100
AcDbLinetypeTableRecord
  2
ACAD_ISO05W100
 70
     0
  3
ISO long-dash double-dot ____ .. ____ .. ____ . 
 72
    65
 73
     6
 40
33.0
 49
24.0
 74
     0
 49
-3.0
 74
     0
 49
0.0
 74
     0
 49
-3.0
 74
     0
 49
0.0
 74
     0
 49
-3.0
 74
     0
  0
LTYPE
  5
214E
330
20A8
100
AcDbSymbolTableRecord
100
AcDbLinetypeTableRecord
  2
ACAD_ISO08W100
 70
     0
  3
ISO long-dash short-dash ____ __ ____ __ ____ _
 72
    65
 73
     4
 40
36.0
 49
24.0
 74
     0
 49
-3.0
 74
     0
 49
6.0
 74
     0
 49
-3.0
 74
     0
  0
LTYPE
  5
214F
330
20A8
100
AcDbSymbolTableRecord
100
AcDbLinetypeTableRecord
  2
ACAD_ISO07W100
 70
     0
  3
ISO dot . . . . . . . . . . . . . . . . . . . . 
 72
    65
 73
     2
 40
3.0
 49
0.0
 74
     0
 49
-3.0
 74
     0
  0
LTYPE
  5
2150
330
20A8
100
AcDbSymbolTableRecord
100
AcDbLinetypeTableRecord
  2
HIDDENX2
 70
     0
  3
Hidden (2x) ____ ____ ____ ____ ____ ____ ____ 
 72
    65
 73
     2
 40
19.05
 49
12.7
 74
     0
 49
-6.35
 74
     0
  0
LTYPE
  5
2151
330
20A8
100
AcDbSymbolTableRecord
100
AcDbLinetypeTableRecord
  2
HIDDEN2
 70
     0
  3
Hidden (.5x) _ _ _ _ _ _ _ _ _ _ _ _ _ _ _ _ _ 
 72
    65
 73
     2
 40
4.762499999999999
 49
3.175
 74
     0
 49
-1.5875
 74
     0
  0
LTYPE
  5
2152
330
20A8
100
AcDbSymbolTableRecord
100
AcDbLinetypeTableRecord
  2
PHANTOM
 70
     0
  3
Phantom ______  __  __  ______  __  __  ______ 
 72
    65
 73
     6
 40
63.50000000000001
 49
31.75
 74
     0
 49
-6.35
 74
     0
 49
6.35
 74
     0
 49
-6.35
 74
     0
 49
6.35
 74
     0
 49
-6.35
 74
     0
  0
LTYPE
  5
2154
330
20A8
100
AcDbSymbolTableRecord
100
AcDbLinetypeTableRecord
  2
HOT_WATER_SUPPLY
 70
     0
  3
Hot water supply ---- HW ---- HW ---- HW ----
 72
    65
 73
     3
 40
22.86
 49
12.7
 74
     0
 49
-5.08
 74
     2
 75
     0
340
2153
 46
2.54
 50
0.0
 44
-2.54
 45
-1.27
  9
HW
 49
-5.08
 74
     0
  0
LTYPE
  5
2155
330
20A8
100
AcDbSymbolTableRecord
100
AcDbLinetypeTableRecord
  2
PHANTOMX2
 70
     0
  3
Phantom (2x) ____________    ____    ____   _
 72
    65
 73
     6
 40
127.0
 49
63.5
 74
     0
 49
-12.7
 74
     0
 49
12.7
 74
     0
 49
-12.7
 74
     0
 49
12.7
 74
     0
 49
-12.7
 74
     0
  0
LTYPE
  5
2156
330
20A8
100
AcDbSymbolTableRecord
100
AcDbLinetypeTableRecord
  2
PHANTOM2
 70
     0
  3
Phantom (.5x) ___ _ _ ___ _ _ ___ _ _ ___ _ _
 72
    65
 73
     6
 40
31.75
 49
15.875
 74
     0
 49
-3.175
 74
     0
 49
3.175
 74
     0
 49
-3.175
 74
     0
 49
3.175
 74
     0
 49
-3.175
 74
     0
  0
LTYPE
  5
2157
330
20A8
100
AcDbSymbolTableRecord
100
AcDbLinetypeTableRecord
  2
ZIGZAG
 70
     0
  3
Zig zag /\/\/\/\/\/\/\/\/\/\/\/\/\/\/\/\/\/\/\/\/\/\/\/
 72
    65
 73
     4
 40
20.32254
 49
0.00254
 74
     0
 49
-5.08
 74
     2
 75
     0
340
2146
 46
5.08
 50
0.0
 44
-5.08
 45
0.0
  9
ZIG
 49
-10.16
 74
     2
 75
     0
340
2146
 46
5.08
 50
180.0
 44
5.08
 45
0.0
  9
ZIG
 49
-5.08
 74
     0
  0
LTYPE
  5
2158
330
20A8
100
AcDbSymbolTableRecord
100
AcDbLinetypeTableRecord
  2
TRACKS
 70
     0
  3
Tracks -|-|-|-|-|-|-|-|-|-|-|-|-|-|-|-|-|-|-|-|-|-|-|-|-
 72
    65
 73
     2
 40
7.62
 49
3.81
 74
     2
 75
     0
340
2146
 46
6.35
 50
0.0
 44
0.0
 45
0.0
  9
TRACK1
 49
3.81
 74
     0
  0
LTYPE
  5
2159
330
20A8
100
AcDbSymbolTableRecord
100
AcDbLinetypeTableRecord
  2
DOTX2
 70
     0
  3
Dot (2x) .  .  .  .  .  .  .  .  .  .  .  .  .  .
 72
    65
 73
     2
 40
12.7
 49
0.0
 74
     0
 49
-12.7
 74
     0
  0
LTYPE
  5
215A
330
20A8
100
AcDbSymbolTableRecord
100
AcDbLinetypeTableRecord
  2
DOT2
 70
     0
  3
Dot (.5x) ........................................
 72
    65
 73
     2
 40
3.175
 49
0.0
 74
     0
 49
-3.175
 74
     0
  0
LTYPE
  5
215C
330
20A8
100
AcDbSymbolTableRecord
100
AcDbLinetypeTableRecord
  2
DRAINAGE2
 70
     0
  3
Drainage reversed----<----<----<----
 72
    65
 73
     2
 40
10.16
 49
5.08
 74
     2
 75
     0
340
215B
 46
2.54
 50
0.0
 44
0.0
 45
0.0
  9
RIGHT_ARROW
 49
5.08
 74
     0
  0
LTYPE
  5
215D
330
20A8
100
AcDbSymbolTableRecord
100
AcDbLinetypeTableRecord
  2
DRAINAGE
 70
     0
  3
Drainage ---->---->---->----
 72
    65
 73
     2
 40
10.16
 49
5.08
 74
     2
 75
     0
340
215B
 46
2.54
 50
180.0
 44
0.0
 45
0.0
  9
RIGHT_ARROW
 49
5.08
 74
     0
  0
LTYPE
  5
215E
330
20A8
100
AcDbSymbolTableRecord
100
AcDbLinetypeTableRecord
  2
FENCELINE2
 70
     0
  3
Fenceline square ----[]-----[]----[]-----[]----[]---
 72
    65
 73
     4
 40
36.83
 49
6.35
 74
     0
 49
-2.54
 74
     2
 75
     0
340
2146
 46
2.54
 50
0.0
 44
-2.54
 45
0.0
  9
BOX
 49
-2.54
 74
     0
 49
25.4
 74
     0
  0
LTYPE
  5
215F
330
20A8
100
AcDbSymbolTableRecord
100
AcDbLinetypeTableRecord
  2
FENCELINE1
 70
     0
  3
Fenceline circle ----0-----0----0-----0----0-----0--
 72
    65
 73
     4
 40
36.83
 49
6.35
 74
     0
 49
-2.54
 74
     2
 75
     0
340
2146
 46
2.54
 50
0.0
 44
-2.54
 45
0.0
  9
CIRC1
 49
-2.54
 74
     0
 49
25.4
 74
     0
  0
LTYPE
  5
2160
330
20A8
100
AcDbSymbolTableRecord
100
AcDbLinetypeTableRecord
  2
HIDDEN
 70
     0
  3
Hidden __ __ __ __ __ __ __ __ __ __ __ __ __ __
 72
    65
 73
     2
 40
9.524999999999999
 49
6.35
 74
     0
 49
-3.175
 74
     0
  0
LTYPE
  5
2161
330
20A8
100
AcDbSymbolTableRecord
100
AcDbLinetypeTableRecord
  2
GAS_LINE
 70
     0
  3
Gas line ----GAS----GAS----GAS----GAS----GAS----GAS--
 72
    65
 73
     3
 40
24.13
 49
12.7
 74
     0
 49
-5.08
 74
     2
 75
     0
340
2153
 46
2.54
 50
0.0
 44
-2.54
 45
-1.27
  9
GAS
 49
-6.35
 74
     0
  0
LTYPE
  5
2162
330
20A8
100
AcDbSymbolTableRecord
100
AcDbLinetypeTableRecord
  2
DASHED
 70
     0
  3
Dashed __ __ __ __ __ __ __ __ __ __ __ __ __ _
 72
    65
 73
     2
 40
19.05
 49
12.7
 74
     0
 49
-6.35
 74
     0
  0
LTYPE
  5
2163
330
20A8
100
AcDbSymbolTableRecord
100
AcDbLinetypeTableRecord
  2
DASHDOTX2
 70
     0
  3
Dash dot (2x) ____  .  ____  .  ____  .  ___
 72
    65
 73
     4
 40
50.8
 49
25.4
 74
     0
 49
-12.7
 74
     0
 49
0.0
 74
     0
 49
-12.7
 74
     0
  0
LTYPE
  5
2164
330
20A8
100
AcDbSymbolTableRecord
100
AcDbLinetypeTableRecord
  2
DASHEDX2
 70
     0
  3
Dashed (2x) ____  ____  ____  ____  ____  ___
 72
    65
 73
     2
 40
38.09999999999999
 49
25.4
 74
     0
 49
-12.7
 74
     0
  0
LTYPE
  5
2165
330
20A8
100
AcDbSymbolTableRecord
100
AcDbLinetypeTableRecord
  2
DASHED2
 70
     0
  3
Dashed (.5x) _ _ _ _ _ _ _ _ _ _ _ _ _ _ _ _ _ 
 72
    65
 73
     2
 40
9.524999999999999
 49
6.35
 74
     0
 49
-3.175
 74
     0
  0
LTYPE
  5
2166
330
20A8
100
AcDbSymbolTableRecord
100
AcDbLinetypeTableRecord
  2
DIVIDE2
 70
     0
  3
Divide (.5x) __..__..__..__..__..__..__..__.._
 72
    65
 73
     6
 40
15.875
 49
6.35
 74
     0
 49
-3.175
 74
     0
 49
0.0
 74
     0
 49
-3.175
 74
     0
 49
0.0
 74
     0
 49
-3.175
 74
     0
  0
LTYPE
  5
2167
330
20A8
100
AcDbSymbolTableRecord
100
AcDbLinetypeTableRecord
  2
DIVIDE
 70
     0
  3
Divide ____ . . ____ . . ____ . . ____ . . ____
 72
    65
 73
     6
 40
31.75
 49
12.7
 74
     0
 49
-6.35
 74
     0
 49
0.0
 74
     0
 49
-6.35
 74
     0
 49
0.0
 74
     0
 49
-6.35
 74
     0
  0
LTYPE
  5
2168
330
20A8
100
AcDbSymbolTableRecord
100
AcDbLinetypeTableRecord
  2
DOT
 70
     0
  3
Dot . . . . . . . . . . . . . . . . . . . . . . . .
 72
    65
 73
     2
 40
6.35
 49
0.0
 74
     0
 49
-6.35
 74
     0
  0
LTYPE
  5
2169
330
20A8
100
AcDbSymbolTableRecord
100
AcDbLinetypeTableRecord
  2
DIVIDEX2
 70
     0
  3
Divide (2x) ________  .  .  ________  .  .  _
 72
    65
 73
     6
 40
63.5
 49
25.4
 74
     0
 49
-12.7
 74
     0
 49
0.0
 74
     0
 49
-12.7
 74
     0
 49
0.0
 74
     0
 49
-12.7
 74
     0
  0
LTYPE
  5
216A
330
20A8
100
AcDbSymbolTableRecord
100
AcDbLinetypeTableRecord
  2
BORDER2
 70
     0
  3
Border (.5x) __.__.__.__.__.__.__.__.__.__.__.
 72
    65
 73
     6
 40
22.225
 49
6.35
 74
     0
 49
-3.175
 74
     0
 49
6.35
 74
     0
 49
-3.175
 74
     0
 49
0.0
 74
     0
 49
-3.175
 74
     0
  0
LTYPE
  5
216B
330
20A8
100
AcDbSymbolTableRecord
100
AcDbLinetypeTableRecord
  2
BORDER
 70
     0
  3
Border __ __ . __ __ . __ __ . __ __ . __ __ .
 72
    65
 73
     6
 40
44.45
 49
12.7
 74
     0
 49
-6.35
 74
     0
 49
12.7
 74
     0
 49
-6.35
 74
     0
 49
0.0
 74
     0
 49
-6.35
 74
     0
  0
ENDTAB
  0
TABLE
  2
LAYER
  5
20A6
330
0
100
AcDbSymbolTable
 70
     2
  0
LAYER
  5
20B3
330
20A6
100
AcDbSymbolTableRecord
100
AcDbLayerTableRecord
  2
0
 70
     0
 62
     7
  6
Continuous
370
    25
390
20B2
347
20E8
348
0
  0
LAYER
  5
216C
330
20A6
100
AcDbSymbolTableRecord
100
AcDbLayerTableRecord
  2
Defpoints
 70
     0
 62
     7
  6
Continuous
290
     0
370
    -3
390
20B2
347
20E8
348
0
  0
ENDTAB
  0
TABLE
  2
STYLE
  5
20A7
330
0
100
AcDbSymbolTable
 70
     5
  0
STYLE
  5
20B4
330
20A7
100
AcDbSymbolTableRecord
100
AcDbTextStyleTableRecord
  2
Standard
 70
     0
 40
0.0
 41
1.0
 50
0.0
 71
     0
 42
0.2
  3
txt
  4

  0
STYLE
  5
2146
330
20A7
100
AcDbSymbolTableRecord
100
AcDbTextStyleTableRecord
  2
textstyle0
 70
     0
 40
0.0
 41
1.0
 50
0.0
 71
     0
 42
0.2
  3
ltypeshp.shx
  4

  0
STYLE
  5
2153
330
20A7
100
AcDbSymbolTableRecord
100
AcDbTextStyleTableRecord
  2
textstyle1
 70
     0
 40
0.0
 41
1.0
 50
0.0
 71
     0
 42
0.2
  3
STANDARD
  4

  0
STYLE
  5
215B
330
20A7
100
AcDbSymbolTableRecord
100
AcDbTextStyleTableRecord
  2
textstyle2
 70
     0
 40
0.0
 41
1.0
 50
0.0
 71
     0
 42
0.2
  3
qcadshp.shx
  4

  0
STYLE
  5
2174
330
20A7
100
AcDbSymbolTableRecord
100
AcDbTextStyleTableRecord
  2
textstyle3
 70
     0
 40
0.0
 41
1.0
 50
0.0
 71
     0
 42
0.2
  3

  4

1001
ACAD
1000
Standard
1071
        0
  0
ENDTAB
  0
TABLE
  2
VIEW
  5
20A9
330
0
100
AcDbSymbolTable
 70
     0
  0
ENDTAB
  0
TABLE
  2
UCS
  5
20AA
330
0
100
AcDbSymbolTable
 70
     0
  0
ENDTAB
  0
TABLE
  2
APPID
  5
20AC
330
0
100
AcDbSymbolTable
 70
     2
  0
APPID
  5
20B5
330
20AC
100
AcDbSymbolTableRecord
100
AcDbRegAppTableRecord
  2
ACAD
 70
     0
  0
APPID
  5
2100
330
20AC
100
AcDbSymbolTableRecord
100
AcDbRegAppTableRecord
  2
QCAD
 70
     0
  0
ENDTAB
  0
TABLE
  2
DIMSTYLE
  5
20AD
330
0
100
AcDbSymbolTable
 70
     2
100
AcDbDimStyleTable
  0
DIMSTYLE
105
20C9
330
20AD
100
AcDbSymbolTableRecord
100
AcDbDimStyleTableRecord
  2
Standard
 70
     0
178
     0
340
20B4
  0
DIMSTYLE
105
2139
102
{ACAD_REACTORS
330
186D
330
186F
330
1871
330
1872
330
1873
330
1874
330
1875
330
1876
330
1877
330
1878
330
187A
330
187B
330
1A28
330
1D60
330
1D61
102
}
330
20AD
100
AcDbSymbolTableRecord
100
AcDbDimStyleTableRecord
  2
QCADDimStyle
 70
     0
 41
2.5
 42
0.625
 43
5.0
 44
1.25
 73
     0
 77
     1
 78
     8
 79
     2
140
2.5
147
0.625
178
     0
279
     2
340
20B4
  0
ENDTAB
  0
TABLE
  2
BLOCK_RECORD
  5
20A5
330
0
100
AcDbSymbolTable
 70
     0
  0
BLOCK_RECORD
  5
20C1
330
20A5
100
AcDbSymbolTableRecord
100
AcDbBlockTableRecord
  2
*Model_Space
340
20C4
 70
     0
280
     1
281
     0
  0
BLOCK_RECORD
  5
20BD
330
20A5
100
AcDbSymbolTableRecord
100
AcDbBlockTableRecord
  2
*Paper_Space
340
20C0
 70
     0
280
     1
281
     0
  0
ENDTAB
  0
ENDSEC
  0
SECTION
  2
BLOCKS
  0
BLOCK
  5
20C2
330
20C1
100
AcDbEntity
  8
0
100
AcDbBlockBegin
  2
*Model_Space
 70
     0
 10
0.0
 20
0.0
 30
0.0
  3
*Model_Space
  1

  0
ENDBLK
  5
20C3
330
20C1
100
AcDbEntity
  8
0
100
AcDbBlockEnd
  0
BLOCK
  5
20BE
330
20BD
100
AcDbEntity
 67
     1
  8
0
100
AcDbBlockBegin
  2
*Paper_Space
 70
     0
 10
0.0
 20
0.0
 30
0.0
  3
*Paper_Space
  1

  0
ENDBLK
  5
20BF
330
20BD
100
AcDbEntity
 67
     1
  8
0
100
AcDbBlockEnd
  0
ENDSEC
  0
SECTION
  2
ENTITIES
  0
LINE
  5
39
330
20C1
100
AcDbEntity
  8
0
100
AcDbLine
 10
68.15842996187939
 20
-107.2120792116921
 30
0.0
 11
316.1584299618794
 21
-107.2120792116921
 31
0.0
  0
IMAGE
  5
16C5
330
20C1
100
AcDbEntity
  8
0
160
               140
310
8C000000010000008400000006000000050000000000000000000000000000000000000000000000000000000000000000000000000000000000000000000000000000000000000000000000000000000000000000000000000000000000000000000000000000000000000000000000000000000000000000000000000000
310
00000000000000000000000000
100
AcDbRasterImage
 90
        0
 10
0.0
 20
0.0
 30
0.0
 11
1.0
 21
0.0
 31
0.0
 12
0.0
 22
1.0
 32
0.0
 13
0.0
 23
0.0
340
2170
 70
     7
280
     0
281
    50
282
    50
283
     0
360
2171
 71
     1
 91
        2
 14
-0.5
 24
-0.5
 14
-0.5
 24
-0.5
290
     0
  0
IMAGE
  5
1FC9
330
20C1
100
AcDbEntity
  8
0
160
               140
310
8C000000010000008400000006000000050000000000000000000000000000000000000000000000000000000000000000000000000000000000000000000000000000000000000000000000000000000000000000000000000000000000000000000000000000000000000000000000000000000000000000000000000000
310
00000000000000000000000000
100
AcDbRasterImage
 90
        0
 10
0.0
 20
0.0
 30
0.0
 11
1.0
 21
0.0
 31
0.0
 12
0.0
 22
1.0
 32
0.0
 13
0.0
 23
0.0
340
2172
 70
     7
280
     0
281
    50
282
    50
283
     0
360
2173
 71
     1
 91
        2
 14
-0.5
 24
-0.5
 14
-0.5
 24
-0.5
290
     0
  0
LINE
  5
3A
330
20C1
100
AcDbEntity
  8
0
100
AcDbLine
 10
276.1584299618794
 20
-77.21207921169213
 30
0.0
 11
316.1584299618794
 21
-77.21207921169213
 31
0.0
  0
LINE
  5
3B
330
20C1
100
AcDbEntity
  8
0
100
AcDbLine
 10
316.1584299618794
 20
-107.2120792116921
 30
0.0
 11
316.1584299618794
 21
222.7879207883079
 31
0.0
  0
LINE
  5
3C
330
20C1
100
AcDbEntity
  8
0
100
AcDbLine
 10
196.1584299618794
 20
-67.21207921169213
 30
0.0
 11
316.1584299618794
 21
-67.21207921169213
 31
0.0
  0
LINE
  5
3D
330
20C1
100
AcDbEntity
  8
0
100
AcDbLine
 10
276.1584299618794
 20
-87.21207921169213
 30
0.0
 11
316.1584299618794
 21
-87.21207921169213
 31
0.0
  0
CIRCLE
  5
16C7
330
20C1
100
AcDbEntity
  8
0
370
    25
100
AcDbCircle
 10
100.0
 20
144.0
 30
0.0
 40
3.299999999999999
  0
CIRCLE
  5
1FCA
330
20C1
100
AcDbEntity
  8
0
370
    25
100
AcDbCircle
 10
224.2084168648288
 20
146.3856181655002
 30
0.0
 40
3.299999999999999
  0
LINE
  5
3E
330
20C1
100
AcDbEntity
  8
0
100
AcDbLine
 10
276.1584299618794
 20
-97.21207921169213
 30
0.0
 11
316.1584299618794
 21
-97.21207921169213
 31
0.0
  0
CIRCLE
  5
16C8
330
20C1
100
AcDbEntity
  8
0
370
    25
100
AcDbCircle
 10
100.0
 20
123.9999999999998
 30
0.0
 40
3.299999999999999
  0
CIRCLE
  5
1FCB
330
20C1
100
AcDbEntity
  8
0
370
    25
100
AcDbCircle
 10
224.2084168648288
 20
126.3856181655
 30
0.0
 40
3.299999999999999
  0
LINE
  5
3F
330
20C1
100
AcDbEntity
  8
0
100
AcDbLine
 10
196.1584299618794
 20
-107.2120792116921
 30
0.0
 11
196.1584299618794
 21
-47.21207921169213
 31
0.0
  0
CIRCLE
  5
16C9
330
20C1
100
AcDbEntity
  8
0
370
    25
100
AcDbCircle
 10
162.0
 20
121.9999999999998
 30
0.0
 40
3.3
  0
CIRCLE
  5
1FCC
330
20C1
100
AcDbEntity
  8
0
370
    25
100
AcDbCircle
 10
286.2084168648288
 20
124.3856181655
 30
0.0
 40
3.3
  0
LINE
  5
40
330
20C1
100
AcDbEntity
  8
0
100
AcDbLine
 10
196.1584299618794
 20
-47.21207921169213
 30
0.0
 11
316.1584299618794
 21
-47.21207921169213
 31
0.0
  0
CIRCLE
  5
16CA
330
20C1
100
AcDbEntity
  8
0
370
    25
100
AcDbCircle
 10
119.0
 20
126.9999999999999
 30
0.0
 40
1.600000000000001
  0
CIRCLE
  5
1FCD
330
20C1
100
AcDbEntity
  8
0
370
    25
100
AcDbCircle
 10
243.2084168648288
 20
129.3856181655001
 30
0.0
 40
1.600000000000001
  0
LINE
  5
41
330
20C1
100
AcDbEntity
  8
0
100
AcDbLine
 10
276.1584299618794
 20
-67.21207921169213
 30
0.0
 11
276.1584299618794
 21
-107.2120792116921
 31
0.0
  0
CIRCLE
  5
16CB
330
20C1
100
AcDbEntity
  8
0
370
    25
100
AcDbCircle
 10
100.0
 20
107.9999999999999
 30
0.0
 40
3.299999999999999
  0
CIRCLE
  5
1FCE
330
20C1
100
AcDbEntity
  8
0
370
    25
100
AcDbCircle
 10
224.2084168648288
 20
110.3856181655001
 30
0.0
 40
3.299999999999999
  0
LINE
  5
42
330
20C1
100
AcDbEntity
  8
0
100
AcDbLine
 10
196.1584299618794
 20
-57.21207921169213
 30
0.0
 11
316.1584299618794
 21
-57.21207921169213
 31
0.0
  0
CIRCLE
  5
16CC
330
20C1
100
AcDbEntity
  8
0
370
    25
100
AcDbCircle
 10
162.0
 20
144.0
 30
0.0
 40
3.299999999999999
  0
CIRCLE
  5
1FCF
330
20C1
100
AcDbEntity
  8
0
370
    25
100
AcDbCircle
 10
286.2084168648288
 20
146.3856181655002
 30
0.0
 40
3.299999999999999
  0
LINE
  5
43
330
20C1
100
AcDbEntity
  8
0
100
AcDbLine
 10
296.1584299618794
 20
-97.21207921169213
 30
0.0
 11
296.1584299618794
 21
-107.2120792116921
 31
0.0
  0
CIRCLE
  5
16CD
330
20C1
100
AcDbEntity
  8
0
370
    25
100
AcDbCircle
 10
131.0
 20
123.9999999999998
 30
0.0
 40
3.299999999999999
  0
CIRCLE
  5
1FD0
330
20C1
100
AcDbEntity
  8
0
370
    25
100
AcDbCircle
 10
255.2084168648288
 20
126.3856181655
 30
0.0
 40
3.299999999999999
  0
MTEXT
  5
44
330
20C1
100
AcDbEntity
  8
0
100
AcDbMText
 10
240.0
 20
-50.0
 30
0.0
 40
2.5
 41
0.0
 46
0.0
 71
     2
 72
     1
  1
\H4;Sequencer Panela Erica Synths
  7
textstyle3
 73
     1
 44
1.0
  0
CIRCLE
  5
16CE
330
20C1
100
AcDbEntity
  8
0
370
    25
100
AcDbCircle
 10
131.0
 20
107.9999999999999
 30
0.0
 40
3.299999999999999
  0
CIRCLE
  5
1FD1
330
20C1
100
AcDbEntity
  8
0
370
    25
100
AcDbCircle
 10
255.2084168648288
 20
110.3856181655001
 30
0.0
 40
3.299999999999999
  0
IMAGE
  5
45
330
20C1
100
AcDbEntity
  8
0
160
               140
310
8C000000010000008400000006000000050000000000000000000000000000000000000000000000000000000000000000000000000000000000000000000000000000000000000000000000000000000000000000000000000000000000000000000000000000000000000000000000000000000000000000000000000000
310
00000000000000000000000000
100
AcDbRasterImage
 90
        0
 10
0.0
 20
0.0
 30
0.0
 11
1.0
 21
0.0
 31
0.0
 12
0.0
 22
1.0
 32
0.0
 13
0.0
 23
0.0
340
2175
 70
     7
280
     0
281
    50
282
    50
283
     0
360
2176
 71
     1
 91
        2
 14
-0.5
 24
-0.5
 14
-0.5
 24
-0.5
290
     0
  0
CIRCLE
  5
16CF
330
20C1
100
AcDbEntity
  8
0
370
    25
100
AcDbCircle
 10
131.0
 20
91.99999999999986
 30
0.0
 40
3.299999999999999
  0
CIRCLE
  5
1FD2
330
20C1
100
AcDbEntity
  8
0
370
    25
100
AcDbCircle
 10
255.2084168648288
 20
94.38561816550003
 30
0.0
 40
3.299999999999999
  0
CIRCLE
  5
16D0
330
20C1
100
AcDbEntity
  8
0
370
    25
100
AcDbCircle
 10
131.0
 20
75.99999999999984
 30
0.0
 40
3.299999999999999
  0
CIRCLE
  5
1FD3
330
20C1
100
AcDbEntity
  8
0
370
    25
100
AcDbCircle
 10
255.2084168648288
 20
78.38561816550002
 30
0.0
 40
3.299999999999999
  0
CIRCLE
  5
16D1
330
20C1
100
AcDbEntity
  8
0
370
    25
100
AcDbCircle
 10
131.0
 20
59.99999999999984
 30
0.0
 40
3.299999999999999
  0
CIRCLE
  5
1FD4
330
20C1
100
AcDbEntity
  8
0
370
    25
100
AcDbCircle
 10
255.2084168648288
 20
62.38561816550001
 30
0.0
 40
3.299999999999999
  0
MTEXT
  5
46
330
20C1
100
AcDbEntity
  8
0
100
AcDbMText
 10
236.4644028113674
 20
-101.5243361984385
 30
0.0
 40
2.5
 41
0.0
 46
0.0
 71
     2
 72
     1
  1
\H4;Elektronika
  7
textstyle3
 73
     1
 44
1.0
  0
CIRCLE
  5
16D2
330
20C1
100
AcDbEntity
  8
0
370
    25
100
AcDbCircle
 10
100.0
 20
91.99999999999989
 30
0.0
 40
3.299999999999999
  0
CIRCLE
  5
1FD5
330
20C1
100
AcDbEntity
  8
0
370
    25
100
AcDbCircle
 10
224.2084168648288
 20
94.38561816550006
 30
0.0
 40
3.299999999999999
  0
MTEXT
  5
47
330
20C1
100
AcDbEntity
  8
0
100
AcDbMText
 10
296.9330527614354
 20
-70.77052110355854
 30
0.0
 40
2.5
 41
0.0
 46
0.0
 71
     2
 72
     1
  1
\H3;Egilea: Aitor A.
  7
textstyle3
 73
     1
 44
1.0
  0
CIRCLE
  5
16D3
330
20C1
100
AcDbEntity
  8
0
370
    25
100
AcDbCircle
 10
100.0
 20
75.99999999999987
 30
0.0
 40
3.300000000000001
  0
CIRCLE
  5
1FD6
330
20C1
100
AcDbEntity
  8
0
370
    25
100
AcDbCircle
 10
224.2084168648288
 20
78.38561816550005
 30
0.0
 40
3.300000000000001
  0
MTEXT
  5
48
330
20C1
100
AcDbEntity
  8
0
100
AcDbMText
 10
295.9248571214381
 20
-80.9823500334931
 30
0.0
 40
2.5
 41
0.0
 46
0.0
 71
     2
 72
     1
  1
\H3;Data: 2025/01/30
  7
textstyle3
 73
     1
 44
1.0
  0
CIRCLE
  5
16D4
330
20C1
100
AcDbEntity
  8
0
370
    25
100
AcDbCircle
 10
100.0000000000001
 20
59.99999999999986
 30
0.0
 40
3.300000000000001
  0
CIRCLE
  5
1FD7
330
20C1
100
AcDbEntity
  8
0
370
    25
100
AcDbCircle
 10
224.2084168648289
 20
62.38561816550004
 30
0.0
 40
3.300000000000001
  0
LINE
  5
49
330
20C1
100
AcDbEntity
  8
0
100
AcDbLine
 10
317.1584299618794
 20
-108.2120792116921
 30
0.0
 11
317.1584299618794
 21
223.7879207883079
 31
0.0
  0
CIRCLE
  5
16D5
330
20C1
100
AcDbEntity
  8
0
370
    25
100
AcDbCircle
 10
119.0
 20
110.9999999999999
 30
0.0
 40
1.600000000000001
  0
CIRCLE
  5
1FD8
330
20C1
100
AcDbEntity
  8
0
370
    25
100
AcDbCircle
 10
243.2084168648288
 20
113.3856181655001
 30
0.0
 40
1.600000000000001
  0
LINE
  5
4A
330
20C1
100
AcDbEntity
  8
0
100
AcDbLine
 10
67.15842996187939
 20
-108.2120792116921
 30
0.0
 11
317.1584299618794
 21
-108.2120792116921
 31
0.0
  0
CIRCLE
  5
16D6
330
20C1
100
AcDbEntity
  8
0
370
    25
100
AcDbCircle
 10
119.0
 20
94.99999999999986
 30
0.0
 40
1.600000000000001
  0
CIRCLE
  5
1FD9
330
20C1
100
AcDbEntity
  8
0
370
    25
100
AcDbCircle
 10
243.2084168648288
 20
97.38561816550003
 30
0.0
 40
1.600000000000001
  0
MTEXT
  5
4B
330
20C1
100
AcDbEntity
  8
0
100
AcDbMText
 10
217.0126435941306
 20
-61.13415816117288
 30
0.0
 40
2.5
 41
0.0
 46
0.0
 71
     2
 72
     1
  1
\H4;Definitiboa
  7
textstyle3
 73
     1
 44
1.0
  0
CIRCLE
  5
16D7
330
20C1
100
AcDbEntity
  8
0
370
    25
100
AcDbCircle
 10
119.0
 20
78.99999999999984
 30
0.0
 40
1.600000000000001
  0
CIRCLE
  5
1FDA
330
20C1
100
AcDbEntity
  8
0
370
    25
100
AcDbCircle
 10
243.2084168648288
 20
81.38561816550002
 30
0.0
 40
1.600000000000001
  0
CIRCLE
  5
16D8
330
20C1
100
AcDbEntity
  8
0
370
    25
100
AcDbCircle
 10
119.0
 20
62.99999999999984
 30
0.0
 40
1.600000000000001
  0
CIRCLE
  5
1FDB
330
20C1
100
AcDbEntity
  8
0
370
    25
100
AcDbCircle
 10
243.2084168648288
 20
65.3856181655
 30
0.0
 40
1.600000000000001
  0
CIRCLE
  5
16D9
330
20C1
100
AcDbEntity
  8
0
370
    25
100
AcDbCircle
 10
162.0
 20
109.5999999999999
 30
0.0
 40
3.3
  0
CIRCLE
  5
1FDC
330
20C1
100
AcDbEntity
  8
0
370
    25
100
AcDbCircle
 10
286.2084168648288
 20
111.9856181655001
 30
0.0
 40
3.3
  0
CIRCLE
  5
16DA
330
20C1
100
AcDbEntity
  8
0
370
    25
100
AcDbCircle
 10
162.0
 20
97.19999999999996
 30
0.0
 40
3.3
  0
CIRCLE
  5
1FDD
330
20C1
100
AcDbEntity
  8
0
370
    25
100
AcDbCircle
 10
286.2084168648288
 20
99.58561816550014
 30
0.0
 40
3.3
  0
CIRCLE
  5
16DB
330
20C1
100
AcDbEntity
  8
0
370
    25
100
AcDbCircle
 10
162.0
 20
84.79999999999984
 30
0.0
 40
3.3
  0
CIRCLE
  5
1FDE
330
20C1
100
AcDbEntity
  8
0
370
    25
100
AcDbCircle
 10
286.2084168648288
 20
87.18561816550002
 30
0.0
 40
3.3
  0
CIRCLE
  5
16DC
330
20C1
100
AcDbEntity
  8
0
370
    25
100
AcDbCircle
 10
162.0
 20
72.39999999999986
 30
0.0
 40
3.3
  0
CIRCLE
  5
1FDF
330
20C1
100
AcDbEntity
  8
0
370
    25
100
AcDbCircle
 10
286.2084168648288
 20
74.78561816550004
 30
0.0
 40
3.3
  0
CIRCLE
  5
16DD
330
20C1
100
AcDbEntity
  8
0
370
    25
100
AcDbCircle
 10
162.0
 20
59.99999999999984
 30
0.0
 40
3.3
  0
CIRCLE
  5
1FE0
330
20C1
100
AcDbEntity
  8
0
370
    25
100
AcDbCircle
 10
286.2084168648288
 20
62.38561816550001
 30
0.0
 40
3.3
  0
ARC
  5
16DE
330
20C1
100
AcDbEntity
  8
0
370
    25
100
AcDbCircle
 10
86.34999999999988
 20
43.59999999999985
 30
0.0
 40
1.600000000000001
100
AcDbArc
 50
90.0
 51
270.0
  0
ARC
  5
1FE1
330
20C1
100
AcDbEntity
  8
0
370
    25
100
AcDbCircle
 10
210.5584168648287
 20
45.98561816550003
 30
0.0
 40
1.600000000000001
100
AcDbArc
 50
90.0
 51
270.0
  0
ARC
  5
1799
330
20C1
100
AcDbEntity
  8
0
370
    25
100
AcDbCircle
 10
86.34999999999998
 20
166.3999999999998
 30
0.0
 40
1.600000000000001
100
AcDbArc
 50
90.0
 51
270.0
  0
ARC
  5
1FE2
330
20C1
100
AcDbEntity
  8
0
370
    25
100
AcDbCircle
 10
210.5584168648288
 20
168.7856181655
 30
0.0
 40
1.600000000000001
100
AcDbArc
 50
90.0
 51
270.0
  0
ARC
  5
16DF
330
20C1
100
AcDbEntity
  8
0
370
    25
100
AcDbCircle
 10
171.8499999999998
 20
43.59999999999975
 30
0.0
 40
1.600000000000001
100
AcDbArc
 50
90.0
 51
270.0
  0
ARC
  5
1FE3
330
20C1
100
AcDbEntity
  8
0
370
    25
100
AcDbCircle
 10
296.0584168648286
 20
45.98561816549993
 30
0.0
 40
1.600000000000001
100
AcDbArc
 50
90.0
 51
270.0
  0
ARC
  5
16E0
330
20C1
100
AcDbEntity
  8
0
370
    25
100
AcDbCircle
 10
171.85
 20
166.3999999999998
 30
0.0
 40
1.600000000000001
100
AcDbArc
 50
90.0
 51
270.0
  0
ARC
  5
1FE4
330
20C1
100
AcDbEntity
  8
0
370
    25
100
AcDbCircle
 10
296.0584168648288
 20
168.7856181655
 30
0.0
 40
1.600000000000001
100
AcDbArc
 50
90.0
 51
270.0
  0
ARC
  5
16E2
330
20C1
100
AcDbEntity
  8
0
370
    25
100
AcDbCircle
 10
86.34999999999988
 20
43.59999999999985
 30
0.0
 40
1.600000000000001
100
AcDbArc
 50
90.0
 51
270.0
  0
ARC
  5
1FE5
330
20C1
100
AcDbEntity
  8
0
370
    25
100
AcDbCircle
 10
210.5584168648287
 20
45.98561816550003
 30
0.0
 40
1.600000000000001
100
AcDbArc
 50
90.0
 51
270.0
  0
ARC
  5
179A
330
20C1
100
AcDbEntity
  8
0
370
    25
100
AcDbCircle
 10
86.34999999999998
 20
166.3999999999998
 30
0.0
 40
1.600000000000001
100
AcDbArc
 50
90.0
 51
270.0
  0
ARC
  5
1FE6
330
20C1
100
AcDbEntity
  8
0
370
    25
100
AcDbCircle
 10
210.5584168648288
 20
168.7856181655
 30
0.0
 40
1.600000000000001
100
AcDbArc
 50
90.0
 51
270.0
  0
ARC
  5
16E3
330
20C1
100
AcDbEntity
  8
0
370
    25
100
AcDbCircle
 10
171.85
 20
166.3999999999998
 30
0.0
 40
1.600000000000001
100
AcDbArc
 50
90.0
 51
270.0
  0
ARC
  5
1FE7
330
20C1
100
AcDbEntity
  8
0
370
    25
100
AcDbCircle
 10
296.0584168648288
 20
168.7856181655
 30
0.0
 40
1.600000000000001
100
AcDbArc
 50
90.0
 51
270.0
  0
ARC
  5
16E5
330
20C1
100
AcDbEntity
  8
0
370
    25
100
AcDbCircle
 10
88.15000000000009
 20
43.59999999999985
 30
0.0
 40
1.600000000000001
100
AcDbArc
 50
270.0
 51
90.0
  0
ARC
  5
1FE8
330
20C1
100
AcDbEntity
  8
0
370
    25
100
AcDbCircle
 10
212.3584168648289
 20
45.98561816550003
 30
0.0
 40
1.600000000000001
100
AcDbArc
 50
270.0
 51
90.0
  0
ARC
  5
179B
330
20C1
100
AcDbEntity
  8
0
370
    25
100
AcDbCircle
 10
88.15000000000019
 20
166.3999999999998
 30
0.0
 40
1.600000000000001
100
AcDbArc
 50
270.0
 51
90.0
  0
ARC
  5
1FE9
330
20C1
100
AcDbEntity
  8
0
370
    25
100
AcDbCircle
 10
212.358416864829
 20
168.7856181655
 30
0.0
 40
1.600000000000001
100
AcDbArc
 50
270.0
 51
90.0
  0
ARC
  5
16E6
330
20C1
100
AcDbEntity
  8
0
370
    25
100
AcDbCircle
 10
173.6499999999999
 20
43.59999999999975
 30
0.0
 40
1.600000000000001
100
AcDbArc
 50
270.0
 51
90.0
  0
ARC
  5
1FEA
330
20C1
100
AcDbEntity
  8
0
370
    25
100
AcDbCircle
 10
297.8584168648287
 20
45.98561816549993
 30
0.0
 40
1.600000000000001
100
AcDbArc
 50
270.0
 51
90.0
  0
ARC
  5
16E7
330
20C1
100
AcDbEntity
  8
0
370
    25
100
AcDbCircle
 10
173.6500000000001
 20
166.3999999999998
 30
0.0
 40
1.600000000000001
100
AcDbArc
 50
270.0
 51
90.0
  0
ARC
  5
1FEB
330
20C1
100
AcDbEntity
  8
0
370
    25
100
AcDbCircle
 10
297.8584168648289
 20
168.7856181655
 30
0.0
 40
1.600000000000001
100
AcDbArc
 50
270.0
 51
90.0
  0
ARC
  5
16E9
330
20C1
100
AcDbEntity
  8
0
370
    25
100
AcDbCircle
 10
88.14999999999989
 20
43.59999999999985
 30
0.0
 40
1.600000000000001
100
AcDbArc
 50
270.0
 51
90.0
  0
ARC
  5
1FEC
330
20C1
100
AcDbEntity
  8
0
370
    25
100
AcDbCircle
 10
212.3584168648287
 20
45.98561816550003
 30
0.0
 40
1.600000000000001
100
AcDbArc
 50
270.0
 51
90.0
  0
ARC
  5
179C
330
20C1
100
AcDbEntity
  8
0
370
    25
100
AcDbCircle
 10
88.14999999999999
 20
166.3999999999998
 30
0.0
 40
1.600000000000001
100
AcDbArc
 50
270.0
 51
90.0
  0
ARC
  5
1FED
330
20C1
100
AcDbEntity
  8
0
370
    25
100
AcDbCircle
 10
212.3584168648288
 20
168.7856181655
 30
0.0
 40
1.600000000000001
100
AcDbArc
 50
270.0
 51
90.0
  0
ARC
  5
16EA
330
20C1
100
AcDbEntity
  8
0
370
    25
100
AcDbCircle
 10
173.6500000000001
 20
166.3999999999996
 30
0.0
 40
1.600000000000001
100
AcDbArc
 50
270.0
 51
90.0
  0
ARC
  5
1FEE
330
20C1
100
AcDbEntity
  8
0
370
    25
100
AcDbCircle
 10
297.8584168648289
 20
168.7856181654998
 30
0.0
 40
1.600000000000001
100
AcDbArc
 50
270.0
 51
90.0
  0
LINE
  5
16EC
330
20C1
100
AcDbEntity
  8
0
370
    25
100
AcDbLine
 10
86.34999999999998
 20
45.19999999999995
 30
0.0
 11
88.15000000000009
 21
45.19999999999985
 31
0.0
  0
LINE
  5
1FEF
330
20C1
100
AcDbEntity
  8
0
370
    25
100
AcDbLine
 10
210.5584168648288
 20
47.58561816550013
 30
0.0
 11
212.3584168648289
 21
47.58561816550002
 31
0.0
  0
LINE
  5
179D
330
20C1
100
AcDbEntity
  8
0
370
    25
100
AcDbLine
 10
86.35000000000008
 20
168.0
 30
0.0
 11
88.15000000000019
 21
167.9999999999998
 31
0.0
  0
LINE
  5
1FF0
330
20C1
100
AcDbEntity
  8
0
370
    25
100
AcDbLine
 10
210.5584168648289
 20
170.3856181655002
 30
0.0
 11
212.358416864829
 21
170.3856181655
 31
0.0
  0
LINE
  5
16ED
330
20C1
100
AcDbEntity
  8
0
370
    25
100
AcDbLine
 10
171.8499999999998
 20
45.19999999999986
 30
0.0
 11
173.6499999999999
 21
45.19999999999986
 31
0.0
  0
LINE
  5
1FF1
330
20C1
100
AcDbEntity
  8
0
370
    25
100
AcDbLine
 10
296.0584168648286
 20
47.58561816550004
 30
0.0
 11
297.8584168648287
 21
47.58561816550004
 31
0.0
  0
LINE
  5
16EE
330
20C1
100
AcDbEntity
  8
0
370
    25
100
AcDbLine
 10
171.85
 20
167.9999999999998
 30
0.0
 11
173.6500000000001
 21
167.9999999999998
 31
0.0
  0
LINE
  5
1FF2
330
20C1
100
AcDbEntity
  8
0
370
    25
100
AcDbLine
 10
296.0584168648288
 20
170.3856181655
 30
0.0
 11
297.8584168648289
 21
170.3856181655
 31
0.0
  0
LINE
  5
16F0
330
20C1
100
AcDbEntity
  8
0
370
    25
100
AcDbLine
 10
86.34999999999988
 20
45.19999999999995
 30
0.0
 11
88.14999999999989
 21
45.19999999999995
 31
0.0
  0
LINE
  5
1FF3
330
20C1
100
AcDbEntity
  8
0
370
    25
100
AcDbLine
 10
210.5584168648287
 20
47.58561816550013
 30
0.0
 11
212.3584168648287
 21
47.58561816550013
 31
0.0
  0
LINE
  5
179E
330
20C1
100
AcDbEntity
  8
0
370
    25
100
AcDbLine
 10
86.34999999999998
 20
168.0
 30
0.0
 11
88.14999999999999
 21
168.0
 31
0.0
  0
LINE
  5
1FF4
330
20C1
100
AcDbEntity
  8
0
370
    25
100
AcDbLine
 10
210.5584168648288
 20
170.3856181655002
 30
0.0
 11
212.3584168648288
 21
170.3856181655002
 31
0.0
  0
LINE
  5
16F1
330
20C1
100
AcDbEntity
  8
0
370
    25
100
AcDbLine
 10
171.85
 20
167.9999999999996
 30
0.0
 11
173.6500000000001
 21
168.0000000000002
 31
0.0
  0
LINE
  5
1FF5
330
20C1
100
AcDbEntity
  8
0
370
    25
100
AcDbLine
 10
296.0584168648288
 20
170.3856181654998
 30
0.0
 11
297.8584168648289
 21
170.3856181655004
 31
0.0
  0
LINE
  5
16F3
330
20C1
100
AcDbEntity
  8
0
370
    25
100
AcDbLine
 10
86.34999999999988
 20
41.99999999999984
 30
0.0
 11
88.14999999999989
 21
41.99999999999984
 31
0.0
  0
LINE
  5
1FF6
330
20C1
100
AcDbEntity
  8
0
370
    25
100
AcDbLine
 10
210.5584168648287
 20
44.38561816550001
 30
0.0
 11
212.3584168648287
 21
44.38561816550001
 31
0.0
  0
LINE
  5
179F
330
20C1
100
AcDbEntity
  8
0
370
    25
100
AcDbLine
 10
86.34999999999998
 20
164.7999999999999
 30
0.0
 11
88.14999999999999
 21
164.7999999999999
 31
0.0
  0
LINE
  5
1FF7
330
20C1
100
AcDbEntity
  8
0
370
    25
100
AcDbLine
 10
210.5584168648288
 20
167.1856181655001
 30
0.0
 11
212.3584168648288
 21
167.1856181655001
 31
0.0
  0
LINE
  5
16F4
330
20C1
100
AcDbEntity
  8
0
370
    25
100
AcDbLine
 10
171.8499999999998
 20
41.99999999999976
 30
0.0
 11
173.6499999999999
 21
41.99999999999976
 31
0.0
  0
LINE
  5
1FF8
330
20C1
100
AcDbEntity
  8
0
370
    25
100
AcDbLine
 10
296.0584168648286
 20
44.38561816549993
 30
0.0
 11
297.8584168648287
 21
44.38561816549993
 31
0.0
  0
LINE
  5
16F5
330
20C1
100
AcDbEntity
  8
0
370
    25
100
AcDbLine
 10
171.85
 20
164.7999999999998
 30
0.0
 11
173.6500000000001
 21
164.7999999999998
 31
0.0
  0
LINE
  5
1FF9
330
20C1
100
AcDbEntity
  8
0
370
    25
100
AcDbLine
 10
296.0584168648288
 20
167.1856181655
 30
0.0
 11
297.8584168648289
 21
167.1856181655
 31
0.0
  0
LINE
  5
16F7
330
20C1
100
AcDbEntity
  8
0
370
    25
100
AcDbLine
 10
86.34999999999988
 20
41.99999999999984
 30
0.0
 11
88.14999999999989
 21
41.99999999999984
 31
0.0
  0
LINE
  5
1FFA
330
20C1
100
AcDbEntity
  8
0
370
    25
100
AcDbLine
 10
210.5584168648287
 20
44.38561816550001
 30
0.0
 11
212.3584168648287
 21
44.38561816550001
 31
0.0
  0
LINE
  5
17A0
330
20C1
100
AcDbEntity
  8
0
370
    25
100
AcDbLine
 10
86.34999999999998
 20
164.7999999999999
 30
0.0
 11
88.14999999999999
 21
164.7999999999999
 31
0.0
  0
LINE
  5
1FFB
330
20C1
100
AcDbEntity
  8
0
370
    25
100
AcDbLine
 10
210.5584168648288
 20
167.1856181655001
 30
0.0
 11
212.3584168648288
 21
167.1856181655001
 31
0.0
  0
LINE
  5
16F8
330
20C1
100
AcDbEntity
  8
0
370
    25
100
AcDbLine
 10
171.85
 20
164.7999999999999
 30
0.0
 11
173.6500000000001
 21
164.7999999999998
 31
0.0
  0
LINE
  5
1FFC
330
20C1
100
AcDbEntity
  8
0
370
    25
100
AcDbLine
 10
296.0584168648288
 20
167.1856181655001
 30
0.0
 11
297.8584168648289
 21
167.1856181655
 31
0.0
  0
LINE
  5
16FB
330
20C1
100
AcDbEntity
  8
0
370
    25
100
AcDbLine
 10
84.49999999999999
 20
159.3999999999998
 30
0.0
 11
118.0
 21
159.3999999999998
 31
0.0
  0
LINE
  5
1FFD
330
20C1
100
AcDbEntity
  8
0
370
    25
100
AcDbLine
 10
208.7084168648288
 20
161.7856181655
 30
0.0
 11
242.2084168648288
 21
161.7856181655
 31
0.0
  0
LINE
  5
16FC
330
20C1
100
AcDbEntity
  8
0
370
    25
100
AcDbLine
 10
142.0
 20
159.3999999999998
 30
0.0
 11
175.5
 21
159.4
 31
0.0
  0
LINE
  5
1FFE
330
20C1
100
AcDbEntity
  8
0
370
    25
100
AcDbLine
 10
266.2084168648288
 20
161.7856181655
 30
0.0
 11
299.7084168648288
 21
161.7856181655002
 31
0.0
  0
LINE
  5
16FD
330
20C1
100
AcDbEntity
  8
0
370
    25
100
AcDbLine
 10
84.49999999999979
 20
47.99999999999984
 30
0.0
 11
118.0
 21
47.99999999999984
 31
0.0
  0
LINE
  5
1FFF
330
20C1
100
AcDbEntity
  8
0
370
    25
100
AcDbLine
 10
208.7084168648286
 20
50.38561816550001
 30
0.0
 11
242.2084168648288
 21
50.38561816550001
 31
0.0
  0
LINE
  5
16FE
330
20C1
100
AcDbEntity
  8
0
370
    25
100
AcDbLine
 10
142.0
 20
47.99999999999984
 30
0.0
 11
175.5
 21
47.99999999999984
 31
0.0
  0
LINE
  5
2000
330
20C1
100
AcDbEntity
  8
0
370
    25
100
AcDbLine
 10
266.2084168648288
 20
50.38561816550001
 30
0.0
 11
299.7084168648288
 21
50.38561816550001
 31
0.0
  0
ARC
  5
16FF
330
20C1
100
AcDbEntity
  8
0
370
    25
100
AcDbCircle
 10
84.49999999999999
 20
156.8999999999998
 30
0.0
 40
2.5
100
AcDbArc
 50
90.0
 51
180.0
1001
QCAD
1000
reversed:1
  0
ARC
  5
2001
330
20C1
100
AcDbEntity
  8
0
370
    25
100
AcDbCircle
 10
208.7084168648288
 20
159.2856181655
 30
0.0
 40
2.5
100
AcDbArc
 50
90.0
 51
180.0
1001
QCAD
1000
reversed:1
  0
ARC
  5
1700
330
20C1
100
AcDbEntity
  8
0
370
    25
100
AcDbCircle
 10
175.5
 20
156.8999999999998
 30
0.0
 40
2.5
100
AcDbArc
 50
0.0
 51
90.0
1001
QCAD
1000
reversed:1
  0
ARC
  5
2002
330
20C1
100
AcDbEntity
  8
0
370
    25
100
AcDbCircle
 10
299.7084168648288
 20
159.2856181655
 30
0.0
 40
2.5
100
AcDbArc
 50
0.0
 51
90.0
1001
QCAD
1000
reversed:1
  0
ARC
  5
1701
330
20C1
100
AcDbEntity
  8
0
370
    25
100
AcDbCircle
 10
175.5
 20
50.49999999999984
 30
0.0
 40
2.5
100
AcDbArc
 50
270.0000000000001
 51
0.0
1001
QCAD
1000
reversed:1
  0
ARC
  5
2003
330
20C1
100
AcDbEntity
  8
0
370
    25
100
AcDbCircle
 10
299.7084168648288
 20
52.88561816550001
 30
0.0
 40
2.5
100
AcDbArc
 50
270.0000000000001
 51
0.0
1001
QCAD
1000
reversed:1
  0
ARC
  5
1702
330
20C1
100
AcDbEntity
  8
0
370
    25
100
AcDbCircle
 10
84.49999999999989
 20
50.49999999999984
 30
0.0
 40
2.5
100
AcDbArc
 50
180.0
 51
270.0
1001
QCAD
1000
reversed:1
  0
ARC
  5
2004
330
20C1
100
AcDbEntity
  8
0
370
    25
100
AcDbCircle
 10
208.7084168648287
 20
52.88561816550001
 30
0.0
 40
2.5
100
AcDbArc
 50
180.0
 51
270.0
1001
QCAD
1000
reversed:1
  0
MTEXT
  5
1703
330
20C1
100
AcDbEntity
  8
0
370
    50
100
AcDbMText
 10
129.8401787779552
 20
160.7839479472636
 30
0.0
 40
2.5
 41
0.0
 46
0.0
 71
     2
 72
     1
  1
SEQUENCER
  7
textstyle3
 73
     1
 44
1.0
  0
MTEXT
  5
2005
330
20C1
100
AcDbEntity
  8
0
370
    50
100
AcDbMText
 10
254.048595642784
 20
163.1695661127638
 30
0.0
 40
2.5
 41
0.0
 46
0.0
 71
     2
 72
     1
  1
SEQUENCER
  7
textstyle3
 73
     1
 44
1.0
  0
MTEXT
  5
1704
330
20C1
100
AcDbEntity
  8
0
370
    50
100
AcDbMText
 10
130.0079268268315
 20
50.31116864723752
 30
0.0
 40
2.0
 41
0.0
 46
0.0
 71
     2
 72
     1
  1
\H4.5;Syntek
  7
textstyle3
 73
     1
 44
1.0
  0
MTEXT
  5
2006
330
20C1
100
AcDbEntity
  8
0
370
    50
100
AcDbMText
 10
254.2163436916603
 20
52.69678681273772
 30
0.0
 40
2.0
 41
0.0
 46
0.0
 71
     2
 72
     1
  1
\H4.5;Syntek
  7
textstyle3
 73
     1
 44
1.0
  0
MTEXT
  5
1705
330
20C1
100
AcDbEntity
  8
0
370
    25
100
AcDbMText
 10
99.97920719143532
 20
131.2072541402908
 30
0.0
 40
2.0
 41
0.0
 46
0.0
 71
     2
 72
     1
  1
GATE1\P
  7
textstyle3
 73
     1
 44
1.0
  0
MTEXT
  5
2007
330
20C1
100
AcDbEntity
  8
0
370
    25
100
AcDbMText
 10
224.1876240562641
 20
133.592872305791
 30
0.0
 40
2.0
 41
0.0
 46
0.0
 71
     2
 72
     1
  1
GATE1\P
  7
textstyle3
 73
     1
 44
1.0
  0
MTEXT
  5
1706
330
20C1
100
AcDbEntity
  8
0
370
    25
100
AcDbMText
 10
100.2861879117738
 20
114.5279683352374
 30
0.0
 40
2.0
 41
0.0
 46
0.0
 71
     2
 72
     1
  1
GATE 2
  7
textstyle3
 73
     1
 44
1.0
  0
MTEXT
  5
2008
330
20C1
100
AcDbEntity
  8
0
370
    25
100
AcDbMText
 10
224.4946047766026
 20
116.9135865007376
 30
0.0
 40
2.0
 41
0.0
 46
0.0
 71
     2
 72
     1
  1
GATE 2
  7
textstyle3
 73
     1
 44
1.0
  0
MTEXT
  5
1707
330
20C1
100
AcDbEntity
  8
0
370
    25
100
AcDbMText
 10
100.4057239303422
 20
98.4624802478103
 30
0.0
 40
2.0
 41
0.0
 46
0.0
 71
     2
 72
     1
  1
GATE 3
  7
textstyle3
 73
     1
 44
1.0
  0
MTEXT
  5
2009
330
20C1
100
AcDbEntity
  8
0
370
    25
100
AcDbMText
 10
224.614140795171
 20
100.8480984133107
 30
0.0
 40
2.0
 41
0.0
 46
0.0
 71
     2
 72
     1
  1
GATE 3
  7
textstyle3
 73
     1
 44
1.0
  0
MTEXT
  5
1708
330
20C1
100
AcDbEntity
  8
0
370
    25
100
AcDbMText
 10
100.7
 20
82.0000000000001
 30
0.0
 40
2.0
 41
0.0
 46
0.0
 71
     2
 72
     1
  1
GATE 4
  7
textstyle3
 73
     1
 44
1.0
  0
MTEXT
  5
200A
330
20C1
100
AcDbEntity
  8
0
370
    25
100
AcDbMText
 10
224.9084168648288
 20
84.38561816550026
 30
0.0
 40
2.0
 41
0.0
 46
0.0
 71
     2
 72
     1
  1
GATE 4
  7
textstyle3
 73
     1
 44
1.0
  0
MTEXT
  5
1709
330
20C1
100
AcDbEntity
  8
0
370
    25
100
AcDbMText
 10
100.6999999999999
 20
65.99999999999986
 30
0.0
 40
2.0
 41
0.0
 46
0.0
 71
     2
 72
     1
  1
GATE 5\P
  7
textstyle3
 73
     1
 44
1.0
  0
MTEXT
  5
200B
330
20C1
100
AcDbEntity
  8
0
370
    25
100
AcDbMText
 10
224.9084168648287
 20
68.38561816550003
 30
0.0
 40
2.0
 41
0.0
 46
0.0
 71
     2
 72
     1
  1
GATE 5\P
  7
textstyle3
 73
     1
 44
1.0
  0
MTEXT
  5
170A
330
20C1
100
AcDbEntity
  8
0
370
    25
100
AcDbMText
 10
131.7
 20
130.9999999999995
 30
0.0
 40
2.0
 41
0.0
 46
0.0
 71
     2
 72
     1
  1
STEP 1 LVL\P
  7
textstyle3
 73
     1
 44
1.0
  0
MTEXT
  5
200C
330
20C1
100
AcDbEntity
  8
0
370
    25
100
AcDbMText
 10
255.9084168648288
 20
133.3856181654997
 30
0.0
 40
2.0
 41
0.0
 46
0.0
 71
     2
 72
     1
  1
STEP 1 LVL\P
  7
textstyle3
 73
     1
 44
1.0
  0
MTEXT
  5
170B
330
20C1
100
AcDbEntity
  8
0
370
    25
100
AcDbMText
 10
131.1309248562488
 20
115.5649532398613
 30
0.0
 40
2.0
 41
0.0
 46
0.0
 71
     2
 72
     1
  1
STEP 2 LVL\P
  7
textstyle3
 73
     1
 44
1.0
  0
MTEXT
  5
200D
330
20C1
100
AcDbEntity
  8
0
370
    25
100
AcDbMText
 10
255.3393417210776
 20
117.9505714053615
 30
0.0
 40
2.0
 41
0.0
 46
0.0
 71
     2
 72
     1
  1
STEP 2 LVL\P
  7
textstyle3
 73
     1
 44
1.0
  0
MTEXT
  5
170C
330
20C1
100
AcDbEntity
  8
0
370
    25
100
AcDbMText
 10
131.2173313335639
 20
99.8468650720756
 30
0.0
 40
2.0
 41
0.0
 46
0.0
 71
     2
 72
     1
  1
STEP 3 LVL\P
  7
textstyle3
 73
     1
 44
1.0
  0
MTEXT
  5
200E
330
20C1
100
AcDbEntity
  8
0
370
    25
100
AcDbMText
 10
255.4257481983927
 20
102.2324832375758
 30
0.0
 40
2.0
 41
0.0
 46
0.0
 71
     2
 72
     1
  1
STEP 3 LVL\P
  7
textstyle3
 73
     1
 44
1.0
  0
MTEXT
  5
170D
330
20C1
100
AcDbEntity
  8
0
370
    25
100
AcDbMText
 10
131.6266389606818
 20
83.98619452125811
 30
0.0
 40
2.0
 41
0.0
 46
0.0
 71
     2
 72
     1
  1
STEP 4 LVL\P
  7
textstyle3
 73
     1
 44
1.0
  0
MTEXT
  5
200F
330
20C1
100
AcDbEntity
  8
0
370
    25
100
AcDbMText
 10
255.8350558255106
 20
86.37181268675828
 30
0.0
 40
2.0
 41
0.0
 46
0.0
 71
     2
 72
     1
  1
STEP 4 LVL\P
  7
textstyle3
 73
     1
 44
1.0
  0
MTEXT
  5
170E
330
20C1
100
AcDbEntity
  8
0
370
    25
100
AcDbMText
 10
131.4972977505125
 20
67.66939155078157
 30
0.0
 40
2.0
 41
0.0
 46
0.0
 71
     2
 72
     1
  1
STEP 5 LVL\P
  7
textstyle3
 73
     1
 44
1.0
  0
MTEXT
  5
2010
330
20C1
100
AcDbEntity
  8
0
370
    25
100
AcDbMText
 10
255.7057146153413
 20
70.05500971628176
 30
0.0
 40
2.0
 41
0.0
 46
0.0
 71
     2
 72
     1
  1
STEP 5 LVL\P
  7
textstyle3
 73
     1
 44
1.0
  0
LINE
  5
170F
330
20C1
100
AcDbEntity
  8
0
370
    25
100
AcDbLine
 10
160.2
 20
147.1176914536239
 30
0.0
 11
159.7
 21
147.9837168574083
 31
0.0
  0
LINE
  5
2011
330
20C1
100
AcDbEntity
  8
0
370
    25
100
AcDbLine
 10
284.4084168648288
 20
149.5033096191241
 30
0.0
 11
283.9084168648288
 21
150.3693350229085
 31
0.0
  0
LINE
  5
1710
330
20C1
100
AcDbEntity
  8
0
370
    25
100
AcDbLine
 10
129.2
 20
127.117691453624
 30
0.0
 11
128.7
 21
127.9837168574083
 31
0.0
  0
LINE
  5
2012
330
20C1
100
AcDbEntity
  8
0
370
    25
100
AcDbLine
 10
253.4084168648288
 20
129.5033096191242
 30
0.0
 11
252.9084168648288
 21
130.3693350229085
 31
0.0
  0
LINE
  5
1711
330
20C1
100
AcDbEntity
  8
0
370
    25
100
AcDbLine
 10
129.2
 20
111.117691453624
 30
0.0
 11
128.7
 21
111.9837168574084
 31
0.0
  0
LINE
  5
2013
330
20C1
100
AcDbEntity
  8
0
370
    25
100
AcDbLine
 10
253.4084168648288
 20
113.5033096191242
 30
0.0
 11
252.9084168648288
 21
114.3693350229086
 31
0.0
  0
LINE
  5
1712
330
20C1
100
AcDbEntity
  8
0
370
    25
100
AcDbLine
 10
129.2
 20
95.11769145362396
 30
0.0
 11
128.7000000000002
 21
95.98371685740824
 31
0.0
  0
LINE
  5
2014
330
20C1
100
AcDbEntity
  8
0
370
    25
100
AcDbLine
 10
253.4084168648288
 20
97.50330961912414
 30
0.0
 11
252.908416864829
 21
98.36933502290842
 31
0.0
  0
LINE
  5
1713
330
20C1
100
AcDbEntity
  8
0
370
    25
100
AcDbLine
 10
129.2000000000002
 20
79.11769145362396
 30
0.0
 11
128.7000000000002
 21
79.98371685740835
 31
0.0
  0
LINE
  5
2015
330
20C1
100
AcDbEntity
  8
0
370
    25
100
AcDbLine
 10
253.408416864829
 20
81.50330961912414
 30
0.0
 11
252.908416864829
 21
82.36933502290853
 31
0.0
  0
LINE
  5
1714
330
20C1
100
AcDbEntity
  8
0
370
    25
100
AcDbLine
 10
129.2000000000002
 20
63.11769145362385
 30
0.0
 11
128.6999999999999
 21
63.98371685740824
 31
0.0
  0
LINE
  5
2016
330
20C1
100
AcDbEntity
  8
0
370
    25
100
AcDbLine
 10
253.408416864829
 20
65.50330961912402
 30
0.0
 11
252.9084168648287
 21
66.36933502290842
 31
0.0
  0
LINE
  5
1715
330
20C1
100
AcDbEntity
  8
0
370
    25
100
AcDbLine
 10
158.8823085463762
 20
145.7999999999999
 30
0.0
 11
158.0162831425916
 21
146.2999999999999
 31
0.0
  0
LINE
  5
2017
330
20C1
100
AcDbEntity
  8
0
370
    25
100
AcDbLine
 10
283.090725411205
 20
148.1856181655001
 30
0.0
 11
282.2247000074204
 21
148.6856181655001
 31
0.0
  0
LINE
  5
1716
330
20C1
100
AcDbEntity
  8
0
370
    25
100
AcDbLine
 10
127.8823085463762
 20
125.7999999999999
 30
0.0
 11
127.0162831425916
 21
126.2999999999999
 31
0.0
  0
LINE
  5
2018
330
20C1
100
AcDbEntity
  8
0
370
    25
100
AcDbLine
 10
252.090725411205
 20
128.1856181655001
 30
0.0
 11
251.2247000074204
 21
128.6856181655001
 31
0.0
  0
LINE
  5
1717
330
20C1
100
AcDbEntity
  8
0
370
    25
100
AcDbLine
 10
127.8823085463762
 20
109.7999999999998
 30
0.0
 11
127.0162831425916
 21
110.3
 31
0.0
  0
LINE
  5
2019
330
20C1
100
AcDbEntity
  8
0
370
    25
100
AcDbLine
 10
252.090725411205
 20
112.1856181655
 30
0.0
 11
251.2247000074204
 21
112.6856181655002
 31
0.0
  0
LINE
  5
1718
330
20C1
100
AcDbEntity
  8
0
370
    25
100
AcDbLine
 10
127.8823085463762
 20
93.79999999999995
 30
0.0
 11
127.0162831425916
 21
94.29999999999984
 31
0.0
  0
LINE
  5
201A
330
20C1
100
AcDbEntity
  8
0
370
    25
100
AcDbLine
 10
252.090725411205
 20
96.18561816550013
 30
0.0
 11
251.2247000074204
 21
96.68561816550002
 31
0.0
  0
LINE
  5
1719
330
20C1
100
AcDbEntity
  8
0
370
    25
100
AcDbLine
 10
127.8823085463762
 20
77.79999999999995
 30
0.0
 11
127.0162831425916
 21
78.29999999999984
 31
0.0
  0
LINE
  5
201B
330
20C1
100
AcDbEntity
  8
0
370
    25
100
AcDbLine
 10
252.090725411205
 20
80.18561816550013
 30
0.0
 11
251.2247000074204
 21
80.68561816550002
 31
0.0
  0
LINE
  5
171A
330
20C1
100
AcDbEntity
  8
0
370
    25
100
AcDbLine
 10
127.8823085463762
 20
61.79999999999984
 30
0.0
 11
127.0162831425916
 21
62.29999999999984
 31
0.0
  0
LINE
  5
201C
330
20C1
100
AcDbEntity
  8
0
370
    25
100
AcDbLine
 10
252.090725411205
 20
64.18561816550002
 30
0.0
 11
251.2247000074204
 21
64.68561816550002
 31
0.0
  0
LINE
  5
171B
330
20C1
100
AcDbEntity
  8
0
370
    25
100
AcDbLine
 10
158.4000000000001
 20
144.0
 30
0.0
 11
157.4000000000001
 21
144.0
 31
0.0
  0
LINE
  5
201D
330
20C1
100
AcDbEntity
  8
0
370
    25
100
AcDbLine
 10
282.6084168648289
 20
146.3856181655002
 30
0.0
 11
281.6084168648289
 21
146.3856181655002
 31
0.0
  0
LINE
  5
171C
330
20C1
100
AcDbEntity
  8
0
370
    25
100
AcDbLine
 10
127.4000000000001
 20
123.9999999999998
 30
0.0
 11
126.4000000000001
 21
123.9999999999998
 31
0.0
  0
LINE
  5
201E
330
20C1
100
AcDbEntity
  8
0
370
    25
100
AcDbLine
 10
251.6084168648289
 20
126.3856181655
 30
0.0
 11
250.6084168648289
 21
126.3856181655
 31
0.0
  0
LINE
  5
171D
330
20C1
100
AcDbEntity
  8
0
370
    25
100
AcDbLine
 10
127.4000000000002
 20
107.9999999999999
 30
0.0
 11
126.4000000000001
 21
107.9999999999999
 31
0.0
  0
LINE
  5
201F
330
20C1
100
AcDbEntity
  8
0
370
    25
100
AcDbLine
 10
251.608416864829
 20
110.3856181655001
 30
0.0
 11
250.6084168648289
 21
110.3856181655001
 31
0.0
  0
LINE
  5
171E
330
20C1
100
AcDbEntity
  8
0
370
    25
100
AcDbLine
 10
127.4000000000001
 20
91.99999999999986
 30
0.0
 11
126.4000000000002
 21
91.99999999999986
 31
0.0
  0
LINE
  5
2020
330
20C1
100
AcDbEntity
  8
0
370
    25
100
AcDbLine
 10
251.6084168648289
 20
94.38561816550003
 30
0.0
 11
250.608416864829
 21
94.38561816550003
 31
0.0
  0
LINE
  5
171F
330
20C1
100
AcDbEntity
  8
0
370
    25
100
AcDbLine
 10
127.4000000000001
 20
75.99999999999984
 30
0.0
 11
126.4000000000001
 21
75.99999999999984
 31
0.0
  0
LINE
  5
2021
330
20C1
100
AcDbEntity
  8
0
370
    25
100
AcDbLine
 10
251.6084168648289
 20
78.38561816550002
 30
0.0
 11
250.6084168648289
 21
78.38561816550002
 31
0.0
  0
LINE
  5
1720
330
20C1
100
AcDbEntity
  8
0
370
    25
100
AcDbLine
 10
127.4000000000001
 20
59.99999999999984
 30
0.0
 11
126.4000000000002
 21
59.99999999999984
 31
0.0
  0
LINE
  5
2022
330
20C1
100
AcDbEntity
  8
0
370
    25
100
AcDbLine
 10
251.6084168648289
 20
62.38561816550001
 30
0.0
 11
250.608416864829
 21
62.38561816550001
 31
0.0
  0
LINE
  5
1721
330
20C1
100
AcDbEntity
  8
0
370
    25
100
AcDbLine
 10
158.8823085463762
 20
142.1999999999999
 30
0.0
 11
158.0162831425916
 21
141.6999999999999
 31
0.0
  0
LINE
  5
2023
330
20C1
100
AcDbEntity
  8
0
370
    25
100
AcDbLine
 10
283.090725411205
 20
144.5856181655001
 30
0.0
 11
282.2247000074204
 21
144.0856181655001
 31
0.0
  0
LINE
  5
1722
330
20C1
100
AcDbEntity
  8
0
370
    25
100
AcDbLine
 10
127.8823085463762
 20
122.1999999999999
 30
0.0
 11
127.0162831425916
 21
121.6999999999998
 31
0.0
  0
LINE
  5
2024
330
20C1
100
AcDbEntity
  8
0
370
    25
100
AcDbLine
 10
252.090725411205
 20
124.5856181655001
 30
0.0
 11
251.2247000074204
 21
124.0856181655
 31
0.0
  0
LINE
  5
1723
330
20C1
100
AcDbEntity
  8
0
370
    25
100
AcDbLine
 10
127.8823085463762
 20
106.2
 30
0.0
 11
127.0162831425916
 21
105.7
 31
0.0
  0
LINE
  5
2025
330
20C1
100
AcDbEntity
  8
0
370
    25
100
AcDbLine
 10
252.090725411205
 20
108.5856181655002
 30
0.0
 11
251.2247000074204
 21
108.0856181655002
 31
0.0
  0
LINE
  5
1724
330
20C1
100
AcDbEntity
  8
0
370
    25
100
AcDbLine
 10
127.8823085463762
 20
90.19999999999996
 30
0.0
 11
127.0162831425918
 21
89.69999999999996
 31
0.0
  0
LINE
  5
2026
330
20C1
100
AcDbEntity
  8
0
370
    25
100
AcDbLine
 10
252.090725411205
 20
92.58561816550014
 30
0.0
 11
251.2247000074206
 21
92.08561816550014
 31
0.0
  0
LINE
  5
1725
330
20C1
100
AcDbEntity
  8
0
370
    25
100
AcDbLine
 10
127.8823085463762
 20
74.19999999999996
 30
0.0
 11
127.0162831425915
 21
73.69999999999996
 31
0.0
  0
LINE
  5
2027
330
20C1
100
AcDbEntity
  8
0
370
    25
100
AcDbLine
 10
252.090725411205
 20
76.58561816550014
 30
0.0
 11
251.2247000074203
 21
76.08561816550014
 31
0.0
  0
LINE
  5
1726
330
20C1
100
AcDbEntity
  8
0
370
    25
100
AcDbLine
 10
127.8823085463762
 20
58.19999999999995
 30
0.0
 11
127.0162831425918
 21
57.69999999999995
 31
0.0
  0
LINE
  5
2028
330
20C1
100
AcDbEntity
  8
0
370
    25
100
AcDbLine
 10
252.090725411205
 20
60.58561816550013
 30
0.0
 11
251.2247000074206
 21
60.08561816550013
 31
0.0
  0
LINE
  5
1727
330
20C1
100
AcDbEntity
  8
0
370
    25
100
AcDbLine
 10
160.2
 20
140.8823085463759
 30
0.0
 11
159.7
 21
140.0162831425916
 31
0.0
  0
LINE
  5
2029
330
20C1
100
AcDbEntity
  8
0
370
    25
100
AcDbLine
 10
284.4084168648288
 20
143.2679267118761
 30
0.0
 11
283.9084168648288
 21
142.4019013080918
 31
0.0
  0
LINE
  5
1728
330
20C1
100
AcDbEntity
  8
0
370
    25
100
AcDbLine
 10
129.2
 20
120.8823085463758
 30
0.0
 11
128.7
 21
120.0162831425915
 31
0.0
  0
LINE
  5
202A
330
20C1
100
AcDbEntity
  8
0
370
    25
100
AcDbLine
 10
253.4084168648288
 20
123.267926711876
 30
0.0
 11
252.9084168648288
 21
122.4019013080917
 31
0.0
  0
LINE
  5
1729
330
20C1
100
AcDbEntity
  8
0
370
    25
100
AcDbLine
 10
129.2
 20
104.882308546376
 30
0.0
 11
128.7
 21
104.0162831425916
 31
0.0
  0
LINE
  5
202B
330
20C1
100
AcDbEntity
  8
0
370
    25
100
AcDbLine
 10
253.4084168648288
 20
107.2679267118762
 30
0.0
 11
252.9084168648288
 21
106.4019013080918
 31
0.0
  0
LINE
  5
172A
330
20C1
100
AcDbEntity
  8
0
370
    25
100
AcDbLine
 10
129.2
 20
88.88230854637595
 30
0.0
 11
128.7
 21
88.01628314259145
 31
0.0
  0
LINE
  5
202C
330
20C1
100
AcDbEntity
  8
0
370
    25
100
AcDbLine
 10
253.4084168648288
 20
91.26792671187613
 30
0.0
 11
252.9084168648288
 21
90.40190130809162
 31
0.0
  0
LINE
  5
172B
330
20C1
100
AcDbEntity
  8
0
370
    25
100
AcDbLine
 10
129.2
 20
72.88230854637595
 30
0.0
 11
128.6999999999999
 21
72.01628314259143
 31
0.0
  0
LINE
  5
202D
330
20C1
100
AcDbEntity
  8
0
370
    25
100
AcDbLine
 10
253.4084168648288
 20
75.26792671187613
 30
0.0
 11
252.9084168648287
 21
74.40190130809161
 31
0.0
  0
LINE
  5
172C
330
20C1
100
AcDbEntity
  8
0
370
    25
100
AcDbLine
 10
129.2000000000002
 20
56.88230854637585
 30
0.0
 11
128.7
 21
56.01628314259143
 31
0.0
  0
LINE
  5
202E
330
20C1
100
AcDbEntity
  8
0
370
    25
100
AcDbLine
 10
253.408416864829
 20
59.26792671187603
 30
0.0
 11
252.9084168648288
 21
58.40190130809161
 31
0.0
  0
LINE
  5
172D
330
20C1
100
AcDbEntity
  8
0
370
    25
100
AcDbLine
 10
163.8000000000002
 20
140.8823085463759
 30
0.0
 11
164.3000000000002
 21
140.0162831425915
 31
0.0
  0
LINE
  5
202F
330
20C1
100
AcDbEntity
  8
0
370
    25
100
AcDbLine
 10
288.008416864829
 20
143.2679267118761
 30
0.0
 11
288.508416864829
 21
142.4019013080917
 31
0.0
  0
LINE
  5
172E
330
20C1
100
AcDbEntity
  8
0
370
    25
100
AcDbLine
 10
132.8000000000002
 20
120.8823085463759
 30
0.0
 11
133.3000000000002
 21
120.0162831425915
 31
0.0
  0
LINE
  5
2030
330
20C1
100
AcDbEntity
  8
0
370
    25
100
AcDbLine
 10
257.008416864829
 20
123.2679267118761
 30
0.0
 11
257.508416864829
 21
122.4019013080917
 31
0.0
  0
LINE
  5
172F
330
20C1
100
AcDbEntity
  8
0
370
    25
100
AcDbLine
 10
132.8000000000002
 20
104.882308546376
 30
0.0
 11
133.3000000000002
 21
104.0162831425914
 31
0.0
  0
LINE
  5
2031
330
20C1
100
AcDbEntity
  8
0
370
    25
100
AcDbLine
 10
257.008416864829
 20
107.2679267118762
 30
0.0
 11
257.508416864829
 21
106.4019013080916
 31
0.0
  0
LINE
  5
1730
330
20C1
100
AcDbEntity
  8
0
370
    25
100
AcDbLine
 10
132.8000000000002
 20
88.88230854637584
 30
0.0
 11
133.3000000000002
 21
88.01628314259156
 31
0.0
  0
LINE
  5
2032
330
20C1
100
AcDbEntity
  8
0
370
    25
100
AcDbLine
 10
257.008416864829
 20
91.26792671187602
 30
0.0
 11
257.508416864829
 21
90.40190130809174
 31
0.0
  0
LINE
  5
1731
330
20C1
100
AcDbEntity
  8
0
370
    25
100
AcDbLine
 10
132.8000000000002
 20
72.88230854637584
 30
0.0
 11
133.3000000000002
 21
72.01628314259143
 31
0.0
  0
LINE
  5
2033
330
20C1
100
AcDbEntity
  8
0
370
    25
100
AcDbLine
 10
257.008416864829
 20
75.26792671187602
 30
0.0
 11
257.508416864829
 21
74.40190130809161
 31
0.0
  0
LINE
  5
1732
330
20C1
100
AcDbEntity
  8
0
370
    25
100
AcDbLine
 10
132.8
 20
56.88230854637585
 30
0.0
 11
133.3000000000002
 21
56.01628314259143
 31
0.0
  0
LINE
  5
2034
330
20C1
100
AcDbEntity
  8
0
370
    25
100
AcDbLine
 10
257.0084168648289
 20
59.26792671187603
 30
0.0
 11
257.508416864829
 21
58.40190130809161
 31
0.0
  0
LINE
  5
1733
330
20C1
100
AcDbEntity
  8
0
370
    25
100
AcDbLine
 10
165.1176914536239
 20
142.1999999999999
 30
0.0
 11
165.9837168574086
 21
141.6999999999999
 31
0.0
  0
LINE
  5
2035
330
20C1
100
AcDbEntity
  8
0
370
    25
100
AcDbLine
 10
289.3261083184527
 20
144.5856181655001
 30
0.0
 11
290.1921337222374
 21
144.0856181655001
 31
0.0
  0
LINE
  5
1734
330
20C1
100
AcDbEntity
  8
0
370
    25
100
AcDbLine
 10
134.117691453624
 20
122.1999999999998
 30
0.0
 11
134.9837168574086
 21
121.6999999999998
 31
0.0
  0
LINE
  5
2036
330
20C1
100
AcDbEntity
  8
0
370
    25
100
AcDbLine
 10
258.3261083184528
 20
124.5856181655
 30
0.0
 11
259.1921337222374
 21
124.0856181655
 31
0.0
  0
LINE
  5
1735
330
20C1
100
AcDbEntity
  8
0
370
    25
100
AcDbLine
 10
134.117691453624
 20
106.2
 30
0.0
 11
134.9837168574086
 21
105.7
 31
0.0
  0
LINE
  5
2037
330
20C1
100
AcDbEntity
  8
0
370
    25
100
AcDbLine
 10
258.3261083184528
 20
108.5856181655002
 30
0.0
 11
259.1921337222374
 21
108.0856181655002
 31
0.0
  0
LINE
  5
1736
330
20C1
100
AcDbEntity
  8
0
370
    25
100
AcDbLine
 10
134.117691453624
 20
90.19999999999996
 30
0.0
 11
134.9837168574086
 21
89.69999999999996
 31
0.0
  0
LINE
  5
2038
330
20C1
100
AcDbEntity
  8
0
370
    25
100
AcDbLine
 10
258.3261083184528
 20
92.58561816550014
 30
0.0
 11
259.1921337222374
 21
92.08561816550014
 31
0.0
  0
LINE
  5
1737
330
20C1
100
AcDbEntity
  8
0
370
    25
100
AcDbLine
 10
134.1176914536239
 20
74.19999999999985
 30
0.0
 11
134.9837168574086
 21
73.69999999999996
 31
0.0
  0
LINE
  5
2039
330
20C1
100
AcDbEntity
  8
0
370
    25
100
AcDbLine
 10
258.3261083184527
 20
76.58561816550002
 30
0.0
 11
259.1921337222374
 21
76.08561816550014
 31
0.0
  0
LINE
  5
1738
330
20C1
100
AcDbEntity
  8
0
370
    25
100
AcDbLine
 10
134.1176914536242
 20
58.19999999999995
 30
0.0
 11
134.9837168574086
 21
57.69999999999995
 31
0.0
  0
LINE
  5
203A
330
20C1
100
AcDbEntity
  8
0
370
    25
100
AcDbLine
 10
258.326108318453
 20
60.58561816550013
 30
0.0
 11
259.1921337222374
 21
60.08561816550013
 31
0.0
  0
LINE
  5
1739
330
20C1
100
AcDbEntity
  8
0
370
    25
100
AcDbLine
 10
165.6000000000001
 20
144.0
 30
0.0
 11
166.6000000000001
 21
143.9999999999999
 31
0.0
  0
LINE
  5
203B
330
20C1
100
AcDbEntity
  8
0
370
    25
100
AcDbLine
 10
289.8084168648289
 20
146.3856181655002
 30
0.0
 11
290.8084168648289
 21
146.3856181655001
 31
0.0
  0
LINE
  5
173A
330
20C1
100
AcDbEntity
  8
0
370
    25
100
AcDbLine
 10
134.6
 20
123.9999999999998
 30
0.0
 11
135.6
 21
123.9999999999998
 31
0.0
  0
LINE
  5
203C
330
20C1
100
AcDbEntity
  8
0
370
    25
100
AcDbLine
 10
258.8084168648288
 20
126.3856181655
 30
0.0
 11
259.8084168648288
 21
126.3856181655
 31
0.0
  0
LINE
  5
173B
330
20C1
100
AcDbEntity
  8
0
370
    25
100
AcDbLine
 10
134.6
 20
107.9999999999999
 30
0.0
 11
135.6
 21
107.9999999999999
 31
0.0
  0
LINE
  5
203D
330
20C1
100
AcDbEntity
  8
0
370
    25
100
AcDbLine
 10
258.8084168648288
 20
110.3856181655001
 30
0.0
 11
259.8084168648288
 21
110.3856181655001
 31
0.0
  0
LINE
  5
173C
330
20C1
100
AcDbEntity
  8
0
370
    25
100
AcDbLine
 10
134.6
 20
91.99999999999986
 30
0.0
 11
135.6
 21
91.99999999999986
 31
0.0
  0
LINE
  5
203E
330
20C1
100
AcDbEntity
  8
0
370
    25
100
AcDbLine
 10
258.8084168648288
 20
94.38561816550003
 30
0.0
 11
259.8084168648288
 21
94.38561816550003
 31
0.0
  0
LINE
  5
173D
330
20C1
100
AcDbEntity
  8
0
370
    25
100
AcDbLine
 10
134.6
 20
75.99999999999984
 30
0.0
 11
135.6
 21
75.99999999999984
 31
0.0
  0
LINE
  5
203F
330
20C1
100
AcDbEntity
  8
0
370
    25
100
AcDbLine
 10
258.8084168648288
 20
78.38561816550002
 30
0.0
 11
259.8084168648288
 21
78.38561816550002
 31
0.0
  0
LINE
  5
173E
330
20C1
100
AcDbEntity
  8
0
370
    25
100
AcDbLine
 10
134.6
 20
59.99999999999984
 30
0.0
 11
135.6
 21
59.99999999999984
 31
0.0
  0
LINE
  5
2040
330
20C1
100
AcDbEntity
  8
0
370
    25
100
AcDbLine
 10
258.8084168648288
 20
62.38561816550001
 30
0.0
 11
259.8084168648288
 21
62.38561816550001
 31
0.0
  0
LINE
  5
173F
330
20C1
100
AcDbEntity
  8
0
370
    25
100
AcDbLine
 10
165.1176914536239
 20
145.7999999999999
 30
0.0
 11
165.9837168574086
 21
146.2999999999999
 31
0.0
  0
LINE
  5
2041
330
20C1
100
AcDbEntity
  8
0
370
    25
100
AcDbLine
 10
289.3261083184527
 20
148.1856181655001
 30
0.0
 11
290.1921337222374
 21
148.6856181655001
 31
0.0
  0
LINE
  5
1740
330
20C1
100
AcDbEntity
  8
0
370
    25
100
AcDbLine
 10
134.1176914536239
 20
125.7999999999999
 30
0.0
 11
134.9837168574086
 21
126.2999999999999
 31
0.0
  0
LINE
  5
2042
330
20C1
100
AcDbEntity
  8
0
370
    25
100
AcDbLine
 10
258.3261083184527
 20
128.1856181655001
 30
0.0
 11
259.1921337222374
 21
128.6856181655001
 31
0.0
  0
LINE
  5
1741
330
20C1
100
AcDbEntity
  8
0
370
    25
100
AcDbLine
 10
134.117691453624
 20
109.7999999999998
 30
0.0
 11
134.9837168574086
 21
110.2999999999998
 31
0.0
  0
LINE
  5
2043
330
20C1
100
AcDbEntity
  8
0
370
    25
100
AcDbLine
 10
258.3261083184528
 20
112.1856181655
 30
0.0
 11
259.1921337222374
 21
112.6856181655
 31
0.0
  0
LINE
  5
1742
330
20C1
100
AcDbEntity
  8
0
370
    25
100
AcDbLine
 10
134.117691453624
 20
93.79999999999995
 30
0.0
 11
134.9837168574086
 21
94.29999999999984
 31
0.0
  0
LINE
  5
2044
330
20C1
100
AcDbEntity
  8
0
370
    25
100
AcDbLine
 10
258.3261083184528
 20
96.18561816550013
 30
0.0
 11
259.1921337222374
 21
96.68561816550002
 31
0.0
  0
LINE
  5
1743
330
20C1
100
AcDbEntity
  8
0
370
    25
100
AcDbLine
 10
134.117691453624
 20
77.79999999999984
 30
0.0
 11
134.9837168574086
 21
78.29999999999984
 31
0.0
  0
LINE
  5
2045
330
20C1
100
AcDbEntity
  8
0
370
    25
100
AcDbLine
 10
258.3261083184528
 20
80.18561816550002
 30
0.0
 11
259.1921337222374
 21
80.68561816550002
 31
0.0
  0
LINE
  5
1744
330
20C1
100
AcDbEntity
  8
0
370
    25
100
AcDbLine
 10
134.1176914536242
 20
61.79999999999984
 30
0.0
 11
134.9837168574086
 21
62.29999999999984
 31
0.0
  0
LINE
  5
2046
330
20C1
100
AcDbEntity
  8
0
370
    25
100
AcDbLine
 10
258.326108318453
 20
64.18561816550002
 30
0.0
 11
259.1921337222374
 21
64.68561816550002
 31
0.0
  0
LINE
  5
1745
330
20C1
100
AcDbEntity
  8
0
370
    25
100
AcDbLine
 10
163.8000000000002
 20
147.1176914536239
 30
0.0
 11
164.3000000000002
 21
147.9837168574083
 31
0.0
  0
LINE
  5
2047
330
20C1
100
AcDbEntity
  8
0
370
    25
100
AcDbLine
 10
288.008416864829
 20
149.5033096191241
 30
0.0
 11
288.508416864829
 21
150.3693350229085
 31
0.0
  0
LINE
  5
1746
330
20C1
100
AcDbEntity
  8
0
370
    25
100
AcDbLine
 10
132.8000000000002
 20
127.117691453624
 30
0.0
 11
133.3000000000002
 21
127.9837168574083
 31
0.0
  0
LINE
  5
2048
330
20C1
100
AcDbEntity
  8
0
370
    25
100
AcDbLine
 10
257.008416864829
 20
129.5033096191242
 30
0.0
 11
257.508416864829
 21
130.3693350229085
 31
0.0
  0
LINE
  5
1747
330
20C1
100
AcDbEntity
  8
0
370
    25
100
AcDbLine
 10
132.8000000000002
 20
111.117691453624
 30
0.0
 11
133.3000000000002
 21
111.9837168574082
 31
0.0
  0
LINE
  5
2049
330
20C1
100
AcDbEntity
  8
0
370
    25
100
AcDbLine
 10
257.008416864829
 20
113.5033096191242
 30
0.0
 11
257.508416864829
 21
114.3693350229084
 31
0.0
  0
LINE
  5
1748
330
20C1
100
AcDbEntity
  8
0
370
    25
100
AcDbLine
 10
132.8000000000002
 20
95.11769145362385
 30
0.0
 11
133.3000000000002
 21
95.98371685740835
 31
0.0
  0
LINE
  5
204A
330
20C1
100
AcDbEntity
  8
0
370
    25
100
AcDbLine
 10
257.008416864829
 20
97.50330961912402
 30
0.0
 11
257.508416864829
 21
98.36933502290853
 31
0.0
  0
LINE
  5
1749
330
20C1
100
AcDbEntity
  8
0
370
    25
100
AcDbLine
 10
132.8000000000002
 20
79.11769145362396
 30
0.0
 11
133.3000000000002
 21
79.98371685740824
 31
0.0
  0
LINE
  5
204B
330
20C1
100
AcDbEntity
  8
0
370
    25
100
AcDbLine
 10
257.008416864829
 20
81.50330961912414
 30
0.0
 11
257.508416864829
 21
82.36933502290842
 31
0.0
  0
LINE
  5
174A
330
20C1
100
AcDbEntity
  8
0
370
    25
100
AcDbLine
 10
132.8000000000002
 20
63.11769145362385
 30
0.0
 11
133.3000000000002
 21
63.98371685740824
 31
0.0
  0
LINE
  5
204C
330
20C1
100
AcDbEntity
  8
0
370
    25
100
AcDbLine
 10
257.008416864829
 20
65.50330961912402
 30
0.0
 11
257.508416864829
 21
66.36933502290842
 31
0.0
  0
LINE
  5
174B
330
20C1
100
AcDbEntity
  8
0
370
    25
100
AcDbLine
 10
162.0
 20
147.6
 30
0.0
 11
162.0
 21
148.6
 31
0.0
  0
LINE
  5
204D
330
20C1
100
AcDbEntity
  8
0
370
    25
100
AcDbLine
 10
286.2084168648288
 20
149.9856181655002
 30
0.0
 11
286.2084168648288
 21
150.9856181655002
 31
0.0
  0
LINE
  5
174C
330
20C1
100
AcDbEntity
  8
0
370
    25
100
AcDbLine
 10
131.0
 20
127.5999999999999
 30
0.0
 11
131.0
 21
128.5999999999999
 31
0.0
  0
LINE
  5
204E
330
20C1
100
AcDbEntity
  8
0
370
    25
100
AcDbLine
 10
255.2084168648288
 20
129.9856181655001
 30
0.0
 11
255.2084168648288
 21
130.9856181655001
 31
0.0
  0
LINE
  5
174D
330
20C1
100
AcDbEntity
  8
0
370
    25
100
AcDbLine
 10
131.0
 20
111.5999999999999
 30
0.0
 11
131.0
 21
112.5999999999999
 31
0.0
  0
LINE
  5
204F
330
20C1
100
AcDbEntity
  8
0
370
    25
100
AcDbLine
 10
255.2084168648288
 20
113.9856181655001
 30
0.0
 11
255.2084168648288
 21
114.9856181655001
 31
0.0
  0
LINE
  5
174E
330
20C1
100
AcDbEntity
  8
0
370
    25
100
AcDbLine
 10
131.0
 20
95.59999999999985
 30
0.0
 11
131.0
 21
96.59999999999985
 31
0.0
  0
LINE
  5
2050
330
20C1
100
AcDbEntity
  8
0
370
    25
100
AcDbLine
 10
255.2084168648288
 20
97.98561816550003
 30
0.0
 11
255.2084168648288
 21
98.98561816550003
 31
0.0
  0
LINE
  5
174F
330
20C1
100
AcDbEntity
  8
0
370
    25
100
AcDbLine
 10
131.0
 20
79.59999999999985
 30
0.0
 11
131.0
 21
80.59999999999985
 31
0.0
  0
LINE
  5
2051
330
20C1
100
AcDbEntity
  8
0
370
    25
100
AcDbLine
 10
255.2084168648288
 20
81.98561816550003
 30
0.0
 11
255.2084168648288
 21
82.98561816550003
 31
0.0
  0
LINE
  5
1750
330
20C1
100
AcDbEntity
  8
0
370
    25
100
AcDbLine
 10
131.0
 20
63.59999999999985
 30
0.0
 11
131.0
 21
64.59999999999985
 31
0.0
  0
LINE
  5
2052
330
20C1
100
AcDbEntity
  8
0
370
    25
100
AcDbLine
 10
255.2084168648288
 20
65.98561816550003
 30
0.0
 11
255.2084168648288
 21
66.98561816550003
 31
0.0
  0
MTEXT
  5
1751
330
20C1
100
AcDbEntity
  8
0
370
    25
100
AcDbMText
 10
162.0393297519627
 20
152.0678260414866
 30
0.0
 40
2.0
 41
0.0
 46
0.0
 71
     2
 72
     1
  1
RATE
  7
textstyle3
 73
     1
 44
1.0
  0
MTEXT
  5
2053
330
20C1
100
AcDbEntity
  8
0
370
    25
100
AcDbMText
 10
286.2477466167915
 20
154.4534442069867
 30
0.0
 40
2.0
 41
0.0
 46
0.0
 71
     2
 72
     1
  1
RATE
  7
textstyle3
 73
     1
 44
1.0
  0
MTEXT
  5
1752
330
20C1
100
AcDbEntity
  8
0
370
    25
100
AcDbMText
 10
100.5226424638877
 20
156.0585754058854
 30
0.0
 40
2.0
 41
0.0
 46
0.0
 71
     2
 72
     1
  1
 STEP\PCOUNT
  7
textstyle3
 73
     1
 44
1.0
  0
MTEXT
  5
2054
330
20C1
100
AcDbEntity
  8
0
370
    25
100
AcDbMText
 10
224.7310593287166
 20
158.4441935713856
 30
0.0
 40
2.0
 41
0.0
 46
0.0
 71
     2
 72
     1
  1
 STEP\PCOUNT
  7
textstyle3
 73
     1
 44
1.0
  0
MTEXT
  5
1753
330
20C1
100
AcDbEntity
  8
0
370
    25
100
AcDbMText
 10
105.6389878028607
 20
149.2026726516617
 30
0.0
 40
2.0
 41
0.0
 46
0.0
 71
     2
 72
     1
  1
\H1.5;3\P\P4\P\P5
  7
textstyle3
 73
     1
 44
1.0
  0
MTEXT
  5
2055
330
20C1
100
AcDbEntity
  8
0
370
    25
100
AcDbMText
 10
229.8474046676895
 20
151.5882908171619
 30
0.0
 40
2.0
 41
0.0
 46
0.0
 71
     2
 72
     1
  1
\H1.5;3\P\P4\P\P5
  7
textstyle3
 73
     1
 44
1.0
  0
MTEXT
  5
1754
330
20C1
100
AcDbEntity
  8
0
370
    25
100
AcDbMText
 10
161.7
 20
127.9999999999998
 30
0.0
 40
2.0
 41
0.0
 46
0.0
 71
     2
 72
     1
  1
CLK IN
  7
textstyle3
 73
     1
 44
1.0
  0
MTEXT
  5
2056
330
20C1
100
AcDbEntity
  8
0
370
    25
100
AcDbMText
 10
285.9084168648288
 20
130.3856181655
 30
0.0
 40
2.0
 41
0.0
 46
0.0
 71
     2
 72
     1
  1
CLK IN
  7
textstyle3
 73
     1
 44
1.0
  0
MTEXT
  5
1755
330
20C1
100
AcDbEntity
  8
0
370
    25
100
AcDbMText
 10
162.7
 20
116.0000000000005
 30
0.0
 40
2.0
 41
0.0
 46
0.0
 71
     2
 72
     1
  1
CLK OUT
  7
textstyle3
 73
     1
 44
1.0
  0
MTEXT
  5
2057
330
20C1
100
AcDbEntity
  8
0
370
    25
100
AcDbMText
 10
286.9084168648288
 20
118.3856181655007
 30
0.0
 40
2.0
 41
0.0
 46
0.0
 71
     2
 72
     1
  1
CLK OUT
  7
textstyle3
 73
     1
 44
1.0
  0
MTEXT
  5
1756
330
20C1
100
AcDbEntity
  8
0
370
    25
100
AcDbMText
 10
161.8556521299321
 20
103.3022871301691
 30
0.0
 40
2.0
 41
0.0
 46
0.0
 71
     2
 72
     1
  1
RESET
  7
textstyle3
 73
     1
 44
1.0
  0
MTEXT
  5
2058
330
20C1
100
AcDbEntity
  8
0
370
    25
100
AcDbMText
 10
286.0640689947609
 20
105.6879052956693
 30
0.0
 40
2.0
 41
0.0
 46
0.0
 71
     2
 72
     1
  1
RESET
  7
textstyle3
 73
     1
 44
1.0
  0
MTEXT
  5
1757
330
20C1
100
AcDbEntity
  8
0
370
    25
100
AcDbMText
 10
161.7
 20
90.99999999999896
 30
0.0
 40
2.0
 41
0.0
 46
0.0
 71
     2
 72
     1
  1
GATE OUT
  7
textstyle3
 73
     1
 44
1.0
  0
MTEXT
  5
2059
330
20C1
100
AcDbEntity
  8
0
370
    25
100
AcDbMText
 10
285.9084168648288
 20
93.38561816549914
 30
0.0
 40
2.0
 41
0.0
 46
0.0
 71
     2
 72
     1
  1
GATE OUT
  7
textstyle3
 73
     1
 44
1.0
  0
MTEXT
  5
1758
330
20C1
100
AcDbEntity
  8
0
370
    25
100
AcDbMText
 10
162.1553299393993
 20
78.84049428886725
 30
0.0
 40
2.0
 41
0.0
 46
0.0
 71
     2
 72
     1
  1
CV OUT
  7
textstyle3
 73
     1
 44
1.0
  0
MTEXT
  5
205A
330
20C1
100
AcDbEntity
  8
0
370
    25
100
AcDbMText
 10
286.3637468042281
 20
81.22611245436742
 30
0.0
 40
2.0
 41
0.0
 46
0.0
 71
     2
 72
     1
  1
CV OUT
  7
textstyle3
 73
     1
 44
1.0
  0
MTEXT
  5
1759
330
20C1
100
AcDbEntity
  8
0
370
    25
100
AcDbMText
 10
161.7494509281152
 20
66.50000000000003
 30
0.0
 40
2.0
 41
0.0
 46
0.0
 71
     2
 72
     1
  1
CV RANGE
  7
textstyle3
 73
     1
 44
1.0
  0
MTEXT
  5
205B
330
20C1
100
AcDbEntity
  8
0
370
    25
100
AcDbMText
 10
285.957867792944
 20
68.88561816550018
 30
0.0
 40
2.0
 41
0.0
 46
0.0
 71
     2
 72
     1
  1
CV RANGE
  7
textstyle3
 73
     1
 44
1.0
  0
MTEXT
  5
175A
330
20C1
100
AcDbEntity
  8
0
370
    25
100
AcDbMText
 10
155.7494509281152
 20
62.5
 30
0.0
 40
2.0
 41
0.0
 46
0.0
 71
     2
 72
     1
  1
5V
  7
textstyle3
 73
     1
 44
1.0
  0
MTEXT
  5
205C
330
20C1
100
AcDbEntity
  8
0
370
    25
100
AcDbMText
 10
279.957867792944
 20
64.88561816550019
 30
0.0
 40
2.0
 41
0.0
 46
0.0
 71
     2
 72
     1
  1
5V
  7
textstyle3
 73
     1
 44
1.0
  0
MTEXT
  5
175B
330
20C1
100
AcDbEntity
  8
0
370
    25
100
AcDbMText
 10
155.7494509281152
 20
56.50000000000004
 30
0.0
 40
2.0
 41
0.0
 46
0.0
 71
     2
 72
     1
  1
2.5V
  7
textstyle3
 73
     1
 44
1.0
  0
MTEXT
  5
205D
330
20C1
100
AcDbEntity
  8
0
370
    25
100
AcDbMText
 10
279.957867792944
 20
58.88561816550019
 30
0.0
 40
2.0
 41
0.0
 46
0.0
 71
     2
 72
     1
  1
2.5V
  7
textstyle3
 73
     1
 44
1.0
  0
CIRCLE
  5
175E
330
20C1
100
AcDbEntity
  8
0
370
    25
100
AcDbCircle
 10
100.0000000000001
 20
59.99999999999986
 30
0.0
 40
0.3000000000000012
  0
CIRCLE
  5
205E
330
20C1
100
AcDbEntity
  8
0
370
    25
100
AcDbCircle
 10
224.2084168648289
 20
62.38561816550004
 30
0.0
 40
0.3000000000000012
  0
CIRCLE
  5
175F
330
20C1
100
AcDbEntity
  8
0
370
    25
100
AcDbCircle
 10
100.0
 20
75.99999999999987
 30
0.0
 40
0.3000000000000012
  0
CIRCLE
  5
205F
330
20C1
100
AcDbEntity
  8
0
370
    25
100
AcDbCircle
 10
224.2084168648288
 20
78.38561816550005
 30
0.0
 40
0.3000000000000012
  0
CIRCLE
  5
1760
330
20C1
100
AcDbEntity
  8
0
370
    25
100
AcDbCircle
 10
131.0
 20
59.99999999999984
 30
0.0
 40
0.2999999999999989
  0
CIRCLE
  5
2060
330
20C1
100
AcDbEntity
  8
0
370
    25
100
AcDbCircle
 10
255.2084168648288
 20
62.38561816550001
 30
0.0
 40
0.2999999999999989
  0
CIRCLE
  5
1761
330
20C1
100
AcDbEntity
  8
0
370
    25
100
AcDbCircle
 10
131.0
 20
75.99999999999984
 30
0.0
 40
0.2999999999999989
  0
CIRCLE
  5
2061
330
20C1
100
AcDbEntity
  8
0
370
    25
100
AcDbCircle
 10
255.2084168648288
 20
78.38561816550002
 30
0.0
 40
0.2999999999999989
  0
CIRCLE
  5
1762
330
20C1
100
AcDbEntity
  8
0
370
    25
100
AcDbCircle
 10
100.0
 20
91.99999999999989
 30
0.0
 40
0.2999999999999989
  0
CIRCLE
  5
2062
330
20C1
100
AcDbEntity
  8
0
370
    25
100
AcDbCircle
 10
224.2084168648288
 20
94.38561816550006
 30
0.0
 40
0.2999999999999989
  0
CIRCLE
  5
1763
330
20C1
100
AcDbEntity
  8
0
370
    25
100
AcDbCircle
 10
100.0
 20
107.9999999999999
 30
0.0
 40
0.2999999999999989
  0
CIRCLE
  5
2063
330
20C1
100
AcDbEntity
  8
0
370
    25
100
AcDbCircle
 10
224.2084168648288
 20
110.3856181655001
 30
0.0
 40
0.2999999999999989
  0
CIRCLE
  5
1764
330
20C1
100
AcDbEntity
  8
0
370
    25
100
AcDbCircle
 10
100.0
 20
123.9999999999998
 30
0.0
 40
0.2999999999999989
  0
CIRCLE
  5
2064
330
20C1
100
AcDbEntity
  8
0
370
    25
100
AcDbCircle
 10
224.2084168648288
 20
126.3856181655
 30
0.0
 40
0.2999999999999989
  0
CIRCLE
  5
1765
330
20C1
100
AcDbEntity
  8
0
370
    25
100
AcDbCircle
 10
131.0
 20
123.9999999999998
 30
0.0
 40
0.2999999999999989
  0
CIRCLE
  5
2065
330
20C1
100
AcDbEntity
  8
0
370
    25
100
AcDbCircle
 10
255.2084168648288
 20
126.3856181655
 30
0.0
 40
0.2999999999999989
  0
CIRCLE
  5
1766
330
20C1
100
AcDbEntity
  8
0
370
    25
100
AcDbCircle
 10
131.0
 20
107.9999999999999
 30
0.0
 40
0.2999999999999989
  0
CIRCLE
  5
2066
330
20C1
100
AcDbEntity
  8
0
370
    25
100
AcDbCircle
 10
255.2084168648288
 20
110.3856181655001
 30
0.0
 40
0.2999999999999989
  0
CIRCLE
  5
1767
330
20C1
100
AcDbEntity
  8
0
370
    25
100
AcDbCircle
 10
131.0
 20
91.99999999999986
 30
0.0
 40
0.2999999999999989
  0
CIRCLE
  5
2067
330
20C1
100
AcDbEntity
  8
0
370
    25
100
AcDbCircle
 10
255.2084168648288
 20
94.38561816550003
 30
0.0
 40
0.2999999999999989
  0
CIRCLE
  5
1768
330
20C1
100
AcDbEntity
  8
0
370
    25
100
AcDbCircle
 10
100.0
 20
144.0
 30
0.0
 40
0.2999999999999989
  0
CIRCLE
  5
2068
330
20C1
100
AcDbEntity
  8
0
370
    25
100
AcDbCircle
 10
224.2084168648288
 20
146.3856181655002
 30
0.0
 40
0.2999999999999989
  0
CIRCLE
  5
1769
330
20C1
100
AcDbEntity
  8
0
370
    25
100
AcDbCircle
 10
162.0
 20
144.0
 30
0.0
 40
0.2999999999999989
  0
CIRCLE
  5
2069
330
20C1
100
AcDbEntity
  8
0
370
    25
100
AcDbCircle
 10
286.2084168648288
 20
146.3856181655002
 30
0.0
 40
0.2999999999999989
  0
CIRCLE
  5
176A
330
20C1
100
AcDbEntity
  8
0
370
    25
100
AcDbCircle
 10
162.0
 20
121.9999999999998
 30
0.0
 40
0.2999999999999998
  0
CIRCLE
  5
206A
330
20C1
100
AcDbEntity
  8
0
370
    25
100
AcDbCircle
 10
286.2084168648288
 20
124.3856181655
 30
0.0
 40
0.2999999999999998
  0
CIRCLE
  5
176B
330
20C1
100
AcDbEntity
  8
0
370
    25
100
AcDbCircle
 10
162.0
 20
109.5999999999999
 30
0.0
 40
0.2999999999999998
  0
CIRCLE
  5
206B
330
20C1
100
AcDbEntity
  8
0
370
    25
100
AcDbCircle
 10
286.2084168648288
 20
111.9856181655001
 30
0.0
 40
0.2999999999999998
  0
CIRCLE
  5
176C
330
20C1
100
AcDbEntity
  8
0
370
    25
100
AcDbCircle
 10
162.0
 20
97.19999999999996
 30
0.0
 40
0.2999999999999998
  0
CIRCLE
  5
206C
330
20C1
100
AcDbEntity
  8
0
370
    25
100
AcDbCircle
 10
286.2084168648288
 20
99.58561816550014
 30
0.0
 40
0.2999999999999998
  0
CIRCLE
  5
176D
330
20C1
100
AcDbEntity
  8
0
370
    25
100
AcDbCircle
 10
162.0
 20
84.79999999999984
 30
0.0
 40
0.2999999999999998
  0
CIRCLE
  5
206D
330
20C1
100
AcDbEntity
  8
0
370
    25
100
AcDbCircle
 10
286.2084168648288
 20
87.18561816550002
 30
0.0
 40
0.2999999999999998
  0
CIRCLE
  5
176E
330
20C1
100
AcDbEntity
  8
0
370
    25
100
AcDbCircle
 10
162.0
 20
72.39999999999986
 30
0.0
 40
0.2999999999999998
  0
CIRCLE
  5
206E
330
20C1
100
AcDbEntity
  8
0
370
    25
100
AcDbCircle
 10
286.2084168648288
 20
74.78561816550004
 30
0.0
 40
0.2999999999999998
  0
CIRCLE
  5
176F
330
20C1
100
AcDbEntity
  8
0
370
    25
100
AcDbCircle
 10
162.0
 20
59.99999999999984
 30
0.0
 40
0.2999999999999998
  0
CIRCLE
  5
206F
330
20C1
100
AcDbEntity
  8
0
370
    25
100
AcDbCircle
 10
286.2084168648288
 20
62.38561816550001
 30
0.0
 40
0.2999999999999998
  0
CIRCLE
  5
1770
330
20C1
100
AcDbEntity
  8
0
370
    25
100
AcDbCircle
 10
119.0
 20
94.99999999999986
 30
0.0
 40
0.3000000000000009
  0
CIRCLE
  5
2070
330
20C1
100
AcDbEntity
  8
0
370
    25
100
AcDbCircle
 10
243.2084168648288
 20
97.38561816550003
 30
0.0
 40
0.3000000000000009
  0
CIRCLE
  5
1771
330
20C1
100
AcDbEntity
  8
0
370
    25
100
AcDbCircle
 10
119.0
 20
110.9999999999999
 30
0.0
 40
0.3000000000000009
  0
CIRCLE
  5
2071
330
20C1
100
AcDbEntity
  8
0
370
    25
100
AcDbCircle
 10
243.2084168648288
 20
113.3856181655001
 30
0.0
 40
0.3000000000000009
  0
CIRCLE
  5
1772
330
20C1
100
AcDbEntity
  8
0
370
    25
100
AcDbCircle
 10
119.0
 20
78.99999999999984
 30
0.0
 40
0.3000000000000009
  0
CIRCLE
  5
2072
330
20C1
100
AcDbEntity
  8
0
370
    25
100
AcDbCircle
 10
243.2084168648288
 20
81.38561816550002
 30
0.0
 40
0.3000000000000009
  0
CIRCLE
  5
1773
330
20C1
100
AcDbEntity
  8
0
370
    25
100
AcDbCircle
 10
119.0
 20
126.9999999999999
 30
0.0
 40
0.3000000000000009
  0
CIRCLE
  5
2073
330
20C1
100
AcDbEntity
  8
0
370
    25
100
AcDbCircle
 10
243.2084168648288
 20
129.3856181655001
 30
0.0
 40
0.3000000000000009
  0
CIRCLE
  5
1774
330
20C1
100
AcDbEntity
  8
0
370
    25
100
AcDbCircle
 10
119.0
 20
62.99999999999984
 30
0.0
 40
0.3000000000000009
  0
CIRCLE
  5
2074
330
20C1
100
AcDbEntity
  8
0
370
    25
100
AcDbCircle
 10
243.2084168648288
 20
65.3856181655
 30
0.0
 40
0.3000000000000009
  0
CIRCLE
  5
1775
330
20C1
100
AcDbEntity
  8
0
370
    25
100
AcDbCircle
 10
100.0000000000001
 20
59.99999999999986
 30
0.0
 40
3.500000000000001
  0
CIRCLE
  5
2075
330
20C1
100
AcDbEntity
  8
0
370
    25
100
AcDbCircle
 10
224.2084168648289
 20
62.38561816550004
 30
0.0
 40
3.500000000000001
  0
CIRCLE
  5
1776
330
20C1
100
AcDbEntity
  8
0
370
    25
100
AcDbCircle
 10
100.0
 20
75.99999999999987
 30
0.0
 40
3.500000000000001
  0
CIRCLE
  5
2076
330
20C1
100
AcDbEntity
  8
0
370
    25
100
AcDbCircle
 10
224.2084168648288
 20
78.38561816550005
 30
0.0
 40
3.500000000000001
  0
CIRCLE
  5
1777
330
20C1
100
AcDbEntity
  8
0
370
    25
100
AcDbCircle
 10
100.0
 20
91.99999999999989
 30
0.0
 40
3.499999999999999
  0
CIRCLE
  5
2077
330
20C1
100
AcDbEntity
  8
0
370
    25
100
AcDbCircle
 10
224.2084168648288
 20
94.38561816550006
 30
0.0
 40
3.499999999999999
  0
CIRCLE
  5
1778
330
20C1
100
AcDbEntity
  8
0
370
    25
100
AcDbCircle
 10
100.0
 20
107.9999999999999
 30
0.0
 40
3.499999999999999
  0
CIRCLE
  5
2078
330
20C1
100
AcDbEntity
  8
0
370
    25
100
AcDbCircle
 10
224.2084168648288
 20
110.3856181655001
 30
0.0
 40
3.499999999999999
  0
CIRCLE
  5
1779
330
20C1
100
AcDbEntity
  8
0
370
    25
100
AcDbCircle
 10
100.0
 20
123.9999999999998
 30
0.0
 40
3.499999999999999
  0
CIRCLE
  5
2079
330
20C1
100
AcDbEntity
  8
0
370
    25
100
AcDbCircle
 10
224.2084168648288
 20
126.3856181655
 30
0.0
 40
3.499999999999999
  0
CIRCLE
  5
177A
330
20C1
100
AcDbEntity
  8
0
370
    25
100
AcDbCircle
 10
100.0
 20
144.0
 30
0.0
 40
3.499999999999999
  0
CIRCLE
  5
207A
330
20C1
100
AcDbEntity
  8
0
370
    25
100
AcDbCircle
 10
224.2084168648288
 20
146.3856181655002
 30
0.0
 40
3.499999999999999
  0
CIRCLE
  5
177B
330
20C1
100
AcDbEntity
  8
0
370
    25
100
AcDbCircle
 10
131.0
 20
123.9999999999998
 30
0.0
 40
3.499999999999999
  0
CIRCLE
  5
207B
330
20C1
100
AcDbEntity
  8
0
370
    25
100
AcDbCircle
 10
255.2084168648288
 20
126.3856181655
 30
0.0
 40
3.499999999999999
  0
CIRCLE
  5
177C
330
20C1
100
AcDbEntity
  8
0
370
    25
100
AcDbCircle
 10
131.0
 20
107.9999999999999
 30
0.0
 40
3.499999999999999
  0
CIRCLE
  5
207C
330
20C1
100
AcDbEntity
  8
0
370
    25
100
AcDbCircle
 10
255.2084168648288
 20
110.3856181655001
 30
0.0
 40
3.499999999999999
  0
CIRCLE
  5
177D
330
20C1
100
AcDbEntity
  8
0
370
    25
100
AcDbCircle
 10
131.0
 20
91.99999999999986
 30
0.0
 40
3.499999999999999
  0
CIRCLE
  5
207D
330
20C1
100
AcDbEntity
  8
0
370
    25
100
AcDbCircle
 10
255.2084168648288
 20
94.38561816550003
 30
0.0
 40
3.499999999999999
  0
CIRCLE
  5
177E
330
20C1
100
AcDbEntity
  8
0
370
    25
100
AcDbCircle
 10
131.0
 20
75.99999999999984
 30
0.0
 40
3.499999999999999
  0
CIRCLE
  5
207E
330
20C1
100
AcDbEntity
  8
0
370
    25
100
AcDbCircle
 10
255.2084168648288
 20
78.38561816550002
 30
0.0
 40
3.499999999999999
  0
CIRCLE
  5
177F
330
20C1
100
AcDbEntity
  8
0
370
    25
100
AcDbCircle
 10
131.0
 20
59.99999999999984
 30
0.0
 40
3.499999999999999
  0
CIRCLE
  5
207F
330
20C1
100
AcDbEntity
  8
0
370
    25
100
AcDbCircle
 10
255.2084168648288
 20
62.38561816550001
 30
0.0
 40
3.499999999999999
  0
CIRCLE
  5
1780
330
20C1
100
AcDbEntity
  8
0
370
    25
100
AcDbCircle
 10
162.0
 20
59.99999999999984
 30
0.0
 40
3.5
  0
CIRCLE
  5
2080
330
20C1
100
AcDbEntity
  8
0
370
    25
100
AcDbCircle
 10
286.2084168648288
 20
62.38561816550001
 30
0.0
 40
3.5
  0
CIRCLE
  5
1781
330
20C1
100
AcDbEntity
  8
0
370
    25
100
AcDbCircle
 10
162.0
 20
72.39999999999986
 30
0.0
 40
3.5
  0
CIRCLE
  5
2081
330
20C1
100
AcDbEntity
  8
0
370
    25
100
AcDbCircle
 10
286.2084168648288
 20
74.78561816550004
 30
0.0
 40
3.5
  0
CIRCLE
  5
1782
330
20C1
100
AcDbEntity
  8
0
370
    25
100
AcDbCircle
 10
162.0
 20
84.79999999999984
 30
0.0
 40
3.5
  0
CIRCLE
  5
2082
330
20C1
100
AcDbEntity
  8
0
370
    25
100
AcDbCircle
 10
286.2084168648288
 20
87.18561816550002
 30
0.0
 40
3.5
  0
CIRCLE
  5
1783
330
20C1
100
AcDbEntity
  8
0
370
    25
100
AcDbCircle
 10
162.0
 20
97.19999999999996
 30
0.0
 40
3.5
  0
CIRCLE
  5
2083
330
20C1
100
AcDbEntity
  8
0
370
    25
100
AcDbCircle
 10
286.2084168648288
 20
99.58561816550014
 30
0.0
 40
3.5
  0
CIRCLE
  5
1784
330
20C1
100
AcDbEntity
  8
0
370
    25
100
AcDbCircle
 10
162.0
 20
109.5999999999999
 30
0.0
 40
3.5
  0
CIRCLE
  5
2084
330
20C1
100
AcDbEntity
  8
0
370
    25
100
AcDbCircle
 10
286.2084168648288
 20
111.9856181655001
 30
0.0
 40
3.5
  0
CIRCLE
  5
1785
330
20C1
100
AcDbEntity
  8
0
370
    25
100
AcDbCircle
 10
162.0
 20
121.9999999999998
 30
0.0
 40
3.5
  0
CIRCLE
  5
2085
330
20C1
100
AcDbEntity
  8
0
370
    25
100
AcDbCircle
 10
286.2084168648288
 20
124.3856181655
 30
0.0
 40
3.5
  0
CIRCLE
  5
1786
330
20C1
100
AcDbEntity
  8
0
370
    25
100
AcDbCircle
 10
162.0
 20
144.0
 30
0.0
 40
3.499999999999999
  0
CIRCLE
  5
2086
330
20C1
100
AcDbEntity
  8
0
370
    25
100
AcDbCircle
 10
286.2084168648288
 20
146.3856181655002
 30
0.0
 40
3.499999999999999
  0
CIRCLE
  5
1787
330
20C1
100
AcDbEntity
  8
0
370
    25
100
AcDbCircle
 10
172.7499999999998
 20
43.59999999999975
 30
0.0
 40
1.599999999999994
  0
CIRCLE
  5
2087
330
20C1
100
AcDbEntity
  8
0
370
    25
100
AcDbCircle
 10
296.9584168648286
 20
45.98561816549993
 30
0.0
 40
1.599999999999994
  0
CIRCLE
  5
1788
330
20C1
100
AcDbEntity
  8
0
370
    25
100
AcDbCircle
 10
172.75
 20
166.3999999999998
 30
0.0
 40
1.599999999999994
  0
CIRCLE
  5
2088
330
20C1
100
AcDbEntity
  8
0
370
    25
100
AcDbCircle
 10
296.9584168648288
 20
168.7856181655
 30
0.0
 40
1.599999999999994
  0
CIRCLE
  5
178A
330
20C1
100
AcDbEntity
  8
0
370
    25
100
AcDbCircle
 10
87.24999999999989
 20
43.59999999999985
 30
0.0
 40
1.599999999999994
  0
CIRCLE
  5
2089
330
20C1
100
AcDbEntity
  8
0
370
    25
100
AcDbCircle
 10
211.4584168648287
 20
45.98561816550003
 30
0.0
 40
1.599999999999994
  0
CIRCLE
  5
17A1
330
20C1
100
AcDbEntity
  8
0
370
    25
100
AcDbCircle
 10
87.24999999999999
 20
166.3999999999998
 30
0.0
 40
1.599999999999994
  0
CIRCLE
  5
208A
330
20C1
100
AcDbEntity
  8
0
370
    25
100
AcDbCircle
 10
211.4584168648288
 20
168.7856181655
 30
0.0
 40
1.599999999999994
  0
CIRCLE
  5
178B
330
20C1
100
AcDbEntity
  8
0
370
    25
100
AcDbCircle
 10
172.7499999999998
 20
43.59999999999975
 30
0.0
 40
0.3999999999999944
  0
CIRCLE
  5
208B
330
20C1
100
AcDbEntity
  8
0
370
    25
100
AcDbCircle
 10
296.9584168648286
 20
45.98561816549993
 30
0.0
 40
0.3999999999999944
  0
CIRCLE
  5
178C
330
20C1
100
AcDbEntity
  8
0
370
    25
100
AcDbCircle
 10
172.75
 20
166.3999999999998
 30
0.0
 40
0.3999999999999944
  0
CIRCLE
  5
208C
330
20C1
100
AcDbEntity
  8
0
370
    25
100
AcDbCircle
 10
296.9584168648288
 20
168.7856181655
 30
0.0
 40
0.3999999999999944
  0
CIRCLE
  5
178E
330
20C1
100
AcDbEntity
  8
0
370
    25
100
AcDbCircle
 10
87.24999999999989
 20
43.59999999999985
 30
0.0
 40
0.3999999999999944
  0
CIRCLE
  5
208D
330
20C1
100
AcDbEntity
  8
0
370
    25
100
AcDbCircle
 10
211.4584168648287
 20
45.98561816550003
 30
0.0
 40
0.3999999999999944
  0
CIRCLE
  5
17A2
330
20C1
100
AcDbEntity
  8
0
370
    25
100
AcDbCircle
 10
87.24999999999999
 20
166.3999999999998
 30
0.0
 40
0.3999999999999944
  0
CIRCLE
  5
208E
330
20C1
100
AcDbEntity
  8
0
370
    25
100
AcDbCircle
 10
211.4584168648288
 20
168.7856181655
 30
0.0
 40
0.3999999999999944
  0
LINE
  5
178F
330
20C1
100
AcDbEntity
  8
0
370
    25
100
AcDbLine
 10
79.99999999999999
 20
170.0
 30
0.0
 11
180.0
 21
170.0
 31
0.0
  0
LINE
  5
208F
330
20C1
100
AcDbEntity
  8
0
370
    25
100
AcDbLine
 10
204.2084168648288
 20
172.3856181655002
 30
0.0
 11
304.2084168648288
 21
172.3856181655002
 31
0.0
  0
LINE
  5
1790
330
20C1
100
AcDbEntity
  8
0
370
    25
100
AcDbLine
 10
79.99999999999999
 20
39.99999999999984
 30
0.0
 11
180.0
 21
39.99999999999984
 31
0.0
  0
LINE
  5
2090
330
20C1
100
AcDbEntity
  8
0
370
    25
100
AcDbLine
 10
204.2084168648288
 20
42.38561816550001
 30
0.0
 11
304.2084168648288
 21
42.38561816550001
 31
0.0
  0
LINE
  5
6F9
330
20C1
100
AcDbEntity
  8
0
100
AcDbLine
 10
67.15842996187939
 20
-108.2120792116921
 30
0.0
 11
67.15842996187939
 21
223.7879207883079
 31
0.0
  0
LINE
  5
6FA
330
20C1
100
AcDbEntity
  8
0
100
AcDbLine
 10
68.15842996187939
 20
-107.2120792116921
 30
0.0
 11
68.15842996187939
 21
222.7879207883079
 31
0.0
  0
LINE
  5
6FD
330
20C1
100
AcDbEntity
  8
0
100
AcDbLine
 10
67.1584299618794
 20
223.7879207883079
 30
0.0
 11
317.1584299618794
 21
223.7879207883079
 31
0.0
  0
LINE
  5
6FE
330
20C1
100
AcDbEntity
  8
0
100
AcDbLine
 10
68.1584299618794
 20
222.7879207883079
 30
0.0
 11
316.1584299618794
 21
222.7879207883079
 31
0.0
  0
LINE
  5
1791
330
20C1
100
AcDbEntity
  8
0
370
    25
100
AcDbLine
 10
180.0
 20
170.0
 30
0.0
 11
180.0
 21
39.99999999999984
 31
0.0
  0
LINE
  5
2091
330
20C1
100
AcDbEntity
  8
0
370
    25
100
AcDbLine
 10
304.2084168648288
 20
172.3856181655002
 30
0.0
 11
304.2084168648288
 21
42.38561816550001
 31
0.0
  0
LINE
  5
1792
330
20C1
100
AcDbEntity
  8
0
370
    25
100
AcDbLine
 10
178.0
 20
156.8999999999998
 30
0.0
 11
178.0
 21
50.49999999999984
 31
0.0
  0
LINE
  5
2092
330
20C1
100
AcDbEntity
  8
0
370
    25
100
AcDbLine
 10
302.2084168648288
 20
159.2856181655
 30
0.0
 11
302.2084168648288
 21
52.88561816550001
 31
0.0
  0
LINE
  5
1793
330
20C1
100
AcDbEntity
  8
0
370
    25
100
AcDbLine
 10
79.99999999999999
 20
39.99999999999984
 30
0.0
 11
79.99999999999999
 21
170.0
 31
0.0
  0
LINE
  5
2093
330
20C1
100
AcDbEntity
  8
0
370
    25
100
AcDbLine
 10
204.2084168648288
 20
42.38561816550001
 30
0.0
 11
204.2084168648288
 21
172.3856181655002
 31
0.0
  0
LINE
  5
1794
330
20C1
100
AcDbEntity
  8
0
370
    25
100
AcDbLine
 10
81.99999999999989
 20
50.49999999999984
 30
0.0
 11
81.99999999999999
 21
156.8999999999998
 31
0.0
  0
LINE
  5
2094
330
20C1
100
AcDbEntity
  8
0
370
    25
100
AcDbLine
 10
206.2084168648287
 20
52.88561816550001
 30
0.0
 11
206.2084168648288
 21
159.2856181655
 31
0.0
  0
DIMENSION
  5
186D
330
20C1
100
AcDbEntity
  8
0
100
AcDbDimension
280
     0
 10
79.99999999999999
 20
26.47876366899964
 30
0.0
 11
130.0
 21
28.35376366899964
 31
0.0
 70
    32
 71
     5
 42
-1.0
 73
     0
 74
     0
 75
     0
  3
QCADDimStyle
100
AcDbAlignedDimension
 13
79.99999999999999
 23
39.99999999999982
 33
0.0
 14
180.0
 24
39.99999999999984
 34
0.0
100
AcDbRotatedDimension
1001
ACAD
1000
DSTYLE
1002
{
1070
   289
1070
     0
1002
}
  0
DIMENSION
  5
186F
330
20C1
100
AcDbEntity
  8
0
100
AcDbDimension
280
     0
 10
131.0
 20
133.9999999999999
 30
0.0
 11
146.5
 21
135.8749999999999
 31
0.0
 70
    32
 71
     5
 42
-1.0
 73
     0
 74
     0
 75
     0
  3
QCADDimStyle
100
AcDbAlignedDimension
 13
131.0
 23
123.9999999999998
 33
0.0
 14
162.0
 24
121.9999999999998
 34
0.0
100
AcDbRotatedDimension
1001
ACAD
1000
DSTYLE
1002
{
1070
   289
1070
     0
1002
}
  0
DIMENSION
  5
1871
330
20C1
100
AcDbEntity
  8
0
100
AcDbDimension
280
     0
 10
100.0
 20
133.9999999999999
 30
0.0
 11
115.5
 21
135.8749999999999
 31
0.0
 70
    32
 71
     5
 42
-1.0
 73
     0
 74
     0
 75
     0
  3
QCADDimStyle
100
AcDbAlignedDimension
 13
100.0
 23
123.9999999999998
 33
0.0
 14
131.0
 24
123.9999999999998
 34
0.0
100
AcDbRotatedDimension
1001
ACAD
1000
DSTYLE
1002
{
1070
   289
1070
     0
1002
}
  0
DIMENSION
  5
1872
330
20C1
100
AcDbEntity
  8
0
100
AcDbDimension
280
     0
 10
131.0
 20
117.9999999999999
 30
0.0
 11
125.0
 21
119.8749999999999
 31
0.0
 70
    32
 71
     5
 42
-1.0
 73
     0
 74
     0
 75
     0
  3
QCADDimStyle
100
AcDbAlignedDimension
 13
131.0
 23
123.9999999999998
 33
0.0
 14
119.0
 24
126.9999999999999
 34
0.0
100
AcDbRotatedDimension
1001
ACAD
1000
DSTYLE
1002
{
1070
   289
1070
     0
1002
}
  0
DIMENSION
  5
1873
330
20C1
100
AcDbEntity
  8
0
100
AcDbDimension
280
     0
 10
92.00000000000004
 20
144.0
 30
0.0
 11
90.12500000000004
 21
133.9999999999999
 31
0.0
 70
    32
 71
     5
 42
-1.0
 73
     0
 74
     0
 75
     0
  3
QCADDimStyle
100
AcDbAlignedDimension
 13
100.0
 23
144.0
 33
0.0
 14
100.0
 24
123.9999999999998
 34
0.0
 50
90.0
100
AcDbRotatedDimension
1001
ACAD
1000
DSTYLE
1002
{
1070
   289
1070
     0
1002
}
  0
DIMENSION
  5
1874
330
20C1
100
AcDbEntity
  8
0
100
AcDbDimension
280
     0
 10
113.9807041727431
 20
123.9999999999999
 30
0.0
 11
112.1057041727431
 21
125.4999999999999
 31
0.0
 70
    32
 71
     5
 42
-1.0
 73
     0
 74
     0
 75
     0
  3
QCADDimStyle
100
AcDbAlignedDimension
 13
131.0
 23
123.9999999999999
 33
0.0
 14
119.0
 24
126.9999999999999
 34
0.0
 50
90.0
100
AcDbRotatedDimension
1001
ACAD
1000
DSTYLE
1002
{
1070
   289
1070
     0
1002
}
  0
DIMENSION
  5
1875
330
20C1
100
AcDbEntity
  8
0
100
AcDbDimension
280
     0
 10
92.00000000000001
 20
123.9999999999998
 30
0.0
 11
90.12500000000001
 21
115.9999999999999
 31
0.0
 70
    32
 71
     5
 42
-1.0
 73
     0
 74
     0
 75
     0
  3
QCADDimStyle
100
AcDbAlignedDimension
 13
100.0
 23
123.9999999999998
 33
0.0
 14
100.0
 24
107.9999999999999
 34
0.0
 50
90.0
100
AcDbRotatedDimension
1001
ACAD
1000
DSTYLE
1002
{
1070
   289
1070
     0
1002
}
  0
DIMENSION
  5
1876
330
20C1
100
AcDbEntity
  8
0
100
AcDbDimension
280
     0
 10
115.2005364762268
 20
110.9999999999999
 30
0.0
 11
113.3255364762268
 21
102.9999999999999
 31
0.0
 70
    32
 71
     5
 42
-1.0
 73
     0
 74
     0
 75
     0
  3
QCADDimStyle
100
AcDbAlignedDimension
 13
119.0
 23
110.9999999999999
 33
0.0
 14
119.0
 24
94.99999999999984
 34
0.0
 50
90.0
100
AcDbRotatedDimension
1001
ACAD
1000
DSTYLE
1002
{
1070
   289
1070
     0
1002
}
  0
DIMENSION
  5
1877
330
20C1
100
AcDbEntity
  8
0
100
AcDbDimension
280
     0
 10
174.9979261392967
 20
121.9999999999999
 30
0.0
 11
173.1229261392967
 21
115.7999999999998
 31
0.0
 70
    32
 71
     5
 42
-1.0
 73
     0
 74
     0
 75
     0
  3
QCADDimStyle
100
AcDbAlignedDimension
 13
162.0
 23
121.9999999999998
 33
0.0
 14
162.0
 24
109.5999999999999
 34
0.0
 50
90.0
100
AcDbRotatedDimension
1001
ACAD
1000
DSTYLE
1002
{
1070
   289
1070
     0
1002
}
  0
DIMENSION
  5
1878
330
20C1
100
AcDbEntity
  8
0
100
AcDbDimension
280
     0
 10
167.0
 20
45.19999999999991
 30
0.0
 11
164.7494509281152
 21
37.50000000000004
 31
0.0
 70
   160
 71
     5
 42
-1.0
 73
     0
 74
     0
 75
     0
  3
QCADDimStyle
100
AcDbAlignedDimension
 13
172.9999999999998
 23
45.19999999999991
 33
0.0
 14
172.9999999999998
 24
41.99999999999981
 34
0.0
 50
90.0
100
AcDbRotatedDimension
1001
ACAD
1000
DSTYLE
1002
{
1070
   289
1070
     0
1002
}
  0
DIMENSION
  5
187A
330
20C1
100
AcDbEntity
  8
0
100
AcDbDimension
280
     0
 10
185.163892790655
 20
166.3999999999998
 30
0.0
 11
183.288892790655
 21
104.9999999999998
 31
0.0
 70
    32
 71
     5
 42
-1.0
 73
     0
 74
     0
 75
     0
  3
QCADDimStyle
100
AcDbAlignedDimension
 13
173.0
 23
166.3999999999998
 33
0.0
 14
172.9999999999998
 24
43.59999999999974
 34
0.0
 50
90.0
100
AcDbRotatedDimension
1001
ACAD
1000
DSTYLE
1002
{
1070
   289
1070
     0
1002
}
  0
DIMENSION
  5
187B
330
20C1
100
AcDbEntity
  8
0
100
AcDbDimension
280
     0
 10
190.3331662703424
 20
39.99999999999983
 30
0.0
 11
188.4581662703424
 21
104.9999999999999
 31
0.0
 70
    32
 71
     5
 42
-1.0
 73
     0
 74
     0
 75
     0
  3
QCADDimStyle
100
AcDbAlignedDimension
 13
180.0
 23
39.99999999999984
 33
0.0
 14
180.0
 24
170.0
 34
0.0
 50
90.0
100
AcDbRotatedDimension
1001
ACAD
1000
DSTYLE
1002
{
1070
   289
1070
     0
1002
}
  0
DIMENSION
  5
1A28
330
20C1
100
AcDbEntity
  8
0
100
AcDbDimension
280
     0
 10
87.24999999999989
 20
33.74022515144369
 30
0.0
 11
129.9999999999998
 21
35.61522515144369
 31
0.0
 70
    32
 71
     5
 42
-1.0
 73
     0
 74
     0
 75
     0
  3
QCADDimStyle
100
AcDbAlignedDimension
 13
87.24999999999989
 23
43.59999999999987
 33
0.0
 14
172.7499999999998
 24
43.59999999999986
 34
0.0
100
AcDbRotatedDimension
1001
ACAD
1000
DSTYLE
1002
{
1070
   289
1070
     0
1002
}
  0
DIMENSION
  5
1D60
330
20C1
100
AcDbEntity
  8
0
100
AcDbDimension
280
     0
 10
102.7457659713149
 20
61.83051064754327
 30
0.0
 11
98.95993713207773
 21
61.56009430188326
 31
0.0
 70
    35
 71
     5
 42
-1.0
 73
     0
 74
     0
 75
     0
  3
QCADDimStyle
100
AcDbDiametricDimension
 15
97.25423402868532
 25
58.16948935245645
 35
0.0
 40
0.0
1001
ACAD
1000
DSTYLE
1002
{
1070
   289
1070
     0
1002
}
  0
DIMENSION
  5
1D61
330
20C1
100
AcDbEntity
  8
0
100
AcDbDimension
280
     0
 10
120.0725928925142
 20
64.1872423876057
 30
0.0
 11
120.4037731250518
 21
67.35078303167253
 31
0.0
 70
    35
 71
     5
 42
-1.0
 73
     0
 74
     0
 75
     0
  3
QCADDimStyle
100
AcDbDiametricDimension
 15
117.9274071074858
 25
61.81275761239397
 35
0.0
 40
0.0
1001
ACAD
1000
DSTYLE
1002
{
1070
   289
1070
     0
1002
}
  0
VIEWPORT
  5
216D
330
20BD
100
AcDbEntity
 67
     1
  8
0
100
AcDbViewport
 10
128.5
 20
97.5
 30
0.0
 40
314.226
 41
222.18
 68
     1
 69
     1
 12
128.5
 22
97.5
 13
0.0
 23
0.0
 14
10.0
 24
10.0
 15
10.0
 25
10.0
 16
0.0
 26
0.0
 36
1.0
 17
0.0
 27
0.0
 37
0.0
 42
50.0
 43
0.0
 44
0.0
 45
222.18
 50
0.0
 51
0.0
 72
   100
 90
   557152
  1

281
     0
 71
     1
 74
     0
110
0.0
120
0.0
130
0.0
111
1.0
121
0.0
131
0.0
112
0.0
122
1.0
132
0.0
 79
     0
146
0.0
170
     0
 61
     5
348
20D1
292
     1
282
     1
141
0.0
142
0.0
 63
   256
361
216E
  0
ENDSEC
  0
SECTION
  2
OBJECTS
  0
DICTIONARY
  5
20AF
330
0
100
AcDbDictionary
281
     1
  3
ACAD_DETAILVIEWSTYLE
350
217E
  3
ACAD_GROUP
350
20B0
  3
ACAD_IMAGE_DICT
350
216F
  3
ACAD_IMAGE_VARS
350
2138
  3
ACAD_LAYOUT
350
20BC
  3
ACAD_MATERIAL
350
20E5
  3
ACAD_MLEADERSTYLE
350
20FD
  3
ACAD_MLINESTYLE
350
20B9
  3
ACAD_PLOTSETTINGS
350
20BB
  3
ACAD_PLOTSTYLENAME
350
20B1
  3
ACAD_SCALELIST
350
20E9
  3
ACAD_SECTIONVIEWSTYLE
350
217F
  3
ACAD_TABLESTYLE
350
20FB
  3
ACAD_VISUALSTYLE
350
20CC
  3
ACDB_RECOMPOSE_DATA
350
217B
  3
AcDbVariableDictionary
350
2177
  3
QCAD_OBJECTS
350
2101
  0
SUN
  5
20FF
330
20CB
100
AcDbSun
 90
        1
290
     0
 63
     7
421
 16777215
 40
1.0
291
     1
 91
  2455826
 92
 54000000
292
     0
 70
     2
 71
   256
280
     1
  0
IMAGEDEF_REACTOR
  5
2171
330
16C5
100
AcDbRasterImageDefReactor
 90
        2
330
16C5
  0
IMAGEDEF_REACTOR
  5
2173
330
1FC9
100
AcDbRasterImageDefReactor
 90
        2
330
1FC9
  0
IMAGEDEF_REACTOR
  5
2176
330
45
100
AcDbRasterImageDefReactor
 90
        2
330
45
  0
SUN
  5
216E
330
216D
100
AcDbSun
 90
        1
290
     0
 63
     7
421
 16777215
 40
1.0
291
     1
 91
  2455826
 92
 54000000
292
     0
 70
     2
 71
   256
280
     1
  0
DICTIONARY
  5
217E
102
{ACAD_REACTORS
330
20AF
102
}
330
20AF
100
AcDbDictionary
281
     1
  0
DICTIONARY
  5
20B0
102
{ACAD_REACTORS
330
20AF
102
}
330
20AF
100
AcDbDictionary
281
     1
  0
DICTIONARY
  5
216F
102
{ACAD_REACTORS
330
20AF
102
}
330
20AF
100
AcDbDictionary
281
     1
  3
image_59
350
2170
  3
image_713
350
2172
  3
image_97
350
2175
  0
RASTERVARIABLES
  5
2138
102
{ACAD_REACTORS
330
20AF
102
}
330
20AF
100
AcDbRasterVariables
 90
        0
 70
     1
 71
     1
 72
     1
  0
DICTIONARY
  5
20BC
102
{ACAD_REACTORS
330
20AF
102
}
330
20AF
100
AcDbDictionary
281
     1
  3
Layout1
350
20C0
  3
Model
350
20C4
  0
DICTIONARY
  5
20E5
102
{ACAD_REACTORS
330
20AF
102
}
330
20AF
100
AcDbDictionary
281
     1
  3
ByBlock
350
20E7
  3
ByLayer
350
20E6
  3
Global
350
20E8
  0
DICTIONARY
  5
20FD
102
{ACAD_REACTORS
330
20AF
102
}
330
20AF
100
AcDbDictionary
281
     1
  3
Standard
350
20FE
  0
DICTIONARY
  5
20B9
102
{ACAD_REACTORS
330
20AF
102
}
330
20AF
100
AcDbDictionary
281
     1
  3
Standard
350
20BA
  0
DICTIONARY
  5
20BB
102
{ACAD_REACTORS
330
20AF
102
}
330
20AF
100
AcDbDictionary
281
     1
  0
ACDBDICTIONARYWDFLT
  5
20B1
102
{ACAD_REACTORS
330
20AF
102
}
330
20AF
100
AcDbDictionary
281
     1
  3
Normal
350
20B2
100
AcDbDictionaryWithDefault
340
20B2
  0
DICTIONARY
  5
20E9
102
{ACAD_REACTORS
330
20AF
102
}
330
20AF
100
AcDbDictionary
281
     1
  3
A0
350
20EA
  3
A1
350
20EB
  3
A2
350
20EC
  3
A3
350
20ED
  3
A4
350
20EE
  3
A5
350
20EF
  3
A6
350
20F0
  3
A7
350
20F1
  3
A8
350
20F2
  3
A9
350
20F3
  3
B1
350
20F4
  3
B2
350
20F5
  3
B3
350
20F6
  3
B4
350
20F7
  3
B5
350
20F8
  3
B6
350
20F9
  3
B7
350
20FA
  0
DICTIONARY
  5
217F
102
{ACAD_REACTORS
330
20AF
102
}
330
20AF
100
AcDbDictionary
281
     1
  0
DICTIONARY
  5
20FB
102
{ACAD_REACTORS
330
20AF
102
}
330
20AF
100
AcDbDictionary
281
     1
  3
Standard
350
20FC
  0
DICTIONARY
  5
20CC
102
{ACAD_REACTORS
330
20AF
102
}
330
20AF
100
AcDbDictionary
281
     1
  3
2dWireframe
350
20D1
  3
Basic
350
20D4
  3
Brighten
350
20D8
  3
ColorChange
350
20DC
  3
Conceptual
350
20D6
  3
Dim
350
20D7
  3
EdgeColorOff
350
20DF
  3
Facepattern
350
20DB
  3
Flat
350
20CD
  3
FlatWithEdges
350
20CE
  3
Gouraud
350
20CF
  3
GouraudWithEdges
350
20D0
  3
Hidden
350
20D3
  3
JitterOff
350
20DD
  3
Linepattern
350
20DA
  3
OverhangOff
350
20DE
  3
Realistic
350
20D5
  3
Shaded
350
20E4
  3
Shaded with edges
350
20E3
  3
Shades of Gray
350
20E0
  3
Sketchy
350
20E1
  3
Thicken
350
20D9
  3
Wireframe
350
20D2
  3
X-Ray
350
20E2
  0
XRECORD
  5
217B
102
{ACAD_REACTORS
330
20AF
102
}
330
20AF
100
AcDbXrecord
280
     1
 90
        1
330
20FC
  0
DICTIONARY
  5
2177
102
{ACAD_REACTORS
330
20AF
102
}
330
20AF
100
AcDbDictionary
281
     1
  3
CANNOSCALE
350
2178
  3
CMLEADERSTYLE
350
217D
  3
CTABLESTYLE
350
217C
  0
DICTIONARY
  5
2101
102
{ACAD_REACTORS
330
20AF
102
}
330
20AF
100
AcDbDictionary
281
     1
  3
ColorSettings/BackgroundColor
350
2103
  3
ColorSettings/ColorMode
350
2104
  3
Grid/DisplayGrid00
350
2105
  3
Grid/DisplayGrid01
350
2106
  3
Grid/DisplayGrid02
350
2107
  3
Grid/DisplayGrid03
350
2108
  3
Grid/GridSpacingX00
350
2109
  3
Grid/GridSpacingX01
350
210A
  3
Grid/GridSpacingX02
350
210B
  3
Grid/GridSpacingX03
350
210C
  3
Grid/GridSpacingY00
350
210D
  3
Grid/GridSpacingY01
350
210E
  3
Grid/GridSpacingY02
350
210F
  3
Grid/GridSpacingY03
350
2110
  3
Grid/IsometricGrid00
350
2111
  3
Grid/IsometricGrid01
350
2112
  3
Grid/IsometricGrid02
350
2113
  3
Grid/IsometricGrid03
350
2114
  3
Grid/IsometricProjection00
350
2115
  3
Grid/IsometricProjection01
350
2116
  3
Grid/IsometricProjection02
350
2117
  3
Grid/IsometricProjection03
350
2118
  3
Grid/MetaGridSpacingX00
350
2119
  3
Grid/MetaGridSpacingX01
350
211A
  3
Grid/MetaGridSpacingX02
350
211B
  3
Grid/MetaGridSpacingX03
350
211C
  3
Grid/MetaGridSpacingY00
350
211D
  3
Grid/MetaGridSpacingY01
350
211E
  3
Grid/MetaGridSpacingY02
350
211F
  3
Grid/MetaGridSpacingY03
350
2120
  3
MultiPageSettings/Columns
350
2121
  3
MultiPageSettings/GlueMarginsBottom
350
2122
  3
MultiPageSettings/GlueMarginsLeft
350
2123
  3
MultiPageSettings/GlueMarginsRight
350
2124
  3
MultiPageSettings/GlueMarginsTop
350
2125
  3
MultiPageSettings/PrintCropMarks
350
2126
  3
MultiPageSettings/Rows
350
2127
  3
PageSettings/OffsetX
350
2128
  3
PageSettings/OffsetY
350
2129
  3
PageSettings/PageOrientation
350
212A
  3
PageSettings/PaperHeight
350
212B
  3
PageSettings/PaperWidth
350
212C
  3
PageSettings/Scale
350
212D
  3
PageSettings/ShowPaperBorders
350
212E
  3
PageTagSettings/EnablePageTags
350
212F
  3
PageTagSettings/TagAlignment
350
2130
  3
PageTagSettings/TagFont
350
2131
  3
PageTagSettings/TagPosition
350
2132
  3
QCADVersion
350
2133
  3
UnitSettings/PaperUnit
350
2134
  3
ViewportCenter
350
2135
  3
ViewportHeight
350
2136
  3
ViewportWidth
350
2137
  0
IMAGEDEF
  5
2170
102
{ACAD_REACTORS
330
216F
330
2171
102
}
330
216F
100
AcDbRasterImageDef
 90
        0
  1
C:/Users/Usuario/Desktop/Logo Don Bosco txuri beltz.bmp
 10
0.0
 20
0.0
 11
0.0
 21
0.0
280
     1
281
     1
  0
IMAGEDEF
  5
2172
102
{ACAD_REACTORS
330
216F
330
2173
102
}
330
216F
100
AcDbRasterImageDef
 90
        0
  1
C:/Users/Usuario/Desktop/Logo Don Bosco txuri beltz.bmp
 10
0.0
 20
0.0
 11
0.0
 21
0.0
280
     1
281
     1
  0
IMAGEDEF
  5
2175
102
{ACAD_REACTORS
330
216F
330
2176
102
}
330
216F
100
AcDbRasterImageDef
 90
        0
  1
C:/Users/Usuario/Desktop/Logo Don Bosco txuri beltz.bmp
 10
0.0
 20
0.0
 11
0.0
 21
0.0
280
     1
281
     1
  0
LAYOUT
  5
20C0
102
{ACAD_REACTORS
330
20BC
102
}
330
20BC
100
AcDbPlotSettings
  1

  2
none_device
  4
ISO_A4_(210.00_x_297.00_MM)
  6

 40
7.5
 41
20.0
 42
7.5
 43
20.0
 44
210.0
 45
297.0
 46
0.0
 47
0.0
 48
0.0
 49
0.0
140
0.0
141
0.0
142
1.0
143
384.0
 70
   688
 72
     1
 73
     1
 74
     5
  7

 75
     3
 76
     0
 77
     2
 78
   300
147
0.0026041666666667
148
0.0
149
0.0
100
AcDbLayout
  1
Layout1
 70
     1
 71
     0
 10
-20.0
 20
-7.5
 11
277.0
 21
202.5
 12
0.0
 22
0.0
 32
0.0
 14
0.0
 24
0.0
 34
0.0
 15
0.0
 25
0.0
 35
0.0
146
0.0
 13
0.0
 23
0.0
 33
0.0
 16
1.0
 26
0.0
 36
0.0
 17
0.0
 27
1.0
 37
0.0
 76
     0
330
20BD
331
216D
  0
LAYOUT
  5
20C4
102
{ACAD_REACTORS
330
20BC
102
}
330
20BC
100
AcDbPlotSettings
  1

  2
none_device
  4
Letter_(8.50_x_11.00_Inches)
  6

 40
6.35
 41
6.35
 42
6.35000508
 43
6.35000508
 44
215.9
 45
279.4
 46
0.0
 47
0.0
 48
0.0
 49
0.0
140
0.0
141
0.0
142
1.0
143
1.0
 70
  1712
 72
     0
 73
     0
 74
     0
  7

 75
     0
 76
     0
 77
     2
 78
   300
147
1.0
148
0.0
149
0.0
100
AcDbLayout
  1
Model
 70
     1
 71
     0
 10
0.0
 20
0.0
 11
12.0
 21
9.0
 12
0.0
 22
0.0
 32
0.0
 14
67.15842996187939
 24
-108.2120792116921
 34
0.0
 15
317.1584299618794
 25
223.7879207883079
 35
0.0
146
0.0
 13
0.0
 23
0.0
 33
0.0
 16
1.0
 26
0.0
 36
0.0
 17
0.0
 27
1.0
 37
0.0
 76
     0
330
20C1
331
20CB
  0
MATERIAL
  5
20E7
102
{ACAD_REACTORS
330
20E5
102
}
330
20E5
100
AcDbMaterial
  1
ByBlock
 72
     1
 94
      127
  0
MATERIAL
  5
20E6
102
{ACAD_REACTORS
330
20E5
102
}
330
20E5
100
AcDbMaterial
  1
ByLayer
 72
     1
 94
      127
  0
MATERIAL
  5
20E8
102
{ACAD_REACTORS
330
20E5
102
}
330
20E5
100
AcDbMaterial
  1
Global
 72
     1
 94
      127
  0
MLEADERSTYLE
  5
20FE
102
{ACAD_REACTORS
330
20FD
102
}
330
20FD
100
AcDbMLeaderStyle
179
     2
170
     2
171
     1
172
     0
 90
        2
 40
0.0
 41
0.0
173
     1
 91
-1056964608
340
20B6
 92
       -2
290
     1
 42
0.09
291
     1
 43
0.36
  3
Standard
341
0
 44
0.18
300

342
20B4
174
     1
178
     6
175
     1
176
     0
 93
-1056964608
 45
0.18
292
     0
297
     0
 46
0.18
343
0
 94
-1056964608
 47
1.0
 49
1.0
140
1.0
293
     1
141
0.0
294
     1
177
     0
142
1.0
295
     0
296
     0
143
0.125
271
     0
272
     9
273
     9
298
     0
  0
MLINESTYLE
  5
20BA
102
{ACAD_REACTORS
330
20B9
102
}
330
20B9
100
AcDbMlineStyle
  2
Standard
 70
     0
  3

 62
   256
 51
90.0
 52
90.0
 71
     2
 49
0.5
 62
   256
  6
BYLAYER
 49
-0.5
 62
   256
  6
BYLAYER
  0
ACDBPLACEHOLDER
  5
20B2
102
{ACAD_REACTORS
330
20B1
102
}
330
20B1
  0
SCALE
  5
20EA
102
{ACAD_REACTORS
330
20E9
102
}
330
20E9
100
AcDbScale
 70
     0
300
1:1
140
1.0
141
1.0
290
     1
  0
SCALE
  5
20EB
102
{ACAD_REACTORS
330
20E9
102
}
330
20E9
100
AcDbScale
 70
     0
300
1/128" = 1'-0"
140
0.0078125
141
12.0
290
     0
  0
SCALE
  5
20EC
102
{ACAD_REACTORS
330
20E9
102
}
330
20E9
100
AcDbScale
 70
     0
300
1/64" = 1'-0"
140
0.015625
141
12.0
290
     0
  0
SCALE
  5
20ED
102
{ACAD_REACTORS
330
20E9
102
}
330
20E9
100
AcDbScale
 70
     0
300
1/32" = 1'-0"
140
0.03125
141
12.0
290
     0
  0
SCALE
  5
20EE
102
{ACAD_REACTORS
330
20E9
102
}
330
20E9
100
AcDbScale
 70
     0
300
1/16" = 1'-0"
140
0.0625
141
12.0
290
     0
  0
SCALE
  5
20EF
102
{ACAD_REACTORS
330
20E9
102
}
330
20E9
100
AcDbScale
 70
     0
300
3/32" = 1'-0"
140
0.09375
141
12.0
290
     0
  0
SCALE
  5
20F0
102
{ACAD_REACTORS
330
20E9
102
}
330
20E9
100
AcDbScale
 70
     0
300
1/8" = 1'-0"
140
0.125
141
12.0
290
     0
  0
SCALE
  5
20F1
102
{ACAD_REACTORS
330
20E9
102
}
330
20E9
100
AcDbScale
 70
     0
300
3/16" = 1'-0"
140
0.1875
141
12.0
290
     0
  0
SCALE
  5
20F2
102
{ACAD_REACTORS
330
20E9
102
}
330
20E9
100
AcDbScale
 70
     0
300
1/4" = 1'-0"
140
0.25
141
12.0
290
     0
  0
SCALE
  5
20F3
102
{ACAD_REACTORS
330
20E9
102
}
330
20E9
100
AcDbScale
 70
     0
300
3/8" = 1'-0"
140
0.375
141
12.0
290
     0
  0
SCALE
  5
20F4
102
{ACAD_REACTORS
330
20E9
102
}
330
20E9
100
AcDbScale
 70
     0
300
1/2" = 1'-0"
140
0.5
141
12.0
290
     0
  0
SCALE
  5
20F5
102
{ACAD_REACTORS
330
20E9
102
}
330
20E9
100
AcDbScale
 70
     0
300
3/4" = 1'-0"
140
0.75
141
12.0
290
     0
  0
SCALE
  5
20F6
102
{ACAD_REACTORS
330
20E9
102
}
330
20E9
100
AcDbScale
 70
     0
300
1" = 1'-0"
140
1.0
141
12.0
290
     0
  0
SCALE
  5
20F7
102
{ACAD_REACTORS
330
20E9
102
}
330
20E9
100
AcDbScale
 70
     0
300
1-1/2" = 1'-0"
140
1.5
141
12.0
290
     0
  0
SCALE
  5
20F8
102
{ACAD_REACTORS
330
20E9
102
}
330
20E9
100
AcDbScale
 70
     0
300
3" = 1'-0"
140
3.0
141
12.0
290
     0
  0
SCALE
  5
20F9
102
{ACAD_REACTORS
330
20E9
102
}
330
20E9
100
AcDbScale
 70
     0
300
6" = 1'-0"
140
6.0
141
12.0
290
     0
  0
SCALE
  5
20FA
102
{ACAD_REACTORS
330
20E9
102
}
330
20E9
100
AcDbScale
 70
     0
300
1'-0" = 1'-0"
140
12.0
141
12.0
290
     0
  0
TABLESTYLE
  5
20FC
102
{ACAD_REACTORS
330
20FB
102
}
102
{ACAD_XDICTIONARY
360
2179
102
}
330
20FB
100
AcDbTableStyle
  3
Standard
 70
     0
 71
     0
 40
0.06
 41
0.06
280
     0
281
     0
  7
Standard
140
0.18
170
     2
 62
     0
 63
   257
283
     0
 90
        4
 91
        0
  1

274
    -2
284
     1
 64
     0
275
    -2
285
     1
 65
     0
276
    -2
286
     1
 66
     0
277
    -2
287
     1
 67
     0
278
    -2
288
     1
 68
     0
279
    -2
289
     1
 69
     0
  7
Standard
140
0.25
170
     5
 62
     0
 63
   257
283
     0
 90
        4
 91
        0
  1

274
    -2
284
     1
 64
     0
275
    -2
285
     1
 65
     0
276
    -2
286
     1
 66
     0
277
    -2
287
     1
 67
     0
278
    -2
288
     1
 68
     0
279
    -2
289
     1
 69
     0
  7
Standard
140
0.18
170
     5
 62
     0
 63
   257
283
     0
 90
        4
 91
        0
  1

274
    -2
284
     1
 64
     0
275
    -2
285
     1
 65
     0
276
    -2
286
     1
 66
     0
277
    -2
287
     1
 67
     0
278
    -2
288
     1
 68
     0
279
    -2
289
     1
 69
     0
  0
VISUALSTYLE
  5
20D1
102
{ACAD_REACTORS
330
20CC
102
}
330
20CC
100
AcDbVisualStyle
  2
2dWireframe
 70
     4
177
     3
291
     0
 70
    58
 90
        0
176
     1
 90
        2
176
     1
 90
        0
176
     1
 90
        0
176
     1
 40
0.6
176
     1
 40
30.0
176
     1
 62
     7
420
 16777215
176
     1
 90
        1
176
     1
 90
        4
176
     1
 62
     7
176
     1
 62
   257
176
     1
 90
        1
176
     1
 90
        1
176
     1
 40
1.0
176
     1
 90
        0
176
     1
 62
   257
176
     1
 40
1.0
176
     1
 90
        1
176
     1
 90
        6
176
     1
 90
        2
176
     1
 62
     7
176
     1
 90
        5
176
     1
 90
        0
176
     1
 90
        0
176
     1
290
     0
176
     1
 90
        1
176
     1
 40
0.0
176
     1
 90
        0
176
     1
290
     1
176
     1
290
     1
176
     1
290
     0
176
     1
290
     0
176
     1
290
     0
176
     1
290
     0
176
     1
290
     0
176
     1
290
     0
176
     1
290
     0
176
     1
 90
       50
176
     1
 40
0.0
176
     1
 40
1.0
176
     1
 90
        0
176
     1
 62
    18
420
        0
176
     1
 90
       50
176
     1
 90
        3
176
     1
 62
     5
420
      255
176
     1
290
     0
176
     1
 90
       50
176
     1
 90
       50
176
     1
 90
       50
176
     1
290
     0
176
     1
 90
       50
176
     1
 62
   256
176
     0
 40
1.0
176
     0
 90
        2
176
     1
  1
strokes_ogs.tif
176
     1
290
     0
176
     1
 40
1.0
176
     1
 40
1.0
176
     1
  0
VISUALSTYLE
  5
20D4
102
{ACAD_REACTORS
330
20CC
102
}
330
20CC
100
AcDbVisualStyle
  2
Basic
 70
     7
177
     3
291
     1
 70
    58
 90
        1
176
     1
 90
        0
176
     1
 90
        1
176
     1
 90
        0
176
     1
 40
0.6
176
     1
 40
30.0
176
     1
 62
     7
420
 16777215
176
     1
 90
        0
176
     1
 90
        4
176
     1
 62
     7
176
     1
 62
   257
176
     1
 90
        1
176
     1
 90
        1
176
     1
 40
1.0
176
     1
 90
        8
176
     1
 62
     7
176
     1
 40
1.0
176
     1
 90
        1
176
     1
 90
        6
176
     1
 90
        2
176
     1
 62
     7
176
     1
 90
        5
176
     1
 90
        0
176
     1
 90
        0
176
     1
290
     0
176
     1
 90
        1
176
     1
 40
0.0
176
     1
 90
        0
176
     1
290
     0
176
     1
290
     1
176
     1
290
     1
176
     1
290
     0
176
     1
290
     0
176
     1
290
     0
176
     1
290
     0
176
     1
290
     0
176
     1
290
     0
176
     1
 90
       50
176
     1
 40
0.0
176
     1
 40
1.0
176
     1
 90
        0
176
     1
 62
    18
420
        0
176
     1
 90
       50
176
     1
 90
        3
176
     1
 62
     5
420
      255
176
     1
290
     0
176
     1
 90
       50
176
     1
 90
       50
176
     1
 90
       50
176
     1
290
     0
176
     1
 90
       50
176
     1
 62
   256
176
     0
 40
1.0
176
     0
 90
        2
176
     1
  1
strokes_ogs.tif
176
     1
290
     0
176
     1
 40
1.0
176
     1
 40
1.0
176
     1
  0
VISUALSTYLE
  5
20D8
102
{ACAD_REACTORS
330
20CC
102
}
330
20CC
100
AcDbVisualStyle
  2
Brighten
 70
    12
177
     3
291
     1
 70
    58
 90
        2
176
     1
 90
        2
176
     1
 90
        0
176
     1
 90
        0
176
     1
 40
0.6
176
     1
 40
30.0
176
     1
 62
     7
420
 16777215
176
     1
 90
        1
176
     1
 90
        4
176
     1
 62
     7
176
     1
 62
   257
176
     1
 90
        1
176
     1
 90
        1
176
     1
 40
1.0
176
     1
 90
        8
176
     1
 62
     7
176
     1
 40
1.0
176
     1
 90
        1
176
     1
 90
        6
176
     1
 90
        2
176
     1
 62
     7
176
     1
 90
        5
176
     1
 90
        0
176
     1
 90
        0
176
     1
290
     0
176
     1
 90
        1
176
     1
 40
50.0
176
     1
 90
        0
176
     1
290
     0
176
     1
290
     1
176
     1
290
     1
176
     1
290
     0
176
     1
290
     0
176
     1
290
     0
176
     1
290
     0
176
     1
290
     0
176
     1
290
     0
176
     1
 90
       50
176
     1
 40
0.0
176
     1
 40
1.0
176
     1
 90
        0
176
     1
 62
    18
420
        0
176
     1
 90
       50
176
     1
 90
        3
176
     1
 62
     5
420
      255
176
     1
290
     0
176
     1
 90
       50
176
     1
 90
       50
176
     1
 90
       50
176
     1
290
     0
176
     1
 90
       50
176
     1
 62
   256
176
     0
 40
1.0
176
     0
 90
        2
176
     1
  1
strokes_ogs.tif
176
     1
290
     0
176
     1
 40
1.0
176
     1
 40
1.0
176
     1
  0
VISUALSTYLE
  5
20DC
102
{ACAD_REACTORS
330
20CC
102
}
330
20CC
100
AcDbVisualStyle
  2
ColorChange
 70
    16
177
     3
291
     1
 70
    58
 90
        2
176
     1
 90
        2
176
     1
 90
        3
176
     1
 90
        0
176
     1
 40
0.6
176
     1
 40
30.0
176
     1
 62
     8
420
  8421504
176
     1
 90
        1
176
     1
 90
        4
176
     1
 62
     7
176
     1
 62
   257
176
     1
 90
        1
176
     1
 90
        1
176
     1
 40
1.0
176
     1
 90
        8
176
     1
 62
     8
420
  8421504
176
     1
 40
1.0
176
     1
 90
        1
176
     1
 90
        6
176
     1
 90
        2
176
     1
 62
     7
176
     1
 90
        5
176
     1
 90
        0
176
     1
 90
        0
176
     1
290
     0
176
     1
 90
        1
176
     1
 40
0.0
176
     1
 90
        0
176
     1
290
     0
176
     1
290
     1
176
     1
290
     1
176
     1
290
     0
176
     1
290
     0
176
     1
290
     0
176
     1
290
     0
176
     1
290
     0
176
     1
290
     0
176
     1
 90
       50
176
     1
 40
0.0
176
     1
 40
1.0
176
     1
 90
        0
176
     1
 62
    18
420
        0
176
     1
 90
       50
176
     1
 90
        3
176
     1
 62
     5
420
      255
176
     1
290
     0
176
     1
 90
       50
176
     1
 90
       50
176
     1
 90
       50
176
     1
290
     0
176
     1
 90
       50
176
     1
 62
   256
176
     0
 40
1.0
176
     0
 90
        2
176
     1
  1
strokes_ogs.tif
176
     1
290
     0
176
     1
 40
1.0
176
     1
 40
1.0
176
     1
  0
VISUALSTYLE
  5
20D6
102
{ACAD_REACTORS
330
20CC
102
}
330
20CC
100
AcDbVisualStyle
  2
Conceptual
 70
     9
177
     3
291
     0
 70
    58
 90
        3
176
     1
 90
        2
176
     1
 90
        0
176
     1
 90
        0
176
     1
 40
0.6
176
     1
 40
30.0
176
     1
 62
     7
420
 16777215
176
     1
 90
        2
176
     1
 90
        2
176
     1
 62
     7
176
     1
 62
   257
176
     1
 90
        1
176
     1
 90
        1
176
     1
 40
179.0
176
     1
 90
        8
176
     1
 62
     7
176
     1
 40
1.0
176
     1
 90
        1
176
     1
 90
        6
176
     1
 90
        2
176
     1
 62
     7
176
     1
 90
        3
176
     1
 90
        0
176
     1
 90
        0
176
     1
290
     0
176
     1
 90
        1
176
     1
 40
0.0
176
     1
 90
        0
176
     1
290
     0
176
     1
290
     1
176
     1
290
     1
176
     1
290
     0
176
     1
290
     0
176
     1
290
     0
176
     1
290
     0
176
     1
290
     0
176
     1
290
     0
176
     1
 90
       50
176
     1
 40
0.0
176
     1
 40
1.0
176
     1
 90
        0
176
     1
 62
    18
420
        0
176
     1
 90
       50
176
     1
 90
        3
176
     1
 62
     5
420
      255
176
     1
290
     0
176
     1
 90
       50
176
     1
 90
       50
176
     1
 90
       50
176
     1
290
     0
176
     1
 90
       50
176
     1
 62
   256
176
     0
 40
1.0
176
     0
 90
        2
176
     1
  1
strokes_ogs.tif
176
     1
290
     0
176
     1
 40
1.0
176
     1
 40
1.0
176
     1
  0
VISUALSTYLE
  5
20D7
102
{ACAD_REACTORS
330
20CC
102
}
330
20CC
100
AcDbVisualStyle
  2
Dim
 70
    11
177
     3
291
     1
 70
    58
 90
        2
176
     1
 90
        2
176
     1
 90
        0
176
     1
 90
        0
176
     1
 40
0.6
176
     1
 40
30.0
176
     1
 62
     7
420
 16777215
176
     1
 90
        1
176
     1
 90
        4
176
     1
 62
     7
176
     1
 62
   257
176
     1
 90
        1
176
     1
 90
        1
176
     1
 40
1.0
176
     1
 90
        8
176
     1
 62
     7
176
     1
 40
1.0
176
     1
 90
        1
176
     1
 90
        6
176
     1
 90
        2
176
     1
 62
     7
176
     1
 90
        5
176
     1
 90
        0
176
     1
 90
        0
176
     1
290
     0
176
     1
 90
        1
176
     1
 40
-50.0
176
     1
 90
        0
176
     1
290
     0
176
     1
290
     1
176
     1
290
     1
176
     1
290
     0
176
     1
290
     0
176
     1
290
     0
176
     1
290
     0
176
     1
290
     0
176
     1
290
     0
176
     1
 90
       50
176
     1
 40
0.0
176
     1
 40
1.0
176
     1
 90
        0
176
     1
 62
    18
420
        0
176
     1
 90
       50
176
     1
 90
        3
176
     1
 62
     5
420
      255
176
     1
290
     0
176
     1
 90
       50
176
     1
 90
       50
176
     1
 90
       50
176
     1
290
     0
176
     1
 90
       50
176
     1
 62
   256
176
     0
 40
1.0
176
     0
 90
        2
176
     1
  1
strokes_ogs.tif
176
     1
290
     0
176
     1
 40
1.0
176
     1
 40
1.0
176
     1
  0
VISUALSTYLE
  5
20DF
102
{ACAD_REACTORS
330
20CC
102
}
330
20CC
100
AcDbVisualStyle
  2
EdgeColorOff
 70
    22
177
     3
291
     1
 70
    58
 90
        2
176
     0
 90
        2
176
     0
 90
        0
176
     0
 90
        0
176
     0
 40
0.6
176
     0
 40
30.0
176
     0
 62
     7
420
 16777215
176
     0
 90
        1
176
     0
 90
        4
176
     0
 62
     7
176
     0
 62
   257
176
     0
 90
        1
176
     0
 90
        1
176
     0
 40
1.0
176
     0
 90
        8
176
     2
 62
     7
176
     0
 40
1.0
176
     0
 90
        1
176
     0
 90
        6
176
     0
 90
        2
176
     0
 62
     7
176
     0
 90
        5
176
     0
 90
        0
176
     0
 90
        0
176
     0
290
     0
176
     0
 90
        1
176
     0
 40
0.0
176
     0
 90
        0
176
     0
290
     0
176
     0
290
     1
176
     0
290
     1
176
     0
290
     0
176
     0
290
     0
176
     0
290
     0
176
     0
290
     0
176
     0
290
     0
176
     0
290
     0
176
     0
 90
       50
176
     0
 40
0.0
176
     0
 40
1.0
176
     0
 90
        0
176
     0
 62
    18
420
        0
176
     0
 90
       50
176
     0
 90
        3
176
     0
 62
     5
420
      255
176
     0
290
     0
176
     0
 90
       50
176
     0
 90
       50
176
     0
 90
       50
176
     0
290
     0
176
     0
 90
       50
176
     0
 62
   256
176
     0
 40
1.0
176
     0
 90
        2
176
     0
  1
strokes_ogs.tif
176
     0
290
     0
176
     0
 40
1.0
176
     0
 40
1.0
176
     0
  0
VISUALSTYLE
  5
20DB
102
{ACAD_REACTORS
330
20CC
102
}
330
20CC
100
AcDbVisualStyle
  2
Facepattern
 70
    15
177
     3
291
     1
 70
    58
 90
        2
176
     1
 90
        2
176
     1
 90
        0
176
     1
 90
        0
176
     1
 40
0.6
176
     1
 40
30.0
176
     1
 62
     7
420
 16777215
176
     1
 90
        1
176
     1
 90
        4
176
     1
 62
     7
176
     1
 62
   257
176
     1
 90
        1
176
     1
 90
        1
176
     1
 40
1.0
176
     1
 90
        8
176
     1
 62
     7
176
     1
 40
1.0
176
     1
 90
        1
176
     1
 90
        6
176
     1
 90
        2
176
     1
 62
     7
176
     1
 90
        5
176
     1
 90
        0
176
     1
 90
        0
176
     1
290
     0
176
     1
 90
        1
176
     1
 40
0.0
176
     1
 90
        0
176
     1
290
     0
176
     1
290
     1
176
     1
290
     1
176
     1
290
     0
176
     1
290
     0
176
     1
290
     0
176
     1
290
     0
176
     1
290
     0
176
     1
290
     0
176
     1
 90
       50
176
     1
 40
0.0
176
     1
 40
1.0
176
     1
 90
        0
176
     1
 62
    18
420
        0
176
     1
 90
       50
176
     1
 90
        3
176
     1
 62
     5
420
      255
176
     1
290
     0
176
     1
 90
       50
176
     1
 90
       50
176
     1
 90
       50
176
     1
290
     0
176
     1
 90
       50
176
     1
 62
   256
176
     0
 40
1.0
176
     0
 90
        2
176
     1
  1
strokes_ogs.tif
176
     1
290
     0
176
     1
 40
1.0
176
     1
 40
1.0
176
     1
  0
VISUALSTYLE
  5
20CD
102
{ACAD_REACTORS
330
20CC
102
}
330
20CC
100
AcDbVisualStyle
  2
Flat
 70
     0
177
     3
291
     1
 70
    58
 90
        2
176
     1
 90
        1
176
     1
 90
        1
176
     1
 90
        2
176
     1
 40
0.6
176
     1
 40
30.0
176
     1
 62
     7
420
 16777215
176
     1
 90
        0
176
     1
 90
        0
176
     1
 62
     7
176
     1
 62
   257
176
     1
 90
        1
176
     1
 90
        1
176
     1
 40
1.0
176
     1
 90
        8
176
     1
 62
     7
176
     1
 40
1.0
176
     1
 90
        1
176
     1
 90
        6
176
     1
 90
        2
176
     1
 62
     7
176
     1
 90
        5
176
     1
 90
        0
176
     1
 90
        0
176
     1
290
     0
176
     1
 90
       13
176
     1
 40
0.0
176
     1
 90
        0
176
     1
290
     0
176
     1
290
     1
176
     1
290
     1
176
     1
290
     0
176
     1
290
     0
176
     1
290
     0
176
     1
290
     0
176
     1
290
     0
176
     1
290
     0
176
     1
 90
       50
176
     1
 40
0.0
176
     1
 40
1.0
176
     1
 90
        0
176
     1
 62
    18
420
        0
176
     1
 90
       50
176
     1
 90
        3
176
     1
 62
     5
420
      255
176
     1
290
     0
176
     1
 90
       50
176
     1
 90
       50
176
     1
 90
       50
176
     1
290
     0
176
     1
 90
       50
176
     1
 62
   256
176
     0
 40
1.0
176
     0
 90
        2
176
     1
  1
strokes_ogs.tif
176
     1
290
     0
176
     1
 40
1.0
176
     1
 40
1.0
176
     1
  0
VISUALSTYLE
  5
20CE
102
{ACAD_REACTORS
330
20CC
102
}
330
20CC
100
AcDbVisualStyle
  2
FlatWithEdges
 70
     1
177
     3
291
     1
 70
    58
 90
        2
176
     1
 90
        1
176
     1
 90
        1
176
     1
 90
        2
176
     1
 40
0.6
176
     1
 40
30.0
176
     1
 62
     7
420
 16777215
176
     1
 90
        1
176
     1
 90
        0
176
     1
 62
     7
176
     1
 62
   257
176
     1
 90
        1
176
     1
 90
        1
176
     1
 40
1.0
176
     1
 90
        0
176
     1
 62
   257
176
     1
 40
1.0
176
     1
 90
        1
176
     1
 90
        6
176
     1
 90
        2
176
     1
 62
     7
176
     1
 90
        5
176
     1
 90
        0
176
     1
 90
        0
176
     1
290
     0
176
     1
 90
       13
176
     1
 40
0.0
176
     1
 90
        0
176
     1
290
     0
176
     1
290
     1
176
     1
290
     1
176
     1
290
     0
176
     1
290
     0
176
     1
290
     0
176
     1
290
     0
176
     1
290
     0
176
     1
290
     0
176
     1
 90
       50
176
     1
 40
0.0
176
     1
 40
1.0
176
     1
 90
        0
176
     1
 62
    18
420
        0
176
     1
 90
       50
176
     1
 90
        3
176
     1
 62
     5
420
      255
176
     1
290
     0
176
     1
 90
       50
176
     1
 90
       50
176
     1
 90
       50
176
     1
290
     0
176
     1
 90
       50
176
     1
 62
   256
176
     0
 40
1.0
176
     0
 90
        2
176
     1
  1
strokes_ogs.tif
176
     1
290
     0
176
     1
 40
1.0
176
     1
 40
1.0
176
     1
  0
VISUALSTYLE
  5
20CF
102
{ACAD_REACTORS
330
20CC
102
}
330
20CC
100
AcDbVisualStyle
  2
Gouraud
 70
     2
177
     3
291
     1
 70
    58
 90
        2
176
     1
 90
        2
176
     1
 90
        1
176
     1
 90
        2
176
     1
 40
0.6
176
     1
 40
30.0
176
     1
 62
     7
420
 16777215
176
     1
 90
        0
176
     1
 90
        0
176
     1
 62
     7
176
     1
 62
   257
176
     1
 90
        1
176
     1
 90
        1
176
     1
 40
1.0
176
     1
 90
        0
176
     1
 62
     7
176
     1
 40
1.0
176
     1
 90
        1
176
     1
 90
        6
176
     1
 90
        2
176
     1
 62
     7
176
     1
 90
        5
176
     1
 90
        0
176
     1
 90
        0
176
     1
290
     0
176
     1
 90
       13
176
     1
 40
0.0
176
     1
 90
        0
176
     1
290
     0
176
     1
290
     1
176
     1
290
     1
176
     1
290
     0
176
     1
290
     0
176
     1
290
     0
176
     1
290
     0
176
     1
290
     0
176
     1
290
     0
176
     1
 90
       50
176
     1
 40
0.0
176
     1
 40
1.0
176
     1
 90
        0
176
     1
 62
    18
420
        0
176
     1
 90
       50
176
     1
 90
        3
176
     1
 62
     5
420
      255
176
     1
290
     0
176
     1
 90
       50
176
     1
 90
       50
176
     1
 90
       50
176
     1
290
     0
176
     1
 90
       50
176
     1
 62
   256
176
     0
 40
1.0
176
     0
 90
        2
176
     1
  1
strokes_ogs.tif
176
     1
290
     0
176
     1
 40
1.0
176
     1
 40
1.0
176
     1
  0
VISUALSTYLE
  5
20D0
102
{ACAD_REACTORS
330
20CC
102
}
330
20CC
100
AcDbVisualStyle
  2
GouraudWithEdges
 70
     3
177
     3
291
     1
 70
    58
 90
        2
176
     1
 90
        2
176
     1
 90
        1
176
     1
 90
        2
176
     1
 40
0.6
176
     1
 40
30.0
176
     1
 62
     7
420
 16777215
176
     1
 90
        1
176
     1
 90
        0
176
     1
 62
     7
176
     1
 62
   257
176
     1
 90
        1
176
     1
 90
        1
176
     1
 40
1.0
176
     1
 90
        0
176
     1
 62
   257
176
     1
 40
1.0
176
     1
 90
        1
176
     1
 90
        6
176
     1
 90
        2
176
     1
 62
     7
176
     1
 90
        5
176
     1
 90
        0
176
     1
 90
        0
176
     1
290
     0
176
     1
 90
       13
176
     1
 40
0.0
176
     1
 90
        0
176
     1
290
     0
176
     1
290
     1
176
     1
290
     1
176
     1
290
     0
176
     1
290
     0
176
     1
290
     0
176
     1
290
     0
176
     1
290
     0
176
     1
290
     0
176
     1
 90
       50
176
     1
 40
0.0
176
     1
 40
1.0
176
     1
 90
        0
176
     1
 62
    18
420
        0
176
     1
 90
       50
176
     1
 90
        3
176
     1
 62
     5
420
      255
176
     1
290
     0
176
     1
 90
       50
176
     1
 90
       50
176
     1
 90
       50
176
     1
290
     0
176
     1
 90
       50
176
     1
 62
   256
176
     0
 40
1.0
176
     0
 90
        2
176
     1
  1
strokes_ogs.tif
176
     1
290
     0
176
     1
 40
1.0
176
     1
 40
1.0
176
     1
  0
VISUALSTYLE
  5
20D3
102
{ACAD_REACTORS
330
20CC
102
}
330
20CC
100
AcDbVisualStyle
  2
Hidden
 70
     6
177
     3
291
     0
 70
    58
 90
        1
176
     1
 90
        2
176
     1
 90
        2
176
     1
 90
        0
176
     1
 40
0.6
176
     1
 40
30.0
176
     1
 62
     7
420
 16777215
176
     1
 90
        2
176
     1
 90
        2
176
     1
 62
     7
176
     1
 62
   257
176
     1
 90
        2
176
     1
 90
        1
176
     1
 40
40.0
176
     1
 90
        0
176
     1
 62
   257
176
     1
 40
1.0
176
     1
 90
        1
176
     1
 90
        6
176
     1
 90
        2
176
     1
 62
     7
176
     1
 90
        3
176
     1
 90
        0
176
     1
 90
        0
176
     1
290
     0
176
     1
 90
        1
176
     1
 40
0.0
176
     1
 90
        0
176
     1
290
     0
176
     1
290
     1
176
     1
290
     1
176
     1
290
     0
176
     1
290
     0
176
     1
290
     0
176
     1
290
     0
176
     1
290
     0
176
     1
290
     0
176
     1
 90
       50
176
     1
 40
0.0
176
     1
 40
1.0
176
     1
 90
        0
176
     1
 62
    18
420
        0
176
     1
 90
       50
176
     1
 90
        3
176
     1
 62
     5
420
      255
176
     1
290
     0
176
     1
 90
       50
176
     1
 90
       50
176
     1
 90
       50
176
     1
290
     0
176
     1
 90
       50
176
     1
 62
   256
176
     0
 40
1.0
176
     0
 90
        2
176
     1
  1
strokes_ogs.tif
176
     1
290
     0
176
     1
 40
1.0
176
     1
 40
1.0
176
     1
  0
VISUALSTYLE
  5
20DD
102
{ACAD_REACTORS
330
20CC
102
}
330
20CC
100
AcDbVisualStyle
  2
JitterOff
 70
    20
177
     3
291
     1
 70
    58
 90
        2
176
     0
 90
        2
176
     0
 90
        0
176
     0
 90
        0
176
     0
 40
0.6
176
     0
 40
30.0
176
     0
 62
     7
420
 16777215
176
     0
 90
        1
176
     0
 90
        4
176
     0
 62
     7
176
     0
 62
   257
176
     0
 90
        1
176
     0
 90
        1
176
     0
 40
1.0
176
     0
 90
       10
176
     2
 62
     7
176
     0
 40
1.0
176
     0
 90
        1
176
     0
 90
        6
176
     0
 90
        2
176
     0
 62
     7
176
     0
 90
        5
176
     0
 90
        0
176
     0
 90
        0
176
     0
290
     0
176
     0
 90
        1
176
     0
 40
0.0
176
     0
 90
        0
176
     0
290
     0
176
     0
290
     1
176
     0
290
     1
176
     0
290
     0
176
     0
290
     0
176
     0
290
     0
176
     0
290
     0
176
     0
290
     0
176
     0
290
     0
176
     0
 90
       50
176
     0
 40
0.0
176
     0
 40
1.0
176
     0
 90
        0
176
     0
 62
    18
420
        0
176
     0
 90
       50
176
     0
 90
        3
176
     0
 62
     5
420
      255
176
     0
290
     0
176
     0
 90
       50
176
     0
 90
       50
176
     0
 90
       50
176
     0
290
     0
176
     0
 90
       50
176
     0
 62
   256
176
     0
 40
1.0
176
     0
 90
        2
176
     0
  1
strokes_ogs.tif
176
     0
290
     0
176
     0
 40
1.0
176
     0
 40
1.0
176
     0
  0
VISUALSTYLE
  5
20DA
102
{ACAD_REACTORS
330
20CC
102
}
330
20CC
100
AcDbVisualStyle
  2
Linepattern
 70
    14
177
     3
291
     1
 70
    58
 90
        2
176
     1
 90
        2
176
     1
 90
        0
176
     1
 90
        0
176
     1
 40
0.6
176
     1
 40
30.0
176
     1
 62
     7
420
 16777215
176
     1
 90
        1
176
     1
 90
        4
176
     1
 62
     7
176
     1
 62
   257
176
     1
 90
        7
176
     1
 90
        7
176
     1
 40
1.0
176
     1
 90
        8
176
     1
 62
     7
176
     1
 40
1.0
176
     1
 90
        1
176
     1
 90
        6
176
     1
 90
        2
176
     1
 62
     7
176
     1
 90
        5
176
     1
 90
        0
176
     1
 90
        0
176
     1
290
     0
176
     1
 90
        1
176
     1
 40
0.0
176
     1
 90
        0
176
     1
290
     0
176
     1
290
     1
176
     1
290
     1
176
     1
290
     0
176
     1
290
     0
176
     1
290
     0
176
     1
290
     0
176
     1
290
     0
176
     1
290
     0
176
     1
 90
       50
176
     1
 40
0.0
176
     1
 40
1.0
176
     1
 90
        0
176
     1
 62
    18
420
        0
176
     1
 90
       50
176
     1
 90
        3
176
     1
 62
     5
420
      255
176
     1
290
     0
176
     1
 90
       50
176
     1
 90
       50
176
     1
 90
       50
176
     1
290
     0
176
     1
 90
       50
176
     1
 62
   256
176
     0
 40
1.0
176
     0
 90
        2
176
     1
  1
strokes_ogs.tif
176
     1
290
     0
176
     1
 40
1.0
176
     1
 40
1.0
176
     1
  0
VISUALSTYLE
  5
20DE
102
{ACAD_REACTORS
330
20CC
102
}
330
20CC
100
AcDbVisualStyle
  2
OverhangOff
 70
    21
177
     3
291
     1
 70
    58
 90
        2
176
     0
 90
        2
176
     0
 90
        0
176
     0
 90
        0
176
     0
 40
0.6
176
     0
 40
30.0
176
     0
 62
     7
420
 16777215
176
     0
 90
        1
176
     0
 90
        4
176
     0
 62
     7
176
     0
 62
   257
176
     0
 90
        1
176
     0
 90
        1
176
     0
 40
1.0
176
     0
 90
        9
176
     2
 62
     7
176
     0
 40
1.0
176
     0
 90
        1
176
     0
 90
        6
176
     0
 90
        2
176
     0
 62
     7
176
     0
 90
        5
176
     0
 90
        0
176
     0
 90
        0
176
     0
290
     0
176
     0
 90
        1
176
     0
 40
0.0
176
     0
 90
        0
176
     0
290
     0
176
     0
290
     1
176
     0
290
     1
176
     0
290
     0
176
     0
290
     0
176
     0
290
     0
176
     0
290
     0
176
     0
290
     0
176
     0
290
     0
176
     0
 90
       50
176
     0
 40
0.0
176
     0
 40
1.0
176
     0
 90
        0
176
     0
 62
    18
420
        0
176
     0
 90
       50
176
     0
 90
        3
176
     0
 62
     5
420
      255
176
     0
290
     0
176
     0
 90
       50
176
     0
 90
       50
176
     0
 90
       50
176
     0
290
     0
176
     0
 90
       50
176
     0
 62
   256
176
     0
 40
1.0
176
     0
 90
        2
176
     0
  1
strokes_ogs.tif
176
     0
290
     0
176
     0
 40
1.0
176
     0
 40
1.0
176
     0
  0
VISUALSTYLE
  5
20D5
102
{ACAD_REACTORS
330
20CC
102
}
330
20CC
100
AcDbVisualStyle
  2
Realistic
 70
     8
177
     3
291
     0
 70
    58
 90
        2
176
     1
 90
        3
176
     1
 90
        0
176
     1
 90
        2
176
     1
 40
0.6
176
     1
 40
30.0
176
     1
 62
     7
420
 16777215
176
     1
 90
        0
176
     1
 90
        0
176
     1
 62
     7
176
     1
 62
   257
176
     1
 90
        1
176
     1
 90
        1
176
     1
 40
1.0
176
     1
 90
        8
176
     1
 62
   257
176
     1
 40
1.0
176
     1
 90
        1
176
     1
 90
        6
176
     1
 90
        2
176
     1
 62
     7
176
     1
 90
        3
176
     1
 90
        0
176
     1
 90
        0
176
     1
290
     0
176
     1
 90
       13
176
     1
 40
0.0
176
     1
 90
        0
176
     1
290
     0
176
     1
290
     1
176
     1
290
     1
176
     1
290
     0
176
     1
290
     0
176
     1
290
     0
176
     1
290
     0
176
     1
290
     0
176
     1
290
     0
176
     1
 90
       50
176
     1
 40
0.0
176
     1
 40
1.0
176
     1
 90
        0
176
     1
 62
    18
420
        0
176
     1
 90
       50
176
     1
 90
        3
176
     1
 62
     5
420
      255
176
     1
290
     0
176
     1
 90
       50
176
     1
 90
       50
176
     1
 90
       50
176
     1
290
     0
176
     1
 90
       50
176
     1
 62
   256
176
     0
 40
1.0
176
     0
 90
        2
176
     1
  1
strokes_ogs.tif
176
     1
290
     0
176
     1
 40
1.0
176
     1
 40
1.0
176
     1
  0
VISUALSTYLE
  5
20E4
102
{ACAD_REACTORS
330
20CC
102
}
330
20CC
100
AcDbVisualStyle
  2
Shaded
 70
    27
177
     3
291
     0
 70
    58
 90
        2
176
     1
 90
        2
176
     1
 90
        1
176
     1
 90
        2
176
     1
 40
0.6
176
     1
 40
30.0
176
     1
 62
     7
420
 16777215
176
     1
 90
        0
176
     1
 90
        4
176
     1
 62
     7
176
     1
 62
   257
176
     1
 90
        1
176
     1
 90
        1
176
     1
 40
1.0
176
     1
 90
        8
176
     1
 62
   257
176
     1
 40
1.0
176
     1
 90
        1
176
     1
 90
        6
176
     1
 90
        2
176
     1
 62
     8
420
  7895160
176
     1
 90
        3
176
     1
 90
        0
176
     1
 90
        0
176
     1
290
     0
176
     1
 90
        5
176
     1
 40
0.0
176
     1
 90
        0
176
     1
290
     0
176
     1
290
     1
176
     1
290
     1
176
     1
290
     0
176
     1
290
     0
176
     1
290
     0
176
     1
290
     0
176
     1
290
     0
176
     1
290
     0
176
     1
 90
       50
176
     1
 40
0.0
176
     1
 40
1.0
176
     1
 90
        0
176
     1
 62
    18
420
        0
176
     1
 90
       50
176
     1
 90
        3
176
     1
 62
     5
420
      255
176
     1
290
     0
176
     1
 90
       50
176
     1
 90
       50
176
     1
 90
       50
176
     1
290
     0
176
     1
 90
       50
176
     1
 62
   256
176
     0
 40
1.0
176
     0
 90
        2
176
     1
  1
strokes_ogs.tif
176
     1
290
     0
176
     1
 40
1.0
176
     1
 40
1.0
176
     1
  0
VISUALSTYLE
  5
20E3
102
{ACAD_REACTORS
330
20CC
102
}
330
20CC
100
AcDbVisualStyle
  2
Shaded with edges
 70
    26
177
     3
291
     0
 70
    58
 90
        2
176
     1
 90
        2
176
     1
 90
        1
176
     1
 90
        2
176
     1
 40
0.6
176
     1
 40
30.0
176
     1
 62
     7
420
 16777215
176
     1
 90
        1
176
     1
 90
       10
176
     1
 62
     7
176
     1
 62
   257
176
     1
 90
        2
176
     1
 90
        1
176
     1
 40
1.0
176
     1
 90
        8
176
     1
 62
   257
176
     1
 40
1.0
176
     1
 90
        1
176
     1
 90
        6
176
     1
 90
        2
176
     1
 62
     7
176
     1
 90
        3
176
     1
 90
        0
176
     1
 90
        0
176
     1
290
     0
176
     1
 90
        5
176
     1
 40
0.0
176
     1
 90
        0
176
     1
290
     0
176
     1
290
     1
176
     1
290
     1
176
     1
290
     0
176
     1
290
     0
176
     1
290
     0
176
     1
290
     0
176
     1
290
     0
176
     1
290
     0
176
     1
 90
       50
176
     1
 40
0.0
176
     1
 40
1.0
176
     1
 90
        0
176
     1
 62
    18
420
        0
176
     1
 90
       50
176
     1
 90
        3
176
     1
 62
     5
420
      255
176
     1
290
     0
176
     1
 90
       50
176
     1
 90
       50
176
     1
 90
       50
176
     1
290
     0
176
     1
 90
       50
176
     1
 62
   256
176
     0
 40
1.0
176
     0
 90
        2
176
     1
  1
strokes_ogs.tif
176
     1
290
     0
176
     1
 40
1.0
176
     1
 40
1.0
176
     1
  0
VISUALSTYLE
  5
20E0
102
{ACAD_REACTORS
330
20CC
102
}
330
20CC
100
AcDbVisualStyle
  2
Shades of Gray
 70
    23
177
     3
291
     0
 70
    58
 90
        2
176
     1
 90
        2
176
     1
 90
        3
176
     1
 90
        0
176
     1
 40
0.6
176
     1
 40
30.0
176
     1
 62
     7
420
 16777215
176
     1
 90
        2
176
     1
 90
        2
176
     1
 62
     7
176
     1
 62
     7
176
     1
 90
        1
176
     1
 90
        1
176
     1
 40
40.0
176
     1
 90
        8
176
     1
 62
     7
176
     1
 40
1.0
176
     1
 90
        1
176
     1
 90
        6
176
     1
 90
        2
176
     1
 62
     7
176
     1
 90
        3
176
     1
 90
        0
176
     1
 90
        0
176
     1
290
     0
176
     1
 90
        1
176
     1
 40
0.0
176
     1
 90
        0
176
     1
290
     0
176
     1
290
     1
176
     1
290
     1
176
     1
290
     0
176
     1
290
     0
176
     1
290
     0
176
     1
290
     0
176
     1
290
     0
176
     1
290
     0
176
     1
 90
       50
176
     1
 40
0.0
176
     1
 40
1.0
176
     1
 90
        0
176
     1
 62
    18
420
        0
176
     1
 90
       50
176
     1
 90
        3
176
     1
 62
     5
420
      255
176
     1
290
     0
176
     1
 90
       50
176
     1
 90
       50
176
     1
 90
       50
176
     1
290
     0
176
     1
 90
       50
176
     1
 62
   256
176
     0
 40
1.0
176
     0
 90
        2
176
     1
  1
strokes_ogs.tif
176
     1
290
     0
176
     1
 40
1.0
176
     1
 40
1.0
176
     1
  0
VISUALSTYLE
  5
20E1
102
{ACAD_REACTORS
330
20CC
102
}
330
20CC
100
AcDbVisualStyle
  2
Sketchy
 70
    24
177
     3
291
     0
 70
    58
 90
        1
176
     1
 90
        2
176
     1
 90
        2
176
     1
 90
        0
176
     1
 40
0.6
176
     1
 40
30.0
176
     1
 62
     7
420
 16777215
176
     1
 90
        2
176
     1
 90
        2
176
     1
 62
     7
176
     1
 62
     7
176
     1
 90
        1
176
     1
 90
        1
176
     1
 40
40.0
176
     1
 90
       11
176
     1
 62
     7
176
     1
 40
1.0
176
     1
 90
        1
176
     1
 90
        6
176
     1
 90
        2
176
     1
 62
     7
176
     1
 90
        6
176
     1
 90
        0
176
     1
 90
        0
176
     1
290
     0
176
     1
 90
        1
176
     1
 40
0.0
176
     1
 90
        0
176
     1
290
     0
176
     1
290
     1
176
     1
290
     1
176
     1
290
     0
176
     1
290
     0
176
     1
290
     0
176
     1
290
     0
176
     1
290
     0
176
     1
290
     0
176
     1
 90
       50
176
     1
 40
0.0
176
     1
 40
1.0
176
     1
 90
        0
176
     1
 62
    18
420
        0
176
     1
 90
       50
176
     1
 90
        3
176
     1
 62
     5
420
      255
176
     1
290
     0
176
     1
 90
       50
176
     1
 90
       50
176
     1
 90
       50
176
     1
290
     0
176
     1
 90
       50
176
     1
 62
   256
176
     0
 40
1.0
176
     0
 90
        2
176
     1
  1
strokes_ogs.tif
176
     1
290
     0
176
     1
 40
1.0
176
     1
 40
1.0
176
     1
  0
VISUALSTYLE
  5
20D9
102
{ACAD_REACTORS
330
20CC
102
}
330
20CC
100
AcDbVisualStyle
  2
Thicken
 70
    13
177
     3
291
     1
 70
    58
 90
        2
176
     1
 90
        2
176
     1
 90
        0
176
     1
 90
        0
176
     1
 40
0.6
176
     1
 40
30.0
176
     1
 62
     7
420
 16777215
176
     1
 90
        1
176
     1
 90
        4
176
     1
 62
     7
176
     1
 62
   257
176
     1
 90
        1
176
     1
 90
        1
176
     1
 40
1.0
176
     1
 90
       12
176
     1
 62
     7
176
     1
 40
1.0
176
     1
 90
        1
176
     1
 90
        6
176
     1
 90
        2
176
     1
 62
     7
176
     1
 90
        5
176
     1
 90
        0
176
     1
 90
        0
176
     1
290
     0
176
     1
 90
        1
176
     1
 40
0.0
176
     1
 90
        0
176
     1
290
     0
176
     1
290
     1
176
     1
290
     1
176
     1
290
     0
176
     1
290
     0
176
     1
290
     0
176
     1
290
     0
176
     1
290
     0
176
     1
290
     0
176
     1
 90
       50
176
     1
 40
0.0
176
     1
 40
1.0
176
     1
 90
        0
176
     1
 62
    18
420
        0
176
     1
 90
       50
176
     1
 90
        3
176
     1
 62
     5
420
      255
176
     1
290
     0
176
     1
 90
       50
176
     1
 90
       50
176
     1
 90
       50
176
     1
290
     0
176
     1
 90
       50
176
     1
 62
   256
176
     0
 40
1.0
176
     0
 90
        2
176
     1
  1
strokes_ogs.tif
176
     1
290
     0
176
     1
 40
1.0
176
     1
 40
1.0
176
     1
  0
VISUALSTYLE
  5
20D2
102
{ACAD_REACTORS
330
20CC
102
}
330
20CC
100
AcDbVisualStyle
  2
Wireframe
 70
     5
177
     3
291
     0
 70
    58
 90
        0
176
     1
 90
        2
176
     1
 90
        0
176
     1
 90
        0
176
     1
 40
0.6
176
     1
 40
30.0
176
     1
 62
     7
420
 16777215
176
     1
 90
        1
176
     1
 90
        4
176
     1
 62
     7
176
     1
 62
   257
176
     1
 90
        1
176
     1
 90
        1
176
     1
 40
1.0
176
     1
 90
        0
176
     1
 62
   257
176
     1
 40
1.0
176
     1
 90
        1
176
     1
 90
        6
176
     1
 90
        2
176
     1
 62
     7
176
     1
 90
        3
176
     1
 90
        0
176
     1
 90
        0
176
     1
290
     0
176
     1
 90
        1
176
     1
 40
0.0
176
     1
 90
        0
176
     1
290
     0
176
     1
290
     1
176
     1
290
     1
176
     1
290
     0
176
     1
290
     0
176
     1
290
     0
176
     1
290
     0
176
     1
290
     0
176
     1
290
     0
176
     1
 90
       50
176
     1
 40
0.0
176
     1
 40
1.0
176
     1
 90
        0
176
     1
 62
    18
420
        0
176
     1
 90
       50
176
     1
 90
        3
176
     1
 62
     5
420
      255
176
     1
290
     0
176
     1
 90
       50
176
     1
 90
       50
176
     1
 90
       50
176
     1
290
     0
176
     1
 90
       50
176
     1
 62
   256
176
     0
 40
1.0
176
     0
 90
        2
176
     1
  1
strokes_ogs.tif
176
     1
290
     0
176
     1
 40
1.0
176
     1
 40
1.0
176
     1
  0
VISUALSTYLE
  5
20E2
102
{ACAD_REACTORS
330
20CC
102
}
330
20CC
100
AcDbVisualStyle
  2
X-Ray
 70
    25
177
     3
291
     0
 70
    58
 90
        2
176
     1
 90
        2
176
     1
 90
        1
176
     1
 90
        1
176
     1
 40
0.5
176
     1
 40
30.0
176
     1
 62
     7
420
 16777215
176
     1
 90
        1
176
     1
 90
        0
176
     1
 62
     7
176
     1
 62
   257
176
     1
 90
        1
176
     1
 90
        1
176
     1
 40
1.0
176
     1
 90
        8
176
     1
 62
     7
176
     1
 40
1.0
176
     1
 90
        1
176
     1
 90
        6
176
     1
 90
        2
176
     1
 62
     7
176
     1
 90
        3
176
     1
 90
        0
176
     1
 90
        0
176
     1
290
     0
176
     1
 90
       13
176
     1
 40
0.0
176
     1
 90
        0
176
     1
290
     0
176
     1
290
     1
176
     1
290
     1
176
     1
290
     0
176
     1
290
     0
176
     1
290
     0
176
     1
290
     0
176
     1
290
     0
176
     1
290
     0
176
     1
 90
       50
176
     1
 40
0.0
176
     1
 40
1.0
176
     1
 90
        0
176
     1
 62
    18
420
        0
176
     1
 90
       50
176
     1
 90
        3
176
     1
 62
     5
420
      255
176
     1
290
     0
176
     1
 90
       50
176
     1
 90
       50
176
     1
 90
       50
176
     1
290
     0
176
     1
 90
       50
176
     1
 62
   256
176
     0
 40
1.0
176
     0
 90
        2
176
     1
  1
strokes_ogs.tif
176
     1
290
     0
176
     1
 40
1.0
176
     1
 40
1.0
176
     1
  0
DICTIONARYVAR
  5
2178
102
{ACAD_REACTORS
330
2177
102
}
330
2177
100
DictionaryVariables
280
     0
  1
1:1
  0
DICTIONARYVAR
  5
217D
102
{ACAD_REACTORS
330
2177
102
}
330
2177
100
DictionaryVariables
280
     0
  1
Standard
  0
DICTIONARYVAR
  5
217C
102
{ACAD_REACTORS
330
2177
102
}
330
2177
100
DictionaryVariables
280
     0
  1
Standard
  0
XRECORD
  5
2103
102
{ACAD_REACTORS
330
2101
102
}
330
2101
100
AcDbXrecord
280
     1
1000
#ffffff
  0
XRECORD
  5
2104
102
{ACAD_REACTORS
330
2101
102
}
330
2101
100
AcDbXrecord
280
     1
1000
FullColor
  0
XRECORD
  5
2105
102
{ACAD_REACTORS
330
2101
102
}
330
2101
100
AcDbXrecord
280
     1
290
     1
  0
XRECORD
  5
2106
102
{ACAD_REACTORS
330
2101
102
}
330
2101
100
AcDbXrecord
280
     1
290
     1
  0
XRECORD
  5
2107
102
{ACAD_REACTORS
330
2101
102
}
330
2101
100
AcDbXrecord
280
     1
290
     1
  0
XRECORD
  5
2108
102
{ACAD_REACTORS
330
2101
102
}
330
2101
100
AcDbXrecord
280
     1
290
     1
  0
XRECORD
  5
2109
102
{ACAD_REACTORS
330
2101
102
}
330
2101
100
AcDbXrecord
280
     1
1000
auto
  0
XRECORD
  5
210A
102
{ACAD_REACTORS
330
2101
102
}
330
2101
100
AcDbXrecord
280
     1
1000
auto
  0
XRECORD
  5
210B
102
{ACAD_REACTORS
330
2101
102
}
330
2101
100
AcDbXrecord
280
     1
1000
auto
  0
XRECORD
  5
210C
102
{ACAD_REACTORS
330
2101
102
}
330
2101
100
AcDbXrecord
280
     1
1000
auto
  0
XRECORD
  5
210D
102
{ACAD_REACTORS
330
2101
102
}
330
2101
100
AcDbXrecord
280
     1
1000
auto
  0
XRECORD
  5
210E
102
{ACAD_REACTORS
330
2101
102
}
330
2101
100
AcDbXrecord
280
     1
1000
auto
  0
XRECORD
  5
210F
102
{ACAD_REACTORS
330
2101
102
}
330
2101
100
AcDbXrecord
280
     1
1000
auto
  0
XRECORD
  5
2110
102
{ACAD_REACTORS
330
2101
102
}
330
2101
100
AcDbXrecord
280
     1
1000
auto
  0
XRECORD
  5
2111
102
{ACAD_REACTORS
330
2101
102
}
330
2101
100
AcDbXrecord
280
     1
290
     0
  0
XRECORD
  5
2112
102
{ACAD_REACTORS
330
2101
102
}
330
2101
100
AcDbXrecord
280
     1
290
     0
  0
XRECORD
  5
2113
102
{ACAD_REACTORS
330
2101
102
}
330
2101
100
AcDbXrecord
280
     1
290
     0
  0
XRECORD
  5
2114
102
{ACAD_REACTORS
330
2101
102
}
330
2101
100
AcDbXrecord
280
     1
290
     0
  0
XRECORD
  5
2115
102
{ACAD_REACTORS
330
2101
102
}
330
2101
100
AcDbXrecord
280
     1
 90
    65537
  0
XRECORD
  5
2116
102
{ACAD_REACTORS
330
2101
102
}
330
2101
100
AcDbXrecord
280
     1
 90
    65537
  0
XRECORD
  5
2117
102
{ACAD_REACTORS
330
2101
102
}
330
2101
100
AcDbXrecord
280
     1
 90
    65537
  0
XRECORD
  5
2118
102
{ACAD_REACTORS
330
2101
102
}
330
2101
100
AcDbXrecord
280
     1
 90
    65537
  0
XRECORD
  5
2119
102
{ACAD_REACTORS
330
2101
102
}
330
2101
100
AcDbXrecord
280
     1
1000
auto
  0
XRECORD
  5
211A
102
{ACAD_REACTORS
330
2101
102
}
330
2101
100
AcDbXrecord
280
     1
1000
auto
  0
XRECORD
  5
211B
102
{ACAD_REACTORS
330
2101
102
}
330
2101
100
AcDbXrecord
280
     1
1000
auto
  0
XRECORD
  5
211C
102
{ACAD_REACTORS
330
2101
102
}
330
2101
100
AcDbXrecord
280
     1
1000
auto
  0
XRECORD
  5
211D
102
{ACAD_REACTORS
330
2101
102
}
330
2101
100
AcDbXrecord
280
     1
1000
auto
  0
XRECORD
  5
211E
102
{ACAD_REACTORS
330
2101
102
}
330
2101
100
AcDbXrecord
280
     1
1000
auto
  0
XRECORD
  5
211F
102
{ACAD_REACTORS
330
2101
102
}
330
2101
100
AcDbXrecord
280
     1
1000
auto
  0
XRECORD
  5
2120
102
{ACAD_REACTORS
330
2101
102
}
330
2101
100
AcDbXrecord
280
     1
1000
auto
  0
XRECORD
  5
2121
102
{ACAD_REACTORS
330
2101
102
}
330
2101
100
AcDbXrecord
280
     1
 90
        1
  0
XRECORD
  5
2122
102
{ACAD_REACTORS
330
2101
102
}
330
2101
100
AcDbXrecord
280
     1
 40
10.0
  0
XRECORD
  5
2123
102
{ACAD_REACTORS
330
2101
102
}
330
2101
100
AcDbXrecord
280
     1
 40
10.0
  0
XRECORD
  5
2124
102
{ACAD_REACTORS
330
2101
102
}
330
2101
100
AcDbXrecord
280
     1
 40
10.0
  0
XRECORD
  5
2125
102
{ACAD_REACTORS
330
2101
102
}
330
2101
100
AcDbXrecord
280
     1
 40
10.0
  0
XRECORD
  5
2126
102
{ACAD_REACTORS
330
2101
102
}
330
2101
100
AcDbXrecord
280
     1
290
     0
  0
XRECORD
  5
2127
102
{ACAD_REACTORS
330
2101
102
}
330
2101
100
AcDbXrecord
280
     1
 90
        1
  0
XRECORD
  5
2128
102
{ACAD_REACTORS
330
2101
102
}
330
2101
100
AcDbXrecord
280
     1
 40
54.00053522503728
  0
XRECORD
  5
2129
102
{ACAD_REACTORS
330
2101
102
}
330
2101
100
AcDbXrecord
280
     1
 40
-137.6068160537974
  0
XRECORD
  5
212A
102
{ACAD_REACTORS
330
2101
102
}
330
2101
100
AcDbXrecord
280
     1
1000
Portrait
  0
XRECORD
  5
212B
102
{ACAD_REACTORS
330
2101
102
}
330
2101
100
AcDbXrecord
280
     1
 40
297.0
  0
XRECORD
  5
212C
102
{ACAD_REACTORS
330
2101
102
}
330
2101
100
AcDbXrecord
280
     1
 40
210.0
  0
XRECORD
  5
212D
102
{ACAD_REACTORS
330
2101
102
}
330
2101
100
AcDbXrecord
280
     1
1000
0.76
  0
XRECORD
  5
212E
102
{ACAD_REACTORS
330
2101
102
}
330
2101
100
AcDbXrecord
280
     1
290
     1
  0
XRECORD
  5
212F
102
{ACAD_REACTORS
330
2101
102
}
330
2101
100
AcDbXrecord
280
     1
290
     0
  0
XRECORD
  5
2130
102
{ACAD_REACTORS
330
2101
102
}
330
2101
100
AcDbXrecord
280
     1
1000
Inside
  0
XRECORD
  5
2131
102
{ACAD_REACTORS
330
2101
102
}
330
2101
100
AcDbXrecord
280
     1
1000
Arial,10,-1,5,50,0,0,0,0,0
  0
XRECORD
  5
2132
102
{ACAD_REACTORS
330
2101
102
}
330
2101
100
AcDbXrecord
280
     1
1000
TopLeft
  0
XRECORD
  5
2133
102
{ACAD_REACTORS
330
2101
102
}
330
2101
100
AcDbXrecord
280
     1
1000
3.32.0
  0
XRECORD
  5
2134
102
{ACAD_REACTORS
330
2101
102
}
330
2101
100
AcDbXrecord
280
     1
 90
        4
  0
XRECORD
  5
2135
102
{ACAD_REACTORS
330
2101
102
}
330
2101
100
AcDbXrecord
280
     1
  0
XRECORD
  5
2136
102
{ACAD_REACTORS
330
2101
102
}
330
2101
100
AcDbXrecord
280
     1
 40
356.3864942528735
  0
XRECORD
  5
2137
102
{ACAD_REACTORS
330
2101
102
}
330
2101
100
AcDbXrecord
280
     1
 40
718.5057471264367
  0
DICTIONARY
  5
2179
330
20FC
100
AcDbDictionary
280
     1
281
     1
  3
ACAD_ROUNDTRIP_2008_TABLESTYLE_CELLSTYLEMAP
360
217A
  0
CELLSTYLEMAP
  5
217A
102
{ACAD_REACTORS
330
2179
102
}
330
2179
100
AcDbCellStyleMap
 90
        3
300
CELLSTYLE
  1
TABLEFORMAT_BEGIN
 90
        5
170
     1
 91
        0
 92
    32768
 62
   257
 93
        1
300
CONTENTFORMAT
  1
CONTENTFORMAT_BEGIN
 90
        0
 91
        0
 92
        4
 93
        0
300

 40
0.0
140
1.0
 94
        5
 62
     0
340
20B4
144
0.25
309
CONTENTFORMAT_END
171
     1
301
MARGIN
  1
CELLMARGIN_BEGIN
 40
0.06
 40
0.06
 40
0.06
 40
0.06
 40
0.06
 40
0.06
309
CELLMARGIN_END
 94
        6
 95
        1
302
GRIDFORMAT
  1
GRIDFORMAT_BEGIN
 90
        0
 91
        1
 62
     0
 92
       -2
340
20B6
 93
        0
 40
0.045
309
GRIDFORMAT_END
 95
        2
302
GRIDFORMAT
  1
GRIDFORMAT_BEGIN
 90
        0
 91
        1
 62
     0
 92
       -2
340
20B6
 93
        0
 40
0.045
309
GRIDFORMAT_END
 95
        4
302
GRIDFORMAT
  1
GRIDFORMAT_BEGIN
 90
        0
 91
        1
 62
     0
 92
       -2
340
20B6
 93
        0
 40
0.045
309
GRIDFORMAT_END
 95
        8
302
GRIDFORMAT
  1
GRIDFORMAT_BEGIN
 90
        0
 91
        1
 62
     0
 92
       -2
340
20B6
 93
        0
 40
0.045
309
GRIDFORMAT_END
 95
       16
302
GRIDFORMAT
  1
GRIDFORMAT_BEGIN
 90
        0
 91
        1
 62
     0
 92
       -2
340
20B6
 93
        0
 40
0.045
309
GRIDFORMAT_END
 95
       32
302
GRIDFORMAT
  1
GRIDFORMAT_BEGIN
 90
        0
 91
        1
 62
     0
 92
       -2
340
20B6
 93
        0
 40
0.045
309
GRIDFORMAT_END
309
TABLEFORMAT_END
  1
CELLSTYLE_BEGIN
 90
        1
 91
        1
300
_TITLE
309
CELLSTYLE_END
300
CELLSTYLE
  1
TABLEFORMAT_BEGIN
 90
        5
170
     1
 91
        0
 92
        0
 62
   257
 93
        1
300
CONTENTFORMAT
  1
CONTENTFORMAT_BEGIN
 90
        0
 91
        0
 92
        4
 93
        0
300

 40
0.0
140
1.0
 94
        5
 62
     0
340
20B4
144
0.18
309
CONTENTFORMAT_END
171
     1
301
MARGIN
  1
CELLMARGIN_BEGIN
 40
0.06
 40
0.06
 40
0.06
 40
0.06
 40
0.06
 40
0.06
309
CELLMARGIN_END
 94
        6
 95
        1
302
GRIDFORMAT
  1
GRIDFORMAT_BEGIN
 90
        0
 91
        1
 62
     0
 92
       -2
340
20B6
 93
        0
 40
0.045
309
GRIDFORMAT_END
 95
        2
302
GRIDFORMAT
  1
GRIDFORMAT_BEGIN
 90
        0
 91
        1
 62
     0
 92
       -2
340
20B6
 93
        0
 40
0.045
309
GRIDFORMAT_END
 95
        4
302
GRIDFORMAT
  1
GRIDFORMAT_BEGIN
 90
        0
 91
        1
 62
     0
 92
       -2
340
20B6
 93
        0
 40
0.045
309
GRIDFORMAT_END
 95
        8
302
GRIDFORMAT
  1
GRIDFORMAT_BEGIN
 90
        0
 91
        1
 62
     0
 92
       -2
340
20B6
 93
        0
 40
0.045
309
GRIDFORMAT_END
 95
       16
302
GRIDFORMAT
  1
GRIDFORMAT_BEGIN
 90
        0
 91
        1
 62
     0
 92
       -2
340
20B6
 93
        0
 40
0.045
309
GRIDFORMAT_END
 95
       32
302
GRIDFORMAT
  1
GRIDFORMAT_BEGIN
 90
        0
 91
        1
 62
     0
 92
       -2
340
20B6
 93
        0
 40
0.045
309
GRIDFORMAT_END
309
TABLEFORMAT_END
  1
CELLSTYLE_BEGIN
 90
        2
 91
        1
300
_HEADER
309
CELLSTYLE_END
300
CELLSTYLE
  1
TABLEFORMAT_BEGIN
 90
        5
170
     1
 91
        0
 92
        0
 62
   257
 93
        1
300
CONTENTFORMAT
  1
CONTENTFORMAT_BEGIN
 90
        0
 91
        0
 92
        4
 93
        0
300

 40
0.0
140
1.0
 94
        2
 62
     0
340
20B4
144
0.18
309
CONTENTFORMAT_END
171
     1
301
MARGIN
  1
CELLMARGIN_BEGIN
 40
0.06
 40
0.06
 40
0.06
 40
0.06
 40
0.06
 40
0.06
309
CELLMARGIN_END
 94
        6
 95
        1
302
GRIDFORMAT
  1
GRIDFORMAT_BEGIN
 90
        0
 91
        1
 62
     0
 92
       -2
340
20B6
 93
        0
 40
0.045
309
GRIDFORMAT_END
 95
        2
302
GRIDFORMAT
  1
GRIDFORMAT_BEGIN
 90
        0
 91
        1
 62
     0
 92
       -2
340
20B6
 93
        0
 40
0.045
309
GRIDFORMAT_END
 95
        4
302
GRIDFORMAT
  1
GRIDFORMAT_BEGIN
 90
        0
 91
        1
 62
     0
 92
       -2
340
20B6
 93
        0
 40
0.045
309
GRIDFORMAT_END
 95
        8
302
GRIDFORMAT
  1
GRIDFORMAT_BEGIN
 90
        0
 91
        1
 62
     0
 92
       -2
340
20B6
 93
        0
 40
0.045
309
GRIDFORMAT_END
 95
       16
302
GRIDFORMAT
  1
GRIDFORMAT_BEGIN
 90
        0
 91
        1
 62
     0
 92
       -2
340
20B6
 93
        0
 40
0.045
309
GRIDFORMAT_END
 95
       32
302
GRIDFORMAT
  1
GRIDFORMAT_BEGIN
 90
        0
 91
        1
 62
     0
 92
       -2
340
20B6
 93
        0
 40
0.045
309
GRIDFORMAT_END
309
TABLEFORMAT_END
  1
CELLSTYLE_BEGIN
 90
        3
 91
        2
300
_DATA
309
CELLSTYLE_END
  0
ENDSEC
  0
EOF
